<svg width="157" height="66" viewBox="0 0 157 66" fill="none" xmlns="http://www.w3.org/2000/svg">
<path fill-rule="evenodd" clip-rule="evenodd" d="M0 0V28.803H32.0382V0H0ZM23.7029 5.12252H22.984C22.4897 5.12252 22.1302 5.30226 21.9055 5.6842C21.6809 6.06615 21.5685 6.65029 21.5685 7.43665V17.7266C21.5685 19.8161 20.9619 21.4562 19.7711 22.6469C18.5579 23.8377 16.7381 24.4443 14.2891 24.4443C12.02 24.4443 10.2226 23.8377 8.87455 22.6245C7.52652 21.4113 6.8525 19.7262 6.8525 17.5918V5.12252H4.69565V4.62825H13.3905V5.12252H11.1437V17.2324C11.1437 19.2544 11.4807 20.8046 12.1548 21.8606C12.8288 22.9166 14.0869 23.4558 15.9742 23.4558C17.3896 23.4558 18.5579 22.984 19.5015 22.0179C20.4452 21.0518 20.917 19.6813 20.917 17.8839V7.41418C20.917 6.58289 20.7822 5.99875 20.5126 5.63927C20.243 5.27979 19.7711 5.10006 19.0747 5.10006H18.2658V4.60578H23.7254V5.10006L23.7029 5.12252ZM28.084 23.7478C27.7021 24.1298 27.2527 24.3095 26.691 24.3095C26.1294 24.3095 25.68 24.1298 25.3205 23.7478C24.9386 23.3659 24.7589 22.9166 24.7589 22.3549C24.7589 21.7932 24.9386 21.3438 25.3205 20.9619C25.7025 20.58 26.1743 20.4002 26.691 20.4002C27.2078 20.4002 27.7021 20.6024 28.084 20.9619C28.466 21.3438 28.6457 21.7932 28.6457 22.3549C28.6457 22.9166 28.466 23.3659 28.084 23.7478Z" fill="#143109"/>
<path fill-rule="evenodd" clip-rule="evenodd" d="M38.4856 5.01038H35.7671V4.56104H43.6306C45.8549 4.56104 47.6298 4.98791 48.9329 5.84167C50.2584 6.69542 50.91 8.06592 50.91 9.95317C50.91 11.8404 50.2135 13.121 48.843 13.9973C47.45 14.896 45.8099 15.3453 43.9227 15.3453C42.8218 15.3453 41.968 15.188 41.339 14.8735V23.5683H44.1474V24.0176H35.7896V23.5683H38.5081V5.01038H38.4856ZM41.294 14.3343C41.5412 14.4915 41.8332 14.6263 42.2152 14.7387C42.5971 14.851 43.0015 14.9184 43.4059 14.9184C44.5742 14.9184 45.6077 14.5589 46.5289 13.8175C47.45 13.0761 47.9219 11.8853 47.9219 10.2003C47.9219 8.40293 47.495 7.09983 46.6862 6.26854C45.8549 5.43726 44.6192 5.01038 42.9791 5.01038H41.294V14.3343Z" fill="#143109"/>
<path fill-rule="evenodd" clip-rule="evenodd" d="M62.0989 4.15479C64.4355 4.15479 66.48 5.14334 68.21 7.12046C69.9624 9.09757 70.8161 11.4791 70.8161 14.2875C70.8161 17.0959 69.9624 19.4774 68.2549 21.4545C66.5249 23.4316 64.4804 24.4202 62.0989 24.4202C59.7173 24.4202 57.7402 23.4316 55.9878 21.4545C54.2578 19.4774 53.3816 17.0734 53.3816 14.2875C53.3816 11.5016 54.2353 9.0751 55.9653 7.12046C57.6728 5.14334 59.7173 4.15479 62.0989 4.15479ZM62.0989 23.9933C63.6042 23.9933 64.75 23.4766 65.5813 22.4431C66.4126 21.4096 66.9743 20.1739 67.2439 18.7585C67.5359 17.343 67.6707 15.8602 67.6707 14.31C67.6707 12.7597 67.5359 11.2095 67.2663 9.81652C66.9967 8.42355 66.4575 7.21033 65.6262 6.17683C64.7949 5.14334 63.6266 4.6266 62.0764 4.6266C60.5262 4.6266 59.4253 5.14334 58.6165 6.17683C57.7852 7.21033 57.2235 8.44602 56.9539 9.86146C56.6618 11.2769 56.527 12.7822 56.527 14.31C56.527 15.8377 56.6618 17.4104 56.9314 18.8034C57.201 20.1964 57.7402 21.4096 58.5715 22.4431C59.4028 23.4766 60.5711 23.9933 62.0989 23.9933Z" fill="#143109"/>
<path fill-rule="evenodd" clip-rule="evenodd" d="M75.5355 5.01038H72.772V4.56104H81.2421C83.2192 4.56104 84.7919 4.89804 86.0276 5.57206C87.2633 6.26854 87.8475 7.54917 87.8475 9.45889C87.8475 10.9417 87.2409 12.0201 86.0276 12.6942C84.8144 13.3457 83.4664 13.7726 81.9386 13.9748C83.6911 14.1545 84.9492 14.5589 85.7356 15.1431C86.5219 15.7497 87.0162 16.8955 87.2184 18.6255L87.6004 21.9956C87.6902 22.6921 87.87 23.1639 88.1396 23.3886C88.4092 23.6132 88.7012 23.7256 89.0383 23.7256C89.3303 23.7256 89.7123 23.6357 90.1616 23.456L90.3189 23.8154C90.0268 23.9278 89.7123 24.0176 89.3303 24.085C88.9708 24.1524 88.544 24.1749 88.0497 24.1749C86.5219 24.1749 85.5334 23.8154 85.1065 23.119C84.6796 22.4225 84.3426 21.1194 84.0955 19.2097L83.8933 17.5471C83.7809 16.4911 83.4888 15.6598 82.9721 15.0982C82.4554 14.5365 81.5117 14.2444 80.0963 14.2444H78.2989V23.5683H81.1073V24.0176H72.7271V23.5683H75.4905V5.01038H75.5355ZM78.3439 13.8175H79.7144C81.4219 13.8175 82.7025 13.4805 83.5787 12.8065C84.4325 12.1325 84.8593 11.0316 84.8593 9.48135C84.8593 8.15579 84.5223 7.07736 83.8708 6.26854C83.2192 5.43726 81.9835 5.03285 80.2086 5.03285H78.3439V13.84V13.8175Z" fill="#143109"/>
<path fill-rule="evenodd" clip-rule="evenodd" d="M98.3384 5.01038H97.7542C95.2604 5.01038 93.6203 5.32492 92.8789 5.954C92.115 6.58308 91.7555 8.02099 91.7555 10.2677H91.3062V4.56104H108.179V10.2677H107.73C107.73 8.04345 107.348 6.60555 106.606 5.954C105.865 5.30245 104.225 4.98791 101.753 4.98791H101.147V23.5458H103.978V23.9952H95.4851V23.5458H98.3384V5.01038Z" fill="#143109"/>
<path fill-rule="evenodd" clip-rule="evenodd" d="M118.896 4.15479C121.233 4.15479 123.277 5.14334 125.007 7.12046C126.737 9.09757 127.613 11.4791 127.613 14.2875C127.613 17.0959 126.76 19.4774 125.03 21.4545C123.322 23.4316 121.278 24.4202 118.896 24.4202C116.514 24.4202 114.537 23.4316 112.785 21.4545C111.055 19.4774 110.179 17.0734 110.179 14.2875C110.179 11.5016 111.032 9.0751 112.762 7.12046C114.47 5.14334 116.514 4.15479 118.896 4.15479ZM118.896 23.9933C120.401 23.9933 121.547 23.4766 122.378 22.4431C123.21 21.4096 123.749 20.1739 124.041 18.7585C124.333 17.343 124.468 15.8602 124.468 14.31C124.468 12.7597 124.333 11.2095 124.063 9.81652C123.794 8.42355 123.255 7.21033 122.423 6.17683C121.592 5.14334 120.424 4.6266 118.896 4.6266C117.368 4.6266 116.245 5.14334 115.436 6.17683C114.605 7.21033 114.043 8.44602 113.773 9.86146C113.481 11.2769 113.347 12.7822 113.347 14.31C113.347 15.8377 113.481 17.4104 113.751 18.8034C114.021 20.1964 114.56 21.4096 115.391 22.4431C116.222 23.4766 117.391 23.9933 118.918 23.9933H118.896Z" fill="#143109"/>
<path fill-rule="evenodd" clip-rule="evenodd" d="M41.6547 54.5734V50.5068H40.8908V54.3263C40.8908 55.0901 40.8459 55.3148 40.5313 55.6294C40.2168 55.9664 39.7674 56.1686 39.2282 56.1686C38.689 56.1686 38.2397 55.9888 37.9476 55.6294C37.6555 55.2924 37.5881 55.0901 37.5881 54.3263V50.5068H36.8242V54.5734C36.8242 55.3822 37.0264 55.8765 37.5432 56.3034C37.9925 56.6853 38.5767 56.8651 39.2507 56.8651C39.9247 56.8651 40.4864 56.6629 40.9357 56.3034C41.4525 55.8765 41.6547 55.4047 41.6547 54.5734Z" fill="#143109"/>
<path fill-rule="evenodd" clip-rule="evenodd" d="M48.5061 56.7517V50.5283H47.7422V55.7632C47.7422 55.7632 47.7422 55.6958 47.6972 55.6733C47.6298 55.4936 47.6298 55.4936 47.5849 55.4037C47.54 55.3363 47.5175 55.2914 47.495 55.2464L44.4395 50.5508H43.4285V56.7293H44.1924V51.3821C44.2373 51.5169 44.2373 51.5618 44.2822 51.6067C44.2822 51.6517 44.3272 51.6742 44.3496 51.7416C44.3946 51.8314 44.462 51.8988 44.462 51.9662L47.5849 56.7742H48.4611L48.5061 56.7517Z" fill="#143109"/>
<path d="M51.2248 50.5283H50.4609V56.7068H51.2248V50.5283Z" fill="#143109"/>
<path fill-rule="evenodd" clip-rule="evenodd" d="M57.5161 50.5283H56.7522L54.9998 55.3363C54.9998 55.3363 54.9549 55.516 54.9549 55.6284C54.9549 55.516 54.9324 55.4037 54.8875 55.3363L53.0676 50.5283H52.2363L54.6628 56.8641H55.1346L57.5161 50.5283Z" fill="#143109"/>
<path fill-rule="evenodd" clip-rule="evenodd" d="M62.0767 56.6843V56.0553H59.2907V53.8759H61.515V53.2244H59.2907V51.1799H61.9868V50.5283H58.5044V56.6843H62.0767Z" fill="#143109"/>
<path fill-rule="evenodd" clip-rule="evenodd" d="M67.715 56.6853L65.8952 53.9219C66.3445 53.8095 66.5692 53.6972 66.8388 53.45C67.1758 53.113 67.378 52.6412 67.378 52.1694C67.378 51.6976 67.1983 51.2483 66.8837 50.9562C66.5243 50.5967 66.1873 50.5068 65.4234 50.5068H63.5361V56.6853H64.3V54.0342H65.1088L66.8163 56.6853H67.6926H67.715ZM66.5467 52.1919C66.5467 52.9782 66.1199 53.4051 65.311 53.4051H64.3V51.1809H65.311C65.8503 51.1809 66.0075 51.2033 66.2097 51.3606C66.4344 51.5403 66.5467 51.8099 66.5467 52.2143V52.1919Z" fill="#143109"/>
<path fill-rule="evenodd" clip-rule="evenodd" d="M72.3893 50.9337C72.0523 50.7315 71.895 50.6417 71.6479 50.5743C71.3333 50.4844 70.9514 50.417 70.6144 50.417C69.4012 50.417 68.5699 51.0685 68.5699 52.0571C68.5699 52.6862 68.9743 53.1805 69.8954 53.6747C70.4796 53.9893 70.8166 54.169 70.9289 54.2364C71.1761 54.3712 71.3558 54.551 71.4457 54.7532C71.5131 54.8655 71.5355 55.0228 71.5355 55.18C71.5355 55.7642 71.0862 56.1237 70.3672 56.1237C70.0527 56.1237 69.7606 56.0563 69.491 55.9664C69.2664 55.8765 69.1316 55.7867 68.7945 55.562L68.3901 56.1686C68.7945 56.4382 68.9518 56.5281 69.1765 56.6179C69.491 56.7527 69.8954 56.8201 70.3223 56.8201C71.5805 56.8201 72.3444 56.1686 72.3444 55.1126C72.3444 54.6633 72.1646 54.2364 71.8726 53.9893C71.6479 53.7871 71.3109 53.5849 70.884 53.3602C69.6258 52.6862 69.3562 52.4615 69.3562 52.0122C69.3562 51.4954 69.828 51.1359 70.547 51.1359C70.7941 51.1359 71.1536 51.2033 71.4007 51.2707C71.6029 51.3381 71.7377 51.4055 72.0523 51.5853L72.4118 50.9562L72.3893 50.9337Z" fill="#143109"/>
<path d="M74.5901 50.5283H73.8262V56.7068H74.5901V50.5283Z" fill="#143109"/>
<path fill-rule="evenodd" clip-rule="evenodd" d="M81.3088 53.5839C81.3088 51.809 80.0057 50.5283 78.2083 50.5283H76.1638V56.7068H78.2083C79.2868 56.7068 79.9383 56.4597 80.4775 55.8081C81.0167 55.2015 81.3088 54.3927 81.3088 53.5839ZM80.5 53.5839C80.5 54.2579 80.1854 55.0218 79.7361 55.4936C79.3542 55.898 78.8823 56.0553 78.0735 56.0553H76.9052V51.1799H78.0735C79.4665 51.1799 80.5 52.2134 80.5 53.5839Z" fill="#143109"/>
<path fill-rule="evenodd" clip-rule="evenodd" d="M86.9705 56.6849L84.6788 50.3491H83.8476L81.5559 56.6849H82.3872L83.0163 54.865H85.5101L86.1392 56.6849H86.948H86.9705ZM85.2855 54.1685H83.2859L84.2969 51.3377L85.3079 54.1685H85.2855Z" fill="#143109"/>
<path fill-rule="evenodd" clip-rule="evenodd" d="M93.0593 53.5839C93.0593 51.809 91.7562 50.5283 89.9364 50.5283H87.8918V56.7068H89.9364C91.0148 56.7068 91.6663 56.4597 92.2056 55.8081C92.7448 55.2015 93.0593 54.3927 93.0593 53.5839ZM92.2505 53.5839C92.2505 54.2579 91.9359 55.0218 91.4866 55.4936C91.0822 55.898 90.6328 56.0553 89.824 56.0553H88.6557V51.1799H89.824C91.217 51.1799 92.2505 52.2134 92.2505 53.5839Z" fill="#143109"/>
<path fill-rule="evenodd" clip-rule="evenodd" d="M97.8228 56.6843V56.0553H95.0144V53.8759H97.2611V53.2244H95.0144V51.1799H97.7329V50.5283H94.2505V56.6843H97.8228Z" fill="#143109"/>
<path fill-rule="evenodd" clip-rule="evenodd" d="M106.786 53.5839C106.786 51.809 105.483 50.5283 103.686 50.5283H101.619V56.7068H103.663C104.742 56.7068 105.393 56.4597 105.933 55.8081C106.472 55.2015 106.764 54.3927 106.764 53.5839H106.786ZM106 53.5839C106 54.2579 105.685 55.0218 105.236 55.4936C104.854 55.898 104.382 56.0553 103.574 56.0553H102.405V51.1799H103.574C104.967 51.1799 106 52.2134 106 53.5839Z" fill="#143109"/>
<path fill-rule="evenodd" clip-rule="evenodd" d="M113.908 53.6073C113.908 51.765 112.605 50.417 110.808 50.417C109.01 50.417 107.707 51.765 107.707 53.6073C107.707 55.4496 109.01 56.8201 110.808 56.8201C112.605 56.8201 113.908 55.4721 113.908 53.6073ZM113.077 53.6073C113.077 55.0003 112.066 56.1461 110.83 56.1461C109.595 56.1461 108.584 55.0003 108.584 53.6073C108.584 52.2144 109.595 51.091 110.83 51.091C112.066 51.091 113.077 52.2368 113.077 53.6073Z" fill="#143109"/>
<path fill-rule="evenodd" clip-rule="evenodd" d="M121.66 52.3482C121.66 51.764 121.503 51.3371 121.188 51.0001C120.851 50.6407 120.424 50.5283 119.683 50.5283H117.751V56.7068H118.515V54.3702C119.054 54.4151 119.234 54.4376 119.458 54.4376C120.806 54.4376 121.66 53.6513 121.66 52.3482ZM120.874 52.3931C120.874 52.9772 120.604 53.4491 120.155 53.6513C119.953 53.7411 119.705 53.7861 119.346 53.7861C119.144 53.7861 118.964 53.7861 118.537 53.7411V51.2023H119.593C120.087 51.2023 120.357 51.2697 120.537 51.4719C120.761 51.6966 120.896 52.0336 120.896 52.438L120.874 52.3931Z" fill="#143109"/>
<path fill-rule="evenodd" clip-rule="evenodd" d="M128.579 53.6073C128.579 51.765 127.276 50.417 125.479 50.417C123.682 50.417 122.378 51.765 122.378 53.6073C122.378 55.4496 123.682 56.8201 125.479 56.8201C127.276 56.8201 128.579 55.4721 128.579 53.6073ZM127.748 53.6073C127.748 55.0003 126.737 56.1461 125.501 56.1461C124.266 56.1461 123.232 55.0003 123.232 53.6073C123.232 52.2144 124.243 51.091 125.501 51.091C126.76 51.091 127.748 52.2368 127.748 53.6073Z" fill="#143109"/>
<path fill-rule="evenodd" clip-rule="evenodd" d="M133.949 56.6853L132.129 53.9219C132.578 53.8095 132.803 53.6972 133.072 53.45C133.409 53.113 133.612 52.6412 133.612 52.1694C133.612 51.6976 133.409 51.2483 133.14 50.9562C132.78 50.5967 132.421 50.5068 131.679 50.5068H129.792V56.6853H130.556V54.0342H131.365L133.072 56.6853H133.949ZM132.803 52.1919C132.803 52.9782 132.376 53.4051 131.567 53.4051H130.556V51.1809H131.567C132.106 51.1809 132.264 51.2033 132.466 51.3606C132.691 51.5403 132.803 51.8099 132.803 52.2143V52.1919Z" fill="#143109"/>
<path fill-rule="evenodd" clip-rule="evenodd" d="M139.184 51.1799V50.5283H134.308V51.1799H136.353V56.6843H137.117V51.1799H139.184Z" fill="#143109"/>
<path fill-rule="evenodd" clip-rule="evenodd" d="M145.925 53.6073C145.925 51.765 144.621 50.417 142.824 50.417C141.027 50.417 139.724 51.765 139.724 53.6073C139.724 55.4496 141.027 56.8201 142.824 56.8201C144.621 56.8201 145.925 55.4721 145.925 53.6073ZM145.093 53.6073C145.093 55.0003 144.082 56.1461 142.847 56.1461C141.611 56.1461 140.6 55.0003 140.6 53.6073C140.6 52.2144 141.611 51.091 142.847 51.091C144.082 51.091 145.093 52.2368 145.093 53.6073Z" fill="#143109"/>
<path fill-rule="evenodd" clip-rule="evenodd" d="M40.6436 40.7786V39.7676H36.8242V45.9461H37.9925V43.3623H40.1718V42.3738H37.9925V40.7786H40.6436Z" fill="#143109"/>
<path fill-rule="evenodd" clip-rule="evenodd" d="M46.3939 45.9461L44.1696 39.7676H43.1137L40.8669 45.9461H42.1026L42.6194 44.4183H44.6864L45.1806 45.9461H46.4163H46.3939ZM44.3718 43.4297H42.9564L43.6529 41.2055L44.3718 43.4297Z" fill="#143109"/>
<path fill-rule="evenodd" clip-rule="evenodd" d="M51.8537 40.2614C51.3145 39.857 50.7079 39.6772 49.9216 39.6772C48.9105 39.6772 48.2141 39.9244 47.585 40.531C46.9784 41.1376 46.6414 41.9464 46.6414 42.8451C46.6414 43.8112 47.0233 44.7099 47.6748 45.3165C48.259 45.8333 48.933 46.0804 49.9216 46.0804C50.281 46.0804 50.6181 46.0355 50.9101 45.9681C51.2022 45.9007 51.3595 45.8333 51.7414 45.676L51.5167 44.6874C50.9775 44.9121 50.5956 44.9795 50.1687 44.9795C48.8207 44.9795 47.9445 44.1033 47.9445 42.7777C47.9445 41.6094 48.7982 40.7557 49.989 40.7557C50.5282 40.7557 51 40.8905 51.4044 41.1825L51.8537 40.2389V40.2614Z" fill="#143109"/>
<path fill-rule="evenodd" clip-rule="evenodd" d="M57.9424 43.5416V39.7896H56.7516V43.609C56.7516 44.5077 56.2798 44.9795 55.3811 44.9795C54.3925 44.9795 53.9207 44.5301 53.9207 43.609V39.7896H52.7524V43.5416C52.7524 44.6649 52.9546 45.1817 53.5837 45.631C54.0555 45.9456 54.5498 46.0804 55.3362 46.0804C56.1225 46.0804 56.6168 45.9456 57.0886 45.631C57.7402 45.1817 57.9424 44.6874 57.9424 43.5416Z" fill="#143109"/>
<path fill-rule="evenodd" clip-rule="evenodd" d="M63.1558 45.9461V44.935H60.6395V39.7676H59.4712V45.9461H63.1558Z" fill="#143109"/>
<path fill-rule="evenodd" clip-rule="evenodd" d="M69.6703 42.8451C69.6703 42.0363 69.3782 41.2499 68.839 40.6882C68.2324 40.0367 67.491 39.7896 66.3451 39.7896H64.0535V45.968H66.3227C67.4235 45.968 68.2548 45.676 68.8165 45.0693C69.3557 44.4852 69.6703 43.6988 69.6703 42.8676V42.8451ZM68.3896 42.8451C68.3896 44.1707 67.6033 44.8896 66.2103 44.8896H65.2667V40.8006H66.2103C66.8843 40.8006 67.3561 40.9129 67.6932 41.1601C68.1425 41.4971 68.3896 42.1261 68.3896 42.8451Z" fill="#143109"/>
<path fill-rule="evenodd" clip-rule="evenodd" d="M75.3548 45.9461L73.1081 39.7676H72.0521L69.8279 45.9461H71.0636L71.5803 44.4183H73.6473L74.1416 45.9461H75.3773H75.3548ZM73.3103 43.4297H71.8724L72.5914 41.2055L73.3103 43.4297Z" fill="#143109"/>
<path fill-rule="evenodd" clip-rule="evenodd" d="M81.7806 42.8451C81.7806 42.0363 81.4885 41.2499 80.9493 40.6882C80.3427 40.0367 79.6238 39.7896 78.4555 39.7896H76.1638V45.968H78.433C79.5339 45.968 80.3652 45.676 80.9269 45.0693C81.4661 44.4852 81.7806 43.6988 81.7806 42.8676V42.8451ZM80.5 42.8451C80.5 44.1707 79.7136 44.8896 78.3207 44.8896H77.3995V40.8006H78.3207C78.9947 40.8006 79.4665 40.9129 79.8035 41.1601C80.2528 41.4971 80.5225 42.1261 80.5225 42.8451H80.5Z" fill="#143109"/>
<path fill-rule="evenodd" clip-rule="evenodd" d="M86.6332 45.9461V44.935H83.9371V43.2949H86.049V42.3064H83.9371V40.7786H86.5208V39.7676H82.7688V45.9461H86.6332Z" fill="#143109"/>
<path fill-rule="evenodd" clip-rule="evenodd" d="M95.7093 42.8451C95.7093 42.0363 95.4173 41.2499 94.8781 40.6882C94.2714 40.0367 93.53 39.7896 92.3617 39.7896H90.0701V45.968H92.3617C93.4626 45.968 94.2939 45.676 94.8556 45.0693C95.3948 44.4852 95.7093 43.6988 95.7093 42.8676V42.8451ZM94.4287 42.8451C94.4287 44.1707 93.6424 44.8896 92.2494 44.8896H91.3058V40.8006H92.2494C92.9234 40.8006 93.3952 40.9129 93.7322 41.1601C94.1816 41.4971 94.4512 42.1261 94.4512 42.8451H94.4287Z" fill="#143109"/>
<path fill-rule="evenodd" clip-rule="evenodd" d="M100.474 45.9461V44.935H97.7777V43.2949H99.8671V42.3064H97.7777V40.7786H100.339V39.7676H96.5869V45.9461H100.474Z" fill="#143109"/>
<path fill-rule="evenodd" clip-rule="evenodd" d="M108.337 44.3055C108.337 43.3394 107.753 42.7328 106.81 42.7103C107.304 42.6878 107.551 42.5755 107.821 42.2609C108.045 41.9913 108.18 41.6319 108.18 41.2949C108.18 40.8904 108 40.4636 107.686 40.194C107.349 39.8794 106.944 39.7896 106.136 39.7896H103.889V45.968H106.405C107.641 45.968 108.315 45.3839 108.315 44.3279L108.337 44.3055ZM106.855 41.4971C106.855 42.0138 106.495 42.3059 105.844 42.3059H105.147V40.7107H105.911C106.518 40.7107 106.855 41.0028 106.855 41.4971ZM107.034 44.1707C107.034 44.4852 106.877 44.7773 106.63 44.8896C106.45 44.9795 106.293 45.0019 105.911 45.0019H105.147V43.2944H105.911C106.63 43.2944 107.034 43.609 107.034 44.1707Z" fill="#143109"/>
<path fill-rule="evenodd" clip-rule="evenodd" d="M113.189 45.9461V44.935H110.471V43.2949H112.582V42.3064H110.471V40.7786H113.054V39.7676H109.302V45.9461H113.189Z" fill="#143109"/>
<path fill-rule="evenodd" clip-rule="evenodd" d="M117.84 45.9461V44.935H115.324V39.7676H114.156V45.9461H117.84Z" fill="#143109"/>
<path fill-rule="evenodd" clip-rule="evenodd" d="M123.951 45.9461L121.705 39.7676H120.649L118.424 45.9461H119.66L120.177 44.4183H122.244L122.738 45.9461H123.974H123.951ZM121.907 43.4297H120.469L121.188 41.2055L121.907 43.4297Z" fill="#143109"/>
<path fill-rule="evenodd" clip-rule="evenodd" d="M128.669 40.194C128.265 39.9918 128.085 39.9244 127.793 39.8345C127.411 39.7222 127.052 39.6772 126.625 39.6772C125.906 39.6772 125.524 39.7896 125.075 40.0817C124.873 40.2165 124.715 40.3737 124.625 40.531C124.468 40.7557 124.378 41.0702 124.378 41.3848C124.378 42.0588 124.715 42.4632 125.816 43.0923L126.76 43.6315C127.164 43.8561 127.299 44.0359 127.299 44.283C127.299 44.665 126.94 44.9121 126.4 44.9121C126.153 44.9121 125.816 44.8447 125.502 44.7324C125.254 44.6425 125.075 44.5526 124.625 44.3055L124.131 45.3839C124.311 45.4738 124.446 45.5412 124.536 45.5637C125.187 45.8557 125.389 45.9231 125.839 45.9905C126.018 45.9905 126.198 46.0355 126.378 46.0355C127.748 46.0355 128.557 45.3839 128.557 44.283C128.557 43.8561 128.4 43.4517 128.13 43.1821C127.838 42.8901 127.232 42.5081 126.288 41.9914C125.839 41.7667 125.704 41.6094 125.704 41.3398C125.704 41.0028 126.063 40.7781 126.602 40.7781C127.007 40.7781 127.546 40.9354 128.198 41.2275L128.669 40.1715V40.194Z" fill="#143109"/>
<path fill-rule="evenodd" clip-rule="evenodd" d="M136.826 45.9461L134.579 39.7676H133.523L131.276 45.9461H132.512L133.006 44.4183H135.073L135.568 45.9461H136.803H136.826ZM134.804 43.4297H133.366L134.062 41.2055L134.781 43.4297H134.804Z" fill="#143109"/>
<path fill-rule="evenodd" clip-rule="evenodd" d="M142.172 45.9461L140.644 43.2949C141.161 43.1601 141.363 43.0253 141.61 42.7108C141.835 42.4187 141.947 42.0368 141.947 41.5425C141.947 40.9583 141.767 40.509 141.453 40.1945C141.093 39.8575 140.689 39.7451 139.768 39.7451H137.701V45.9236H138.891V43.4522H139.476L140.891 45.9236H142.194L142.172 45.9461ZM140.711 41.5874C140.711 42.194 140.374 42.4636 139.633 42.4636H138.869V40.7561H139.633C140.397 40.7561 140.711 40.9808 140.711 41.5874Z" fill="#143109"/>
<path fill-rule="evenodd" clip-rule="evenodd" d="M147.272 40.7786V39.7676H142.396V40.7786H144.239V45.9461H145.407V40.7786H147.272Z" fill="#143109"/>
<path fill-rule="evenodd" clip-rule="evenodd" d="M151.968 45.9461V44.935H149.272V43.2949H151.383V42.3064H149.272V40.7786H151.855V39.7676H148.103V45.9461H151.968Z" fill="#143109"/>
<path fill-rule="evenodd" clip-rule="evenodd" d="M157 40.194C156.596 39.9918 156.416 39.9244 156.124 39.8345C155.742 39.7222 155.36 39.6772 154.956 39.6772C154.237 39.6772 153.855 39.7896 153.405 40.0817C153.203 40.2165 153.046 40.3737 152.956 40.531C152.799 40.7557 152.709 41.0702 152.709 41.3848C152.709 42.0588 153.046 42.4632 154.147 43.0923L155.09 43.6315C155.495 43.8561 155.63 44.0359 155.63 44.283C155.63 44.665 155.27 44.9121 154.731 44.9121C154.484 44.9121 154.147 44.8447 153.832 44.7324C153.585 44.6425 153.405 44.5526 152.956 44.3055L152.462 45.3839C152.641 45.4738 152.776 45.5412 152.866 45.5637C153.518 45.8557 153.72 45.9231 154.169 45.9905C154.349 45.9905 154.529 46.0355 154.708 46.0355C156.079 46.0355 156.888 45.3839 156.888 44.283C156.888 43.8561 156.73 43.4517 156.461 43.1821C156.169 42.8901 155.562 42.5081 154.596 41.9914C154.169 41.7667 154.012 41.6094 154.012 41.3398C154.012 41.0028 154.371 40.7781 154.911 40.7781C155.315 40.7781 155.854 40.9354 156.506 41.2275L156.978 40.1715L157 40.194Z" fill="#143109"/>
<path fill-rule="evenodd" clip-rule="evenodd" d="M18.8277 37.9251C18.985 41.6996 17.0303 44.6203 17.1427 48.3723L17.0528 48.4622L16.8731 48.2375C16.7383 44.5754 15.0982 41.3401 15.2779 37.7004C16.5136 37.633 17.6594 37.7678 18.8277 37.9251Z" fill="#143109"/>
<path fill-rule="evenodd" clip-rule="evenodd" d="M14.4011 41.2729C15.0975 43.6095 14.7605 46.3954 15.5244 48.7095C17.2993 51.9673 15.5244 55.8766 15.3896 59.3365L14.2213 65.6948C9.48074 65.2005 4.58289 61.5383 2.98772 56.8876C0.920733 51.2034 2.49344 44.6654 7.32389 40.7786C9.14373 39.3407 11.1882 38.487 13.4125 37.9702C13.8394 39.0037 14.1539 40.1495 14.4011 41.2954V41.2729Z" fill="#143109"/>
<path fill-rule="evenodd" clip-rule="evenodd" d="M26.3755 41.9019C25.3196 43.8565 23.8143 45.6314 22.6684 47.5636C21.4327 49.8328 19.4107 51.7874 18.3772 54.124C17.9728 54.5734 17.5459 55.2249 16.9618 55.3822C16.782 54.124 17.4785 52.9782 17.4785 51.765C17.8829 49.024 18.0627 46.1931 19.2534 43.7666L20.4667 38.3745C22.601 39.1384 24.713 40.127 26.3755 41.9243V41.9019Z" fill="#143109"/>
<path fill-rule="evenodd" clip-rule="evenodd" d="M29.2741 57.2446C27.1846 62.3896 21.8599 65.7147 16.4004 65.8495C16.0184 64.8834 16.1083 63.6927 15.9735 62.6143C15.6814 58.5028 19.411 55.8292 20.9387 52.3692C22.0172 50.0551 24.1291 47.9656 26.0837 46.1907C26.6679 45.292 27.2071 44.3709 27.589 43.3823C30.5547 47.0669 31.2063 52.841 29.2741 57.2446Z" fill="#143109"/>
</svg>
