<svg width="146" height="38" viewBox="0 0 146 38" fill="none" xmlns="http://www.w3.org/2000/svg">
<path d="M66.2859 12.4432V5.73096H70.6333V6.63866H67.3847V8.59738H70.3228V9.50508H67.3847V12.4432H66.2859Z" fill="#143109"/>
<path d="M75.0767 11.6315C74.8617 12.157 74.4557 12.5869 73.6435 12.5869C72.6403 12.5869 71.9714 11.8942 71.9714 10.6999V7.49902H73.0224V10.5327C73.0224 11.3209 73.3569 11.727 74.0257 11.727C74.5751 11.727 75.1006 11.4642 75.1006 10.8671V7.49902H76.1516V12.4675H75.0767V11.6315Z" fill="#143109"/>
<path d="M77.7751 12.4917V7.52324H78.85V8.35928H78.8978C79.1128 7.83377 79.5189 7.40381 80.3311 7.40381C81.3343 7.40381 82.0031 8.09653 82.0031 9.29087V12.4917H80.9521V9.45808C80.9521 8.66981 80.6177 8.26374 79.9489 8.26374C79.3995 8.26374 78.874 8.52649 78.874 9.12366V12.4917H77.8229H77.7751Z" fill="#143109"/>
<path d="M86.709 11.6793H86.6612C86.3745 12.2764 85.8968 12.6347 85.1563 12.6347C83.9858 12.6347 83.2454 11.727 83.2454 10.0311C83.2454 8.3351 84.0097 7.45128 85.1802 7.45128C85.9207 7.45128 86.3984 7.83347 86.685 8.40676H86.7328V5.4209H87.7839L87.76 12.5392H86.709V11.6793ZM86.709 10.891V9.2428C86.709 8.64563 86.2073 8.3351 85.5863 8.3351C84.798 8.3351 84.3441 8.86061 84.3441 9.67276V10.4849C84.3441 11.2971 84.798 11.8226 85.5624 11.8226C86.1595 11.8226 86.685 11.5121 86.685 10.9149L86.709 10.891Z" fill="#143109"/>
<path d="M93.2296 12.563C92.6324 12.563 92.3458 12.2286 92.2741 11.727H92.2263C92.0352 12.3242 91.5097 12.6825 90.7214 12.6825C89.7182 12.6825 89.0732 12.1092 89.0732 11.1776C89.0732 10.246 89.7899 9.69662 91.247 9.69662H92.2025V9.31443C92.2025 8.64559 91.8441 8.31118 91.1514 8.31118C90.5065 8.31118 90.1482 8.57393 89.8615 8.98001L89.2405 8.47839C89.5271 7.95287 90.1959 7.49902 91.247 7.49902C92.4891 7.49902 93.2534 8.14397 93.2534 9.26665V11.7509H93.8745V12.5869H93.2296V12.563ZM92.2025 11.0821V10.3654H91.2709C90.5065 10.3654 90.1482 10.6043 90.1243 11.0343V11.2254C90.1243 11.6792 90.4587 11.8942 91.032 11.8942C91.7008 11.8942 92.2025 11.5598 92.2025 11.0821Z" fill="#143109"/>
<path d="M99.2736 8.6928L98.4614 9.12277C98.2942 8.66892 97.9359 8.38227 97.3388 8.35839C96.5505 8.35839 96.0966 8.8839 96.0728 9.67216V10.5082C96.0728 11.2965 96.5266 11.822 97.3388 11.822C97.9598 11.822 98.3181 11.5115 98.557 11.0337L99.3214 11.5115C99.0108 12.1803 98.3898 12.658 97.4104 12.6819L97.3149 13.1119L97.3626 13.1597C97.506 13.1119 97.6493 13.088 97.7687 13.088C98.1509 13.088 98.4376 13.303 98.4376 13.7329C98.4376 14.3301 97.8881 14.5451 97.291 14.5451C96.6938 14.5451 96.3833 14.3301 96.2399 14.139L96.6461 13.6852C96.7655 13.8285 96.9566 13.9479 97.2432 13.9479C97.4821 13.9479 97.6732 13.8524 97.6732 13.6613C97.6732 13.518 97.5537 13.3507 97.0043 13.2791H96.7655L96.9088 12.5864C95.7144 12.3953 95.0217 11.4398 95.0217 10.0305C95.0217 8.45393 95.9056 7.45068 97.3865 7.45068C98.4137 7.45068 99.0108 7.92842 99.3214 8.62114L99.2736 8.6928Z" fill="#143109"/>
<path d="M104.767 12.6091C104.17 12.6091 103.883 12.2747 103.811 11.7731H103.764C103.573 12.3703 103.047 12.7286 102.259 12.7286C101.256 12.7286 100.611 12.1553 100.611 11.2237C100.611 10.2921 101.327 9.74271 102.784 9.74271H103.74V9.36052C103.74 8.69168 103.381 8.35727 102.689 8.35727C102.044 8.35727 101.686 8.62002 101.399 9.0261L100.778 8.52447C101.064 7.99896 101.733 7.54511 102.784 7.54511C104.026 7.54511 104.791 8.19006 104.791 9.31274V11.797H105.412V12.633H104.767V12.6091ZM102.784 6.58964C102.498 6.44632 102.283 6.37465 102.068 6.37465C101.853 6.37465 101.709 6.4702 101.518 6.61352L101.136 6.1119C101.327 5.82526 101.662 5.5625 102.139 5.5625C102.45 5.5625 102.665 5.68193 102.88 5.77748C103.166 5.9208 103.381 5.99246 103.596 5.99246C103.811 5.99246 103.955 5.89692 104.146 5.7536L104.528 6.25522C104.337 6.54186 104.003 6.80462 103.525 6.80462C103.214 6.80462 102.999 6.68518 102.784 6.58964ZM103.74 11.1281V10.4115H102.808C102.044 10.4115 101.686 10.6504 101.662 11.0804V11.2715C101.662 11.7253 101.996 11.9403 102.569 11.9403C103.238 11.9403 103.74 11.6059 103.74 11.1281Z" fill="#143109"/>
<path d="M106.344 10.1516C106.344 8.57503 107.252 7.57178 108.709 7.57178C110.166 7.57178 111.05 8.59891 111.05 10.1754C111.05 11.752 110.142 12.7552 108.685 12.7552C107.228 12.7552 106.344 11.7281 106.344 10.1516ZM109.951 10.5338V9.79326C109.951 8.86167 109.45 8.40782 108.709 8.38393C107.969 8.36004 107.443 8.83778 107.443 9.76937V10.5099C107.443 11.4415 107.945 11.8953 108.685 11.9192C109.426 11.9431 109.951 11.4653 109.951 10.5338Z" fill="#143109"/>
<path d="M66.1907 19.014H67.2417V19.8739H67.2894C67.5761 19.2768 68.0538 18.9185 68.7943 18.9185C69.9648 18.9185 70.7053 19.8262 70.7053 21.5221C70.7053 23.2181 69.9409 24.1019 68.7704 24.1019C68.0299 24.1019 67.5522 23.7197 67.2656 23.1464H67.2178V25.9173H66.1667L66.1907 19.0379V19.014ZM69.5826 21.9043V21.0922C69.5826 20.28 69.1287 19.7545 68.3643 19.7545C67.7672 19.7545 67.2417 20.065 67.2417 20.6622V22.3104C67.2417 22.9076 67.7433 23.2181 68.3643 23.2181C69.1526 23.2181 69.6065 22.6926 69.6065 21.8804L69.5826 21.9043Z" fill="#143109"/>
<path d="M75.888 24.0045C75.2908 24.0045 75.0042 23.67 74.9325 23.1684H74.8848C74.6937 23.7656 74.1682 24.1239 73.3799 24.1239C72.3766 24.1239 71.7317 23.5506 71.7317 22.619C71.7317 21.6874 72.4483 21.138 73.9054 21.138H74.8609V20.7558C74.8609 20.087 74.5026 19.7526 73.8098 19.7526C73.1649 19.7526 72.8066 20.0153 72.52 20.4214L71.8989 19.9198C72.1856 19.3943 72.8544 18.9404 73.9054 18.9404C75.1475 18.9404 75.9119 19.5854 75.9119 20.7081V23.1923H76.5329V24.0283H75.888V24.0045ZM74.8609 22.5235V21.8069H73.9293C73.1649 21.8069 72.8066 22.0457 72.7827 22.4757V22.6668C72.7827 23.0967 73.1171 23.3356 73.6904 23.3356C74.3593 23.3356 74.8609 23.0012 74.8609 22.5235Z" fill="#143109"/>
<path d="M77.656 23.1691H78.9698V19.9205H77.656V19.0605H80.0208V20.3982H80.0686C80.2597 19.7055 80.6897 19.0844 81.7168 19.0844H82.314V20.0877H81.3346C80.4747 20.0877 80.0208 20.6371 80.0208 21.3298V23.193H81.8123V24.029H77.656V23.193V23.1691Z" fill="#143109"/>
<path d="M87.4259 24.0518C86.8287 24.0518 86.542 23.7174 86.4704 23.2158H86.4226C86.2315 23.8129 85.706 24.1712 84.9177 24.1712C83.9145 24.1712 83.2695 23.598 83.2695 22.6664C83.2695 21.7348 83.9861 21.1854 85.4432 21.1854H86.3987V20.8032C86.3987 20.1344 86.0404 19.7999 85.3477 19.7999C84.7027 19.7999 84.3444 20.0627 84.0578 20.4688L83.4367 19.9672C83.7234 19.4416 84.3922 18.9878 85.4432 18.9878C86.6854 18.9878 87.4497 19.6327 87.4497 20.7554V23.2397H88.0708V24.0757H87.4259V24.0518ZM86.3987 22.5708V21.8542H85.4671C84.7027 21.8542 84.3444 22.0931 84.3206 22.5231V22.7141C84.3206 23.1441 84.655 23.383 85.2282 23.383C85.8971 23.383 86.3987 23.0486 86.3987 22.5708Z" fill="#143109"/>
<path d="M98.939 24.1246C98.3419 24.1246 98.0552 23.7902 97.9836 23.2885H97.9358C97.7447 23.8857 97.2192 24.244 96.4309 24.244C95.4277 24.244 94.7827 23.6707 94.7827 22.7391C94.7827 21.8075 95.4993 21.2581 96.9564 21.2581H97.9119V20.8759C97.9119 20.2071 97.5536 19.8727 96.8609 19.8727C96.216 19.8727 95.8576 20.1355 95.571 20.5415L94.9499 20.0399C95.2366 19.5144 95.9054 19.0605 96.9564 19.0605C98.1985 19.0605 98.9629 19.7055 98.9629 20.8282V23.3124H99.584V24.1485H98.939V24.1246ZM97.9119 22.6197V21.9031H96.9803C96.216 21.9031 95.8576 22.142 95.8337 22.5719V22.763C95.8337 23.193 96.1682 23.4318 96.7415 23.4318C97.4103 23.4318 97.9119 23.0974 97.9119 22.6197Z" fill="#143109"/>
<path d="M106.321 20.8049C106.321 18.5834 107.157 17.3413 108.853 17.3413C110.142 17.3413 110.74 18.1057 111.05 19.0134L110.071 19.3239C109.88 18.7029 109.593 18.2251 108.829 18.2251C107.873 18.2251 107.467 18.9895 107.467 20.2316V21.3543C107.467 22.5725 107.873 23.3608 108.829 23.3608C109.593 23.3608 109.88 22.8831 110.071 22.262L111.05 22.5964C110.74 23.5041 110.142 24.2446 108.853 24.2446C107.157 24.2446 106.344 22.9786 106.344 20.7571L106.321 20.8049Z" fill="#143109"/>
<path d="M112.483 23.3358H114.179V20.0872H112.483V19.2273H115.23V23.3597H116.806V24.2197H112.483V23.3597V23.3358ZM114.012 17.7463V17.5552C114.012 17.2447 114.203 16.9819 114.728 16.9819C115.254 16.9819 115.445 17.2447 115.445 17.5552V17.7463C115.445 18.0568 115.254 18.3196 114.728 18.3196C114.203 18.3196 114.012 18.0568 114.012 17.7463Z" fill="#143109"/>
<path d="M117.857 21.7356C117.857 20.1351 118.788 19.1319 120.198 19.1319C121.607 19.1319 122.467 20.1351 122.467 21.5922V21.9744H118.908V22.1416C118.908 22.9299 119.41 23.4793 120.27 23.4793C120.914 23.4793 121.368 23.1927 121.655 22.7149L122.3 23.2882C121.965 23.8615 121.273 24.3153 120.246 24.3153C118.717 24.3153 117.833 23.2882 117.857 21.7117V21.7356ZM120.723 16.7671L121.87 18.2242L121.321 18.6303L120.198 17.5076L119.051 18.6064L118.526 18.2003L119.696 16.7671H120.747H120.723ZM118.908 21.2339V21.3056H121.392V21.2101C121.392 20.4218 120.914 19.9202 120.198 19.9202C119.481 19.9202 118.908 20.4696 118.908 21.2339Z" fill="#143109"/>
<path d="M123.829 24.2202V19.2518H124.904V20.0878H124.952C125.167 19.5623 125.573 19.1323 126.385 19.1323C127.388 19.1323 128.057 19.825 128.057 21.0194V24.2202H127.006V21.1866C127.006 20.3983 126.672 19.9923 126.003 19.9923C125.453 19.9923 124.928 20.255 124.928 20.8522V24.2202H123.877H123.829Z" fill="#143109"/>
<path d="M129.514 21.7595C129.514 20.1829 130.398 19.1797 131.879 19.1797C132.906 19.1797 133.504 19.6574 133.814 20.3501L133.002 20.7801C132.835 20.3263 132.476 20.0396 131.879 20.0157C131.091 20.0157 130.637 20.5412 130.613 21.3295V22.1655C130.613 22.9538 131.067 23.4793 131.879 23.4793C132.5 23.4793 132.859 23.1688 133.097 22.6911L133.862 23.1688C133.551 23.8615 132.906 24.3393 131.855 24.3393C130.374 24.3393 129.514 23.3121 129.514 21.7356V21.7595Z" fill="#143109"/>
<path d="M135.534 23.4306H137.23V20.182H135.534V19.3221H138.281V23.4545H139.857V24.3144H135.534V23.4545V23.4306ZM137.062 17.865V17.6739C137.062 17.3633 137.254 17.1006 137.779 17.1006C138.305 17.1006 138.496 17.3633 138.496 17.6739V17.865C138.496 18.1755 138.305 18.4383 137.779 18.4383C137.254 18.4383 137.062 18.1755 137.062 17.865Z" fill="#143109"/>
<path d="M145.041 24.315C144.444 24.315 144.157 23.9806 144.086 23.479H144.038C143.847 24.0761 143.321 24.4344 142.533 24.4344C141.53 24.4344 140.885 23.8611 140.885 22.9296C140.885 21.998 141.601 21.4486 143.058 21.4486H144.014V21.0664C144.014 20.3975 143.656 20.0631 142.963 20.0631C142.318 20.0631 141.96 20.3259 141.673 20.732L141.052 20.2303C141.339 19.7048 142.007 19.251 143.058 19.251C144.301 19.251 145.065 19.8959 145.065 21.0186V23.5028H145.686V24.3389H145.041V24.315ZM144.038 22.834V22.1174H143.106C142.342 22.1174 141.984 22.3563 141.96 22.7862V22.9773C141.96 23.4073 142.294 23.6462 142.867 23.6462C143.536 23.6462 144.038 23.3117 144.038 22.834Z" fill="#143109"/>
<path d="M65.9277 33.0338C65.9277 31.4334 66.8593 30.4302 68.2686 30.4302C69.6779 30.4302 70.5379 31.4334 70.5379 32.8905V33.2727H66.9787V33.4399C66.9787 34.2282 67.4804 34.7776 68.3403 34.7776C68.9852 34.7776 69.4391 34.4909 69.7257 34.0132L70.3707 34.5865C70.0363 35.1598 69.3435 35.6136 68.3164 35.6136C66.7876 35.6136 65.9038 34.5865 65.9277 33.01V33.0338ZM67.0026 32.5322V32.6039H69.4868V32.5083C69.4868 31.7201 69.0091 31.2184 68.2925 31.2184C67.5759 31.2184 67.0026 31.7678 67.0026 32.5322Z" fill="#143109"/>
<path d="M81.598 35.5669C81.0008 35.5669 80.7141 35.2325 80.6425 34.7309H80.5947C80.4036 35.3281 79.8781 35.6864 79.0899 35.6864C78.0866 35.6864 77.4417 35.1131 77.4417 34.1815C77.4417 33.2499 78.1583 32.7005 79.6154 32.7005H80.5708V32.3183C80.5708 31.6495 80.2125 31.3151 79.5198 31.3151C78.8749 31.3151 78.5166 31.5778 78.2299 31.9839L77.6089 31.4823C77.8955 30.9568 78.5643 30.5029 79.6154 30.5029C80.8575 30.5029 81.6219 31.1479 81.6219 32.2706V34.7548H82.2429V35.5908H81.598V35.5669ZM80.5708 34.086V33.3694H79.6392C78.8749 33.3694 78.5166 33.6082 78.4927 34.0382V34.2293C78.4927 34.6592 78.8271 34.8981 79.4004 34.8981C80.0692 34.8981 80.5708 34.5637 80.5708 34.086Z" fill="#143109"/>
<path d="M91.8447 29.81V35.6146H90.7459V29.81H88.6677V28.9023H93.9467V29.81H91.8447Z" fill="#143109"/>
<path d="M94.7583 33.152C94.7583 31.5516 95.6899 30.5483 97.0992 30.5483C98.5085 30.5483 99.3685 31.5516 99.3685 33.0087V33.3909H95.8093V33.5581C95.8093 34.3464 96.3109 34.8958 97.1708 34.8958C97.8158 34.8958 98.2696 34.6091 98.5563 34.1314L99.2012 34.7047C98.8668 35.2779 98.1741 35.7318 97.147 35.7318C95.6182 35.7318 94.7344 34.7047 94.7583 33.1281V33.152ZM95.8093 32.6743V32.7459H98.2935V32.6504C98.2935 31.8621 97.8158 31.3605 97.0992 31.3605C96.3826 31.3605 95.8093 31.9099 95.8093 32.6743Z" fill="#143109"/>
<path d="M100.659 33.1774C100.659 31.6009 101.543 30.5977 103.024 30.5977C104.051 30.5977 104.648 31.0754 104.959 31.7681L104.147 32.1981C103.979 31.7442 103.621 31.4576 103.024 31.4337C102.236 31.4337 101.782 31.9592 101.758 32.7475V33.5835C101.758 34.3718 102.212 34.8973 103.024 34.8973C103.645 34.8973 104.003 34.5868 104.242 34.109L105.007 34.5868C104.696 35.2795 104.051 35.7572 103 35.7572C101.519 35.7572 100.659 34.7301 100.659 33.1536V33.1774Z" fill="#143109"/>
<path d="M106.487 35.6621V30.6937H107.561V31.5297H107.609C107.824 31.0042 108.23 30.5742 109.042 30.5742C110.046 30.5742 110.715 31.2669 110.715 32.4613V35.6621H109.664V32.6285C109.664 31.8402 109.329 31.4341 108.66 31.4341C108.111 31.4341 107.585 31.6969 107.585 32.2941V35.6621H106.534H106.487Z" fill="#143109"/>
<path d="M112.005 33.2238C112.005 31.6473 112.913 30.644 114.37 30.644C115.827 30.644 116.711 31.6712 116.711 33.2477C116.711 34.8242 115.803 35.8275 114.346 35.8275C112.889 35.8275 112.005 34.8004 112.005 33.2238ZM115.612 33.606V32.8655C115.612 31.9339 115.11 31.4801 114.37 31.4562C113.629 31.4323 113.104 31.91 113.104 32.8416V33.5821C113.104 34.5137 113.605 34.9676 114.346 34.9915C115.086 35.0153 115.612 34.5376 115.612 33.606Z" fill="#143109"/>
<path d="M117.953 34.874H119.601L119.625 29.4517H117.977V28.5918H120.676L120.652 34.874H122.301V35.734H117.977V34.874H117.953Z" fill="#143109"/>
<path d="M123.52 33.2731C123.52 31.6966 124.427 30.6934 125.884 30.6934C127.341 30.6934 128.225 31.7205 128.225 33.297C128.225 34.8736 127.318 35.8768 125.86 35.8768C124.403 35.8768 123.52 34.8497 123.52 33.2731ZM127.126 33.6553V32.9148C127.126 31.9832 126.625 31.5294 125.884 31.5055C125.144 31.4816 124.618 31.9594 124.618 32.891V33.6314C124.618 34.563 125.12 35.0169 125.86 35.0408C126.601 35.0647 127.126 34.5869 127.126 33.6553Z" fill="#143109"/>
<path d="M131.616 37.8106C129.896 37.8106 129.323 37.3568 129.323 36.6163C129.323 36.0669 129.634 35.8041 130.183 35.6608V35.5652C129.849 35.4458 129.634 35.2069 129.634 34.8486C129.634 34.347 130.016 34.132 130.541 34.0126V33.9648C129.944 33.6782 129.586 33.1527 129.586 32.4361C129.586 31.385 130.398 30.6923 131.616 30.7162C131.951 30.7162 132.285 30.7879 132.548 30.8834V30.7162C132.548 30.334 132.763 30.0474 133.217 30.0474H134.124V30.8834H132.978V31.0984C133.408 31.4089 133.647 31.8628 133.647 32.4599C133.647 33.511 132.834 34.1798 131.616 34.1798C131.401 34.1798 131.186 34.1798 130.995 34.1081C130.756 34.1559 130.47 34.3231 130.47 34.5859C130.47 34.8964 130.804 34.9442 131.234 34.9442H132.357C133.694 34.9442 134.244 35.5175 134.244 36.3296C134.244 37.3568 133.384 37.8345 131.64 37.8106H131.616ZM132.309 35.8519H130.589C130.35 35.9474 130.231 36.1385 130.231 36.4013C130.231 36.7835 130.517 37.094 131.258 37.094H132.046C132.834 37.094 133.264 36.8551 133.264 36.4013C133.264 36.0669 133.025 35.8519 132.333 35.8519H132.309ZM132.595 32.5794V32.3166C132.595 31.7911 132.285 31.4328 131.616 31.4328C130.947 31.4328 130.637 31.7911 130.613 32.3166V32.5794C130.613 33.1049 130.923 33.4632 131.592 33.4632C132.261 33.4632 132.572 33.1049 132.595 32.5794Z" fill="#143109"/>
<path d="M135.486 34.9453H137.182V31.6966H135.486V30.8367H138.233V34.9691H139.809V35.8291H135.486V34.9691V34.9453ZM137.014 29.3796V29.1885C137.014 28.878 137.205 28.6152 137.731 28.6152C138.256 28.6152 138.448 28.878 138.448 29.1885V29.3796C138.448 29.6901 138.256 29.9529 137.731 29.9529C137.205 29.9529 137.014 29.6901 137.014 29.3796Z" fill="#143109"/>
<path d="M144.994 35.8526C144.397 35.8526 144.11 35.5182 144.039 35.0166H143.991C143.8 35.6137 143.274 35.972 142.486 35.972C141.483 35.972 140.838 35.3987 140.838 34.4672C140.838 33.5356 141.554 32.9862 143.012 32.9862H143.967V32.604C143.967 31.9351 143.609 31.6007 142.916 31.6007C142.271 31.6007 141.913 31.8635 141.626 32.2696L141.005 31.7679C141.292 31.2424 141.961 30.7886 143.012 30.7886C144.254 30.7886 145.018 31.4335 145.018 32.5562V35.0404H145.639V35.8765H144.994V35.8526ZM143.967 34.3477V33.6311H143.035C142.271 33.6311 141.913 33.87 141.889 34.2999V34.491C141.889 34.921 142.223 35.1599 142.797 35.1599C143.465 35.1599 143.967 34.8255 143.967 34.3477Z" fill="#143109"/>
<path d="M9.79364 14.7623H17.2225V17.9871H9.79364L9.72194 32.1759H17.1508V35.4006L0 35.3289V32.1281L6.13891 32.152L6.2106 17.9393H0.0955315V14.7146H4.89682C5.61343 14.7384 6.2106 14.1413 6.2106 13.4247V11.4182C6.2106 10.606 6.545 9.81775 7.11828 9.24446L10.558 5.82864C11.1313 5.25535 11.9196 4.94482 12.7317 4.94482H17.2702V8.14567H9.84139L9.81751 14.7623H9.79364Z" fill="#143109"/>
<path d="M27.375 5.04053H35.1383V8.26526L24.4369 8.21748L24.3653 23.7917L35.0666 23.8395V27.0403L27.3033 27.0165C26.4912 27.0165 25.7029 26.682 25.1297 26.1088L21.666 22.5974C21.0927 22.0241 20.7822 21.2358 20.7822 20.4237L20.83 11.5855C20.83 10.7734 21.1644 9.98511 21.7377 9.41183L25.2491 5.94823C25.8223 5.37494 26.6106 5.06441 27.4228 5.06441L27.375 5.04053Z" fill="#143109"/>
<path d="M44.4297 20.8055L44.4775 8.31264H38.458V5.08791H43.1637C43.8803 5.11179 44.4775 4.51462 44.4775 3.79801V0H48.1083V5.11179L55.8954 5.13568V8.33652L48.0844 8.31264L48.0128 23.8869H55.8237V27.1116H50.282C49.3982 27.0877 48.5622 26.7055 47.965 26.0367L45.1941 22.8359C44.7164 22.2626 44.4297 21.546 44.4536 20.8055H44.4297Z" fill="#143109"/>
<path d="M20.6746 32.2255L20.6606 35.4263L55.7501 35.5794L55.7641 32.3786L20.6746 32.2255Z" fill="#143109"/>
</svg>
