<svg width="100" height="32" viewBox="0 0 100 32" fill="none" xmlns="http://www.w3.org/2000/svg">
<path d="M6.58249 0H0V6.41371H6.58249V0Z" fill="#143109"/>
<path d="M99.4376 25.2441H93.916V30.7657H99.4376V25.2441Z" fill="#143109"/>
<path d="M6.58273 9.35498L0.000244141 12.9717V30.7662H6.58273V9.35498Z" fill="#143109"/>
<path d="M83.8843 13.7693C78.9655 12.5155 77.7599 11.9127 77.7599 10.032V9.9597C77.7599 8.58533 79.0137 7.47619 81.4249 7.47619C83.8361 7.47619 86.2955 8.53711 88.8031 10.2732L92.0582 5.57137C89.1648 3.25664 85.6445 1.95461 81.4973 1.95461C76.8919 1.95461 73.3234 4.10055 72.0696 7.57264C69.4414 4.70335 65.4871 2.91908 60.7371 2.91908H50.8513V20.2072L43.4008 2.70208H37.7586L28.138 25.3189H17.77L22.4236 21.7262C27.487 17.796 29.9464 15.4089 29.9464 10.6107C29.9464 5.25792 26.185 1.76172 20.1088 1.76172C14.9972 1.76172 12.2725 3.83533 9.45147 7.6932L13.8639 11.2376C15.9857 8.63355 17.5048 7.40386 19.6989 7.40386C21.8931 7.40386 23.5327 8.70589 23.5327 11.1171C23.5327 13.5282 22.1342 15.0473 18.5898 17.9889L9.06567 25.777V30.7681H32.0682L34.2865 25.343H53.0454L55.3602 30.7681H60.7371C69.2726 30.7681 75.2523 24.9572 75.5176 17.4102C76.9884 18.1818 78.845 18.7364 80.9668 19.2909C85.7168 20.5206 86.6813 21.3163 86.6813 22.9077V22.98C86.6813 24.6437 85.1381 25.6564 82.5823 25.6564C80.4605 25.6564 78.5797 25.0777 76.8196 24.0892L73.6851 28.9356C76.4097 30.4305 79.4478 31.178 82.4617 31.178C88.5861 31.178 92.9021 28.0194 92.9021 22.3772V22.3049C92.9021 17.362 89.647 15.2884 83.8843 13.7935V13.7693ZM36.4807 19.9419L40.5073 10.0803L44.534 19.9419H36.4807ZM69.128 16.928C69.128 21.8709 65.7523 25.2465 60.7371 25.2465H56.9756V8.46477H60.7371C65.7523 8.46477 69.128 11.9369 69.128 16.8556V16.928Z" fill="#143109"/>
</svg>
