<svg width="144" height="71" viewBox="0 0 144 71" fill="none" xmlns="http://www.w3.org/2000/svg">
<g clip-path="url(#clip0_336_47)">
<path d="M144 70.988H73.0122V0H144V70.988ZM73.4459 70.5542H143.566V0.433735H73.4459V70.5542Z" fill="#143109"/>
<path d="M70.988 70.988H0V0H70.988V70.988ZM0.433735 70.5542H70.5542V0.433735H0.433735V70.5542Z" fill="#143109"/>
<path d="M13.4216 18.0239H10.0481V21.301H13.4216V18.0239Z" fill="#143109"/>
<path d="M60.9397 30.9517H58.1084V33.783H60.9397V30.9517Z" fill="#143109"/>
<path d="M13.4216 22.8071L10.0481 24.6746V33.771H13.4216V22.8071Z" fill="#143109"/>
<path d="M52.9879 25.0715C50.4698 24.4329 49.8554 24.1197 49.8554 23.1558V23.1197C49.8554 22.4088 50.4939 21.8546 51.7228 21.8546C52.9517 21.8546 54.2168 22.3968 55.506 23.2884L57.1686 20.8787C55.6987 19.698 53.8915 19.0354 51.771 19.0354C49.4096 19.0354 47.5903 20.1317 46.9397 21.9028C45.6023 20.4329 43.5783 19.5293 41.1445 19.5293H36.0843V28.3727L32.277 19.4209H29.3855L24.4578 30.9992H19.1566L21.5421 29.1558C24.1325 27.1438 25.3855 25.9149 25.3855 23.4691C25.3855 20.7341 23.4578 18.939 20.3493 18.939C17.7349 18.939 16.3373 20.0113 14.8915 21.9751L17.1445 23.7944C18.2289 22.457 18.9999 21.8305 20.1325 21.8305C21.265 21.8305 22.0963 22.5052 22.0963 23.7341C22.0963 24.9631 21.3855 25.7462 19.5662 27.2522L14.6987 31.2402V33.7944H26.4698L27.6023 31.0113H37.2048L38.3855 33.7944H41.1445C45.518 33.7944 48.5662 30.8305 48.7108 26.951C49.4698 27.3486 50.4096 27.6378 51.4939 27.9149C53.9276 28.5414 54.4216 28.951 54.4216 29.7582V29.7944C54.4216 30.6498 53.6385 31.1679 52.3252 31.1679C51.2409 31.1679 50.277 30.8667 49.3734 30.3607L47.771 32.8426C49.1686 33.6016 50.7228 33.9872 52.265 33.9872C55.3975 33.9872 57.6023 32.3727 57.6023 29.4811V29.445C57.6023 26.9149 55.9397 25.8546 52.9879 25.0835V25.0715ZM28.7228 28.2281L30.7831 23.1799L32.8433 28.2281H28.7108H28.7228ZM45.4337 26.686C45.4337 29.2161 43.6987 30.939 41.1325 30.939H39.2168V22.3486H41.1325C43.6987 22.3486 45.4337 24.1197 45.4337 26.6498V26.686Z" fill="#143109"/>
<path d="M83.1924 22.675V24.7835C83.1924 24.8678 83.1683 24.904 83.084 24.904H82.7466C82.6623 24.904 82.6382 24.8678 82.6382 24.7835V19.5546C82.6382 19.4702 82.6743 19.4341 82.7466 19.4341H84.337C85.6743 19.4341 86.084 19.9642 86.084 20.6148V21.5184C86.084 22.0124 85.831 22.4582 85.084 22.6148L86.1322 24.7955C86.1683 24.8678 86.1081 24.916 86.0237 24.916H85.6864C85.602 24.916 85.5779 24.8678 85.5418 24.7955L84.5418 22.6871H83.2045L83.1924 22.675ZM83.1924 19.916V22.1811H84.3249C85.1924 22.1811 85.5057 21.8799 85.5057 21.3979V20.6871C85.5057 20.2172 85.1924 19.916 84.3249 19.916H83.1924Z" fill="#143109"/>
<path d="M87.2769 24.904C87.2046 24.904 87.1685 24.8678 87.1685 24.7835V19.5546C87.1685 19.4702 87.2046 19.4341 87.2769 19.4341H90.0239C90.1082 19.4341 90.1444 19.4702 90.1444 19.5546V19.8076C90.1444 19.8919 90.1082 19.9281 90.0239 19.9281H87.7347V21.8076H89.8793C89.9636 21.8076 89.9998 21.8437 89.9998 21.9281V22.157C89.9998 22.2413 89.9636 22.2775 89.8793 22.2775H87.7347V24.422H90.1203C90.2046 24.422 90.2407 24.4582 90.2407 24.5305V24.7835C90.2407 24.8678 90.2046 24.904 90.1203 24.904H87.2648H87.2769Z" fill="#143109"/>
<path d="M92.7468 19.8431C91.9034 19.8431 91.6384 20.1443 91.6384 20.6021V20.8431C91.6384 21.2407 91.9034 21.3853 92.1083 21.4696L93.6263 22.0359C94.0601 22.1925 94.4697 22.5178 94.4697 23.0841V23.7708C94.4697 24.4094 94.048 24.9515 92.7468 24.9515C91.4456 24.9515 91.0239 24.4214 91.0239 23.7708V23.325C91.0239 23.2407 91.0601 23.2045 91.1324 23.2045H91.4577C91.542 23.2045 91.5661 23.2407 91.5661 23.325V23.6985C91.5661 24.1684 91.8673 24.4576 92.7227 24.4576C93.5781 24.4576 93.8914 24.1564 93.8914 23.6985V23.2045C93.8914 22.7829 93.542 22.6142 93.2287 22.4937L91.783 21.9395C91.4456 21.807 91.0842 21.4696 91.0842 20.9756V20.5298C91.0842 19.8913 91.4577 19.3491 92.7468 19.3491C94.036 19.3491 94.4215 19.8792 94.4215 20.5298V20.9033C94.4215 20.9877 94.3854 21.0238 94.301 21.0238H93.9757C93.8914 21.0238 93.8673 20.9877 93.8673 20.9033V20.6021C93.8673 20.1323 93.6022 19.8431 92.7589 19.8431H92.7468Z" fill="#143109"/>
<path d="M95.4937 24.904C95.4214 24.904 95.3853 24.8678 95.3853 24.7835V19.5546C95.3853 19.4702 95.4214 19.4341 95.4937 19.4341H98.2407C98.325 19.4341 98.3612 19.4702 98.3612 19.5546V19.8076C98.3612 19.8919 98.325 19.9281 98.2407 19.9281H95.9515V21.8076H98.0961C98.1804 21.8076 98.2166 21.8437 98.2166 21.9281V22.157C98.2166 22.2413 98.1804 22.2775 98.0961 22.2775H95.9515V24.422H98.3371C98.4214 24.422 98.4575 24.4582 98.4575 24.5305V24.7835C98.4575 24.8678 98.4214 24.904 98.3371 24.904H95.4816H95.4937Z" fill="#143109"/>
<path d="M101.157 19.5419L102.771 24.7708C102.795 24.8551 102.771 24.8913 102.675 24.8913H102.325C102.241 24.8913 102.205 24.8551 102.181 24.7708L101.735 23.337H99.8915L99.4578 24.7708C99.4337 24.8551 99.3975 24.8913 99.3252 24.8913H98.9999C98.9156 24.8913 98.8915 24.8551 98.9156 24.7708L100.518 19.5419C100.542 19.4575 100.578 19.4214 100.675 19.4214H101.024C101.108 19.4214 101.145 19.4575 101.169 19.5419H101.157ZM101.036 20.9997C100.952 20.7467 100.855 20.1081 100.831 20.0238C100.831 20.084 100.723 20.6744 100.626 20.9877L100.036 22.8913H101.626L101.036 21.0117V20.9997Z" fill="#143109"/>
<path d="M104.036 22.675V24.7835C104.036 24.8678 104.012 24.904 103.927 24.904H103.59C103.506 24.904 103.482 24.8678 103.482 24.7835V19.5546C103.482 19.4702 103.518 19.4341 103.59 19.4341H105.18C106.518 19.4341 106.927 19.9642 106.927 20.6148V21.5184C106.927 22.0124 106.674 22.4582 105.927 22.6148L106.976 24.7955C107.012 24.8678 106.952 24.916 106.867 24.916H106.53C106.446 24.916 106.421 24.8678 106.385 24.7955L105.385 22.6871H104.048L104.036 22.675ZM104.036 19.916V22.1811H105.168C106.036 22.1811 106.349 21.8799 106.349 21.3979V20.6871C106.349 20.2172 106.036 19.916 105.168 19.916H104.036Z" fill="#143109"/>
<path d="M111.313 23.7956C111.313 24.4341 110.94 24.9763 109.614 24.9763C108.289 24.9763 107.916 24.4462 107.916 23.7956V20.5425C107.916 19.904 108.289 19.3618 109.614 19.3618C110.94 19.3618 111.313 19.8919 111.313 20.5425V20.9522C111.313 21.0365 111.277 21.0847 111.205 21.0847H110.879C110.795 21.0847 110.759 21.0486 110.759 20.9522V20.6269C110.759 20.157 110.482 19.8558 109.626 19.8558C108.771 19.8558 108.494 20.157 108.494 20.6269V23.6992C108.494 24.169 108.771 24.4703 109.626 24.4703C110.482 24.4703 110.759 24.169 110.759 23.6992V23.2775C110.759 23.1931 110.795 23.157 110.879 23.157H111.205C111.289 23.157 111.313 23.1931 111.313 23.2775V23.7956Z" fill="#143109"/>
<path d="M112.807 21.7587H115.144V19.5419C115.144 19.4575 115.181 19.4214 115.253 19.4214H115.602C115.687 19.4214 115.711 19.4575 115.711 19.5419V24.7708C115.711 24.8551 115.675 24.8913 115.602 24.8913H115.253C115.169 24.8913 115.144 24.8551 115.144 24.7708V22.2286H112.807V24.7708C112.807 24.8551 112.783 24.8913 112.699 24.8913H112.361C112.277 24.8913 112.253 24.8551 112.253 24.7708V19.5419C112.253 19.4575 112.289 19.4214 112.361 19.4214H112.699C112.783 19.4214 112.807 19.4575 112.807 19.5419V21.7587Z" fill="#143109"/>
<path d="M83.1924 33.6751C83.1924 33.7594 83.1683 33.7956 83.084 33.7956H82.7466C82.6623 33.7956 82.6382 33.7594 82.6382 33.6751V28.4462C82.6382 28.3618 82.6743 28.3257 82.7466 28.3257H83.084C83.1683 28.3257 83.1924 28.3618 83.1924 28.4462V33.6751Z" fill="#143109"/>
<path d="M87.9154 33.6751C87.9154 33.7594 87.8913 33.7956 87.8069 33.7956H87.5057C87.5057 33.7956 87.4214 33.7835 87.3973 33.7353L85.2647 29.9522C85.084 29.651 84.9997 29.4582 84.9876 29.4341V33.6751C84.9876 33.7594 84.9515 33.7956 84.8792 33.7956H84.578C84.4937 33.7956 84.4575 33.7594 84.4575 33.6751V28.4462C84.4575 28.3618 84.4937 28.3257 84.578 28.3257H84.8792C84.8792 28.3257 84.9635 28.3377 84.9756 28.3739L87.1563 32.2172C87.2166 32.3257 87.3973 32.6992 87.3973 32.6992V28.4462C87.3973 28.3618 87.4334 28.3257 87.5057 28.3257H87.8069C87.8913 28.3257 87.9154 28.3618 87.9154 28.4462V33.6751Z" fill="#143109"/>
<path d="M90.7466 28.7357C89.9032 28.7357 89.6381 29.0369 89.6381 29.4947V29.7357C89.6381 30.1333 89.9032 30.2778 90.108 30.3622L91.6261 30.9284C92.0598 31.0851 92.4695 31.4104 92.4695 31.9766V32.6634C92.4695 33.3019 92.0478 33.8441 90.7466 33.8441C89.4454 33.8441 89.0237 33.314 89.0237 32.6634V32.2176C89.0237 32.1333 89.0598 32.0971 89.1321 32.0971H89.4574C89.5418 32.0971 89.5658 32.1333 89.5658 32.2176V32.5911C89.5658 33.061 89.8671 33.3501 90.7225 33.3501C91.5779 33.3501 91.8911 33.0489 91.8911 32.5911V32.0971C91.8911 31.6754 91.5418 31.5068 91.2285 31.3863L89.7827 30.8321C89.4454 30.6995 89.0839 30.3622 89.0839 29.8682V29.4224C89.0839 28.7839 89.4574 28.2417 90.7466 28.2417C92.0357 28.2417 92.4213 28.7718 92.4213 29.4224V29.7959C92.4213 29.8803 92.3851 29.9164 92.3008 29.9164H91.9755C91.8911 29.9164 91.8671 29.8803 91.8671 29.7959V29.4947C91.8671 29.0248 91.602 28.7357 90.7586 28.7357H90.7466Z" fill="#143109"/>
<path d="M96.3371 28.314C96.4214 28.314 96.4575 28.3501 96.4575 28.4344V28.6875C96.4575 28.7718 96.4214 28.8079 96.3371 28.8079H94.9515V33.6754C94.9515 33.7597 94.9154 33.7959 94.8431 33.7959H94.4937C94.4094 33.7959 94.3732 33.7597 94.3732 33.6754V28.8079H92.9877C92.9033 28.8079 92.8672 28.7718 92.8672 28.6875V28.4344C92.8672 28.3501 92.9033 28.314 92.9877 28.314H96.3371Z" fill="#143109"/>
<path d="M97.6985 33.6751C97.6985 33.7594 97.6744 33.7956 97.5901 33.7956H97.2527C97.1684 33.7956 97.1443 33.7594 97.1443 33.6751V28.4462C97.1443 28.3618 97.1804 28.3257 97.2527 28.3257H97.5901C97.6744 28.3257 97.6985 28.3618 97.6985 28.4462V33.6751Z" fill="#143109"/>
<path d="M101.831 28.314C101.915 28.314 101.951 28.3501 101.951 28.4344V28.6875C101.951 28.7718 101.915 28.8079 101.831 28.8079H100.445V33.6754C100.445 33.7597 100.409 33.7959 100.337 33.7959H99.9876C99.9033 33.7959 99.8671 33.7597 99.8671 33.6754V28.8079H98.4816C98.3972 28.8079 98.3611 28.7718 98.3611 28.6875V28.4344C98.3611 28.3501 98.3972 28.314 98.4816 28.314H101.831Z" fill="#143109"/>
<path d="M103.144 32.5911C103.144 33.061 103.458 33.3622 104.301 33.3622C105.144 33.3622 105.482 33.061 105.482 32.5911V28.4344C105.482 28.3501 105.518 28.314 105.59 28.314H105.927C106.012 28.314 106.036 28.3501 106.036 28.4344V32.6754C106.036 33.314 105.626 33.8561 104.289 33.8561C102.952 33.8561 102.554 33.326 102.554 32.6754V28.4344C102.554 28.3501 102.59 28.314 102.662 28.314H103.012C103.096 28.314 103.12 28.3501 103.12 28.4344V32.5911H103.144Z" fill="#143109"/>
<path d="M110.132 28.314C110.217 28.314 110.253 28.3501 110.253 28.4344V28.6875C110.253 28.7718 110.217 28.8079 110.132 28.8079H108.747V33.6754C108.747 33.7597 108.711 33.7959 108.639 33.7959H108.289C108.205 33.7959 108.169 33.7597 108.169 33.6754V28.8079H106.783C106.699 28.8079 106.663 28.7718 106.663 28.6875V28.4344C106.663 28.3501 106.699 28.314 106.783 28.314H110.132Z" fill="#143109"/>
<path d="M111.023 33.7956C110.951 33.7956 110.915 33.7594 110.915 33.6751V28.4462C110.915 28.3618 110.951 28.3257 111.023 28.3257H113.77C113.855 28.3257 113.891 28.3618 113.891 28.4462V28.6992C113.891 28.7835 113.855 28.8197 113.77 28.8197H111.481V30.6992H113.626C113.71 30.6992 113.746 30.7353 113.746 30.8197V31.0486C113.746 31.1329 113.71 31.1691 113.626 31.1691H111.481V33.3136H113.867C113.951 33.3136 113.987 33.3498 113.987 33.4221V33.6751C113.987 33.7594 113.951 33.7956 113.867 33.7956H111.011H111.023Z" fill="#143109"/>
<path d="M117.084 33.6751C117.084 33.7594 117.06 33.7956 116.976 33.7956H116.638C116.554 33.7956 116.53 33.7594 116.53 33.6751V28.4462C116.53 28.3618 116.566 28.3257 116.638 28.3257H116.976C117.06 28.3257 117.084 28.3618 117.084 28.4462V33.6751Z" fill="#143109"/>
<path d="M121.795 33.6751C121.795 33.7594 121.771 33.7956 121.687 33.7956H121.385C121.385 33.7956 121.301 33.7835 121.277 33.7353L119.144 29.9522C118.964 29.651 118.879 29.4582 118.867 29.4341V33.6751C118.867 33.7594 118.831 33.7956 118.759 33.7956H118.458C118.373 33.7956 118.337 33.7594 118.337 33.6751V28.4462C118.337 28.3618 118.373 28.3257 118.458 28.3257H118.759C118.759 28.3257 118.843 28.3377 118.855 28.3739L121.036 32.2172C121.096 32.3257 121.277 32.6992 121.277 32.6992V28.4462C121.277 28.3618 121.313 28.3257 121.385 28.3257H121.687C121.771 28.3257 121.795 28.3618 121.795 28.4462V33.6751Z" fill="#143109"/>
<path d="M84.3372 37.3256L85.9517 42.5545C85.9758 42.6388 85.9517 42.675 85.8553 42.675H85.5059C85.4216 42.675 85.3854 42.6388 85.3613 42.5545L84.9155 41.1207H83.0722L82.6384 42.5545C82.6143 42.6388 82.5782 42.675 82.5059 42.675H82.1806C82.0963 42.675 82.0722 42.6388 82.0963 42.5545L83.6987 37.3256C83.7228 37.2412 83.7589 37.2051 83.8553 37.2051H84.2047C84.289 37.2051 84.3252 37.2412 84.3493 37.3256H84.3372ZM84.2167 38.7834C84.1324 38.5304 84.036 37.8918 84.0119 37.8075C84.0119 37.8677 83.9035 38.4581 83.8071 38.7713L83.2167 40.675H84.8071L84.2167 38.7954V38.7834Z" fill="#143109"/>
<path d="M87.2166 40.446V42.5545C87.2166 42.6388 87.1925 42.675 87.1081 42.675H86.7708C86.6864 42.675 86.6624 42.6388 86.6624 42.5545V37.3256C86.6624 37.2412 86.6985 37.2051 86.7708 37.2051H88.3611C89.6985 37.2051 90.1081 37.7352 90.1081 38.3858V39.2894C90.1081 39.7834 89.8551 40.2292 89.1081 40.3858L90.1563 42.5665C90.1925 42.6388 90.1322 42.687 90.0479 42.687H89.7105C89.6262 42.687 89.6021 42.6388 89.566 42.5665L88.566 40.4581H87.2286L87.2166 40.446ZM87.2166 37.6991V39.9641H88.3491C89.2166 39.9641 89.5298 39.6629 89.5298 39.181V38.4701C89.5298 38.0003 89.2166 37.6991 88.3491 37.6991H87.2166Z" fill="#143109"/>
<path d="M94.036 37.2051C94.1204 37.2051 94.1565 37.2412 94.1565 37.3256V37.5786C94.1565 37.6629 94.1204 37.6991 94.036 37.6991H92.6505V42.5665C92.6505 42.6509 92.6144 42.687 92.5421 42.687H92.1927C92.1083 42.687 92.0722 42.6509 92.0722 42.5665V37.6991H90.6866C90.6023 37.6991 90.5662 37.6629 90.5662 37.5786V37.3256C90.5662 37.2412 90.6023 37.2051 90.6866 37.2051H94.036Z" fill="#143109"/>
<path d="M93.9397 41.9276C93.9397 41.8433 93.9759 41.8071 94.0481 41.8071H94.3975C94.4819 41.8071 94.506 41.8433 94.506 41.9276V42.4457C94.506 42.9156 94.253 43.265 93.6867 43.4336C93.6144 43.4577 93.5662 43.4336 93.5421 43.3613L93.4578 43.1324C93.4216 43.0481 93.4578 43.0119 93.5301 42.9758C93.8433 42.8433 93.9277 42.6746 93.9277 42.4336V41.9397L93.9397 41.9276Z" fill="#143109"/>
<path d="M97.3129 42.675C97.2406 42.675 97.2166 42.6388 97.2166 42.5545V37.3256C97.2166 37.2412 97.2527 37.2051 97.325 37.2051H98.9515C100.277 37.2051 100.698 37.7352 100.698 38.3858V41.5063C100.698 42.1448 100.277 42.687 98.9515 42.687H97.3129V42.675ZM97.7828 37.6991V42.193H98.9515C99.819 42.193 100.132 41.8918 100.132 41.4219V38.4701C100.132 38.0003 99.819 37.6991 98.9515 37.6991H97.7828Z" fill="#143109"/>
<path d="M101.952 42.675C101.879 42.675 101.843 42.6388 101.843 42.5545V37.3256C101.843 37.2412 101.879 37.2051 101.952 37.2051H104.699C104.783 37.2051 104.819 37.2412 104.819 37.3256V37.5786C104.819 37.6629 104.783 37.6991 104.699 37.6991H102.41V39.5786H104.554C104.638 39.5786 104.675 39.6147 104.675 39.6991V39.928C104.675 40.0123 104.638 40.0485 104.554 40.0485H102.41V42.193H104.795C104.879 42.193 104.916 42.2292 104.916 42.3015V42.5545C104.916 42.6388 104.879 42.675 104.795 42.675H101.94H101.952Z" fill="#143109"/>
<path d="M107.434 37.6268C106.59 37.6268 106.325 37.928 106.325 38.3858V38.6268C106.325 39.0244 106.59 39.169 106.795 39.2533L108.313 39.8196C108.747 39.9762 109.157 40.3015 109.157 40.8678V41.5545C109.157 42.1931 108.735 42.7352 107.434 42.7352C106.133 42.7352 105.711 42.2051 105.711 41.5545V41.1087C105.711 41.0244 105.747 40.9882 105.819 40.9882H106.145C106.229 40.9882 106.253 41.0244 106.253 41.1087V41.4822C106.253 41.9521 106.554 42.2412 107.41 42.2412C108.265 42.2412 108.578 41.94 108.578 41.4822V40.9882C108.578 40.5665 108.229 40.3979 107.916 40.2774L106.47 39.7232C106.133 39.5906 105.771 39.2533 105.771 38.7593V38.3135C105.771 37.675 106.145 37.1328 107.434 37.1328C108.723 37.1328 109.109 37.6629 109.109 38.3135V38.687C109.109 38.7714 109.072 38.8075 108.988 38.8075H108.663C108.578 38.8075 108.554 38.7714 108.554 38.687V38.3858C108.554 37.9159 108.289 37.6268 107.446 37.6268H107.434Z" fill="#143109"/>
<path d="M110.747 42.5545C110.747 42.6388 110.723 42.675 110.638 42.675H110.301C110.217 42.675 110.193 42.6388 110.193 42.5545V37.3256C110.193 37.2412 110.229 37.2051 110.301 37.2051H110.638C110.723 37.2051 110.747 37.2412 110.747 37.3256V42.5545Z" fill="#143109"/>
<path d="M115.18 40.0485C115.265 40.0485 115.301 40.0846 115.301 40.1569V41.5665C115.301 42.2051 114.927 42.7473 113.602 42.7473C112.277 42.7473 111.903 42.2172 111.903 41.5665V38.3135C111.903 37.675 112.277 37.1328 113.602 37.1328C114.927 37.1328 115.301 37.6629 115.301 38.3135V38.6991C115.301 38.7834 115.265 38.8075 115.192 38.8075H114.867C114.783 38.8075 114.747 38.7714 114.747 38.6991V38.3979C114.747 37.928 114.47 37.6268 113.614 37.6268C112.759 37.6268 112.482 37.928 112.482 38.3979V41.4702C112.482 41.94 112.759 42.2412 113.614 42.2412C114.47 42.2412 114.747 41.94 114.747 41.4822V40.5304H113.662C113.578 40.5304 113.554 40.4943 113.554 40.4099V40.1569C113.554 40.0726 113.59 40.0485 113.662 40.0485H115.18Z" fill="#143109"/>
<path d="M119.819 42.5545C119.819 42.6388 119.795 42.675 119.711 42.675H119.41C119.41 42.675 119.325 42.6629 119.301 42.6147L117.169 38.8316C116.988 38.5304 116.903 38.3376 116.891 38.3135V42.5545C116.891 42.6388 116.855 42.675 116.783 42.675H116.482C116.397 42.675 116.361 42.6388 116.361 42.5545V37.3256C116.361 37.2412 116.397 37.2051 116.482 37.2051H116.783C116.783 37.2051 116.867 37.2171 116.879 37.2533L119.06 41.0966C119.12 41.2051 119.301 41.5786 119.301 41.5786V37.3256C119.301 37.2412 119.337 37.2051 119.41 37.2051H119.711C119.795 37.2051 119.819 37.2412 119.819 37.3256V42.5545Z" fill="#143109"/>
<path d="M84.3372 46.2172L85.9517 51.4461C85.9758 51.5304 85.9517 51.5666 85.8553 51.5666H85.5059C85.4216 51.5666 85.3854 51.5304 85.3613 51.4461L84.9155 50.0123H83.0722L82.6384 51.4461C82.6143 51.5304 82.5782 51.5666 82.5059 51.5666H82.1806C82.0963 51.5666 82.0722 51.5304 82.0963 51.4461L83.6987 46.2172C83.7228 46.1328 83.7589 46.0967 83.8553 46.0967H84.2047C84.289 46.0967 84.3252 46.1328 84.3493 46.2172H84.3372ZM84.2167 47.675C84.1324 47.422 84.036 46.7834 84.0119 46.6991C84.0119 46.7593 83.9035 47.3497 83.8071 47.6629L83.2167 49.5666H84.8071L84.2167 47.687V47.675Z" fill="#143109"/>
<path d="M90.1202 51.4461C90.1202 51.5304 90.0961 51.5666 90.0117 51.5666H89.7105C89.7105 51.5666 89.6262 51.5545 89.6021 51.5063L87.4696 47.7232C87.2889 47.422 87.2045 47.2292 87.1925 47.2051V51.4461C87.1925 51.5304 87.1563 51.5666 87.084 51.5666H86.7828C86.6985 51.5666 86.6624 51.5304 86.6624 51.4461V46.2172C86.6624 46.1328 86.6985 46.0967 86.7828 46.0967H87.084C87.084 46.0967 87.1684 46.1087 87.1804 46.1449L89.3611 49.9883C89.4214 50.0967 89.6021 50.4702 89.6021 50.4702V46.2172C89.6021 46.1328 89.6383 46.0967 89.7105 46.0967H90.0117C90.0961 46.0967 90.1202 46.1328 90.1202 46.2172V51.4461Z" fill="#143109"/>
<path d="M91.4096 51.5666C91.3373 51.5666 91.3132 51.5304 91.3132 51.4461V46.2172C91.3132 46.1328 91.3494 46.0967 91.4217 46.0967H93.0482C94.3735 46.0967 94.7952 46.6268 94.7952 47.2774V50.3979C94.7952 51.0364 94.3735 51.5786 93.0482 51.5786H91.4096V51.5666ZM91.8795 46.5786V51.0726H93.0482C93.9156 51.0726 94.2289 50.7714 94.2289 50.3015V47.3497C94.2289 46.8798 93.9156 46.5786 93.0482 46.5786H91.8795Z" fill="#143109"/>
<path d="M99.1201 46.5067C98.2767 46.5067 98.0117 46.8079 98.0117 47.2657V47.5067C98.0117 47.9043 98.2767 48.0488 98.4816 48.1332L99.9996 48.6994C100.433 48.8561 100.843 49.1814 100.843 49.7476V50.4344C100.843 51.0729 100.421 51.6151 99.1201 51.6151C97.8189 51.6151 97.3972 51.085 97.3972 50.4344V49.9886C97.3972 49.9043 97.4334 49.8681 97.5057 49.8681H97.831C97.9153 49.8681 97.9394 49.9043 97.9394 49.9886V50.3621C97.9394 50.832 98.2406 51.1211 99.096 51.1211C99.9514 51.1211 100.265 50.8199 100.265 50.3621V49.8681C100.265 49.4464 99.9153 49.2778 99.602 49.1573L98.1563 48.6031C97.8189 48.4705 97.4575 48.1332 97.4575 47.6392V47.1934C97.4575 46.5549 97.831 46.0127 99.1201 46.0127C100.409 46.0127 100.795 46.5428 100.795 47.1934V47.5669C100.795 47.6513 100.759 47.6874 100.674 47.6874H100.349C100.265 47.6874 100.241 47.6513 100.241 47.5669V47.2657C100.241 46.7958 99.9755 46.5067 99.1322 46.5067H99.1201Z" fill="#143109"/>
<path d="M101.771 47.2051C101.771 46.5666 102.192 46.0244 103.506 46.0244C104.819 46.0244 105.253 46.5545 105.253 47.2051V50.4581C105.253 51.0967 104.843 51.6389 103.506 51.6389C102.168 51.6389 101.771 51.1088 101.771 50.4581V47.2051ZM104.686 47.2895C104.686 46.8196 104.361 46.5184 103.506 46.5184C102.65 46.5184 102.337 46.8196 102.337 47.2895V50.3618C102.337 50.8316 102.662 51.1328 103.506 51.1328C104.349 51.1328 104.686 50.8316 104.686 50.3618V47.2895Z" fill="#143109"/>
<path d="M109.711 50.4581C109.711 51.0967 109.337 51.6389 108.012 51.6389C106.686 51.6389 106.313 51.1088 106.313 50.4581V47.2051C106.313 46.5666 106.686 46.0244 108.012 46.0244C109.337 46.0244 109.711 46.5545 109.711 47.2051V47.6148C109.711 47.6991 109.674 47.7473 109.602 47.7473H109.277C109.193 47.7473 109.156 47.7112 109.156 47.6148V47.2895C109.156 46.8196 108.879 46.5184 108.024 46.5184C107.168 46.5184 106.891 46.8196 106.891 47.2895V50.3618C106.891 50.8316 107.168 51.1328 108.024 51.1328C108.879 51.1328 109.156 50.8316 109.156 50.3618V49.9401C109.156 49.8557 109.193 49.8196 109.277 49.8196H109.602C109.686 49.8196 109.711 49.8557 109.711 49.9401V50.4581Z" fill="#143109"/>
<path d="M111.204 51.4461C111.204 51.5304 111.18 51.5666 111.096 51.5666H110.759C110.674 51.5666 110.65 51.5304 110.65 51.4461V46.2172C110.65 46.1328 110.686 46.0967 110.759 46.0967H111.096C111.18 46.0967 111.204 46.1328 111.204 46.2172V51.4461Z" fill="#143109"/>
<path d="M112.554 51.5666C112.482 51.5666 112.446 51.5304 112.446 51.4461V46.2172C112.446 46.1328 112.482 46.0967 112.554 46.0967H115.301C115.385 46.0967 115.421 46.1328 115.421 46.2172V46.4702C115.421 46.5545 115.385 46.5907 115.301 46.5907H113.012V48.4702H115.156C115.241 48.4702 115.277 48.5063 115.277 48.5907V48.8196C115.277 48.9039 115.241 48.9401 115.156 48.9401H113.012V51.0846H115.397C115.482 51.0846 115.518 51.1208 115.518 51.1931V51.4461C115.518 51.5304 115.482 51.5666 115.397 51.5666H112.542H112.554Z" fill="#143109"/>
<path d="M119.337 46.0967C119.422 46.0967 119.458 46.1328 119.458 46.2172V46.4702C119.458 46.5545 119.422 46.5907 119.337 46.5907H117.952V51.4581C117.952 51.5425 117.916 51.5786 117.843 51.5786H117.494C117.41 51.5786 117.373 51.5425 117.373 51.4581V46.5907H115.988C115.904 46.5907 115.867 46.5545 115.867 46.4702V46.2172C115.867 46.1328 115.904 46.0967 115.988 46.0967H119.337Z" fill="#143109"/>
<path d="M121.361 48.5426C121.433 48.6993 121.469 48.8318 121.482 48.8438C121.482 48.8318 121.554 48.639 121.602 48.5426L122.831 46.2053C122.867 46.145 122.891 46.0848 122.976 46.0848H123.313C123.397 46.0848 123.433 46.1209 123.397 46.2053L121.783 49.3258V51.4342C121.783 51.5185 121.747 51.5547 121.662 51.5547H121.325C121.241 51.5547 121.204 51.5185 121.204 51.4342V49.386L119.578 46.1932C119.542 46.1089 119.578 46.0728 119.662 46.0728H120.048C120.132 46.0728 120.156 46.1209 120.192 46.1932L121.373 48.5306L121.361 48.5426Z" fill="#143109"/>
</g>
<defs>
<clipPath id="clip0_336_47">
<rect width="144" height="70.988" fill="white"/>
</clipPath>
</defs>
</svg>
