<svg width="343" height="36" viewBox="0 0 343 36" fill="none" xmlns="http://www.w3.org/2000/svg">
<path d="M28.6439 0.0258789H0.0529785V35.9075H28.6439V0.0258789Z" fill="#00FF00"/>
<path d="M14.5515 0.0258789C22.2667 0.0258789 28.5518 6.22326 28.5518 13.947H28.5911H21.5057C21.5057 9.99958 18.291 7.40747 14.5515 7.40747" fill="#143109"/>
<path d="M14.5515 13.9473C22.293 13.9473 28.6174 20.4341 28.6174 28.4999H28.6567H21.8862C21.8862 24.3815 18.3173 20.9867 14.5646 20.9867" fill="#143109"/>
<path d="M14.5515 7.40771H7.37427V13.9472H14.5515V7.40771Z" fill="#143109"/>
<path d="M21.8336 28.5H0V35.9342H21.8336V28.5Z" fill="#143109"/>
<path d="M7.37408 0.0258789H0V28.868H7.37408V0.0258789Z" fill="#143109"/>
<path d="M57.4182 0.0258789H28.6436V35.947H57.4182V0.0258789Z" fill="#00FF00"/>
<path d="M43.326 0.0258789H35.6895V7.35484H43.326V0.0258789Z" fill="#143109"/>
<path d="M50.1751 14.1841C50.1751 18.1709 46.9605 21.4078 43.011 21.4078V14.1841H50.1751Z" fill="#143109"/>
<path d="M35.7815 7.3418H28.6567V35.9339H35.7815V7.3418Z" fill="#143109"/>
<path d="M42.9851 21.3022C50.8184 21.3022 57.4052 27.8154 57.4052 35.9338H50.1493C50.1493 31.7891 46.7902 28.947 42.9851 28.947" fill="#143109"/>
<path d="M43.011 0.0258789C50.923 0.0258789 57.3786 6.32852 57.3786 14.1575H57.418H50.162C50.162 10.1575 46.7505 7.35484 42.906 7.35484" fill="#143109"/>
<path d="M85.7994 0H57.3921V35.9474H85.7994V0Z" fill="#00FF00"/>
<path d="M57.4182 7.20996H64.4511V28.6179H57.4182" fill="#143109"/>
<path d="M92.0318 35.9471H64.4512V28.6182H92.0318" fill="#143109"/>
<path d="M85.7993 0H64.4512V7.52633H85.7993" fill="#143109"/>
<path d="M70.4866 21.1047C63.2174 21.1047 57.326 14.6573 57.326 6.69678H57.2998H63.9785C63.9785 10.7626 66.8389 14.0521 70.3685 14.0521" fill="#143109"/>
<path d="M78.4908 14.0659H70.1982V21.1054H78.4908" fill="#143109"/>
<path d="M57.2998 7.52538C57.2998 3.36747 60.5014 0.012207 64.4508 0.012207V7.52538H57.2998Z" fill="#143109"/>
<path d="M114.18 0.0258789H85.7729V35.9601H114.18V0.0258789Z" fill="#00FF00"/>
<path d="M99.9172 0.0258789C107.764 0.0258789 114.154 6.26273 114.154 14.0127H114.193H106.99C106.99 10.0522 103.801 7.47326 99.996 7.47326" fill="#143109"/>
<path d="M85.7729 14.0132C85.7729 6.3158 92.0711 0.0263158 99.9044 0.0263158V0L99.9831 7.4737C95.9812 7.4737 92.8977 10.2763 92.8977 14.0132" fill="#143109"/>
<path d="M92.8321 21.0527H85.7729V35.9607H92.8321V21.0527Z" fill="#143109"/>
<path d="M121.082 21.0527H107.134V35.987H121.082V21.0527Z" fill="#143109"/>
<path d="M99.9831 21.079C96.0468 21.079 92.8452 17.9211 92.8452 14.0132H99.9831V21.079Z" fill="#143109"/>
<path d="M106.963 14.0132C106.963 17.9211 103.814 21.079 99.9172 21.079V14.0132H106.963Z" fill="#143109"/>
<path d="M142.587 0.0258789H114.18V35.9865H142.587V0.0258789Z" fill="#00FF00"/>
<path d="M114.18 35.9996V0.0258789H121.069V35.9996" fill="#143109"/>
<path d="M121.069 20.9731V14.21H128.233V20.9731" fill="#143109"/>
<path d="M142.653 0.0522461C142.653 7.92068 136.132 14.197 128.299 14.197H128.246L128.299 7.43384C132.301 7.43384 135.45 3.86804 135.45 0.0522461" fill="#143109"/>
<path d="M128.233 20.9736C136.211 20.9736 142.587 27.7763 142.587 35.9473V36L135.371 35.9868C135.371 31.8158 132.104 28.5 128.22 28.5" fill="#143109"/>
<path d="M171.572 0.144531H142.587V35.9209H171.572V0.144531Z" fill="#00FF00"/>
<path d="M171.533 0.0649414H142.587V7.44653H171.533V0.0649414Z" fill="#143109"/>
<path d="M164.185 29.0127H157.244V35.9732H164.185V29.0127Z" fill="#143109"/>
<path d="M157.257 7.44775H149.883V28.9741H157.257V7.44775Z" fill="#143109"/>
<path d="M229.292 0H200.74V35.9211H229.292V0Z" fill="#00FF00"/>
<path d="M200.767 7.20996H207.826V28.6047H200.767" fill="#143109"/>
<path d="M229.292 35.9218H207.825V28.606H229.292" fill="#143109"/>
<path d="M229.292 0H207.825V7.51317H229.292" fill="#143109"/>
<path d="M213.914 21.0915C206.606 21.0915 200.688 14.6442 200.688 6.69678H200.662H207.367C207.367 10.7494 210.24 14.0389 213.783 14.0389" fill="#143109"/>
<path d="M221.944 14.0527H213.599V21.0922H221.944" fill="#143109"/>
<path d="M200.648 7.51317C200.648 3.36843 203.863 0 207.839 0V7.51317H200.648Z" fill="#143109"/>
<path d="M200.74 0H171.585V35.9211H200.74V0Z" fill="#00FF00"/>
<path d="M186.189 20.9998C182.122 20.9998 178.828 17.8288 178.828 13.9077H186.189V20.9998Z" fill="#143109"/>
<path d="M178.828 20.9341H171.533V35.9209H178.828V20.9341Z" fill="#143109"/>
<path d="M200.727 21H193.353V35.9211H200.727V21Z" fill="#143109"/>
<path d="M178.828 0H171.585V13.8948H178.828V0Z" fill="#143109"/>
<path d="M200.727 0H193.379V13.8948H200.727V0Z" fill="#143109"/>
<path d="M186.084 20.9998C190.152 20.9998 193.445 17.8288 193.445 13.9077H186.084V20.9998Z" fill="#143109"/>
<path d="M257.607 0.104492H229.292V35.8809H257.607V0.104492Z" fill="#00FF00"/>
<path d="M236.259 0.104492H229.292V20.9466H236.259V0.104492Z" fill="#143109"/>
<path d="M257.62 28.5H250.797V35.9211H257.62V28.5Z" fill="#143109"/>
<path d="M250.797 35.8547C242.833 35.8547 236.377 29.1968 236.377 20.9468H243.554C243.554 25.1573 246.94 28.4731 250.797 28.4731" fill="#143109"/>
<path d="M286.356 0H257.608V35.8553H286.356V0Z" fill="#00FF00"/>
<path d="M272.132 0C279.966 0 286.343 6.27633 286.343 14.0921H286.382H279.192C279.192 10.1053 275.911 7.35528 272.106 7.35528" fill="#143109"/>
<path d="M257.831 14.1043C257.831 6.35432 264.181 0.012207 272.106 0.012207H272.133L272.106 7.36748C268.065 7.36748 265.047 10.3543 265.047 14.1043" fill="#143109"/>
<path d="M271.962 35.855C264.129 35.855 257.752 29.1576 257.752 20.8418H257.712H264.903C264.903 25.0918 268.183 28.026 271.988 28.026" fill="#143109"/>
<path d="M286.264 20.8418C286.264 29.0918 279.913 35.855 271.988 35.855H271.962L271.988 28.026C276.029 28.026 279.047 24.8418 279.047 20.8418" fill="#143109"/>
<path d="M314.553 0H286.238V35.8553H314.553V0Z" fill="#00FF00"/>
<path d="M300.54 0C308.255 0 314.54 6.27633 314.54 14.0921H314.579H307.494C307.494 10.1053 304.266 7.35528 300.513 7.35528" fill="#143109"/>
<path d="M286.448 14.1043C286.448 6.35432 292.694 0.012207 300.501 0.012207H300.527L300.501 7.36748C296.512 7.36748 293.547 10.3543 293.547 14.1043" fill="#143109"/>
<path d="M300.369 35.855C292.654 35.855 286.369 29.1576 286.369 20.8418H286.33H293.415C293.415 25.0918 296.643 28.026 300.395 28.026" fill="#143109"/>
<path d="M314.448 20.8418C314.448 29.0918 308.202 35.855 300.395 35.855H300.369L300.395 28.026C304.384 28.026 307.35 24.8418 307.35 20.8418" fill="#143109"/>
<path d="M343 0H314.566V35.8158H343V0Z" fill="#00FF00"/>
<path d="M321.442 7.38086H314.566V35.8677H321.442V7.38086Z" fill="#143109"/>
<path d="M335.757 14.1055C335.757 17.9476 332.555 21.066 328.606 21.066V14.1055H335.757Z" fill="#143109"/>
<path d="M328.737 0C336.571 0 342.961 6.27633 342.961 14.0921H343H335.81C335.81 10.1053 332.542 7.10528 328.737 7.10528" fill="#143109"/>
</svg>
