<svg width="792" height="150" viewBox="0 0 792 150" fill="none" xmlns="http://www.w3.org/2000/svg">
<g clip-path="url(#clip0_268_76)">
<path fill-rule="evenodd" clip-rule="evenodd" d="M258 38.6118V72.9861H296.235V38.6118H258ZM286.287 44.7252H285.429C284.84 44.7252 284.411 44.9397 284.142 45.3955C283.874 45.8513 283.74 46.5485 283.74 47.4869V59.7673C283.74 62.2609 283.016 64.2182 281.595 65.6393C280.147 67.0604 277.975 67.7843 275.053 67.7843C272.345 67.7843 270.2 67.0604 268.591 65.6125C266.982 64.1646 266.178 62.1536 266.178 59.6064V44.7252H263.604V44.1353H273.98V44.7252H271.299V59.1774C271.299 61.5905 271.701 63.4406 272.506 64.7008C273.31 65.9611 274.811 66.6046 277.064 66.6046C278.753 66.6046 280.147 66.0415 281.273 64.8885C282.4 63.7356 282.963 62.1 282.963 59.9549V47.4601C282.963 46.468 282.802 45.7709 282.48 45.3419C282.158 44.9129 281.595 44.6984 280.764 44.6984H279.799V44.1085H286.314V44.6984L286.287 44.7252ZM291.516 66.9531C291.06 67.409 290.524 67.6235 289.854 67.6235C289.183 67.6235 288.647 67.409 288.218 66.9531C287.762 66.4973 287.548 65.9611 287.548 65.2907C287.548 64.6204 287.762 64.0841 288.218 63.6283C288.674 63.1725 289.237 62.958 289.854 62.958C290.47 62.958 291.06 63.1993 291.516 63.6283C291.972 64.0841 292.186 64.6204 292.186 65.2907C292.186 65.9611 291.972 66.4973 291.516 66.9531Z" fill="#143109"/>
<path fill-rule="evenodd" clip-rule="evenodd" d="M303.929 44.5914H300.685V44.0552H310.07C312.724 44.0552 314.842 44.5646 316.397 45.5835C317.979 46.6024 318.757 48.238 318.757 50.4903C318.757 52.7426 317.926 54.2709 316.29 55.3166C314.628 56.3891 312.67 56.9254 310.418 56.9254C309.104 56.9254 308.085 56.7377 307.335 56.3623V66.739H310.686V67.2752H300.712V66.739H303.956V44.5914H303.929ZM307.281 55.7188C307.576 55.9065 307.925 56.0674 308.38 56.2015C308.836 56.3355 309.319 56.416 309.801 56.416C311.196 56.416 312.429 55.9869 313.528 55.1021C314.628 54.2173 315.191 52.7962 315.191 50.7852C315.191 48.6402 314.681 47.085 313.716 46.093C312.724 45.1009 311.249 44.5914 309.292 44.5914H307.281V55.7188Z" fill="#143109"/>
<path fill-rule="evenodd" clip-rule="evenodd" d="M332.11 43.5703C334.899 43.5703 337.339 44.7501 339.403 47.1096C341.495 49.4692 342.514 52.3113 342.514 55.663C342.514 59.0146 341.495 61.8568 339.457 64.2163C337.392 66.5758 334.952 67.7556 332.11 67.7556C329.268 67.7556 326.909 66.5758 324.817 64.2163C322.752 61.8568 321.707 58.9878 321.707 55.663C321.707 52.3382 322.726 49.4424 324.79 47.1096C326.828 44.7501 329.268 43.5703 332.11 43.5703ZM332.11 67.2462C333.907 67.2462 335.274 66.6295 336.266 65.3961C337.258 64.1627 337.929 62.688 338.25 60.9987C338.599 59.3095 338.76 57.5399 338.76 55.6898C338.76 53.8397 338.599 51.9896 338.277 50.3272C337.955 48.6648 337.312 47.2169 336.32 45.9835C335.328 44.7501 333.934 44.1334 332.083 44.1334C330.233 44.1334 328.919 44.7501 327.954 45.9835C326.962 47.2169 326.292 48.6916 325.97 50.3808C325.621 52.07 325.461 53.8665 325.461 55.6898C325.461 57.5131 325.621 59.39 325.943 61.0524C326.265 62.7148 326.909 64.1627 327.901 65.3961C328.893 66.6295 330.287 67.2462 332.11 67.2462Z" fill="#143109"/>
<path fill-rule="evenodd" clip-rule="evenodd" d="M348.146 44.5914H344.848V44.0552H354.956C357.316 44.0552 359.193 44.4574 360.667 45.2618C362.142 46.093 362.839 47.6213 362.839 49.9004C362.839 51.6701 362.115 52.9571 360.667 53.7615C359.22 54.539 357.611 55.0485 355.788 55.2898C357.879 55.5043 359.38 55.9869 360.319 56.6841C361.257 57.408 361.847 58.7755 362.089 60.8401L362.544 64.862C362.652 65.6932 362.866 66.2563 363.188 66.5244C363.51 66.7926 363.858 66.9266 364.26 66.9266C364.609 66.9266 365.065 66.8194 365.601 66.6049L365.789 67.0339C365.44 67.168 365.065 67.2752 364.609 67.3557C364.18 67.4361 363.671 67.4629 363.081 67.4629C361.257 67.4629 360.078 67.0339 359.568 66.2027C359.059 65.3715 358.657 63.8163 358.362 61.5372L358.12 59.5531C357.986 58.2929 357.638 57.3008 357.021 56.6305C356.404 55.9601 355.278 55.6116 353.589 55.6116H351.444V66.739H354.795V67.2752H344.794V66.739H348.092V44.5914H348.146ZM351.497 55.1021H353.133C355.171 55.1021 356.699 54.6999 357.745 53.8955C358.764 53.0911 359.273 51.7773 359.273 49.9272C359.273 48.3453 358.871 47.0582 358.093 46.093C357.316 45.1009 355.841 44.6182 353.723 44.6182H351.497V55.1289V55.1021Z" fill="#143109"/>
<path fill-rule="evenodd" clip-rule="evenodd" d="M375.36 44.5914H374.662C371.686 44.5914 369.729 44.9668 368.844 45.7176C367.932 46.4683 367.503 48.1844 367.503 50.8657H366.967V44.0552H387.104V50.8657H386.567C386.567 48.2112 386.112 46.4952 385.227 45.7176C384.342 44.94 382.385 44.5646 379.435 44.5646H378.711V66.7121H382.09V67.2484H371.954V66.7121H375.36V44.5914Z" fill="#143109"/>
<path fill-rule="evenodd" clip-rule="evenodd" d="M399.893 43.5703C402.682 43.5703 405.122 44.7501 407.187 47.1096C409.251 49.4692 410.297 52.3113 410.297 55.663C410.297 59.0146 409.278 61.8568 407.213 64.2163C405.176 66.5758 402.736 67.7556 399.893 67.7556C397.051 67.7556 394.692 66.5758 392.6 64.2163C390.536 61.8568 389.49 58.9878 389.49 55.663C389.49 52.3382 390.509 49.4424 392.573 47.1096C394.611 44.7501 397.051 43.5703 399.893 43.5703ZM399.893 67.2462C401.69 67.2462 403.057 66.6295 404.049 65.3961C405.042 64.1627 405.685 62.688 406.034 60.9987C406.382 59.3095 406.543 57.5399 406.543 55.6898C406.543 53.8397 406.382 51.9896 406.06 50.3272C405.739 48.6648 405.095 47.2169 404.103 45.9835C403.111 44.7501 401.717 44.1334 399.893 44.1334C398.07 44.1334 396.729 44.7501 395.764 45.9835C394.772 47.2169 394.102 48.6916 393.78 50.3808C393.431 52.07 393.271 53.8665 393.271 55.6898C393.271 57.5131 393.431 59.39 393.753 61.0524C394.075 62.7148 394.719 64.1627 395.711 65.3961C396.703 66.6295 398.097 67.2462 399.92 67.2462H399.893Z" fill="#143109"/>
<path fill-rule="evenodd" clip-rule="evenodd" d="M307.712 103.742V98.8887H306.8V103.447C306.8 104.359 306.746 104.627 306.371 105.002C305.996 105.404 305.459 105.646 304.816 105.646C304.172 105.646 303.636 105.431 303.287 105.002C302.939 104.6 302.858 104.359 302.858 103.447V98.8887H301.947V103.742C301.947 104.707 302.188 105.297 302.805 105.806C303.341 106.262 304.038 106.477 304.843 106.477C305.647 106.477 306.317 106.235 306.854 105.806C307.47 105.297 307.712 104.734 307.712 103.742Z" fill="#143109"/>
<path fill-rule="evenodd" clip-rule="evenodd" d="M315.888 106.341V98.9141H314.977V105.161C314.977 105.161 314.977 105.081 314.923 105.054C314.843 104.84 314.843 104.84 314.789 104.732C314.735 104.652 314.709 104.598 314.682 104.545L311.035 98.9409H309.829V106.314H310.74V99.933C310.794 100.094 310.794 100.147 310.848 100.201C310.848 100.255 310.901 100.282 310.928 100.362C310.982 100.469 311.062 100.55 311.062 100.63L314.789 106.368H315.835L315.888 106.341Z" fill="#143109"/>
<path d="M319.133 98.9141H318.221V106.288H319.133V98.9141Z" fill="#143109"/>
<path fill-rule="evenodd" clip-rule="evenodd" d="M326.641 98.9141H325.729L323.638 104.652C323.638 104.652 323.584 104.867 323.584 105.001C323.584 104.867 323.557 104.732 323.504 104.652L321.332 98.9141H320.34L323.236 106.475H323.799L326.641 98.9141Z" fill="#143109"/>
<path fill-rule="evenodd" clip-rule="evenodd" d="M332.084 106.261V105.51H328.759V102.909H331.413V102.132H328.759V99.6916H331.977V98.9141H327.821V106.261H332.084Z" fill="#143109"/>
<path fill-rule="evenodd" clip-rule="evenodd" d="M338.813 106.262L336.641 102.964C337.177 102.83 337.445 102.696 337.767 102.401C338.169 101.999 338.41 101.436 338.41 100.873C338.41 100.31 338.196 99.7735 337.821 99.4249C337.392 98.9959 336.989 98.8887 336.078 98.8887H333.825V106.262H334.737V103.098H335.702L337.74 106.262H338.786H338.813ZM337.418 100.9C337.418 101.838 336.909 102.348 335.944 102.348H334.737V99.6931H335.944C336.587 99.6931 336.775 99.7199 337.016 99.9076C337.284 100.122 337.418 100.444 337.418 100.926V100.9Z" fill="#143109"/>
<path fill-rule="evenodd" clip-rule="evenodd" d="M344.391 99.3979C343.989 99.1566 343.801 99.0494 343.506 98.9689C343.131 98.8617 342.675 98.7812 342.273 98.7812C340.825 98.7812 339.833 99.5588 339.833 100.739C339.833 101.489 340.315 102.079 341.415 102.669C342.112 103.045 342.514 103.259 342.648 103.339C342.943 103.5 343.157 103.715 343.265 103.956C343.345 104.09 343.372 104.278 343.372 104.466C343.372 105.163 342.836 105.592 341.978 105.592C341.602 105.592 341.254 105.511 340.932 105.404C340.664 105.297 340.503 105.19 340.101 104.921L339.618 105.645C340.101 105.967 340.288 106.074 340.557 106.182C340.932 106.343 341.415 106.423 341.924 106.423C343.426 106.423 344.337 105.645 344.337 104.385C344.337 103.849 344.123 103.339 343.774 103.045C343.506 102.803 343.104 102.562 342.594 102.294C341.093 101.489 340.771 101.221 340.771 100.685C340.771 100.068 341.334 99.6393 342.192 99.6393C342.487 99.6393 342.916 99.7197 343.211 99.8001C343.452 99.8806 343.613 99.961 343.989 100.176L344.418 99.4248L344.391 99.3979Z" fill="#143109"/>
<path d="M347.018 98.9141H346.106V106.288H347.018V98.9141Z" fill="#143109"/>
<path fill-rule="evenodd" clip-rule="evenodd" d="M355.036 102.561C355.036 100.442 353.481 98.9141 351.336 98.9141H348.896V106.288H351.336C352.623 106.288 353.401 105.993 354.044 105.215C354.688 104.491 355.036 103.526 355.036 102.561ZM354.071 102.561C354.071 103.365 353.696 104.277 353.159 104.84C352.703 105.322 352.14 105.51 351.175 105.51H349.781V99.6916H351.175C352.837 99.6916 354.071 100.925 354.071 102.561Z" fill="#143109"/>
<path fill-rule="evenodd" clip-rule="evenodd" d="M361.793 106.261L359.058 98.6997H358.066L355.331 106.261H356.323L357.074 104.089H360.05L360.801 106.261H361.766H361.793ZM359.782 103.258H357.395L358.602 99.8795L359.809 103.258H359.782Z" fill="#143109"/>
<path fill-rule="evenodd" clip-rule="evenodd" d="M369.059 102.561C369.059 100.442 367.504 98.9141 365.332 98.9141H362.892V106.288H365.332C366.619 106.288 367.397 105.993 368.04 105.215C368.684 104.491 369.059 103.526 369.059 102.561ZM368.094 102.561C368.094 103.365 367.719 104.277 367.182 104.84C366.7 105.322 366.164 105.51 365.198 105.51H363.804V99.6916H365.198C366.861 99.6916 368.094 100.925 368.094 102.561Z" fill="#143109"/>
<path fill-rule="evenodd" clip-rule="evenodd" d="M374.744 106.261V105.51H371.393V102.909H374.074V102.132H371.393V99.6916H374.637V98.9141H370.481V106.261H374.744Z" fill="#143109"/>
<path fill-rule="evenodd" clip-rule="evenodd" d="M385.442 102.561C385.442 100.442 383.886 98.9141 381.741 98.9141H379.275V106.288H381.715C383.002 106.288 383.779 105.993 384.423 105.215C385.066 104.491 385.415 103.526 385.415 102.561H385.442ZM384.503 102.561C384.503 103.365 384.128 104.277 383.592 104.84C383.136 105.322 382.573 105.51 381.607 105.51H380.213V99.6916H381.607C383.27 99.6916 384.503 100.925 384.503 102.561Z" fill="#143109"/>
<path fill-rule="evenodd" clip-rule="evenodd" d="M393.941 102.589C393.941 100.39 392.386 98.7812 390.241 98.7812C388.096 98.7812 386.541 100.39 386.541 102.589C386.541 104.787 388.096 106.423 390.241 106.423C392.386 106.423 393.941 104.814 393.941 102.589ZM392.949 102.589C392.949 104.251 391.742 105.619 390.268 105.619C388.793 105.619 387.586 104.251 387.586 102.589C387.586 100.926 388.793 99.5856 390.268 99.5856C391.742 99.5856 392.949 100.953 392.949 102.589Z" fill="#143109"/>
<path fill-rule="evenodd" clip-rule="evenodd" d="M403.192 101.086C403.192 100.389 403.004 99.8793 402.629 99.4771C402.227 99.0481 401.717 98.9141 400.833 98.9141H398.527V106.288H399.438V103.499C400.082 103.553 400.296 103.58 400.564 103.58C402.173 103.58 403.192 102.641 403.192 101.086ZM402.254 101.14C402.254 101.837 401.932 102.4 401.396 102.641C401.154 102.748 400.859 102.802 400.43 102.802C400.189 102.802 399.975 102.802 399.465 102.748V99.7185H400.725C401.315 99.7185 401.637 99.7989 401.851 100.04C402.12 100.308 402.28 100.711 402.28 101.193L402.254 101.14Z" fill="#143109"/>
<path fill-rule="evenodd" clip-rule="evenodd" d="M411.45 102.589C411.45 100.39 409.895 98.7812 407.75 98.7812C405.605 98.7812 404.05 100.39 404.05 102.589C404.05 104.787 405.605 106.423 407.75 106.423C409.895 106.423 411.45 104.814 411.45 102.589ZM410.458 102.589C410.458 104.251 409.252 105.619 407.777 105.619C406.302 105.619 405.069 104.251 405.069 102.589C405.069 100.926 406.275 99.5856 407.777 99.5856C409.278 99.5856 410.458 100.953 410.458 102.589Z" fill="#143109"/>
<path fill-rule="evenodd" clip-rule="evenodd" d="M417.858 106.262L415.686 102.964C416.222 102.83 416.49 102.696 416.812 102.401C417.214 101.999 417.456 101.436 417.456 100.873C417.456 100.31 417.214 99.7735 416.893 99.4249C416.464 98.9959 416.035 98.8887 415.15 98.8887H412.897V106.262H413.809V103.098H414.774L416.812 106.262H417.858ZM416.49 100.9C416.49 101.838 415.981 102.348 415.016 102.348H413.809V99.6931H415.016C415.659 99.6931 415.847 99.7199 416.088 99.9076C416.356 100.122 416.49 100.444 416.49 100.926V100.9Z" fill="#143109"/>
<path fill-rule="evenodd" clip-rule="evenodd" d="M424.105 99.6916V98.9141H418.287V99.6916H420.727V106.261H421.638V99.6916H424.105Z" fill="#143109"/>
<path fill-rule="evenodd" clip-rule="evenodd" d="M432.15 102.589C432.15 100.39 430.595 98.7812 428.45 98.7812C426.305 98.7812 424.75 100.39 424.75 102.589C424.75 104.787 426.305 106.423 428.45 106.423C430.595 106.423 432.15 104.814 432.15 102.589ZM431.158 102.589C431.158 104.251 429.951 105.619 428.477 105.619C427.002 105.619 425.795 104.251 425.795 102.589C425.795 100.926 427.002 99.5856 428.477 99.5856C429.951 99.5856 431.158 100.953 431.158 102.589Z" fill="#143109"/>
<path fill-rule="evenodd" clip-rule="evenodd" d="M306.505 87.2779V86.0713H301.947V93.4449H303.341V90.3614H305.942V89.1816H303.341V87.2779H306.505Z" fill="#143109"/>
<path fill-rule="evenodd" clip-rule="evenodd" d="M313.367 93.4449L310.713 86.0713H309.453L306.771 93.4449H308.246L308.863 91.6216H311.33L311.92 93.4449H313.394H313.367ZM310.954 90.4418H309.265L310.096 87.7873L310.954 90.4418Z" fill="#143109"/>
<path fill-rule="evenodd" clip-rule="evenodd" d="M319.883 86.661C319.24 86.1784 318.516 85.9639 317.578 85.9639C316.371 85.9639 315.54 86.2588 314.789 86.9828C314.065 87.7067 313.663 88.672 313.663 89.7445C313.663 90.8975 314.119 91.97 314.896 92.6939C315.593 93.3106 316.398 93.6056 317.578 93.6056C318.007 93.6056 318.409 93.5519 318.757 93.4715C319.106 93.3911 319.294 93.3106 319.749 93.1229L319.481 91.9432C318.838 92.2113 318.382 92.2917 317.872 92.2917C316.264 92.2917 315.218 91.246 315.218 89.6641C315.218 88.2698 316.237 87.2509 317.658 87.2509C318.301 87.2509 318.865 87.4118 319.347 87.7603L319.883 86.6342V86.661Z" fill="#143109"/>
<path fill-rule="evenodd" clip-rule="evenodd" d="M327.15 90.5754V86.0977H325.729V90.6559C325.729 91.7284 325.165 92.2915 324.093 92.2915C322.913 92.2915 322.35 91.7552 322.35 90.6559V86.0977H320.956V90.5754C320.956 91.9161 321.197 92.5328 321.948 93.069C322.511 93.4444 323.101 93.6053 324.039 93.6053C324.978 93.6053 325.568 93.4444 326.131 93.069C326.908 92.5328 327.15 91.9429 327.15 90.5754Z" fill="#143109"/>
<path fill-rule="evenodd" clip-rule="evenodd" d="M333.371 93.4449V92.2383H330.368V86.0713H328.974V93.4449H333.371Z" fill="#143109"/>
<path fill-rule="evenodd" clip-rule="evenodd" d="M341.146 89.7442C341.146 88.779 340.798 87.8405 340.154 87.1702C339.43 86.3926 338.545 86.0977 337.178 86.0977H334.443V93.4712H337.151C338.465 93.4712 339.457 93.1227 340.127 92.3987C340.771 91.7016 341.146 90.7631 341.146 89.771V89.7442ZM339.618 89.7442C339.618 91.3262 338.679 92.1842 337.017 92.1842H335.891V87.3042H337.017C337.821 87.3042 338.384 87.4383 338.787 87.7332C339.323 88.1354 339.618 88.8862 339.618 89.7442Z" fill="#143109"/>
<path fill-rule="evenodd" clip-rule="evenodd" d="M347.93 93.4449L345.249 86.0713H343.989L341.334 93.4449H342.809L343.426 91.6216H345.892L346.482 93.4449H347.957H347.93ZM345.49 90.4418H343.774L344.632 87.7873L345.49 90.4418Z" fill="#143109"/>
<path fill-rule="evenodd" clip-rule="evenodd" d="M355.599 89.7442C355.599 88.779 355.251 87.8405 354.607 87.1702C353.883 86.3926 353.025 86.0977 351.631 86.0977H348.896V93.4712H351.604C352.918 93.4712 353.91 93.1227 354.58 92.3987C355.224 91.7016 355.599 90.7631 355.599 89.771V89.7442ZM354.071 89.7442C354.071 91.3262 353.132 92.1842 351.47 92.1842H350.371V87.3042H351.47C352.274 87.3042 352.838 87.4383 353.24 87.7332C353.776 88.1354 354.098 88.8862 354.098 89.7442H354.071Z" fill="#143109"/>
<path fill-rule="evenodd" clip-rule="evenodd" d="M361.39 93.4449V92.2383H358.172V90.2809H360.693V89.1012H358.172V87.2779H361.256V86.0713H356.778V93.4449H361.39Z" fill="#143109"/>
<path fill-rule="evenodd" clip-rule="evenodd" d="M372.222 89.7442C372.222 88.779 371.873 87.8405 371.23 87.1702C370.506 86.3926 369.621 86.0977 368.227 86.0977H365.492V93.4712H368.227C369.541 93.4712 370.533 93.1227 371.203 92.3987C371.847 91.7016 372.222 90.7631 372.222 89.771V89.7442ZM370.694 89.7442C370.694 91.3262 369.755 92.1842 368.093 92.1842H366.967V87.3042H368.093C368.897 87.3042 369.46 87.4383 369.862 87.7332C370.399 88.1354 370.72 88.8862 370.72 89.7442H370.694Z" fill="#143109"/>
<path fill-rule="evenodd" clip-rule="evenodd" d="M377.908 93.4449V92.2383H374.691V90.2809H377.184V89.1012H374.691V87.2779H377.747V86.0713H373.27V93.4449H377.908Z" fill="#143109"/>
<path fill-rule="evenodd" clip-rule="evenodd" d="M387.292 91.4871C387.292 90.3341 386.595 89.6102 385.469 89.5833C386.059 89.5565 386.354 89.4225 386.676 89.0471C386.944 88.7253 387.105 88.2963 387.105 87.8941C387.105 87.4115 386.89 86.902 386.515 86.5803C386.113 86.2049 385.63 86.0977 384.665 86.0977H381.983V93.4712H384.986C386.461 93.4712 387.266 92.7741 387.266 91.5139L387.292 91.4871ZM385.523 88.1354C385.523 88.7521 385.094 89.1007 384.316 89.1007H383.485V87.197H384.397C385.121 87.197 385.523 87.5456 385.523 88.1354ZM385.737 91.3262C385.737 91.7016 385.55 92.0501 385.255 92.1842C385.04 92.2915 384.852 92.3183 384.397 92.3183H383.485V90.2805H384.397C385.255 90.2805 385.737 90.6559 385.737 91.3262Z" fill="#143109"/>
<path fill-rule="evenodd" clip-rule="evenodd" d="M393.083 93.4449V92.2383H389.838V90.2809H392.359V89.1012H389.838V87.2779H392.922V86.0713H388.444V93.4449H393.083Z" fill="#143109"/>
<path fill-rule="evenodd" clip-rule="evenodd" d="M398.633 93.4449V92.2383H395.63V86.0713H394.236V93.4449H398.633Z" fill="#143109"/>
<path fill-rule="evenodd" clip-rule="evenodd" d="M405.927 93.4449L403.245 86.0713H401.985L399.331 93.4449H400.805L401.422 91.6216H403.889L404.479 93.4449H405.953H405.927ZM403.487 90.4418H401.771L402.629 87.7873L403.487 90.4418Z" fill="#143109"/>
<path fill-rule="evenodd" clip-rule="evenodd" d="M411.558 86.5806C411.075 86.3392 410.86 86.2588 410.512 86.1516C410.056 86.0175 409.627 85.9639 409.118 85.9639C408.26 85.9639 407.804 86.0979 407.267 86.4465C407.026 86.6074 406.838 86.7951 406.731 86.9828C406.544 87.2509 406.436 87.6263 406.436 88.0017C406.436 88.806 406.838 89.2887 408.152 90.0394L409.278 90.683C409.761 90.9511 409.922 91.1656 409.922 91.4605C409.922 91.9163 409.493 92.2113 408.849 92.2113C408.555 92.2113 408.152 92.1309 407.777 91.9968C407.482 91.8895 407.268 91.7823 406.731 91.4873L406.141 92.7744C406.356 92.8816 406.517 92.9621 406.624 92.9889C407.402 93.3374 407.643 93.4179 408.179 93.4983C408.394 93.4983 408.608 93.5519 408.823 93.5519C410.458 93.5519 411.424 92.7744 411.424 91.4605C411.424 90.9511 411.236 90.4684 410.914 90.1467C410.565 89.7981 409.842 89.3423 408.715 88.7256C408.179 88.4575 408.018 88.2698 408.018 87.948C408.018 87.5458 408.447 87.2777 409.091 87.2777C409.573 87.2777 410.217 87.4654 410.995 87.814L411.558 86.5538V86.5806Z" fill="#143109"/>
<path fill-rule="evenodd" clip-rule="evenodd" d="M421.291 93.4449L418.61 86.0713H417.35L414.668 93.4449H416.143L416.733 91.6216H419.2L419.79 93.4449H421.264H421.291ZM418.878 90.4418H417.162L417.993 87.7873L418.851 90.4418H418.878Z" fill="#143109"/>
<path fill-rule="evenodd" clip-rule="evenodd" d="M427.671 93.4448L425.848 90.2809C426.465 90.12 426.706 89.9591 427.001 89.5837C427.269 89.2352 427.403 88.7794 427.403 88.1895C427.403 87.4923 427.189 86.9561 426.813 86.5807C426.384 86.1785 425.902 86.0444 424.802 86.0444H422.336V93.418H423.757V90.4686H424.454L426.143 93.418H427.698L427.671 93.4448ZM425.929 88.2431C425.929 88.967 425.526 89.2888 424.642 89.2888H423.73V87.251H424.642C425.553 87.251 425.929 87.5191 425.929 88.2431Z" fill="#143109"/>
<path fill-rule="evenodd" clip-rule="evenodd" d="M433.758 87.2779V86.0713H427.939V87.2779H430.138V93.4449H431.532V87.2779H433.758Z" fill="#143109"/>
<path fill-rule="evenodd" clip-rule="evenodd" d="M439.362 93.4449V92.2383H436.145V90.2809H438.665V89.1012H436.145V87.2779H439.228V86.0713H434.75V93.4449H439.362Z" fill="#143109"/>
<path fill-rule="evenodd" clip-rule="evenodd" d="M445.368 86.5806C444.885 86.3392 444.671 86.2588 444.322 86.1516C443.866 86.0175 443.411 85.9639 442.928 85.9639C442.07 85.9639 441.614 86.0979 441.078 86.4465C440.836 86.6074 440.649 86.7951 440.542 86.9828C440.354 87.2509 440.247 87.6263 440.247 88.0017C440.247 88.806 440.649 89.2887 441.963 90.0394L443.089 90.683C443.571 90.9511 443.732 91.1656 443.732 91.4605C443.732 91.9163 443.303 92.2113 442.66 92.2113C442.365 92.2113 441.963 92.1309 441.587 91.9968C441.292 91.8895 441.078 91.7823 440.542 91.4873L439.952 92.7744C440.166 92.8816 440.327 92.9621 440.434 92.9889C441.212 93.3374 441.453 93.4179 441.989 93.4983C442.204 93.4983 442.418 93.5519 442.633 93.5519C444.269 93.5519 445.234 92.7744 445.234 91.4605C445.234 90.9511 445.046 90.4684 444.724 90.1467C444.376 89.7981 443.652 89.3423 442.499 88.7256C441.989 88.4575 441.802 88.2698 441.802 87.948C441.802 87.5458 442.231 87.2777 442.874 87.2777C443.357 87.2777 444 87.4654 444.778 87.814L445.341 86.5538L445.368 86.5806Z" fill="#143109"/>
<path fill-rule="evenodd" clip-rule="evenodd" d="M280.469 83.8729C280.657 88.3774 278.324 91.8631 278.458 96.3409L278.351 96.4481L278.136 96.18C277.976 91.8095 276.018 87.9484 276.233 83.6047C277.707 83.5243 279.075 83.6852 280.469 83.8729Z" fill="#143109"/>
<path fill-rule="evenodd" clip-rule="evenodd" d="M275.186 87.8678C276.018 90.6563 275.615 93.9811 276.527 96.7429C278.645 100.631 276.527 105.296 276.366 109.425L274.972 117.013C269.314 116.424 263.469 112.053 261.565 106.503C259.099 99.7191 260.976 91.9165 266.74 87.2779C268.912 85.5619 271.352 84.543 274.007 83.9263C274.516 85.1597 274.892 86.5271 275.186 87.8946V87.8678Z" fill="#143109"/>
<path fill-rule="evenodd" clip-rule="evenodd" d="M289.477 88.6183C288.217 90.9511 286.42 93.0693 285.053 95.3752C283.578 98.0833 281.165 100.416 279.932 103.205C279.449 103.741 278.94 104.518 278.242 104.706C278.028 103.205 278.859 101.837 278.859 100.389C279.342 97.118 279.556 93.7396 280.977 90.8438L282.425 84.4087C284.972 85.3203 287.493 86.5001 289.477 88.6451V88.6183Z" fill="#143109"/>
<path fill-rule="evenodd" clip-rule="evenodd" d="M292.936 106.929C290.443 113.07 284.088 117.038 277.573 117.199C277.117 116.046 277.224 114.625 277.063 113.338C276.714 108.431 281.165 105.24 282.989 101.111C284.276 98.3492 286.796 95.8556 289.129 93.7374C289.826 92.6648 290.47 91.5655 290.925 90.3857C294.465 94.7831 295.242 101.674 292.936 106.929Z" fill="#143109"/>
<path d="M485.882 38.6118H478.562V45.7441H485.882V38.6118Z" fill="#143109"/>
<path d="M589.14 66.6841H583V72.8243H589.14V66.6841Z" fill="#143109"/>
<path d="M485.883 49.0151L478.563 53.0371V72.8251H485.883V49.0151Z" fill="#143109"/>
<path d="M571.844 53.9237C566.375 52.5294 565.034 51.8591 565.034 49.7677V49.6872C565.034 48.1589 566.428 46.9255 569.11 46.9255C571.791 46.9255 574.526 48.1052 577.314 50.0358L580.934 44.8073C577.717 42.2332 573.802 40.7853 569.19 40.7853C564.069 40.7853 560.1 43.1717 558.706 47.0327C555.784 43.842 551.386 41.8578 546.104 41.8578H535.111V61.0827L526.825 41.6165H520.551L509.853 66.7671H498.323L503.498 62.7719C509.129 58.4014 511.864 55.7469 511.864 50.4112C511.864 44.4587 507.681 40.5708 500.924 40.5708C495.24 40.5708 492.21 42.8767 489.073 47.1668L493.98 51.1083C496.339 48.2125 498.028 46.845 500.468 46.845C502.908 46.845 504.732 48.2929 504.732 50.9742C504.732 53.6555 503.176 55.3448 499.235 58.6159L488.644 67.2765V72.8268H514.223L516.69 66.7939H537.551L540.125 72.8268H546.104C555.596 72.8268 562.245 66.3649 562.54 57.9724C564.176 58.8304 566.241 59.4471 568.6 60.0638C573.882 61.4313 574.955 62.3161 574.955 64.0858V64.1662C574.955 66.0163 573.239 67.1425 570.397 67.1425C568.037 67.1425 565.946 66.499 563.988 65.3996L560.503 70.789C563.532 72.4514 566.911 73.2826 570.263 73.2826C577.073 73.2826 581.873 69.7701 581.873 63.4959V63.4155C581.873 57.9188 578.253 55.6129 571.844 53.9505V53.9237ZM519.13 60.7878L523.608 49.8213L528.086 60.7878H519.13ZM555.435 57.4362C555.435 62.9328 551.681 66.6866 546.104 66.6866H541.921V48.0248H546.104C551.681 48.0248 555.435 51.8859 555.435 57.3557V57.4362Z" fill="#143109"/>
<path d="M702.72 45.8767V38.3423H707.6V39.3612H703.953V41.5598H707.251V42.5787H703.953V45.8767H702.72Z" fill="#143109"/>
<path d="M712.587 44.9653C712.346 45.5552 711.89 46.0378 710.979 46.0378C709.853 46.0378 709.102 45.2602 709.102 43.9196V40.3267H710.282V43.7319C710.282 44.6167 710.657 45.0726 711.408 45.0726C712.024 45.0726 712.614 44.7776 712.614 44.1073V40.3267H713.794V45.9038H712.587V44.9653Z" fill="#143109"/>
<path d="M715.616 45.9309V40.3538H716.823V41.2922H716.877C717.118 40.7024 717.574 40.2197 718.485 40.2197C719.612 40.2197 720.362 40.9973 720.362 42.338V45.9309H719.183V42.5256C719.183 41.6408 718.807 41.185 718.056 41.185C717.44 41.185 716.85 41.4799 716.85 42.1503V45.9309H715.67H715.616Z" fill="#143109"/>
<path d="M725.645 45.0191H725.591C725.269 45.6895 724.733 46.0917 723.902 46.0917C722.588 46.0917 721.757 45.0728 721.757 43.169C721.757 41.2653 722.615 40.2732 723.929 40.2732C724.76 40.2732 725.296 40.7023 725.618 41.3458H725.672V37.9941H726.851L726.824 45.9844H725.645V45.0191ZM725.645 44.1343V42.2842C725.645 41.6139 725.082 41.2653 724.384 41.2653C723.5 41.2653 722.99 41.8552 722.99 42.7669V43.6785C722.99 44.5901 723.5 45.18 724.358 45.18C725.028 45.18 725.618 44.8315 725.618 44.1611L725.645 44.1343Z" fill="#143109"/>
<path d="M732.964 46.011C732.294 46.011 731.972 45.6356 731.892 45.0726H731.838C731.623 45.7429 731.034 46.1451 730.149 46.1451C729.023 46.1451 728.299 45.5016 728.299 44.4559C728.299 43.4102 729.103 42.7935 730.739 42.7935H731.811V42.3644C731.811 41.6137 731.409 41.2383 730.631 41.2383C729.907 41.2383 729.505 41.5332 729.183 41.9891L728.486 41.426C728.808 40.8361 729.559 40.3267 730.739 40.3267C732.133 40.3267 732.991 41.0506 732.991 42.3108V45.0994H733.688V46.0378H732.964V46.011ZM731.811 44.3486V43.5442H730.765C729.907 43.5442 729.505 43.8123 729.478 44.295V44.5095C729.478 45.0189 729.854 45.2602 730.497 45.2602C731.248 45.2602 731.811 44.8849 731.811 44.3486Z" fill="#143109"/>
<path d="M739.748 41.6667L738.837 42.1494C738.649 41.6399 738.247 41.3182 737.576 41.2914C736.692 41.2914 736.182 41.8812 736.155 42.7661V43.7045C736.155 44.5894 736.665 45.1792 737.576 45.1792C738.274 45.1792 738.676 44.8307 738.944 44.2944L739.802 44.8307C739.453 45.5814 738.756 46.1177 737.657 46.1445L737.55 46.6271L737.603 46.6808C737.764 46.6271 737.925 46.6003 738.059 46.6003C738.488 46.6003 738.81 46.8416 738.81 47.3243C738.81 47.9946 738.193 48.2359 737.523 48.2359C736.852 48.2359 736.504 47.9946 736.343 47.7801L736.799 47.2706C736.933 47.4315 737.147 47.5656 737.469 47.5656C737.737 47.5656 737.952 47.4583 737.952 47.2438C737.952 47.083 737.818 46.8953 737.201 46.8148H736.933L737.094 46.0373C735.753 45.8227 734.976 44.7502 734.976 43.1683C734.976 41.3986 735.968 40.2725 737.63 40.2725C738.783 40.2725 739.453 40.8087 739.802 41.5863L739.748 41.6667Z" fill="#143109"/>
<path d="M745.915 46.0632C745.244 46.0632 744.923 45.6878 744.842 45.1247H744.789C744.574 45.795 743.984 46.1972 743.099 46.1972C741.973 46.1972 741.249 45.5537 741.249 44.508C741.249 43.4623 742.054 42.8456 743.689 42.8456H744.762V42.4166C744.762 41.6658 744.36 41.2904 743.582 41.2904C742.858 41.2904 742.456 41.5854 742.134 42.0412L741.437 41.4781C741.759 40.8882 742.509 40.3788 743.689 40.3788C745.084 40.3788 745.942 41.1027 745.942 42.363V45.1515H746.639V46.09H745.915V46.0632ZM743.689 39.3063C743.368 39.1454 743.126 39.065 742.885 39.065C742.644 39.065 742.483 39.1722 742.268 39.3331L741.839 38.77C742.054 38.4483 742.429 38.1533 742.965 38.1533C743.314 38.1533 743.555 38.2874 743.796 38.3946C744.118 38.5555 744.36 38.636 744.601 38.636C744.842 38.636 745.003 38.5287 745.218 38.3678L745.647 38.9309C745.432 39.2527 745.057 39.5476 744.52 39.5476C744.172 39.5476 743.931 39.4135 743.689 39.3063ZM744.762 44.4007V43.5964H743.716C742.858 43.5964 742.456 43.8645 742.429 44.3471V44.5616C742.429 45.0711 742.804 45.3124 743.448 45.3124C744.199 45.3124 744.762 44.937 744.762 44.4007Z" fill="#143109"/>
<path d="M747.686 43.3045C747.686 41.5348 748.704 40.4087 750.34 40.4087C751.976 40.4087 752.968 41.5616 752.968 43.3313C752.968 45.101 751.949 46.2271 750.313 46.2271C748.678 46.2271 747.686 45.0741 747.686 43.3045ZM751.734 43.7335V42.9023C751.734 41.8566 751.171 41.3471 750.34 41.3203C749.509 41.2935 748.919 41.8298 748.919 42.8755V43.7067C748.919 44.7524 749.482 45.2618 750.313 45.2887C751.144 45.3155 751.734 44.7792 751.734 43.7335Z" fill="#143109"/>
<path d="M702.613 53.2523H703.793V54.2175H703.846C704.168 53.5472 704.704 53.145 705.535 53.145C706.849 53.145 707.68 54.1639 707.68 56.0676C707.68 57.9714 706.822 58.9634 705.509 58.9634C704.677 58.9634 704.141 58.5344 703.819 57.8909H703.766V61.0012H702.586L702.613 53.2791V53.2523ZM706.42 56.4966V55.585C706.42 54.6734 705.911 54.0835 705.053 54.0835C704.382 54.0835 703.793 54.432 703.793 55.1024V56.9525C703.793 57.6228 704.356 57.9714 705.053 57.9714C705.938 57.9714 706.447 57.3815 706.447 56.4698L706.42 56.4966Z" fill="#143109"/>
<path d="M713.498 58.8543C712.828 58.8543 712.506 58.4789 712.426 57.9158H712.372C712.158 58.5861 711.568 58.9883 710.683 58.9883C709.557 58.9883 708.833 58.3448 708.833 57.2991C708.833 56.2534 709.637 55.6367 711.273 55.6367H712.345V55.2077C712.345 54.4569 711.943 54.0816 711.165 54.0816C710.442 54.0816 710.039 54.3765 709.718 54.8323L709.02 54.2693C709.342 53.6794 710.093 53.1699 711.273 53.1699C712.667 53.1699 713.525 53.8939 713.525 55.1541V57.9426H714.222V58.8811H713.498V58.8543ZM712.345 57.1919V56.3875H711.3C710.442 56.3875 710.039 56.6556 710.013 57.1382V57.3527C710.013 57.8354 710.388 58.1035 711.031 58.1035C711.782 58.1035 712.345 57.7281 712.345 57.1919Z" fill="#143109"/>
<path d="M715.483 57.9165H716.957V54.27H715.483V53.3047H718.137V54.8062H718.191C718.405 54.0286 718.888 53.3315 720.041 53.3315H720.711V54.4576H719.612C718.647 54.4576 718.137 55.0743 718.137 55.8519V57.9433H720.148V58.8818H715.483V57.9433V57.9165Z" fill="#143109"/>
<path d="M726.449 58.9075C725.779 58.9075 725.457 58.5321 725.377 57.969H725.323C725.109 58.6394 724.519 59.0416 723.634 59.0416C722.508 59.0416 721.784 58.398 721.784 57.3523C721.784 56.3066 722.588 55.6899 724.224 55.6899H725.296V55.2609C725.296 54.5102 724.894 54.1348 724.117 54.1348C723.393 54.1348 722.991 54.4297 722.669 54.8855L721.972 54.3225C722.293 53.7326 723.044 53.2231 724.224 53.2231C725.618 53.2231 726.476 53.9471 726.476 55.2073V57.9959H727.173V58.9343H726.449V58.9075ZM725.296 57.2451V56.4407H724.251C723.393 56.4407 722.991 56.7088 722.964 57.1915V57.406C722.964 57.8886 723.339 58.1567 723.983 58.1567C724.733 58.1567 725.296 57.7814 725.296 57.2451Z" fill="#143109"/>
<path d="M739.373 58.989C738.702 58.989 738.381 58.6137 738.3 58.0506H738.247C738.032 58.7209 737.442 59.1231 736.557 59.1231C735.431 59.1231 734.707 58.4796 734.707 57.4339C734.707 56.3882 735.512 55.7715 737.147 55.7715H738.22V55.3425C738.22 54.5917 737.818 54.2163 737.04 54.2163C736.316 54.2163 735.914 54.5113 735.592 54.9671L734.895 54.404C735.217 53.8141 735.967 53.3047 737.147 53.3047C738.542 53.3047 739.4 54.0286 739.4 55.2888V58.0774H740.097V59.0159H739.373V58.989ZM738.22 57.2998V56.4954H737.174C736.316 56.4954 735.914 56.7636 735.887 57.2462V57.4607C735.887 57.9433 736.262 58.2115 736.906 58.2115C737.657 58.2115 738.22 57.8361 738.22 57.2998Z" fill="#143109"/>
<path d="M747.658 55.2629C747.658 52.7693 748.597 51.375 750.501 51.375C751.949 51.375 752.619 52.233 752.967 53.2519L751.868 53.6005C751.654 52.9033 751.332 52.3671 750.474 52.3671C749.401 52.3671 748.945 53.2251 748.945 54.6194V55.8796C748.945 57.247 749.401 58.1319 750.474 58.1319C751.332 58.1319 751.654 57.5956 751.868 56.8985L752.967 57.2739C752.619 58.2927 751.949 59.1239 750.501 59.1239C748.597 59.1239 747.685 57.7029 747.685 55.2093L747.658 55.2629Z" fill="#143109"/>
<path d="M754.576 58.1034H756.479V54.4569H754.576V53.4916H757.659V58.1303H759.429V59.0955H754.576V58.1303V58.1034ZM756.292 51.8292V51.6147C756.292 51.2661 756.506 50.9712 757.096 50.9712C757.686 50.9712 757.901 51.2661 757.901 51.6147V51.8292C757.901 52.1778 757.686 52.4727 757.096 52.4727C756.506 52.4727 756.292 52.1778 756.292 51.8292Z" fill="#143109"/>
<path d="M760.608 56.3076C760.608 54.5111 761.654 53.385 763.236 53.385C764.818 53.385 765.783 54.5111 765.783 56.1467V56.5757H761.788V56.7634C761.788 57.6482 762.351 58.2649 763.316 58.2649C764.04 58.2649 764.55 57.9432 764.871 57.4069L765.595 58.0504C765.22 58.6939 764.442 59.2034 763.289 59.2034C761.573 59.2034 760.581 58.0504 760.608 56.2808V56.3076ZM763.826 50.7305L765.113 52.3661L764.496 52.8219L763.236 51.5617L761.949 52.7951L761.359 52.3392L762.673 50.7305H763.853H763.826ZM761.788 55.7445V55.8249H764.577V55.7177C764.577 54.8329 764.04 54.2698 763.236 54.2698C762.431 54.2698 761.788 54.8865 761.788 55.7445Z" fill="#143109"/>
<path d="M767.312 59.0964V53.5193H768.518V54.4578H768.572C768.813 53.8679 769.269 53.3853 770.181 53.3853C771.307 53.3853 772.058 54.1628 772.058 55.5035V59.0964H770.878V55.6912C770.878 54.8063 770.503 54.3505 769.752 54.3505C769.135 54.3505 768.545 54.6455 768.545 55.3158V59.0964H767.365H767.312Z" fill="#143109"/>
<path d="M773.694 56.3343C773.694 54.5646 774.686 53.4385 776.348 53.4385C777.501 53.4385 778.171 53.9747 778.52 54.7523L777.608 55.2349C777.421 54.7255 777.018 54.4037 776.348 54.3769C775.463 54.3769 774.954 54.9668 774.927 55.8516V56.7901C774.927 57.6749 775.436 58.2648 776.348 58.2648C777.045 58.2648 777.447 57.9162 777.716 57.38L778.574 57.9162C778.225 58.6938 777.501 59.2301 776.321 59.2301C774.659 59.2301 773.694 58.0771 773.694 56.3075V56.3343Z" fill="#143109"/>
<path d="M780.45 58.2099H782.354V54.5634H780.45V53.5981H783.534V58.2367H785.303V59.202H780.45V58.2367V58.2099ZM782.166 51.9625V51.748C782.166 51.3994 782.381 51.1045 782.971 51.1045C783.56 51.1045 783.775 51.3994 783.775 51.748V51.9625C783.775 52.3111 783.56 52.606 782.971 52.606C782.381 52.606 782.166 52.3111 782.166 51.9625Z" fill="#143109"/>
<path d="M791.122 59.2029C790.452 59.2029 790.13 58.8275 790.05 58.2645H789.996C789.782 58.9348 789.192 59.337 788.307 59.337C787.181 59.337 786.457 58.6935 786.457 57.6478C786.457 56.602 787.261 55.9853 788.897 55.9853H789.969V55.5563C789.969 54.8056 789.567 54.4302 788.79 54.4302C788.066 54.4302 787.663 54.7251 787.342 55.181L786.644 54.6179C786.966 54.028 787.717 53.5186 788.897 53.5186C790.291 53.5186 791.149 54.2425 791.149 55.5027V58.2913H791.846V59.2297H791.122V59.2029ZM789.996 57.5405V56.7361H788.95C788.092 56.7361 787.69 57.0042 787.663 57.4869V57.7014C787.663 58.184 788.039 58.4521 788.682 58.4521C789.433 58.4521 789.996 58.0768 789.996 57.5405Z" fill="#143109"/>
<path d="M702.318 68.9895C702.318 67.193 703.363 66.0669 704.945 66.0669C706.527 66.0669 707.493 67.193 707.493 68.8286V69.2576H703.497V69.4453C703.497 70.3302 704.06 70.9469 705.026 70.9469C705.75 70.9469 706.259 70.6251 706.581 70.0888L707.305 70.7324C706.93 71.3759 706.152 71.8853 704.999 71.8853C703.283 71.8853 702.291 70.7324 702.318 68.9627V68.9895ZM703.524 68.4264V68.5069H706.313V68.3996C706.313 67.5148 705.777 66.9517 704.972 66.9517C704.168 66.9517 703.524 67.5684 703.524 68.4264Z" fill="#143109"/>
<path d="M719.907 71.8328C719.237 71.8328 718.915 71.4574 718.835 70.8943H718.781C718.567 71.5647 717.977 71.9669 717.092 71.9669C715.966 71.9669 715.242 71.3233 715.242 70.2776C715.242 69.2319 716.046 68.6152 717.682 68.6152H718.754V68.1862C718.754 67.4355 718.352 67.0601 717.575 67.0601C716.851 67.0601 716.449 67.355 716.127 67.8108L715.43 67.2478C715.751 66.6579 716.502 66.1484 717.682 66.1484C719.076 66.1484 719.934 66.8724 719.934 68.1326V70.9211H720.631V71.8596H719.907V71.8328ZM718.754 70.1704V69.366H717.709C716.851 69.366 716.449 69.6341 716.422 70.1168V70.3313C716.422 70.8139 716.797 71.082 717.441 71.082C718.191 71.082 718.754 70.7066 718.754 70.1704Z" fill="#143109"/>
<path d="M731.409 65.3709V71.8865H730.176V65.3709H727.843V64.3521H733.769V65.3709H731.409Z" fill="#143109"/>
<path d="M734.68 69.1223C734.68 67.3259 735.726 66.1997 737.308 66.1997C738.89 66.1997 739.855 67.3259 739.855 68.9614V69.3905H735.86V69.5781C735.86 70.463 736.423 71.0797 737.388 71.0797C738.112 71.0797 738.621 70.7579 738.943 70.2217L739.667 70.8652C739.292 71.5087 738.514 72.0181 737.361 72.0181C735.645 72.0181 734.653 70.8652 734.68 69.0955V69.1223ZM735.86 68.5861V68.6665H738.648V68.5592C738.648 67.6744 738.112 67.1113 737.308 67.1113C736.503 67.1113 735.86 67.728 735.86 68.5861Z" fill="#143109"/>
<path d="M741.304 69.1507C741.304 67.381 742.296 66.2549 743.958 66.2549C745.111 66.2549 745.781 66.7911 746.13 67.5687L745.218 68.0514C745.031 67.5419 744.629 67.2201 743.958 67.1933C743.073 67.1933 742.564 67.7832 742.537 68.6681V69.6065C742.537 70.4913 743.047 71.0812 743.958 71.0812C744.655 71.0812 745.058 70.7326 745.326 70.1964L746.184 70.7326C745.835 71.5102 745.111 72.0465 743.931 72.0465C742.269 72.0465 741.304 70.8935 741.304 69.1239V69.1507Z" fill="#143109"/>
<path d="M747.845 71.9397V66.3626H749.052V67.301H749.105C749.347 66.7111 749.802 66.2285 750.714 66.2285C751.84 66.2285 752.591 67.0061 752.591 68.3467V71.9397H751.411V68.5344C751.411 67.6496 751.036 67.1938 750.285 67.1938C749.668 67.1938 749.078 67.4887 749.078 68.1591V71.9397H747.899H747.845Z" fill="#143109"/>
<path d="M754.039 69.2029C754.039 67.4333 755.058 66.3071 756.694 66.3071C758.329 66.3071 759.321 67.4601 759.321 69.2297C759.321 70.9994 758.303 72.1255 756.667 72.1255C755.031 72.1255 754.039 70.9726 754.039 69.2029ZM758.088 69.6319V68.8007C758.088 67.755 757.525 67.2456 756.694 67.2188C755.863 67.192 755.273 67.7282 755.273 68.7739V69.6051C755.273 70.6508 755.836 71.1603 756.667 71.1871C757.498 71.2139 758.088 70.6776 758.088 69.6319Z" fill="#143109"/>
<path d="M760.716 71.0552H762.566L762.593 64.9687H760.743V64.0034H763.773L763.746 71.0552H765.596V72.0205H760.743V71.0552H760.716Z" fill="#143109"/>
<path d="M766.964 69.2581C766.964 67.4884 767.983 66.3623 769.619 66.3623C771.254 66.3623 772.246 67.5153 772.246 69.2849C772.246 71.0546 771.228 72.1807 769.592 72.1807C767.956 72.1807 766.964 71.0278 766.964 69.2581ZM771.013 69.6871V68.8559C771.013 67.8102 770.45 67.3008 769.619 67.2739C768.788 67.2471 768.198 67.7834 768.198 68.8291V69.6603C768.198 70.706 768.761 71.2155 769.592 71.2423C770.423 71.2691 771.013 70.7328 771.013 69.6871Z" fill="#143109"/>
<path d="M776.053 74.3514C774.122 74.3514 773.479 73.842 773.479 73.0108C773.479 72.3941 773.827 72.0991 774.444 71.9383V71.831C774.069 71.6969 773.827 71.4288 773.827 71.0266C773.827 70.4635 774.256 70.2222 774.846 70.0882V70.0345C774.176 69.7128 773.774 69.1229 773.774 68.3185C773.774 67.1387 774.685 66.3612 776.053 66.388C776.428 66.388 776.804 66.4684 777.099 66.5757V66.388C777.099 65.959 777.34 65.6372 777.849 65.6372H778.868V66.5757H777.581V66.817C778.064 67.1655 778.332 67.675 778.332 68.3453C778.332 69.5251 777.42 70.2759 776.053 70.2759C775.812 70.2759 775.57 70.2759 775.356 70.1954C775.088 70.249 774.766 70.4367 774.766 70.7317C774.766 71.0802 775.141 71.1339 775.624 71.1339H776.884C778.386 71.1339 779.002 71.7774 779.002 72.689C779.002 73.842 778.037 74.3782 776.08 74.3514H776.053ZM776.83 72.1528H774.9C774.632 72.26 774.498 72.4745 774.498 72.7695C774.498 73.1985 774.819 73.547 775.651 73.547H776.535C777.42 73.547 777.903 73.2789 777.903 72.7695C777.903 72.3941 777.635 72.1528 776.857 72.1528H776.83ZM777.152 68.4794V68.1844C777.152 67.5946 776.804 67.1924 776.053 67.1924C775.302 67.1924 774.953 67.5946 774.927 68.1844V68.4794C774.927 69.0693 775.275 69.4715 776.026 69.4715C776.777 69.4715 777.125 69.0693 777.152 68.4794Z" fill="#143109"/>
<path d="M780.396 71.1352H782.3V67.4887H780.396V66.5234H783.48V71.162H785.249V72.1273H780.396V71.162V71.1352ZM782.112 64.8878V64.6733C782.112 64.3247 782.327 64.0298 782.917 64.0298C783.507 64.0298 783.721 64.3247 783.721 64.6733V64.8878C783.721 65.2364 783.507 65.5313 782.917 65.5313C782.327 65.5313 782.112 65.2364 782.112 64.8878Z" fill="#143109"/>
<path d="M791.069 72.1536C790.399 72.1536 790.077 71.7782 789.997 71.2151H789.943C789.729 71.8855 789.139 72.2877 788.254 72.2877C787.128 72.2877 786.404 71.6441 786.404 70.5984C786.404 69.5527 787.208 68.936 788.844 68.936H789.917V68.507C789.917 67.7563 789.514 67.3809 788.737 67.3809C788.013 67.3809 787.611 67.6758 787.289 68.1316L786.592 67.5686C786.913 66.9787 787.664 66.4692 788.844 66.4692C790.238 66.4692 791.096 67.1932 791.096 68.4534V71.2419H791.793V72.1804H791.069V72.1536ZM789.917 70.4644V69.66H788.871C788.013 69.66 787.611 69.9281 787.584 70.4107V70.6252C787.584 71.1079 787.959 71.376 788.603 71.376C789.353 71.376 789.917 71.0006 789.917 70.4644Z" fill="#143109"/>
<path d="M639.307 48.4801H647.646V52.0998H639.307L639.227 68.0268H647.566V71.6465L628.314 71.5661V67.9731L635.205 67.9999L635.285 52.0462H628.421V48.4265H633.811C634.615 48.4533 635.285 47.783 635.285 46.9786V44.7263C635.285 43.8146 635.661 42.9298 636.304 42.2863L640.165 38.452C640.809 37.8085 641.694 37.46 642.605 37.46H647.7V41.0529H639.361L639.334 48.4801H639.307Z" fill="#143109"/>
<path d="M659.042 37.5674H667.756V41.1871L655.744 41.1335L655.664 58.6156L667.676 58.6692V62.2621L658.962 62.2353C658.05 62.2353 657.165 61.8599 656.522 61.2164L652.634 57.2749C651.99 56.6314 651.642 55.7466 651.642 54.8349L651.695 44.9141C651.695 44.0025 652.071 43.1177 652.714 42.4742L656.656 38.5863C657.299 37.9428 658.184 37.5942 659.096 37.5942L659.042 37.5674Z" fill="#143109"/>
<path d="M678.186 55.2633L678.24 41.2401H671.483V37.6203H676.765C677.569 37.6472 678.24 36.9768 678.24 36.1724V31.9092H682.315V37.6472L691.056 37.674V41.2669L682.289 41.2401L682.208 58.7222H690.976V62.3419H684.755C683.763 62.3151 682.825 61.8861 682.154 61.1353L679.044 57.5424C678.508 56.8989 678.186 56.0945 678.213 55.2633H678.186Z" fill="#143109"/>
<path d="M651.521 68.0824L651.506 71.6753L690.894 71.8472L690.909 68.2543L651.521 68.0824Z" fill="#143109"/>
</g>
<path d="M85.7986 57.3284L82.3124 51.8086H82.0219V55.8758C82.5061 55.8758 82.8935 55.9727 83.2808 56.0695V57.3284H78.342V56.0695C78.6326 56.0695 78.8262 55.9727 79.1167 55.9727C79.4073 55.9727 79.6978 55.9727 79.9883 55.8758V46.0952C79.6978 46.0952 79.4073 46.0952 79.1167 45.9983C78.8262 45.9983 78.5357 45.9983 78.342 45.9015V44.6426H83.3776C84.0555 44.6426 84.6365 44.6426 85.2176 44.8363C85.7986 45.0299 86.186 45.1268 86.6702 45.4173C87.0575 45.7078 87.348 45.9983 87.5417 46.4825C87.7354 46.8699 87.8322 47.4509 87.8322 48.0319C87.8322 48.613 87.8322 48.9035 87.5417 49.2908C87.2512 49.6782 87.1543 49.9687 86.8638 50.3561C86.5733 50.6466 86.186 50.9371 85.7986 51.0339C85.4113 51.2276 84.9271 51.3244 84.4429 51.4213C84.5397 51.615 84.7334 51.7118 84.8302 51.9055C84.9271 52.0991 85.1207 52.2928 85.2176 52.4865L87.4449 55.779C87.6385 55.779 87.8322 55.779 88.1227 55.8758C88.3164 55.8758 88.6069 55.8758 88.8006 55.9727V57.2316H85.7018L85.7986 57.3284ZM85.1207 46.5793C84.7334 46.2888 84.0555 46.0952 83.184 46.0952H82.1187V50.1624H83.0871C83.9587 50.1624 84.5397 49.9687 85.0239 49.5813C85.5081 49.194 85.7018 48.7098 85.7018 48.0319C85.7018 47.3541 85.5081 46.773 85.1207 46.4825V46.5793Z" fill="#143109"/>
<path d="M89.6721 57.3284V56.0695C89.9626 56.0695 90.1563 55.9727 90.4468 55.9727C90.7373 55.9727 91.0279 55.9727 91.3184 55.8758V46.0952C91.0279 46.0952 90.7373 46.0952 90.4468 45.9983C90.1563 45.9983 89.8658 45.9983 89.6721 45.9015V44.6426H98.0971V47.6446H96.6445C96.6445 47.3541 96.5477 47.1604 96.5477 46.8699C96.5477 46.5794 96.5477 46.3857 96.4508 46.192H93.4488V50.0655H95.8698C95.8698 49.8719 95.8698 49.6782 95.9666 49.4845C96.0635 49.2908 95.9666 49.0972 96.0635 48.9035H97.3224V52.777H96.0635C96.0635 52.5833 95.9666 52.3897 95.9666 52.196C95.9666 52.0023 95.9666 51.8086 95.8698 51.615H93.4488V55.779H96.4508C96.4508 55.5853 96.4508 55.2948 96.5477 55.1011C96.6445 54.9075 96.5477 54.6169 96.6445 54.3264H98.0971V57.5221H89.6721V57.3284Z" fill="#143109"/>
<path d="M109.04 49.9685C108.846 50.5496 108.459 50.9369 108.071 51.3243C107.684 51.7116 107.103 52.0021 106.522 52.1958C105.941 52.3895 105.263 52.4863 104.488 52.4863H103.52V55.682C103.81 55.682 104.101 55.682 104.392 55.7788C104.682 55.7788 104.973 55.7788 105.166 55.8757V57.1346H99.8401V55.8757C100.131 55.8757 100.324 55.7788 100.615 55.7788C100.905 55.7788 101.196 55.7788 101.486 55.682V45.9013C101.196 45.9013 100.905 45.9013 100.615 45.8045C100.324 45.8045 100.034 45.8045 99.8401 45.7076V44.4487H104.779C106.328 44.4487 107.49 44.7392 108.265 45.4171C109.04 46.095 109.427 47.0634 109.427 48.2254C109.427 48.9033 109.33 49.4843 109.04 49.9685ZM106.522 46.7729C106.135 46.3855 105.36 46.1918 104.488 46.1918H103.423V50.8401C103.52 50.8401 103.714 50.8401 103.81 50.8401H104.198C105.069 50.8401 105.747 50.6464 106.231 50.1622C106.716 49.7748 107.006 49.1938 107.006 48.4191C107.006 47.6444 106.812 47.0634 106.425 46.676L106.522 46.7729Z" fill="#143109"/>
<path d="M121.338 45.9983V52.3897C121.338 54.1327 120.951 55.3916 120.079 56.1664C119.208 57.0379 117.949 57.4253 116.206 57.4253C114.463 57.4253 114.366 57.3284 113.785 57.0379C113.204 56.7474 112.623 56.4569 112.332 56.0695C112.042 55.6822 111.751 55.198 111.654 54.6169C111.558 54.0359 111.461 53.5517 111.461 52.8738V45.9983C111.267 45.9983 111.073 45.9983 110.783 45.9015C110.589 45.9015 110.396 45.9015 110.202 45.8046V44.5457H114.947V45.8046C114.753 45.8046 114.463 45.9015 114.269 45.9015C114.075 45.9015 113.785 45.9015 113.591 45.9015V52.6802C113.591 53.0675 113.591 53.5517 113.688 53.8422C113.688 54.2296 113.882 54.5201 114.075 54.8106C114.269 55.1011 114.56 55.2948 114.947 55.3916C115.334 55.4885 115.819 55.5853 116.4 55.5853C116.981 55.5853 117.368 55.5853 117.755 55.3916C118.143 55.198 118.433 55.1011 118.724 54.8106C119.014 54.5201 119.111 54.2296 119.305 53.8422C119.402 53.4549 119.498 52.9707 119.498 52.2928V45.8046C119.208 45.8046 119.014 45.8046 118.821 45.8046C118.627 45.8046 118.336 45.8046 118.143 45.7078V44.4489H122.888V45.7078C122.5 45.9015 122.113 45.9983 121.629 45.9983H121.338ZM116.109 43.6742L115.334 42.5121L118.336 40.4785L119.208 41.8343L116.109 43.6742Z" fill="#143109"/>
<path d="M133.83 54.7138C133.733 55.198 133.443 55.5853 133.055 55.9727C132.668 56.36 132.184 56.6506 131.506 56.9411C130.828 57.2316 130.053 57.3284 129.085 57.3284C128.117 57.3284 128.213 57.3284 127.632 57.3284C127.051 57.3284 126.373 57.3284 125.696 57.3284H124.049V56.0695C124.34 56.0695 124.533 55.9727 124.824 55.9727C125.115 55.9727 125.405 55.9727 125.696 55.8758V46.0952C125.405 46.0952 125.115 46.0952 124.824 45.9983C124.533 45.9983 124.243 45.9983 124.049 45.9015V44.6426H129.666C131.022 44.6426 132.087 44.9331 132.862 45.4173C133.539 45.9983 133.927 46.6762 133.927 47.7414C133.927 48.8066 133.733 49.0003 133.346 49.4845C132.958 49.9687 132.474 50.3561 131.796 50.6466C132.184 50.7434 132.571 50.9371 132.862 51.0339C133.152 51.2276 133.443 51.4213 133.636 51.7118C133.83 52.0023 133.927 52.2928 134.024 52.5833C134.121 52.8739 134.121 53.2612 134.121 53.5517C134.024 53.9391 133.927 54.4233 133.83 54.9075V54.7138ZM131.506 47.1604C131.506 46.9667 131.312 46.773 131.119 46.5793C130.925 46.3857 130.731 46.2888 130.344 46.192C130.053 46.192 129.666 46.0952 129.182 46.0952H127.632V49.8719H128.698C129.666 49.8719 130.344 49.6782 130.828 49.2908C131.312 48.9035 131.506 48.4193 131.506 47.7414C131.506 47.0635 131.506 47.2572 131.409 47.0635L131.506 47.1604ZM131.603 52.4865C131.506 52.196 131.215 52.0023 130.925 51.9055C130.634 51.8086 130.344 51.615 129.956 51.615C129.569 51.615 129.182 51.5181 128.698 51.5181H127.535V55.5853C127.923 55.5853 128.407 55.6822 128.988 55.6822C129.956 55.6822 130.634 55.4885 131.022 55.1011C131.409 54.7138 131.7 54.1328 131.7 53.5517C131.7 53.1644 131.7 52.8739 131.506 52.5833L131.603 52.4865Z" fill="#143109"/>
<path d="M135.477 57.3284V56.0695C135.767 56.0695 135.961 55.9727 136.252 55.9727C136.542 55.9727 136.833 55.9727 137.123 55.8758V46.0952C136.833 46.0952 136.542 46.0952 136.252 45.9983C135.961 45.9983 135.67 45.9983 135.477 45.9015V44.6426H140.803V45.9015C140.512 45.9015 140.319 45.9983 140.028 45.9983C139.738 45.9983 139.447 45.9983 139.157 46.0952V55.6822H142.062C142.062 55.198 142.159 54.6169 142.352 54.0359H143.805V57.3284H135.477Z" fill="#143109"/>
<path d="M144.58 57.3284V56.0695C144.87 56.0695 145.064 55.9727 145.354 55.9727C145.645 55.9727 145.935 55.9727 146.226 55.8758V46.0952C145.935 46.0952 145.645 46.0952 145.354 45.9983C145.064 45.9983 144.773 45.9983 144.58 45.9015V44.6426H149.906V45.9015C149.615 45.9015 149.422 45.9983 149.131 45.9983C148.84 45.9983 148.55 45.9983 148.259 46.0952V55.8758C148.55 55.8758 148.84 55.8758 149.131 55.9727C149.422 55.9727 149.712 55.9727 149.906 56.0695V57.3284H144.58Z" fill="#143109"/>
<path d="M159.008 48.1286C159.008 47.8381 158.911 47.5476 158.911 47.257C158.911 46.9665 158.911 46.676 158.911 46.4823C158.621 46.4823 158.33 46.3855 158.04 46.3855H157.265C156.684 46.3855 156.103 46.4823 155.716 46.7729C155.328 47.0634 154.844 47.3539 154.554 47.7412C154.263 48.1286 153.973 48.6128 153.876 49.1938C153.779 49.7748 153.682 50.3559 153.682 51.0337C153.682 51.7116 153.682 52.3895 153.973 52.9705C154.07 53.5516 154.36 54.0357 154.747 54.4231C155.038 54.8105 155.522 55.101 156.006 55.2946C156.491 55.4883 157.168 55.5852 157.943 55.5852C158.718 55.5852 158.911 55.5852 159.396 55.4883C159.88 55.3915 160.364 55.1978 160.751 55.101V56.9409C160.364 57.1346 159.783 57.2314 159.202 57.3283C158.621 57.4251 158.04 57.4251 157.459 57.4251C155.425 57.4251 153.973 56.8441 153.004 55.7788C152.036 54.7136 151.552 53.1642 151.552 51.2274C151.552 49.2907 151.649 49.2907 151.939 48.5159C152.23 47.6444 152.617 46.9665 153.101 46.3855C153.585 45.8045 154.263 45.3203 155.135 44.9329C156.006 44.5456 156.878 44.4487 157.943 44.4487C159.008 44.4487 158.911 44.4487 159.396 44.5456C159.88 44.5456 160.364 44.6424 160.848 44.8361V48.2254H159.202L159.008 48.1286Z" fill="#143109"/>
<path d="M169.66 57.3284V56.0695C169.854 56.0695 170.048 55.9727 170.338 55.9727C170.629 55.9727 170.822 55.9727 171.016 55.8758L170.338 54.1328H165.302L164.625 55.8758C164.915 55.8758 165.109 55.8758 165.302 55.9727C165.496 56.0695 165.787 55.9727 165.98 56.0695V57.3284H161.429V56.0695C161.623 56.0695 161.719 55.9727 162.01 55.9727C162.301 55.9727 162.397 55.9727 162.591 55.9727L166.658 44.6426H169.079L173.146 55.9727C173.34 55.9727 173.534 55.9727 173.727 55.9727C173.921 55.9727 174.115 55.9727 174.308 56.0695V57.3284H169.563H169.66ZM168.498 48.5161C168.401 48.2256 168.304 47.8382 168.208 47.5477C168.208 47.2572 168.014 46.8699 167.917 46.5793C167.917 46.8699 167.82 47.2572 167.627 47.5477C167.53 47.8382 167.433 48.2256 167.336 48.5161L165.98 52.2928H169.951L168.498 48.4193V48.5161Z" fill="#143109"/>
<path d="M87.6385 65.9475C87.4448 66.5286 87.0574 66.9159 86.6701 67.3033C86.2827 67.6906 85.7017 67.9811 85.1207 68.1748C84.5396 68.3685 83.8618 68.4653 83.0871 68.4653H82.6997C82.506 68.4653 82.4092 68.4653 82.2155 68.4653V71.661C82.506 71.661 82.7965 71.661 83.0871 71.7578C83.3776 71.7578 83.6681 71.7578 83.8618 71.8547V73.1136H78.5356V71.8547C78.8262 71.8547 79.0198 71.7578 79.3104 71.7578C79.6009 71.7578 79.8914 71.7578 80.1819 71.661V61.8803C79.8914 61.8803 79.6009 61.8803 79.3104 61.7835C79.0198 61.7835 78.7293 61.7835 78.5356 61.6866V60.4277H80.5693C80.8598 60.4277 81.1503 60.4277 81.4408 60.4277C81.7313 60.4277 82.1187 60.4277 82.4092 60.4277H83.3776C84.927 60.4277 86.089 60.7182 86.8638 61.3961C87.6385 62.074 88.0258 63.0424 88.0258 64.2044C88.0258 65.3665 87.929 65.4633 87.6385 65.9475ZM85.2175 62.7519C84.8301 62.3645 84.0554 62.1708 83.1839 62.1708H82.6029C82.4092 62.1708 82.3124 62.1708 82.1187 62.1708V66.8191C82.2155 66.8191 82.4092 66.8191 82.506 66.8191C82.6029 66.8191 82.7965 66.8191 82.8934 66.8191C83.7649 66.8191 84.4428 66.6254 84.927 66.1412C85.4112 65.657 85.7017 65.1728 85.7017 64.3981C85.7017 63.6234 85.508 63.0424 85.1207 62.655L85.2175 62.7519Z" fill="#143109"/>
<path d="M100.324 69.5306C100.033 70.4021 99.5491 71.08 99.0649 71.661C98.5807 72.242 97.9028 72.6294 97.1281 72.9199C96.4502 73.2104 95.5787 73.3073 94.7071 73.3073C93.8356 73.3073 92.8672 73.2104 92.1893 72.9199C91.5114 72.6294 90.9304 72.242 90.4462 71.661C89.962 71.08 89.5747 70.4021 89.381 69.6274C89.1873 68.8527 88.9937 67.9811 88.9937 67.0127C88.9937 66.0444 89.0905 64.9791 89.4778 64.2044C89.7684 63.3329 90.2525 62.655 90.7367 62.074C91.2209 61.493 91.8988 61.1056 92.6735 60.8151C93.3514 60.5246 94.2229 60.4277 95.0945 60.4277C95.966 60.4277 96.7407 60.5246 97.4186 60.8151C98.0965 61.1056 98.6775 61.493 99.2585 61.9771C99.8396 62.4613 100.13 63.1392 100.421 64.0108C100.711 64.7855 100.808 65.7539 100.808 66.8191C100.808 67.8843 100.711 68.8527 100.421 69.7242L100.324 69.5306ZM97.7091 63.3329C97.0312 62.4613 96.1597 62.074 94.9008 62.074C93.6419 62.074 93.9324 62.1708 93.4482 62.3645C92.964 62.5582 92.5767 62.8487 92.2862 63.2361C91.9956 63.6234 91.7051 64.1076 91.4146 64.6886C91.1241 65.2697 91.1241 65.9475 91.1241 66.7222C91.1241 67.4969 91.1241 68.078 91.3178 68.659C91.5115 69.24 91.7051 69.8211 91.9956 70.2084C92.2862 70.5958 92.6735 70.9831 93.1577 71.1768C93.6419 71.3705 94.1261 71.5642 94.804 71.5642C95.4818 71.5642 95.7724 71.4673 96.1597 71.2736C96.6439 71.08 97.0312 70.7895 97.4186 70.4021C97.806 70.0147 98.0965 69.5306 98.2901 68.9495C98.4838 68.3685 98.5807 67.6906 98.5807 66.9159C98.5807 65.3665 98.2902 64.2044 97.6123 63.3329H97.7091Z" fill="#143109"/>
<path d="M109.524 73.3064L106.038 67.7867H105.747V71.8539C106.231 71.8539 106.619 71.9507 107.006 72.0476V73.3064H102.067V72.0476C102.358 72.0476 102.552 71.9507 102.842 71.9507C103.133 71.9507 103.423 71.9507 103.714 71.8539V62.0732C103.423 62.0732 103.133 62.0732 102.842 61.9763C102.552 61.9763 102.261 61.9763 102.067 61.8795V60.6206H104.101C104.392 60.6206 104.585 60.6206 104.973 60.6206C105.263 60.6206 105.65 60.6206 106.038 60.6206H107.2C107.878 60.6206 108.459 60.6206 109.04 60.8143C109.621 61.008 110.008 61.1048 110.492 61.3953C110.88 61.6858 111.17 61.9763 111.364 62.4605C111.558 62.9447 111.654 63.4289 111.654 64.01C111.654 64.591 111.654 64.8815 111.364 65.2689C111.073 65.6562 110.977 65.9467 110.686 66.3341C110.395 66.6246 110.008 66.9151 109.621 67.0119C109.233 67.1088 108.749 67.3025 108.265 67.3993C108.362 67.593 108.556 67.6898 108.652 67.8835C108.749 68.0772 108.943 68.2708 109.04 68.4645L111.267 71.757C111.461 71.757 111.654 71.757 111.945 71.8539C112.139 71.8539 112.429 71.8539 112.623 71.9507V73.2096H109.524V73.3064ZM108.749 62.5574C108.362 62.2669 107.684 62.0732 106.812 62.0732H106.231C106.038 62.0732 105.844 62.0732 105.747 62.0732V66.1404C105.844 66.1404 105.941 66.1404 106.135 66.1404H106.716C107.587 66.1404 108.168 65.9467 108.652 65.5594C109.137 65.172 109.33 64.6878 109.33 64.01C109.33 63.3321 109.137 62.7511 108.749 62.4605V62.5574Z" fill="#143109"/>
<path d="M121.822 63.9138C121.822 63.6232 121.725 63.3327 121.725 63.0422C121.725 62.7517 121.725 62.4612 121.628 62.2675H119.304V71.8545C119.595 71.8545 119.885 71.8545 120.176 71.9514C120.466 71.9514 120.757 71.9514 120.951 72.0482V73.3071H115.624V72.0482C115.915 72.0482 116.109 71.9514 116.399 71.9514C116.69 71.9514 116.98 71.9514 117.271 71.8545V62.2675H114.947C114.947 62.558 114.947 62.7517 114.85 63.0422C114.85 63.3327 114.85 63.6232 114.753 63.9138H113.3V60.5244H123.468V63.9138H122.016H121.822Z" fill="#143109"/>
<path d="M135.477 61.9771V68.3685C135.477 70.1116 135.09 71.3705 134.218 72.1452C133.347 72.9199 132.088 73.4041 130.345 73.4041C128.601 73.4041 128.505 73.3073 127.924 73.0167C127.343 72.7262 126.762 72.4357 126.471 72.0484C126.181 71.661 125.89 71.1768 125.793 70.5958C125.696 70.0147 125.599 69.5306 125.599 68.8527V61.9771C125.406 61.9771 125.212 61.9772 124.922 61.8803C124.728 61.8803 124.534 61.8803 124.341 61.7835V60.5246H129.086V61.7835C128.892 61.7835 128.601 61.8803 128.408 61.8803C128.117 61.8803 127.924 61.8803 127.73 61.8803V68.659C127.73 69.0464 127.73 69.5306 127.827 69.8211C127.827 70.2084 128.02 70.4989 128.214 70.7895C128.408 71.08 128.698 71.2736 129.086 71.3705C129.473 71.4673 129.957 71.5642 130.538 71.5642C131.119 71.5642 131.507 71.5642 131.894 71.3705C132.281 71.1768 132.572 71.08 132.862 70.7895C133.153 70.4989 133.25 70.2084 133.443 69.8211C133.54 69.4337 133.637 68.9495 133.637 68.2717V61.7835C133.347 61.7835 133.153 61.7835 132.959 61.7835C132.669 61.7835 132.475 61.7835 132.281 61.6866V60.4277H137.026V61.6866C136.639 61.8803 136.252 61.9771 135.768 61.9771H135.477Z" fill="#143109"/>
<path d="M149.131 68.0777C148.937 68.0777 148.744 68.0777 148.55 68.0777V72.5322C147.872 72.8227 147.194 72.9196 146.516 73.1133C145.839 73.2101 145.064 73.3069 144.289 73.3069C143.514 73.3069 142.449 73.2101 141.674 72.9196C140.9 72.6291 140.222 72.2417 139.641 71.6607C139.06 71.0796 138.672 70.4986 138.382 69.7239C138.091 68.9492 137.995 68.0777 137.995 67.1093C137.995 66.1409 138.091 65.1725 138.479 64.3978C138.866 63.6231 139.254 62.8484 139.835 62.2673C140.416 61.6863 141.19 61.2021 141.965 60.8148C142.837 60.5242 143.805 60.3306 144.87 60.3306C145.935 60.3306 146.032 60.3306 146.613 60.4274C147.194 60.5242 147.775 60.6211 148.356 60.7179V63.9136H146.807C146.807 63.6231 146.71 63.3326 146.71 63.042C146.71 62.7515 146.71 62.461 146.613 62.2673C146.323 62.2673 146.032 62.1705 145.645 62.0737C145.258 61.9768 145.064 62.0737 144.676 62.0737C143.999 62.0737 143.418 62.1705 142.837 62.3642C142.256 62.5579 141.771 62.8484 141.384 63.2357C140.997 63.6231 140.609 64.1073 140.416 64.7851C140.125 65.3662 140.028 66.044 140.028 66.9156C140.028 68.3682 140.416 69.5302 141.19 70.4018C141.965 71.1765 143.03 71.5638 144.386 71.5638C145.742 71.5638 145.064 71.5638 145.451 71.5638C145.742 71.5638 146.129 71.467 146.42 71.3702V68.2713C146.129 68.2713 145.839 68.2713 145.548 68.1745C145.258 68.1745 144.967 68.1745 144.773 68.0777V66.8187H149.518V68.0777C149.422 68.1745 149.228 68.2713 148.937 68.2713L149.131 68.0777Z" fill="#143109"/>
<path d="M161.914 61.9771V68.3685C161.914 70.1116 161.526 71.3705 160.655 72.1452C159.783 72.9199 158.524 73.4041 156.781 73.4041C155.038 73.4041 154.941 73.3073 154.36 73.0167C153.779 72.7262 153.198 72.4357 152.908 72.0484C152.617 71.661 152.327 71.1768 152.23 70.5958C152.133 70.0147 152.036 69.5306 152.036 68.8527V61.9771C151.843 61.9771 151.649 61.9772 151.358 61.8803C151.165 61.8803 150.971 61.8803 150.777 61.7835V60.5246H155.522V61.7835C155.329 61.7835 155.038 61.8803 154.845 61.8803C154.554 61.8803 154.36 61.8803 154.167 61.8803V68.659C154.167 69.0464 154.167 69.5306 154.264 69.8211C154.264 70.2084 154.457 70.4989 154.651 70.7895C154.845 71.08 155.135 71.2736 155.522 71.3705C155.91 71.4673 156.394 71.5642 156.975 71.5642C157.556 71.5642 157.943 71.5642 158.331 71.3705C158.718 71.1768 159.009 71.08 159.299 70.7895C159.59 70.4989 159.686 70.2084 159.88 69.8211C159.977 69.4337 160.074 68.9495 160.074 68.2717V61.7835C159.783 61.7835 159.59 61.7835 159.396 61.7835C159.105 61.7835 158.912 61.7835 158.718 61.6866V60.4277H163.463V61.6866C163.076 61.8803 162.688 61.9771 162.204 61.9771H161.914Z" fill="#143109"/>
<path d="M164.431 73.3065V72.0476C164.721 72.0476 164.915 71.9507 165.206 71.9507C165.496 71.9507 165.787 71.9507 166.077 71.8539V62.0732C165.787 62.0732 165.496 62.0732 165.206 61.9763C164.915 61.9763 164.625 61.9763 164.431 61.8795V60.6206H172.856V63.6226H171.403C171.403 63.3321 171.306 63.1384 171.306 62.8479C171.306 62.5574 171.306 62.3637 171.21 62.17H168.208V66.0436H170.629C170.629 65.8499 170.629 65.6562 170.725 65.4625C170.725 65.2689 170.725 65.0752 170.822 64.8815H172.081V68.755H170.822C170.822 68.5614 170.725 68.3677 170.725 68.174C170.725 67.9803 170.725 67.7867 170.629 67.593H168.208V71.757H171.21C171.21 71.5634 171.21 71.2728 171.306 71.0792C171.306 70.7887 171.306 70.595 171.403 70.3045H172.856V73.5001H164.431V73.3065Z" fill="#143109"/>
<path d="M182.443 70.9828C182.249 71.467 181.862 71.8544 181.475 72.2417C181.087 72.6291 180.603 72.9196 179.925 73.1133C179.344 73.3069 178.666 73.4038 177.892 73.4038C177.117 73.4038 175.955 73.3069 175.083 73.1133V69.9176H176.633C176.633 70.2081 176.73 70.4986 176.73 70.7891C176.73 71.0796 176.73 71.2733 176.827 71.5638C177.02 71.5638 177.214 71.5638 177.408 71.6607C177.601 71.7575 177.795 71.6607 177.989 71.6607C178.376 71.6607 178.666 71.6607 178.957 71.5638C179.247 71.467 179.538 71.3702 179.828 71.1765C180.022 71.0796 180.216 70.7891 180.41 70.5955C180.603 70.4018 180.603 70.0144 180.603 69.7239C180.603 69.4334 180.506 68.9492 180.216 68.6587C179.925 68.3682 179.635 68.1745 179.151 67.9808C178.763 67.7871 178.279 67.5935 177.795 67.3998C177.311 67.2061 176.827 67.0124 176.439 66.7219C176.052 66.4314 175.664 66.1409 175.374 65.6567C175.083 65.1725 174.987 64.6883 174.987 64.0104C174.987 63.3326 175.083 62.9452 175.277 62.5579C175.471 62.1705 175.761 61.6863 176.149 61.3958C176.536 61.1053 177.02 60.8148 177.601 60.6211C178.182 60.4274 178.86 60.3306 179.538 60.3306C180.216 60.3306 180.41 60.3306 180.797 60.3306C181.184 60.3306 181.668 60.4274 182.056 60.5242V63.6231H180.506C180.506 63.3326 180.41 63.042 180.41 62.8484C180.41 62.6547 180.41 62.3642 180.41 62.1705C180.313 62.1705 180.216 62.1705 180.022 62.1705C179.828 62.1705 179.732 62.1705 179.538 62.1705C178.763 62.1705 178.085 62.3642 177.795 62.6547C177.504 62.9452 177.214 63.4294 177.214 63.9136C177.214 64.3978 177.311 64.6883 177.601 64.882C177.892 65.1725 178.182 65.3662 178.666 65.5598C179.054 65.7535 179.538 65.9472 180.022 66.1409C180.506 66.3346 180.991 66.5282 181.378 66.8187C181.765 67.1093 182.153 67.3998 182.443 67.7871C182.734 68.1745 182.83 68.7555 182.83 69.4334C182.734 70.0144 182.54 70.5955 182.346 71.0796L182.443 70.9828Z" fill="#143109"/>
<path d="M191.45 73.3064V72.0476C191.643 72.0476 191.837 71.9507 192.127 71.9507C192.418 71.9507 192.612 71.9507 192.805 71.8539L192.127 70.1108H187.092L186.414 71.8539C186.704 71.8539 186.898 71.8539 187.092 71.9507C187.285 72.0476 187.576 71.9507 187.77 72.0476V73.3064H183.218V72.0476C183.412 72.0476 183.509 71.9507 183.799 71.9507C184.09 71.9507 184.187 71.9507 184.38 71.9507L188.448 60.6206H190.869L194.936 71.9507C195.129 71.9507 195.323 71.9507 195.517 71.9507C195.71 71.9507 195.904 71.9507 196.098 72.0476V73.3064H191.353H191.45ZM190.287 64.4941C190.191 64.2036 190.094 63.8163 189.997 63.5258C189.997 63.2352 189.803 62.8479 189.706 62.5574C189.706 62.8479 189.61 63.2352 189.416 63.5258C189.319 63.8163 189.222 64.2036 189.125 64.4941L187.77 68.2708H191.74L190.287 64.3973V64.4941Z" fill="#143109"/>
<path d="M196.195 86.2832H78.4392V87.7358H196.195V86.2832Z" fill="#143109"/>
<path d="M83.4748 106.813C83.1843 106.813 82.8938 107.007 82.6033 107.007C82.3128 107.007 82.0222 107.007 81.6349 107.007C81.0539 107.007 80.5697 107.007 80.0855 106.716C79.6013 106.426 79.3108 106.329 79.1171 105.941C78.8266 105.651 78.7297 105.264 78.6329 104.876C78.536 104.489 78.4392 104.102 78.4392 103.617C78.4392 103.133 78.4392 102.552 78.6329 102.165C78.7297 101.681 79.0202 101.293 79.3108 101.003C79.6013 100.712 79.9886 100.422 80.376 100.228C80.7633 100.034 81.3444 99.9375 81.9254 99.9375C82.5064 99.9375 82.4096 99.9375 82.7001 99.9375C82.9906 99.9375 83.1843 99.9375 83.378 100.034V101.196C82.7969 101.1 82.3128 101.003 81.8286 101.003C81.3444 101.003 81.2475 101.003 80.957 101.196C80.7633 101.293 80.4728 101.487 80.376 101.681C80.2791 101.874 80.0855 102.165 79.9886 102.455C79.8918 102.746 79.8918 103.036 79.8918 103.424C79.8918 104.198 80.0855 104.779 80.376 105.167C80.6665 105.554 81.2475 105.748 81.9254 105.748C82.6033 105.748 82.4096 105.748 82.6033 105.748C82.8938 105.748 83.0875 105.651 83.2811 105.554L83.4748 106.716V106.813Z" fill="#143109"/>
<path d="M90.1568 104.393C90.1568 105.361 89.8662 106.039 89.3821 106.523C88.8979 107.007 88.22 107.201 87.2516 107.201C86.2832 107.201 86.2832 107.201 85.8959 107.007C85.5085 106.911 85.3148 106.717 85.1212 106.426C84.9275 106.136 84.8306 105.942 84.7338 105.652C84.7338 105.361 84.637 105.071 84.637 104.683V100.229H85.9927V104.586C85.9927 104.78 85.9927 104.974 85.9927 105.167C85.9927 105.361 86.0895 105.458 86.1864 105.652C86.2832 105.748 86.4769 105.845 86.6706 105.942C86.8642 105.942 87.0579 106.039 87.3484 106.039C87.8326 106.039 88.22 105.942 88.4137 105.652C88.6073 105.458 88.801 104.974 88.801 104.393V100.132H90.1568V104.296V104.393Z" fill="#143109"/>
<path d="M91.6091 107.007V100.132H92.9649V105.845H95.1922V107.007H91.6091Z" fill="#143109"/>
<path d="M98.4846 101.294V107.007H97.1288V101.294H95.3857V100.132H100.228V101.294H98.4846Z" fill="#143109"/>
<path d="M106.619 104.393C106.619 105.361 106.329 106.039 105.844 106.523C105.36 107.007 104.682 107.201 103.714 107.201C102.746 107.201 102.746 107.201 102.358 107.007C101.971 106.911 101.777 106.717 101.584 106.426C101.39 106.136 101.293 105.942 101.196 105.652C101.196 105.361 101.099 105.071 101.099 104.683V100.229H102.455V104.586C102.455 104.78 102.455 104.974 102.455 105.167C102.455 105.361 102.552 105.458 102.649 105.652C102.746 105.748 102.939 105.845 103.133 105.942C103.327 105.942 103.52 106.039 103.811 106.039C104.295 106.039 104.682 105.942 104.876 105.652C105.07 105.458 105.263 104.974 105.263 104.393V100.132H106.619V104.296V104.393Z" fill="#143109"/>
<path d="M111.364 107.007L109.427 104.199V107.007H108.072V100.132C108.362 100.132 108.653 100.132 108.943 100.132C109.234 100.132 109.621 100.132 110.008 100.132C110.396 100.132 110.686 100.132 111.074 100.229C111.364 100.229 111.655 100.422 111.848 100.519C112.042 100.616 112.236 100.907 112.332 101.1C112.429 101.294 112.526 101.681 112.526 101.972C112.526 102.262 112.526 102.456 112.429 102.65C112.429 102.843 112.236 103.037 112.042 103.231C111.848 103.424 111.751 103.521 111.461 103.618C111.267 103.715 110.977 103.812 110.783 103.812C110.783 103.909 110.977 104.102 111.074 104.199C111.074 104.296 111.267 104.49 111.364 104.586L113.01 106.911H111.364V107.007ZM111.074 102.165C111.074 101.488 110.686 101.197 109.815 101.197C108.943 101.197 109.621 101.197 109.524 101.197H109.33V103.134C109.33 103.134 109.427 103.134 109.524 103.134C109.524 103.134 109.718 103.134 109.815 103.134C110.202 103.134 110.492 103.134 110.783 102.843C110.977 102.65 111.17 102.359 111.17 102.069L111.074 102.165Z" fill="#143109"/>
<path d="M117.949 107.007L117.465 105.652H114.85L114.366 107.007H113.01L115.431 100.132H116.884L119.305 107.007H117.852H117.949ZM116.496 102.746C116.496 102.553 116.4 102.359 116.303 102.165C116.303 101.972 116.303 101.778 116.206 101.584C116.206 101.972 116.012 102.359 115.915 102.746L115.334 104.49H117.271L116.593 102.65L116.496 102.746Z" fill="#143109"/>
<path d="M119.693 108.363C120.08 107.975 120.274 107.685 120.274 107.491C120.274 107.298 120.274 107.007 120.08 106.813C120.08 106.717 119.886 106.523 119.886 106.426C119.886 106.329 119.886 106.136 119.886 106.039C119.886 105.942 119.983 105.845 120.177 105.748C120.274 105.748 120.467 105.651 120.661 105.651C120.855 105.651 121.048 105.651 121.242 105.942C121.436 106.136 121.436 106.329 121.436 106.717C121.436 107.104 121.339 107.394 121.145 107.782C120.951 108.169 120.564 108.557 120.177 108.944L119.596 108.46L119.693 108.363Z" fill="#143109"/>
<path d="M126.955 105.071C126.955 105.361 126.955 105.652 126.955 105.845C126.955 106.136 126.761 106.33 126.664 106.523C126.567 106.717 126.374 106.814 126.083 106.911C125.793 107.007 125.599 107.104 125.212 107.104C124.824 107.104 124.824 107.104 124.727 107.104C124.631 107.104 124.437 107.104 124.34 107.104V105.942C124.34 105.942 124.534 105.942 124.631 105.942C124.727 105.942 124.824 105.942 125.018 105.942C125.212 105.942 125.405 105.942 125.599 105.748C125.696 105.652 125.793 105.361 125.793 104.974V100.132H127.148V105.071H126.955Z" fill="#143109"/>
<path d="M133.928 104.393C133.928 105.361 133.637 106.039 133.153 106.523C132.669 107.007 131.991 107.201 131.022 107.201C130.054 107.201 130.054 107.201 129.667 107.007C129.279 106.911 129.086 106.717 128.892 106.426C128.698 106.136 128.601 105.942 128.505 105.652C128.505 105.361 128.408 105.071 128.408 104.683V100.229H129.763V104.586C129.763 104.78 129.763 104.974 129.763 105.167C129.763 105.361 129.86 105.458 129.957 105.652C130.054 105.748 130.248 105.845 130.441 105.942C130.635 105.942 130.829 106.039 131.119 106.039C131.603 106.039 131.991 105.942 132.184 105.652C132.378 105.458 132.572 104.974 132.572 104.393V100.132H133.928V104.296V104.393Z" fill="#143109"/>
<path d="M138.576 107.007H137.026L134.605 100.132H136.058L137.414 104.102C137.414 104.296 137.511 104.489 137.607 104.78C137.607 104.973 137.704 105.264 137.801 105.458C137.801 105.264 137.898 104.973 137.995 104.78C137.995 104.586 138.092 104.296 138.188 104.005L139.544 100.035H140.9L138.479 106.91L138.576 107.007Z" fill="#143109"/>
<path d="M141.675 107.007V100.132H145.355V101.197H142.934V102.94H145.258V104.005H142.934V105.845H145.355V107.007H141.675Z" fill="#143109"/>
<path d="M150.681 107.007L148.647 103.521C148.454 103.231 148.357 103.037 148.26 102.746C148.163 102.456 148.066 102.262 147.969 102.069C147.969 102.262 147.969 102.359 147.969 102.553C147.969 102.746 147.969 102.94 147.969 103.231C147.969 103.424 147.969 103.715 147.969 103.909C147.969 104.102 147.969 104.393 147.969 104.586V107.007H146.71V100.132H148.454L150.39 103.424C150.584 103.715 150.681 104.005 150.875 104.199C151.068 104.393 151.165 104.78 151.262 104.974C151.262 104.78 151.262 104.586 151.262 104.393C151.262 104.199 151.262 103.909 151.262 103.715C151.262 103.424 151.262 103.231 151.262 102.94C151.262 102.65 151.262 102.456 151.262 102.262V100.132H152.521V107.007H150.778H150.681Z" fill="#143109"/>
<path d="M156.394 101.294V107.007H155.038V101.294H153.295V100.132H158.137V101.294H156.394Z" fill="#143109"/>
<path d="M164.529 104.393C164.529 105.361 164.238 106.039 163.754 106.523C163.27 107.007 162.592 107.201 161.624 107.201C160.655 107.201 160.655 107.201 160.268 107.007C159.881 106.911 159.687 106.717 159.493 106.426C159.3 106.136 159.203 105.942 159.106 105.652C159.106 105.361 159.009 105.071 159.009 104.683V100.229H160.365V104.586C160.365 104.78 160.365 104.974 160.365 105.167C160.365 105.361 160.462 105.458 160.558 105.652C160.655 105.748 160.849 105.845 161.043 105.942C161.236 105.942 161.43 106.039 161.721 106.039C162.205 106.039 162.592 105.942 162.786 105.652C162.979 105.458 163.173 104.974 163.173 104.393V100.132H164.529V104.296V104.393Z" fill="#143109"/>
<path d="M171.598 103.521C171.598 104.102 171.598 104.586 171.307 105.07C171.113 105.554 170.823 105.845 170.532 106.232C170.242 106.523 169.758 106.716 169.37 106.91C168.886 107.104 168.402 107.104 167.821 107.104C167.24 107.104 167.143 107.104 166.853 107.104C166.562 107.104 166.271 107.104 165.981 107.104V100.228C166.271 100.228 166.562 100.228 166.949 100.228C167.337 100.228 167.724 100.228 168.208 100.228C168.692 100.228 169.177 100.228 169.661 100.422C170.048 100.519 170.436 100.712 170.726 101.003C171.017 101.293 171.307 101.584 171.404 102.068C171.598 102.455 171.694 103.036 171.694 103.617L171.598 103.521ZM170.242 103.617C170.242 103.23 170.242 102.94 170.145 102.649C170.145 102.358 169.951 102.068 169.758 101.874C169.564 101.681 169.37 101.487 169.08 101.39C168.789 101.293 168.499 101.196 168.111 101.196C167.724 101.196 167.821 101.196 167.627 101.196C167.53 101.196 167.337 101.196 167.24 101.196V105.845C167.24 105.845 167.434 105.845 167.53 105.845C167.627 105.845 167.821 105.845 167.918 105.845C168.208 105.845 168.499 105.845 168.789 105.748C169.08 105.748 169.273 105.554 169.467 105.36C169.661 105.167 169.855 104.876 169.951 104.586C170.048 104.295 170.145 103.908 170.145 103.521L170.242 103.617Z" fill="#143109"/>
<path d="M172.76 107.007V100.132H176.44V101.197H174.019V102.94H176.343V104.005H174.019V105.845H176.44V107.007H172.76Z" fill="#143109"/>
<path d="M78.9238 118.337V111.461H82.6037V112.527H80.1827V114.27H82.5069V115.335H80.1827V117.175H82.6037V118.337H78.9238Z" fill="#143109"/>
<path d="M91.8027 114.754C91.8027 115.335 91.8027 115.819 91.5122 116.303C91.3185 116.788 91.028 117.078 90.7374 117.465C90.4469 117.756 89.9627 117.95 89.5754 118.143C89.0912 118.337 88.607 118.337 88.026 118.337C87.4449 118.337 87.3481 118.337 87.0576 118.337C86.7671 118.337 86.4766 118.337 86.186 118.337V111.461C86.4766 111.461 86.7671 111.461 87.1544 111.461C87.5418 111.461 87.9291 111.461 88.4133 111.461C88.8975 111.461 89.3817 111.461 89.8659 111.655C90.2533 111.752 90.6406 111.946 90.9311 112.236C91.2216 112.527 91.5122 112.817 91.609 113.301C91.8027 113.689 91.8995 114.27 91.8995 114.851L91.8027 114.754ZM90.3501 114.851C90.3501 114.463 90.3501 114.173 90.2533 113.882C90.2533 113.592 90.0596 113.301 89.8659 113.108C89.6722 112.914 89.4785 112.72 89.188 112.623C88.8975 112.527 88.607 112.43 88.2196 112.43C87.8323 112.43 87.9291 112.43 87.7355 112.43C87.6386 112.43 87.4449 112.43 87.3481 112.43V117.078C87.3481 117.078 87.5418 117.078 87.6386 117.078C87.7355 117.078 87.9291 117.078 88.026 117.078C88.3165 117.078 88.607 117.078 88.8975 116.981C89.188 116.981 89.3817 116.788 89.5754 116.594C89.7691 116.4 89.9627 116.11 90.0596 115.819C90.1564 115.529 90.2533 115.141 90.2533 114.754L90.3501 114.851Z" fill="#143109"/>
<path d="M92.8687 118.337V111.461H96.5485V112.527H94.1275V114.27H96.4517V115.335H94.1275V117.175H96.5485V118.337H92.8687Z" fill="#143109"/>
<path d="M101.874 116.207C101.874 116.497 101.874 116.788 101.681 117.078C101.584 117.369 101.39 117.562 101.1 117.756C100.906 117.95 100.616 118.143 100.228 118.24C99.9376 118.337 99.5503 118.434 99.0661 118.434C98.5819 118.434 98.5819 118.434 98.3882 118.434C98.1946 118.434 97.904 118.434 97.7104 118.337V117.078C98.0009 117.078 98.1946 117.175 98.4851 117.272C98.7756 117.272 98.9693 117.272 99.2598 117.272C99.5503 117.272 99.8408 117.272 100.131 117.078C100.325 116.981 100.519 116.691 100.519 116.4C100.519 116.11 100.519 116.013 100.325 115.916C100.228 115.819 100.034 115.722 99.744 115.626C99.5503 115.626 99.2598 115.432 99.0661 115.335C98.8724 115.238 98.5819 115.141 98.3882 114.948C98.1946 114.754 98.0009 114.657 97.8072 114.367C97.6135 114.076 97.6135 113.786 97.6135 113.495C97.6135 113.205 97.6135 112.914 97.8072 112.624C97.904 112.333 98.0977 112.139 98.2914 111.946C98.4851 111.752 98.7756 111.655 99.0661 111.558C99.3566 111.462 99.744 111.365 100.131 111.365C100.519 111.365 100.519 111.365 100.712 111.365C100.906 111.365 101.1 111.365 101.293 111.365V112.527C101.003 112.527 100.809 112.43 100.616 112.43C100.422 112.43 100.228 112.43 100.034 112.43C99.6471 112.43 99.3566 112.43 99.1629 112.624C98.9693 112.817 98.8724 113.011 98.8724 113.205C98.8724 113.398 98.8724 113.592 99.0661 113.689C99.1629 113.786 99.3566 113.883 99.6471 113.979C99.8408 114.076 100.131 114.173 100.325 114.27C100.519 114.367 100.809 114.464 101.003 114.657C101.197 114.851 101.39 114.948 101.584 115.238C101.681 115.432 101.778 115.722 101.778 116.11L101.874 116.207Z" fill="#143109"/>
<path d="M107.491 113.495C107.491 113.786 107.491 114.173 107.297 114.463C107.2 114.754 107.007 115.044 106.716 115.238C106.522 115.432 106.232 115.625 105.845 115.722C105.554 115.819 105.167 115.916 104.683 115.916H104.489H104.295V118.337H102.939V111.461C103.23 111.461 103.52 111.461 103.811 111.461C104.102 111.461 104.392 111.461 104.779 111.461C105.651 111.461 106.232 111.655 106.716 112.042C107.2 112.43 107.394 112.914 107.394 113.592L107.491 113.495ZM106.135 113.592C106.135 113.205 106.038 113.011 105.845 112.72C105.651 112.527 105.264 112.43 104.876 112.43H104.683H104.489V114.754C104.586 114.754 104.779 114.754 104.876 114.754C105.264 114.754 105.651 114.657 105.845 114.463C106.135 114.27 106.232 113.979 106.232 113.592H106.135Z" fill="#143109"/>
<path d="M114.56 114.754C114.56 115.335 114.56 115.819 114.269 116.304C114.076 116.788 113.882 117.175 113.591 117.466C113.301 117.756 112.913 118.047 112.526 118.143C112.139 118.24 111.655 118.434 111.17 118.434C110.686 118.434 110.202 118.434 109.815 118.24C109.427 118.047 109.137 117.853 108.846 117.562C108.556 117.272 108.362 116.885 108.265 116.497C108.168 116.11 108.072 115.626 108.072 115.045C108.072 114.464 108.072 113.979 108.362 113.495C108.556 113.011 108.749 112.624 109.04 112.333C109.33 112.043 109.718 111.752 110.105 111.655C110.492 111.462 110.977 111.365 111.364 111.365C111.751 111.365 112.236 111.365 112.623 111.558C113.01 111.752 113.301 111.946 113.591 112.236C113.882 112.527 114.076 112.914 114.269 113.302C114.463 113.689 114.463 114.27 114.463 114.851L114.56 114.754ZM113.107 114.851C113.107 114.076 112.913 113.495 112.623 113.108C112.332 112.72 111.848 112.527 111.267 112.527C110.686 112.527 110.783 112.527 110.589 112.624C110.396 112.624 110.202 112.817 110.008 113.011C109.815 113.205 109.718 113.398 109.621 113.689C109.524 113.979 109.427 114.27 109.427 114.657C109.427 115.045 109.427 115.335 109.524 115.626C109.524 115.916 109.718 116.207 109.815 116.4C110.008 116.594 110.202 116.788 110.396 116.885C110.589 116.981 110.88 117.078 111.17 117.078C111.461 117.078 111.655 117.078 111.848 116.981C112.042 116.981 112.236 116.788 112.429 116.594C112.623 116.4 112.72 116.207 112.817 115.819C112.913 115.529 113.01 115.141 113.01 114.754L113.107 114.851Z" fill="#143109"/>
<path d="M118.821 118.337L116.885 115.529V118.337H115.529V111.461C115.819 111.461 116.11 111.461 116.4 111.461C116.691 111.461 117.078 111.461 117.466 111.461C117.853 111.461 118.143 111.461 118.531 111.558C118.821 111.558 119.112 111.752 119.306 111.849C119.499 111.946 119.693 112.236 119.79 112.43C119.887 112.623 119.983 113.011 119.983 113.301C119.983 113.592 119.983 113.786 119.887 113.979C119.887 114.173 119.693 114.367 119.499 114.56C119.306 114.754 119.209 114.851 118.918 114.948C118.724 115.044 118.434 115.141 118.24 115.141C118.24 115.238 118.434 115.432 118.531 115.529C118.531 115.625 118.724 115.819 118.821 115.916L120.468 118.24H118.821V118.337ZM118.628 113.495C118.628 112.817 118.24 112.527 117.369 112.527C116.497 112.527 117.175 112.527 117.078 112.527H116.885V114.463C116.885 114.463 116.981 114.463 117.078 114.463C117.078 114.463 117.272 114.463 117.369 114.463C117.756 114.463 118.047 114.463 118.337 114.173C118.531 113.979 118.724 113.689 118.724 113.398L118.628 113.495Z" fill="#143109"/>
<path d="M123.856 112.527V118.24H122.5V112.527H120.757V111.365H125.599V112.527H123.856Z" fill="#143109"/>
<path d="M132.572 114.754C132.572 115.335 132.572 115.819 132.282 116.304C132.088 116.788 131.895 117.175 131.604 117.466C131.314 117.756 130.926 118.047 130.539 118.143C130.151 118.24 129.667 118.434 129.183 118.434C128.699 118.434 128.215 118.434 127.827 118.24C127.44 118.047 127.149 117.853 126.859 117.562C126.568 117.272 126.375 116.885 126.278 116.497C126.181 116.11 126.084 115.626 126.084 115.045C126.084 114.464 126.084 113.979 126.375 113.495C126.568 113.011 126.762 112.624 127.053 112.333C127.343 112.043 127.73 111.752 128.118 111.655C128.505 111.462 128.989 111.365 129.377 111.365C129.764 111.365 130.248 111.365 130.636 111.558C131.023 111.752 131.314 111.946 131.604 112.236C131.895 112.527 132.088 112.914 132.282 113.302C132.476 113.689 132.476 114.27 132.476 114.851L132.572 114.754ZM131.217 114.851C131.217 114.076 131.023 113.495 130.732 113.108C130.442 112.72 129.958 112.527 129.377 112.527C128.796 112.527 128.893 112.527 128.699 112.624C128.505 112.624 128.312 112.817 128.118 113.011C127.924 113.205 127.827 113.398 127.73 113.689C127.634 113.979 127.537 114.27 127.537 114.657C127.537 115.045 127.537 115.335 127.634 115.626C127.634 115.916 127.827 116.207 127.924 116.4C128.118 116.594 128.312 116.788 128.505 116.885C128.699 116.981 128.989 117.078 129.28 117.078C129.57 117.078 129.764 117.078 129.958 116.981C130.151 116.981 130.345 116.788 130.539 116.594C130.732 116.4 130.829 116.207 130.926 115.819C131.023 115.529 131.12 115.141 131.12 114.754L131.217 114.851Z" fill="#143109"/>
<path d="M43.7709 70.6926V83.4753C43.7709 83.4753 30.6009 83.669 31.2787 78.1492C32.2471 71.5641 43.7709 70.5958 43.7709 70.5958V70.6926ZM45.3203 48.4197C45.3203 49.0008 45.8045 49.2913 46.1919 49.2913C46.5792 49.2913 47.0634 49.0008 47.0634 48.4197V47.2577H45.4172V48.4197H45.3203ZM46.5792 47.5482C46.6761 47.5482 46.7729 47.5482 46.7729 47.7419C46.7729 47.9355 46.7729 47.9355 46.5792 47.9355C46.3856 47.9355 46.3856 47.9355 46.3856 47.7419C46.3856 47.5482 46.3856 47.5482 46.5792 47.5482ZM46.5792 48.4197C46.6761 48.4197 46.7729 48.4197 46.7729 48.6134C46.7729 48.8071 46.7729 48.8071 46.5792 48.8071C46.3856 48.8071 46.3856 48.8071 46.3856 48.6134C46.3856 48.4197 46.3856 48.4197 46.5792 48.4197ZM46.095 47.9355C46.1919 47.9355 46.2887 47.9355 46.2887 48.1292C46.2887 48.3229 46.2887 48.3229 46.095 48.3229C45.9014 48.3229 45.9014 48.3229 45.9014 48.1292C45.9014 47.9355 45.9014 47.9355 46.095 47.9355ZM45.7077 47.5482C45.8045 47.5482 45.9014 47.5482 45.9014 47.7419C45.9014 47.9355 45.9014 47.9355 45.7077 47.9355C45.514 47.9355 45.514 47.9355 45.514 47.7419C45.514 47.5482 45.514 47.5482 45.7077 47.5482ZM45.7077 48.4197C45.8045 48.4197 45.9014 48.4197 45.9014 48.6134C45.9014 48.8071 45.9014 48.8071 45.7077 48.8071C45.514 48.8071 45.514 48.8071 45.514 48.6134C45.514 48.4197 45.514 48.4197 45.7077 48.4197ZM45.3203 54.23C45.3203 54.8111 45.8045 55.1016 46.1919 55.1016C46.5792 55.1016 47.0634 54.8111 47.0634 54.23V53.068H45.4172V54.23H45.3203ZM46.5792 53.2617C46.6761 53.2617 46.7729 53.2617 46.7729 53.4553C46.7729 53.649 46.7729 53.649 46.5792 53.649C46.3856 53.649 46.3856 53.649 46.3856 53.4553C46.3856 53.2617 46.3856 53.2617 46.5792 53.2617ZM46.5792 54.1332C46.6761 54.1332 46.7729 54.1332 46.7729 54.3269C46.7729 54.5206 46.7729 54.5206 46.5792 54.5206C46.3856 54.5206 46.3856 54.5206 46.3856 54.3269C46.3856 54.1332 46.3856 54.1332 46.5792 54.1332ZM46.095 53.7458C46.1919 53.7458 46.2887 53.7458 46.2887 53.9395C46.2887 54.1332 46.2887 54.1332 46.095 54.1332C45.9014 54.1332 45.9014 54.1332 45.9014 53.9395C45.9014 53.7458 45.9014 53.7458 46.095 53.7458ZM45.7077 53.2617C45.8045 53.2617 45.9014 53.2617 45.9014 53.4553C45.9014 53.649 45.9014 53.649 45.7077 53.649C45.514 53.649 45.514 53.649 45.514 53.4553C45.514 53.2617 45.514 53.2617 45.7077 53.2617ZM45.7077 54.1332C45.8045 54.1332 45.9014 54.1332 45.9014 54.3269C45.9014 54.5206 45.9014 54.5206 45.7077 54.5206C45.514 54.5206 45.514 54.5206 45.514 54.3269C45.514 54.1332 45.514 54.1332 45.7077 54.1332ZM46.095 52.1964C46.4824 52.1964 46.9666 51.9059 46.9666 51.3249V50.1628H45.3203V51.3249C45.3203 51.9059 45.8045 52.1964 46.1919 52.1964H46.095ZM46.5792 50.4533C46.6761 50.4533 46.7729 50.4533 46.7729 50.647C46.7729 50.8407 46.7729 50.8407 46.5792 50.8407C46.3856 50.8407 46.3856 50.8407 46.3856 50.647C46.3856 50.4533 46.3856 50.4533 46.5792 50.4533ZM46.5792 51.228C46.6761 51.228 46.7729 51.228 46.7729 51.4217C46.7729 51.6154 46.7729 51.6154 46.5792 51.6154C46.3856 51.6154 46.3856 51.6154 46.3856 51.4217C46.3856 51.228 46.3856 51.228 46.5792 51.228ZM46.095 50.8407C46.1919 50.8407 46.2887 50.8407 46.2887 51.0344C46.2887 51.228 46.2887 51.228 46.095 51.228C45.9014 51.228 45.9014 51.228 45.9014 51.0344C45.9014 50.8407 45.9014 50.8407 46.095 50.8407ZM45.7077 50.4533C45.8045 50.4533 45.9014 50.4533 45.9014 50.647C45.9014 50.8407 45.9014 50.8407 45.7077 50.8407C45.514 50.8407 45.514 50.8407 45.514 50.647C45.514 50.4533 45.514 50.4533 45.7077 50.4533ZM45.514 51.4217C45.514 51.3249 45.514 51.228 45.7077 51.228C45.9014 51.228 45.9014 51.228 45.9014 51.4217C45.9014 51.6154 45.9014 51.6154 45.7077 51.6154C45.514 51.6154 45.514 51.6154 45.514 51.4217ZM42.9962 51.3249C42.9962 51.9059 43.4804 52.1964 43.8678 52.1964C44.2551 52.1964 44.7393 51.9059 44.7393 51.3249V50.1628H43.0931V51.3249H42.9962ZM44.2551 50.4533C44.352 50.4533 44.4488 50.4533 44.4488 50.647C44.4488 50.8407 44.4488 50.8407 44.2551 50.8407C44.0614 50.8407 44.0614 50.8407 44.0614 50.647C44.0614 50.4533 44.0614 50.4533 44.2551 50.4533ZM44.2551 51.228C44.352 51.228 44.4488 51.228 44.4488 51.4217C44.4488 51.6154 44.4488 51.6154 44.2551 51.6154C44.0614 51.6154 44.0614 51.6154 44.0614 51.4217C44.0614 51.228 44.0614 51.228 44.2551 51.228ZM43.8678 50.8407C43.9646 50.8407 44.0614 50.8407 44.0614 51.0344C44.0614 51.228 44.0614 51.228 43.8678 51.228C43.6741 51.228 43.6741 51.228 43.6741 51.0344C43.6741 50.8407 43.6741 50.8407 43.8678 50.8407ZM43.3836 50.4533C43.4804 50.4533 43.5772 50.4533 43.5772 50.647C43.5772 50.8407 43.5772 50.8407 43.3836 50.8407C43.1899 50.8407 43.1899 50.8407 43.1899 50.647C43.1899 50.4533 43.1899 50.4533 43.3836 50.4533ZM43.3836 51.228C43.4804 51.228 43.5772 51.228 43.5772 51.4217C43.5772 51.6154 43.5772 51.6154 43.3836 51.6154C43.1899 51.6154 43.1899 51.6154 43.1899 51.4217C43.1899 51.228 43.1899 51.228 43.3836 51.228ZM47.5476 50.1628V51.3249C47.5476 51.9059 48.0318 52.1964 48.4192 52.1964C48.8065 52.1964 49.2907 51.9059 49.2907 51.3249V50.1628H47.6445H47.5476ZM48.0318 51.6154C47.935 51.6154 47.8381 51.6154 47.8381 51.4217C47.8381 51.228 47.8381 51.228 48.0318 51.228C48.2255 51.228 48.2255 51.228 48.2255 51.4217C48.2255 51.6154 48.2255 51.6154 48.0318 51.6154ZM48.0318 50.8407C47.935 50.8407 47.8381 50.8407 47.8381 50.647C47.8381 50.4533 47.8381 50.4533 48.0318 50.4533C48.2255 50.4533 48.2255 50.4533 48.2255 50.647C48.2255 50.8407 48.2255 50.8407 48.0318 50.8407ZM48.4192 51.228C48.3223 51.228 48.2255 51.228 48.2255 51.0344C48.2255 50.8407 48.2255 50.8407 48.4192 50.8407C48.6128 50.8407 48.6128 50.8407 48.6128 51.0344C48.6128 51.228 48.6128 51.228 48.4192 51.228ZM48.8065 51.6154C48.7097 51.6154 48.6128 51.6154 48.6128 51.4217C48.6128 51.228 48.6128 51.228 48.8065 51.228C49.0002 51.228 49.0002 51.228 49.0002 51.4217C49.0002 51.6154 49.0002 51.6154 48.8065 51.6154ZM48.8065 50.8407C48.7097 50.8407 48.6128 50.8407 48.6128 50.647C48.6128 50.4533 48.6128 50.4533 48.8065 50.4533C49.0002 50.4533 49.0002 50.4533 49.0002 50.647C49.0002 50.8407 49.0002 50.8407 48.8065 50.8407ZM39.8974 43.8683V52.2933C39.8974 54.0364 40.5752 55.5858 41.7373 56.651C42.8994 57.8131 44.4488 58.4909 46.1919 58.4909C47.935 58.4909 49.4844 57.8131 50.6465 56.651C51.8085 55.4889 52.4864 53.9395 52.4864 52.2933V43.8683H39.9942H39.8974ZM45.3203 45.8051V45.2241C45.3203 45.2241 45.3203 45.2241 45.3203 45.1272C45.3203 45.0304 45.3203 45.0304 45.4172 45.0304V44.7399V44.5462H45.514H45.6109V44.7399V45.0304H45.8045V44.4494V44.2557H45.9014H45.9982V44.4494V45.0304H46.1919V44.7399V44.5462H46.2887H46.3856V44.7399V45.0304C46.3856 45.0304 46.4824 45.0304 46.4824 45.1272C46.4824 45.2241 46.4824 45.2241 46.3856 45.2241V45.8051C46.3856 45.8051 46.4824 45.8051 46.4824 45.9019C46.4824 45.9988 46.4824 45.9988 46.3856 45.9988H44.7393C44.7393 45.9988 44.6425 45.9988 44.6425 45.9019C44.6425 45.8051 44.6425 45.8051 44.7393 45.8051H45.3203ZM40.2847 45.8051V45.2241C40.2847 45.2241 40.2847 45.2241 40.2847 45.1272C40.2847 45.0304 40.2847 45.0304 40.3816 45.0304V44.7399V44.5462H40.4784H40.5753V44.7399V45.0304H40.7689V44.4494V44.2557H40.8658H40.9626V44.4494V45.0304H41.1563V44.7399V44.5462H41.2531H41.35V44.7399V45.0304C41.35 45.0304 41.5436 45.0304 41.5436 45.1272C41.5436 45.2241 41.5436 45.2241 41.4468 45.2241V45.8051C41.4468 45.8051 41.5436 45.8051 41.5436 45.9019C41.5436 45.9988 41.5436 45.9988 41.4468 45.9988H39.8005C39.8005 45.9988 39.7037 45.9988 39.7037 45.9019C39.7037 45.8051 39.7037 45.8051 39.8005 45.8051H40.2847ZM40.1879 51.1312C40.1879 51.1312 40.1879 51.0344 40.2847 51.0344V50.4533C40.2847 50.4533 40.2847 50.4533 40.2847 50.3565C40.2847 50.2597 40.2847 50.2597 40.3816 50.2597V49.9691V49.7755H40.4784H40.5753V49.9691V50.2597H40.7689V49.6786V49.485H40.8658H40.9626V49.6786V50.2597H41.1563V49.9691V49.7755H41.2531H41.35V49.9691V50.2597C41.35 50.2597 41.5436 50.2597 41.5436 50.3565C41.5436 50.4533 41.5436 50.4533 41.4468 50.4533V51.0344C41.4468 51.0344 41.5436 51.0344 41.5436 51.1312C41.5436 51.228 41.5436 51.228 41.4468 51.228H39.8005C39.8005 51.228 39.7037 51.228 39.7037 51.1312H40.1879ZM43.5772 55.6826L42.4152 56.8447C42.4152 56.8447 42.3183 56.8447 42.2215 56.8447C42.2215 56.8447 42.2215 56.7478 42.2215 56.651L41.8342 56.1668C41.8342 56.1668 41.7373 56.1668 41.6405 56.1668V55.9731L41.4468 55.7795H41.35C41.35 55.6826 41.35 55.5858 41.35 55.5858V55.4889V55.3921H41.4468C41.4468 55.4889 41.4468 55.5858 41.4468 55.5858L41.6405 55.7795H41.7373C41.7373 55.6826 41.35 55.2953 41.35 55.2953H41.2531C41.2531 55.1984 41.2531 55.1016 41.2531 55.1016V55.0047V54.9079H41.35C41.35 55.0048 41.35 55.1016 41.35 55.1016L41.7373 55.4889H41.8342C41.8342 55.3921 41.6405 55.1984 41.6405 55.1984H41.5436C41.5436 55.1016 41.5436 55.0047 41.5436 55.0047V54.9079V54.8111H41.6405C41.6405 54.9079 41.6405 55.0047 41.6405 55.0047L41.8342 55.1984H42.0278C42.0278 55.1984 42.0278 55.2953 42.0278 55.3921L42.512 55.7795C42.512 55.7795 42.6089 55.7795 42.7057 55.7795C42.7057 55.7795 42.7057 55.8763 42.7057 55.9731L43.5772 55.6826ZM43.4804 54.9079C42.8025 54.23 42.4152 53.2617 42.4152 52.2933V46.3861H49.8717V52.2933C49.8717 53.2617 49.4844 54.23 48.8065 54.9079C48.1287 55.5858 47.1603 55.9731 46.1919 55.9731C45.2235 55.9731 44.2551 55.5858 43.5772 54.9079H43.4804ZM50.8401 55.7795L50.6465 55.9731V56.1668C50.6465 56.1668 50.5496 56.1668 50.4528 56.1668L50.0654 56.651V56.8447H49.8717L48.7097 55.6826C48.7097 55.6826 48.7097 55.5858 48.7097 55.4889H48.9034L49.3876 55.1984C49.3876 55.1984 49.3876 55.1016 49.3876 55.0047H49.5812L49.7749 54.8111H49.8717V55.0047V55.1984H49.7749C49.7749 55.2953 49.7749 55.2953 49.7749 55.2953L49.5812 55.4889H49.6781C49.6781 55.5858 50.0654 55.1984 50.0654 55.1984H50.1623V55.3921V55.5858H50.0654C50.0654 55.6826 50.0654 55.6826 50.0654 55.6826L49.6781 56.07H49.7749C49.7749 56.1668 49.9686 56.07 49.9686 56.07H50.0654V56.2636V56.3605H49.9686L50.8401 55.7795ZM51.9054 51.228H50.2591C50.2591 51.228 50.1623 51.228 50.1623 51.1312C50.1623 51.0344 50.1623 51.0344 50.2591 51.0344V50.4533C50.2591 50.4533 50.2591 50.4533 50.2591 50.3565C50.2591 50.2597 50.2591 50.2597 50.3559 50.2597V49.9691V49.7755H50.4528H50.5496V49.9691V50.2597H50.7433V49.6786V49.485H50.8401H50.937V49.6786V50.2597H51.1306V49.9691V49.7755H51.2275H51.3243V49.9691V50.2597C51.3243 50.2597 51.4212 50.2597 51.4212 50.3565C51.4212 50.4533 51.4212 50.4533 51.3243 50.4533V51.0344C51.3243 51.0344 51.4212 51.0344 51.4212 51.1312C51.4212 51.228 51.4212 51.228 51.3243 51.228H51.9054ZM51.9054 46.0956H50.2591C50.2591 46.0956 50.1623 46.0956 50.1623 45.9988C50.1623 45.9019 50.1623 45.9019 50.2591 45.9019V45.3209C50.2591 45.3209 50.2591 45.3209 50.2591 45.2241C50.2591 45.1272 50.2591 45.1272 50.3559 45.1272V44.8367V44.643H50.4528H50.5496V44.8367V45.1272H50.7433V44.5462V44.3525H50.8401H50.937V44.5462V45.1272H51.1306V44.8367V44.643H51.2275H51.3243V44.8367V45.1272C51.3243 45.1272 51.4212 45.1272 51.4212 45.2241C51.4212 45.3209 51.4212 45.3209 51.3243 45.3209V45.9019C51.3243 45.9019 51.4212 45.9019 51.4212 45.9988C51.4212 46.0956 51.4212 46.0956 51.3243 46.0956H51.9054ZM41.5436 50.9375H40.7689C40.7689 50.4533 41.1563 50.3565 41.1563 50.3565C41.1563 50.3565 41.5436 50.4533 41.5436 50.9375ZM41.5436 45.8051H40.7689C40.7689 45.3209 41.1563 45.2241 41.1563 45.2241C41.1563 45.2241 41.5436 45.3209 41.5436 45.8051ZM51.518 50.9375H50.7433C50.7433 50.4533 51.1306 50.3565 51.1306 50.3565C51.1306 50.3565 51.518 50.4533 51.518 50.9375ZM46.4824 45.8051H45.7077C45.7077 45.3209 46.095 45.2241 46.095 45.2241C46.095 45.2241 46.4824 45.3209 46.4824 45.8051ZM49.8717 55.5858C49.8717 55.5858 50.0654 55.8763 49.7749 56.2636L49.1939 55.6826C49.5812 55.3921 49.8717 55.5858 49.8717 55.5858ZM43.0931 55.7795L42.512 56.3605C42.2215 55.9731 42.4152 55.6826 42.4152 55.6826C42.4152 55.6826 42.7057 55.4889 43.0931 55.7795ZM51.518 45.8051H50.7433C50.7433 45.3209 51.1306 45.2241 51.1306 45.2241C51.1306 45.2241 51.518 45.3209 51.518 45.8051ZM65.3659 52.7775C62.5576 72.6294 42.4152 61.8803 32.344 74.1788C34.4744 68.5621 41.7373 64.5918 46.6761 63.6234V61.3961C49.7749 61.2024 52.4864 59.7498 54.2295 57.4257C54.2295 57.4257 53.3579 56.9415 53.2611 56.8447C51.7117 58.7815 49.2907 60.0404 46.6761 60.234V58.8783C48.2255 58.7815 49.6781 58.1036 50.8401 56.9415C51.3243 56.4573 51.8085 55.7795 52.099 55.1984C53.3579 56.1668 54.1326 56.8447 54.3263 57.232C54.52 57.5225 54.3263 57.6194 54.3263 57.6194C54.4232 57.6194 54.52 57.6194 54.52 57.5226L54.6168 57.3289L55.5852 55.8763C55.5852 55.8763 55.5852 55.6826 55.5852 55.4889C56.1663 54.3269 56.5536 52.9711 56.6504 51.5186C56.6504 51.5186 55.5852 51.228 55.4884 51.3249C55.4884 52.4869 55.1979 53.5522 54.7137 54.5206C54.2295 54.0364 53.5516 53.5522 52.7769 52.9711C52.7769 52.6806 52.7769 52.3901 52.7769 52.1964V50.1628C52.7769 50.1628 52.7769 50.1628 52.8737 50.1628C54.4232 50.4533 56.1663 51.0344 56.5536 51.5186C56.5536 51.5186 56.5536 51.6154 56.5536 51.7122V50.5502C56.5536 50.5502 56.5536 50.4533 56.3599 50.3565C56.3599 49.0008 55.8757 47.7419 55.3915 46.483C55.2947 46.483 54.1326 46.3861 54.0358 46.3861C54.6168 47.3545 55.0042 48.5166 55.1979 49.7755C54.52 49.5818 53.7453 49.2913 52.8737 49.1944C52.8737 49.1944 52.8737 49.1944 52.7769 49.1944V45.7083C54.0358 45.9988 55.0042 46.2893 55.4884 46.5798C55.5852 46.5798 55.4884 46.6766 55.4884 46.6766C55.4884 46.6766 55.5852 46.6766 55.4884 46.5798L54.8105 45.4177C54.8105 45.4177 54.6168 45.3209 54.52 45.2241C52.7769 42.7063 49.8717 40.9632 46.5792 40.7695V36.1212C46.5792 36.1212 54.52 33.1192 65.8501 32.4414C65.8501 32.4414 65.8501 41.9315 65.5596 49.5818C65.5596 50.7439 65.4628 51.9059 65.2691 52.8743M46.6761 41.7379V43.3841H51.4212C50.0654 42.4157 48.4192 41.8347 46.6761 41.7379ZM45.514 32.054V43.3841H40.7689C42.0278 42.5126 43.5772 41.9315 45.2235 41.7379L45.4172 40.5758C42.2215 40.7695 39.3163 42.5126 37.5733 44.9335C37.3796 44.9335 37.2827 44.9335 37.2827 44.9335L36.4112 46.6766C36.4112 46.6766 36.4112 46.6766 36.4112 46.8703C36.4112 46.6766 36.6049 46.6766 36.7017 46.6766C37.1859 46.6766 38.1543 46.9672 39.4132 47.5482V48.9039H39.3163C38.4448 49.0976 37.5733 49.2913 36.9922 49.485C37.0891 48.7102 37.2827 48.0324 37.5733 47.3545C37.5733 47.3545 36.7017 46.7735 36.6049 46.6766C36.1207 47.7419 35.8302 48.9039 35.8302 50.066C35.8302 50.066 35.7333 50.1628 35.6365 50.2597V51.4217C35.6365 51.4217 35.6365 51.3249 35.6365 51.228C35.6365 51.228 35.6365 51.228 35.7333 51.1312C35.7333 51.1312 35.8302 51.1312 35.927 51.0344C36.1207 50.9375 36.3144 50.8407 36.6049 50.7439C36.6049 50.7439 36.7017 50.7439 36.7985 50.7439C37.4764 50.4533 38.4448 50.2597 39.3163 50.066C39.3163 50.066 39.3163 50.066 39.4132 50.066V52.0996C39.4132 52.8743 39.51 53.649 39.8005 54.3269C39.51 54.3269 39.2195 54.5206 38.929 54.5206C38.5416 54.6174 38.1543 54.7142 37.8638 54.9079C37.2827 53.8427 36.9922 52.5838 36.8954 51.228C36.8954 51.228 35.8302 51.4217 35.7333 51.4217C35.7333 52.8743 36.2175 54.23 36.7985 55.3921C36.7985 55.3921 36.7985 55.4889 36.7985 55.5858L37.3796 56.5542C37.3796 56.5542 37.3796 56.5542 37.4764 56.5542C37.4764 56.5542 37.4764 56.4573 37.4764 56.3605C37.6701 56.07 38.6385 55.6826 39.3163 55.4889C39.7037 55.3921 40.0911 55.2953 40.3816 55.1984C40.6721 55.6826 41.0594 56.1668 41.4468 56.5542C42.6089 57.7162 44.0614 58.3941 45.6109 58.4909V61.1056C31.5693 64.9791 29.8262 78.3428 29.8262 78.3428V57.5226C29.8262 43.7715 35.1523 34.8623 45.6109 31.5698L45.514 32.054ZM37.4764 56.8447C39.2195 59.4593 42.1247 61.2024 45.4172 61.4929L45.2235 60.3309C42.512 60.1372 40.1879 58.6846 38.6385 56.651C38.6385 56.651 37.4764 56.8447 37.3796 56.8447H37.4764Z" fill="#143109"/>
<defs>
<clipPath id="clip0_268_76">
<rect width="533.846" height="85.2921" fill="white" transform="translate(258 31.9092)"/>
</clipPath>
</defs>
</svg>
