<svg width="763" height="87" viewBox="0 0 763 87" fill="none" xmlns="http://www.w3.org/2000/svg">
<g clip-path="url(#clip0_268_79)">
<path fill-rule="evenodd" clip-rule="evenodd" d="M228.174 7.04199V41.4162H266.409V7.04199H228.174ZM256.461 13.1554H255.603C255.013 13.1554 254.584 13.3699 254.316 13.8257C254.048 14.2815 253.914 14.9786 253.914 15.9171V28.1974C253.914 30.691 253.19 32.6484 251.769 34.0695C250.321 35.4906 248.149 36.2145 245.227 36.2145C242.519 36.2145 240.373 35.4906 238.765 34.0427C237.156 32.5948 236.352 30.5838 236.352 28.0366V13.1554H233.777V12.5655H244.154V13.1554H241.473V27.6075C241.473 30.0207 241.875 31.8708 242.679 33.131C243.484 34.3912 244.985 35.0347 247.238 35.0347C248.927 35.0347 250.321 34.4717 251.447 33.3187C252.573 32.1658 253.136 30.5302 253.136 28.3851V15.8903C253.136 14.8982 252.976 14.2011 252.654 13.7721C252.332 13.343 251.769 13.1285 250.938 13.1285H249.973V12.5387H256.488V13.1285L256.461 13.1554ZM261.69 35.3833C261.234 35.8391 260.698 36.0536 260.027 36.0536C259.357 36.0536 258.821 35.8391 258.392 35.3833C257.936 34.9275 257.721 34.3912 257.721 33.7209C257.721 33.0506 257.936 32.5143 258.392 32.0585C258.848 31.6027 259.411 31.3882 260.027 31.3882C260.644 31.3882 261.234 31.6295 261.69 32.0585C262.146 32.5143 262.36 33.0506 262.36 33.7209C262.36 34.3912 262.146 34.9275 261.69 35.3833Z" fill="#143109"/>
<path fill-rule="evenodd" clip-rule="evenodd" d="M274.103 13.0216H270.859V12.4854H280.243C282.898 12.4854 285.016 12.9948 286.571 14.0137C288.153 15.0326 288.931 16.6682 288.931 18.9205C288.931 21.1728 288.1 22.7011 286.464 23.7468C284.802 24.8193 282.844 25.3556 280.592 25.3556C279.278 25.3556 278.259 25.1679 277.509 24.7925V35.1691H280.86V35.7054H270.886V35.1691H274.13V13.0216H274.103ZM277.455 24.149C277.75 24.3367 278.098 24.4976 278.554 24.6316C279.01 24.7657 279.493 24.8461 279.975 24.8461C281.37 24.8461 282.603 24.4171 283.702 23.5323C284.802 22.6475 285.365 21.2264 285.365 19.2154C285.365 17.0704 284.855 15.5152 283.89 14.5231C282.898 13.5311 281.423 13.0216 279.466 13.0216H277.455V24.149Z" fill="#143109"/>
<path fill-rule="evenodd" clip-rule="evenodd" d="M302.284 12.0005C305.073 12.0005 307.513 13.1803 309.577 15.5398C311.669 17.8993 312.687 20.7415 312.687 24.0931C312.687 27.4448 311.669 30.2869 309.631 32.6465C307.566 35.006 305.126 36.1858 302.284 36.1858C299.442 36.1858 297.082 35.006 294.991 32.6465C292.926 30.2869 291.881 27.4179 291.881 24.0931C291.881 20.7683 292.9 17.8725 294.964 15.5398C297.002 13.1803 299.442 12.0005 302.284 12.0005ZM302.284 35.6763C304.081 35.6763 305.448 35.0596 306.44 33.8262C307.432 32.5929 308.102 31.1181 308.424 29.4289C308.773 27.7397 308.934 25.97 308.934 24.12C308.934 22.2699 308.773 20.4198 308.451 18.7574C308.129 17.095 307.486 15.6471 306.494 14.4137C305.502 13.1803 304.107 12.5636 302.257 12.5636C300.407 12.5636 299.093 13.1803 298.128 14.4137C297.136 15.6471 296.466 17.1218 296.144 18.811C295.795 20.5002 295.634 22.2967 295.634 24.12C295.634 25.9432 295.795 27.8201 296.117 29.4825C296.439 31.145 297.082 32.5929 298.074 33.8262C299.066 35.0596 300.461 35.6763 302.284 35.6763Z" fill="#143109"/>
<path fill-rule="evenodd" clip-rule="evenodd" d="M318.32 13.0216H315.022V12.4854H325.13C327.49 12.4854 329.367 12.8875 330.841 13.6919C332.316 14.5231 333.013 16.0515 333.013 18.3306C333.013 20.1002 332.289 21.3873 330.841 22.1916C329.393 22.9692 327.785 23.4787 325.961 23.72C328.053 23.9345 329.554 24.4171 330.493 25.1143C331.431 25.8382 332.021 27.2057 332.262 29.2703L332.718 33.2922C332.825 34.1234 333.04 34.6865 333.362 34.9546C333.683 35.2228 334.032 35.3568 334.434 35.3568C334.783 35.3568 335.239 35.2496 335.775 35.0351L335.963 35.4641C335.614 35.5981 335.239 35.7054 334.783 35.7858C334.354 35.8663 333.844 35.8931 333.254 35.8931C331.431 35.8931 330.251 35.4641 329.742 34.6329C329.233 33.8017 328.83 32.2465 328.535 29.9674L328.294 27.9833C328.16 26.723 327.811 25.731 327.195 25.0606C326.578 24.3903 325.452 24.0417 323.763 24.0417H321.618V35.1691H324.969V35.7054H314.968V35.1691H318.266V13.0216H318.32ZM321.671 23.5323H323.307C325.345 23.5323 326.873 23.1301 327.919 22.3257C328.938 21.5213 329.447 20.2075 329.447 18.3574C329.447 16.7754 329.045 15.4884 328.267 14.5231C327.49 13.5311 326.015 13.0484 323.897 13.0484H321.671V23.5591V23.5323Z" fill="#143109"/>
<path fill-rule="evenodd" clip-rule="evenodd" d="M345.533 13.0216H344.836C341.86 13.0216 339.903 13.397 339.018 14.1478C338.106 14.8985 337.677 16.6146 337.677 19.2958H337.141V12.4854H357.277V19.2958H356.741C356.741 16.6414 356.285 14.9253 355.401 14.1478C354.516 13.3702 352.558 12.9948 349.609 12.9948H348.885V35.1423H352.263V35.6786H342.128V35.1423H345.533V13.0216Z" fill="#143109"/>
<path fill-rule="evenodd" clip-rule="evenodd" d="M370.067 12.0005C372.856 12.0005 375.296 13.1803 377.36 15.5398C379.425 17.8993 380.471 20.7415 380.471 24.0931C380.471 27.4448 379.452 30.2869 377.387 32.6465C375.349 35.006 372.909 36.1858 370.067 36.1858C367.225 36.1858 364.866 35.006 362.774 32.6465C360.71 30.2869 359.664 27.4179 359.664 24.0931C359.664 20.7683 360.683 17.8725 362.747 15.5398C364.785 13.1803 367.225 12.0005 370.067 12.0005ZM370.067 35.6763C371.864 35.6763 373.231 35.0596 374.223 33.8262C375.215 32.5929 375.859 31.1181 376.207 29.4289C376.556 27.7397 376.717 25.97 376.717 24.12C376.717 22.2699 376.556 20.4198 376.234 18.7574C375.912 17.095 375.269 15.6471 374.277 14.4137C373.285 13.1803 371.891 12.5636 370.067 12.5636C368.244 12.5636 366.903 13.1803 365.938 14.4137C364.946 15.6471 364.276 17.1218 363.954 18.811C363.605 20.5002 363.444 22.2967 363.444 24.12C363.444 25.9432 363.605 27.8201 363.927 29.4825C364.249 31.145 364.892 32.5929 365.884 33.8262C366.877 35.0596 368.271 35.6763 370.094 35.6763H370.067Z" fill="#143109"/>
<path fill-rule="evenodd" clip-rule="evenodd" d="M277.885 72.172V67.3188H276.974V71.8771C276.974 72.7887 276.92 73.0568 276.545 73.4322C276.169 73.8344 275.633 74.0757 274.99 74.0757C274.346 74.0757 273.81 73.8612 273.461 73.4322C273.113 73.03 273.032 72.7887 273.032 71.8771V67.3188H272.121V72.172C272.121 73.1373 272.362 73.7271 272.979 74.2366C273.515 74.6924 274.212 74.9069 275.016 74.9069C275.821 74.9069 276.491 74.6656 277.027 74.2366C277.644 73.7271 277.885 73.1641 277.885 72.172Z" fill="#143109"/>
<path fill-rule="evenodd" clip-rule="evenodd" d="M286.062 74.7714V67.3442H285.151V73.5917C285.151 73.5917 285.151 73.5112 285.097 73.4844C285.016 73.2699 285.016 73.2699 284.963 73.1627C284.909 73.0822 284.882 73.0286 284.856 72.975L281.209 67.3711H280.002V74.7446H280.914V68.3631C280.968 68.524 280.968 68.5776 281.021 68.6313C281.021 68.6849 281.075 68.7117 281.102 68.7921C281.155 68.8994 281.236 68.9798 281.236 69.0603L284.963 74.7982H286.009L286.062 74.7714Z" fill="#143109"/>
<path d="M289.307 67.3442H288.395V74.7178H289.307V67.3442Z" fill="#143109"/>
<path fill-rule="evenodd" clip-rule="evenodd" d="M296.815 67.3442H295.903L293.812 73.0822C293.812 73.0822 293.758 73.2967 293.758 73.4308C293.758 73.2967 293.731 73.1627 293.678 73.0822L291.506 67.3442H290.514L293.409 74.9055H293.973L296.815 67.3442Z" fill="#143109"/>
<path fill-rule="evenodd" clip-rule="evenodd" d="M302.258 74.691V73.9402H298.933V71.3394H301.587V70.5618H298.933V68.1218H302.15V67.3442H297.994V74.691H302.258Z" fill="#143109"/>
<path fill-rule="evenodd" clip-rule="evenodd" d="M308.986 74.6924L306.815 71.3944C307.351 71.2604 307.619 71.1263 307.941 70.8314C308.343 70.4292 308.584 69.8661 308.584 69.303C308.584 68.7399 308.37 68.2037 307.994 67.8551C307.565 67.4261 307.163 67.3188 306.252 67.3188H303.999V74.6924H304.911V71.5285H305.876L307.914 74.6924H308.96H308.986ZM307.592 69.3298C307.592 70.2683 307.083 70.7777 306.117 70.7777H304.911V68.1232H306.117C306.761 68.1232 306.949 68.1501 307.19 68.3377C307.458 68.5522 307.592 68.874 307.592 69.3566V69.3298Z" fill="#143109"/>
<path fill-rule="evenodd" clip-rule="evenodd" d="M314.565 67.8281C314.163 67.5868 313.975 67.4796 313.68 67.3991C313.304 67.2919 312.849 67.2114 312.446 67.2114C310.999 67.2114 310.006 67.989 310.006 69.1688C310.006 69.9195 310.489 70.5094 311.588 71.0993C312.286 71.4747 312.688 71.6892 312.822 71.7696C313.117 71.9305 313.331 72.145 313.439 72.3863C313.519 72.5204 313.546 72.7081 313.546 72.8958C313.546 73.5929 313.01 74.0219 312.152 74.0219C311.776 74.0219 311.428 73.9415 311.106 73.8342C310.838 73.727 310.677 73.6197 310.275 73.3516L309.792 74.0755C310.275 74.3973 310.462 74.5046 310.73 74.6118C311.106 74.7727 311.588 74.8531 312.098 74.8531C313.599 74.8531 314.511 74.0755 314.511 72.8153C314.511 72.2791 314.297 71.7696 313.948 71.4747C313.68 71.2334 313.278 70.9921 312.768 70.7239C311.267 69.9195 310.945 69.6514 310.945 69.1151C310.945 68.4984 311.508 68.0694 312.366 68.0694C312.661 68.0694 313.09 68.1499 313.385 68.2303C313.626 68.3108 313.787 68.3912 314.163 68.6057L314.592 67.8549L314.565 67.8281Z" fill="#143109"/>
<path d="M317.192 67.3442H316.28V74.7178H317.192V67.3442Z" fill="#143109"/>
<path fill-rule="evenodd" clip-rule="evenodd" d="M325.21 70.9908C325.21 68.8726 323.655 67.3442 321.51 67.3442H319.07V74.7178H321.51C322.797 74.7178 323.574 74.4229 324.218 73.6453C324.861 72.9213 325.21 71.9561 325.21 70.9908ZM324.245 70.9908C324.245 71.7952 323.869 72.7068 323.333 73.2699C322.877 73.7525 322.314 73.9402 321.349 73.9402H319.955V68.1218H321.349C323.011 68.1218 324.245 69.3552 324.245 70.9908Z" fill="#143109"/>
<path fill-rule="evenodd" clip-rule="evenodd" d="M331.967 74.6911L329.232 67.1299H328.24L325.505 74.6911H326.497L327.247 72.5193H330.224L330.974 74.6911H331.94H331.967ZM329.956 71.6881H327.569L328.776 68.3097L329.982 71.6881H329.956Z" fill="#143109"/>
<path fill-rule="evenodd" clip-rule="evenodd" d="M339.233 70.9908C339.233 68.8726 337.678 67.3442 335.506 67.3442H333.066V74.7178H335.506C336.793 74.7178 337.571 74.4229 338.214 73.6453C338.858 72.9213 339.233 71.9561 339.233 70.9908ZM338.268 70.9908C338.268 71.7952 337.893 72.7068 337.356 73.2699C336.874 73.7525 336.337 73.9402 335.372 73.9402H333.978V68.1218H335.372C337.034 68.1218 338.268 69.3552 338.268 70.9908Z" fill="#143109"/>
<path fill-rule="evenodd" clip-rule="evenodd" d="M344.918 74.691V73.9402H341.566V71.3394H344.248V70.5618H341.566V68.1218H344.811V67.3442H340.655V74.691H344.918Z" fill="#143109"/>
<path fill-rule="evenodd" clip-rule="evenodd" d="M355.615 70.9908C355.615 68.8726 354.06 67.3442 351.915 67.3442H349.448V74.7178H351.888C353.175 74.7178 353.953 74.4229 354.597 73.6453C355.24 72.9213 355.589 71.9561 355.589 70.9908H355.615ZM354.677 70.9908C354.677 71.7952 354.302 72.7068 353.765 73.2699C353.31 73.7525 352.746 73.9402 351.781 73.9402H350.387V68.1218H351.781C353.444 68.1218 354.677 69.3552 354.677 70.9908Z" fill="#143109"/>
<path fill-rule="evenodd" clip-rule="evenodd" d="M364.115 71.0189C364.115 68.8202 362.56 67.2114 360.415 67.2114C358.27 67.2114 356.714 68.8202 356.714 71.0189C356.714 73.2175 358.27 74.8531 360.415 74.8531C362.56 74.8531 364.115 73.2443 364.115 71.0189ZM363.123 71.0189C363.123 72.6813 361.916 74.0487 360.441 74.0487C358.967 74.0487 357.76 72.6813 357.76 71.0189C357.76 69.3565 358.967 68.0158 360.441 68.0158C361.916 68.0158 363.123 69.3833 363.123 71.0189Z" fill="#143109"/>
<path fill-rule="evenodd" clip-rule="evenodd" d="M373.366 69.5161C373.366 68.819 373.178 68.3095 372.803 67.9073C372.401 67.4783 371.891 67.3442 371.006 67.3442H368.7V74.7178H369.612V71.9293C370.256 71.9829 370.47 72.0097 370.738 72.0097C372.347 72.0097 373.366 71.0712 373.366 69.5161ZM372.427 69.5697C372.427 70.2669 372.106 70.8299 371.569 71.0712C371.328 71.1785 371.033 71.2321 370.604 71.2321C370.363 71.2321 370.148 71.2321 369.639 71.1785V68.1486H370.899C371.489 68.1486 371.811 68.2291 372.025 68.4704C372.293 68.7385 372.454 69.1407 372.454 69.6233L372.427 69.5697Z" fill="#143109"/>
<path fill-rule="evenodd" clip-rule="evenodd" d="M381.624 71.0189C381.624 68.8202 380.069 67.2114 377.924 67.2114C375.779 67.2114 374.224 68.8202 374.224 71.0189C374.224 73.2175 375.779 74.8531 377.924 74.8531C380.069 74.8531 381.624 73.2443 381.624 71.0189ZM380.632 71.0189C380.632 72.6813 379.425 74.0487 377.951 74.0487C376.476 74.0487 375.243 72.6813 375.243 71.0189C375.243 69.3565 376.449 68.0158 377.951 68.0158C379.452 68.0158 380.632 69.3833 380.632 71.0189Z" fill="#143109"/>
<path fill-rule="evenodd" clip-rule="evenodd" d="M388.032 74.6924L385.86 71.3944C386.396 71.2604 386.664 71.1263 386.986 70.8314C387.388 70.4292 387.629 69.8661 387.629 69.303C387.629 68.7399 387.388 68.2037 387.066 67.8551C386.637 67.4261 386.208 67.3188 385.324 67.3188H383.071V74.6924H383.983V71.5285H384.948L386.986 74.6924H388.032ZM386.664 69.3298C386.664 70.2683 386.155 70.7777 385.19 70.7777H383.983V68.1232H385.19C385.833 68.1232 386.021 68.1501 386.262 68.3377C386.53 68.5522 386.664 68.874 386.664 69.3566V69.3298Z" fill="#143109"/>
<path fill-rule="evenodd" clip-rule="evenodd" d="M394.279 68.1218V67.3442H388.461V68.1218H390.901V74.691H391.812V68.1218H394.279Z" fill="#143109"/>
<path fill-rule="evenodd" clip-rule="evenodd" d="M402.324 71.0189C402.324 68.8202 400.769 67.2114 398.624 67.2114C396.479 67.2114 394.924 68.8202 394.924 71.0189C394.924 73.2175 396.479 74.8531 398.624 74.8531C400.769 74.8531 402.324 73.2443 402.324 71.0189ZM401.332 71.0189C401.332 72.6813 400.125 74.0487 398.651 74.0487C397.176 74.0487 395.969 72.6813 395.969 71.0189C395.969 69.3565 397.176 68.0158 398.651 68.0158C400.125 68.0158 401.332 69.3833 401.332 71.0189Z" fill="#143109"/>
<path fill-rule="evenodd" clip-rule="evenodd" d="M276.679 55.708V54.5015H272.121V61.875H273.515V58.7915H276.116V57.6118H273.515V55.708H276.679Z" fill="#143109"/>
<path fill-rule="evenodd" clip-rule="evenodd" d="M283.541 61.875L280.887 54.5015H279.627L276.945 61.875H278.42L279.037 60.0518H281.504L282.093 61.875H283.568H283.541ZM281.128 58.872H279.439L280.27 56.2175L281.128 58.872Z" fill="#143109"/>
<path fill-rule="evenodd" clip-rule="evenodd" d="M290.057 55.0912C289.414 54.6085 288.69 54.394 287.751 54.394C286.545 54.394 285.714 54.689 284.963 55.4129C284.239 56.1369 283.837 57.1022 283.837 58.1747C283.837 59.3276 284.292 60.4002 285.07 61.1241C285.767 61.7408 286.572 62.0357 287.751 62.0357C288.18 62.0357 288.583 61.9821 288.931 61.9017C289.28 61.8212 289.467 61.7408 289.923 61.5531L289.655 60.3733C289.012 60.6415 288.556 60.7219 288.046 60.7219C286.438 60.7219 285.392 59.6762 285.392 58.0942C285.392 56.7 286.411 55.6811 287.832 55.6811C288.475 55.6811 289.038 55.8419 289.521 56.1905L290.057 55.0644V55.0912Z" fill="#143109"/>
<path fill-rule="evenodd" clip-rule="evenodd" d="M297.323 59.0056V54.5278H295.902V59.086C295.902 60.1586 295.339 60.7216 294.267 60.7216C293.087 60.7216 292.524 60.1854 292.524 59.086V54.5278H291.13V59.0056C291.13 60.3462 291.371 60.9629 292.122 61.4992C292.685 61.8746 293.275 62.0355 294.213 62.0355C295.152 62.0355 295.741 61.8746 296.305 61.4992C297.082 60.9629 297.323 60.3731 297.323 59.0056Z" fill="#143109"/>
<path fill-rule="evenodd" clip-rule="evenodd" d="M303.545 61.875V60.6684H300.542V54.5015H299.148V61.875H303.545Z" fill="#143109"/>
<path fill-rule="evenodd" clip-rule="evenodd" d="M311.32 58.1744C311.32 57.2091 310.971 56.2707 310.328 55.6004C309.604 54.8228 308.719 54.5278 307.352 54.5278H304.617V61.9014H307.325C308.639 61.9014 309.631 61.5528 310.301 60.8289C310.945 60.1317 311.32 59.1933 311.32 58.2012V58.1744ZM309.792 58.1744C309.792 59.7564 308.853 60.6144 307.191 60.6144H306.065V55.7344H307.191C307.995 55.7344 308.558 55.8685 308.96 56.1634C309.497 56.5656 309.792 57.3164 309.792 58.1744Z" fill="#143109"/>
<path fill-rule="evenodd" clip-rule="evenodd" d="M318.104 61.875L315.423 54.5015H314.163L311.508 61.875H312.983L313.599 60.0518H316.066L316.656 61.875H318.131H318.104ZM315.664 58.872H313.948L314.806 56.2175L315.664 58.872Z" fill="#143109"/>
<path fill-rule="evenodd" clip-rule="evenodd" d="M325.773 58.1744C325.773 57.2091 325.424 56.2707 324.781 55.6004C324.057 54.8228 323.199 54.5278 321.805 54.5278H319.07V61.9014H321.778C323.092 61.9014 324.084 61.5528 324.754 60.8289C325.398 60.1317 325.773 59.1933 325.773 58.2012V58.1744ZM324.245 58.1744C324.245 59.7564 323.306 60.6144 321.644 60.6144H320.545V55.7344H321.644C322.448 55.7344 323.011 55.8685 323.414 56.1634C323.95 56.5656 324.272 57.3164 324.272 58.1744H324.245Z" fill="#143109"/>
<path fill-rule="evenodd" clip-rule="evenodd" d="M331.564 61.875V60.6684H328.346V58.7111H330.867V57.5313H328.346V55.708H331.43V54.5015H326.952V61.875H331.564Z" fill="#143109"/>
<path fill-rule="evenodd" clip-rule="evenodd" d="M342.396 58.1744C342.396 57.2091 342.047 56.2707 341.404 55.6004C340.68 54.8228 339.795 54.5278 338.401 54.5278H335.666V61.9014H338.401C339.715 61.9014 340.707 61.5528 341.377 60.8289C342.02 60.1317 342.396 59.1933 342.396 58.2012V58.1744ZM340.867 58.1744C340.867 59.7564 339.929 60.6144 338.267 60.6144H337.14V55.7344H338.267C339.071 55.7344 339.634 55.8685 340.036 56.1634C340.573 56.5656 340.894 57.3164 340.894 58.1744H340.867Z" fill="#143109"/>
<path fill-rule="evenodd" clip-rule="evenodd" d="M348.082 61.875V60.6684H344.864V58.7111H347.358V57.5313H344.864V55.708H347.921V54.5015H343.443V61.875H348.082Z" fill="#143109"/>
<path fill-rule="evenodd" clip-rule="evenodd" d="M357.466 59.9172C357.466 58.7643 356.769 58.0403 355.643 58.0135C356.233 57.9867 356.528 57.8526 356.849 57.4773C357.118 57.1555 357.279 56.7265 357.279 56.3243C357.279 55.8417 357.064 55.3322 356.689 55.0105C356.286 54.6351 355.804 54.5278 354.839 54.5278H352.157V61.9014H355.16C356.635 61.9014 357.439 61.2043 357.439 59.9441L357.466 59.9172ZM355.697 56.5656C355.697 57.1823 355.268 57.5309 354.49 57.5309H353.659V55.6272H354.57C355.294 55.6272 355.697 55.9757 355.697 56.5656ZM355.911 59.7564C355.911 60.1317 355.723 60.4803 355.428 60.6144C355.214 60.7216 355.026 60.7484 354.57 60.7484H353.659V58.7107H354.57C355.428 58.7107 355.911 59.086 355.911 59.7564Z" fill="#143109"/>
<path fill-rule="evenodd" clip-rule="evenodd" d="M363.257 61.875V60.6684H360.012V58.7111H362.533V57.5313H360.012V55.708H363.096V54.5015H358.618V61.875H363.257Z" fill="#143109"/>
<path fill-rule="evenodd" clip-rule="evenodd" d="M368.807 61.875V60.6684H365.804V54.5015H364.41V61.875H368.807Z" fill="#143109"/>
<path fill-rule="evenodd" clip-rule="evenodd" d="M376.1 61.875L373.419 54.5015H372.159L369.504 61.875H370.979L371.596 60.0518H374.063L374.652 61.875H376.127H376.1ZM373.66 58.872H371.944L372.802 56.2175L373.66 58.872Z" fill="#143109"/>
<path fill-rule="evenodd" clip-rule="evenodd" d="M381.731 55.0107C381.249 54.7694 381.034 54.689 380.686 54.5817C380.23 54.4477 379.801 54.394 379.291 54.394C378.433 54.394 377.978 54.5281 377.441 54.8767C377.2 55.0376 377.012 55.2252 376.905 55.4129C376.717 55.6811 376.61 56.0564 376.61 56.4318C376.61 57.2362 377.012 57.7189 378.326 58.4696L379.452 59.1131C379.935 59.3813 380.096 59.5958 380.096 59.8907C380.096 60.3465 379.667 60.6415 379.023 60.6415C378.728 60.6415 378.326 60.561 377.951 60.427C377.656 60.3197 377.441 60.2125 376.905 59.9175L376.315 61.2045C376.53 61.3118 376.691 61.3922 376.798 61.419C377.575 61.7676 377.817 61.848 378.353 61.9285C378.567 61.9285 378.782 61.9821 378.996 61.9821C380.632 61.9821 381.597 61.2045 381.597 59.8907C381.597 59.3813 381.41 58.8986 381.088 58.5769C380.739 58.2283 380.015 57.7725 378.889 57.1558C378.353 56.8877 378.192 56.7 378.192 56.3782C378.192 55.976 378.621 55.7079 379.265 55.7079C379.747 55.7079 380.391 55.8956 381.168 56.2441L381.731 54.9839V55.0107Z" fill="#143109"/>
<path fill-rule="evenodd" clip-rule="evenodd" d="M391.465 61.875L388.784 54.5015H387.524L384.842 61.875H386.317L386.907 60.0518H389.374L389.964 61.875H391.438H391.465ZM389.052 58.872H387.336L388.167 56.2175L389.025 58.872H389.052Z" fill="#143109"/>
<path fill-rule="evenodd" clip-rule="evenodd" d="M397.845 61.875L396.022 58.7111C396.639 58.5502 396.88 58.3893 397.175 58.0139C397.443 57.6654 397.577 57.2095 397.577 56.6196C397.577 55.9225 397.363 55.3862 396.987 55.0109C396.558 54.6087 396.076 54.4746 394.976 54.4746H392.51V61.8482H393.931V58.8987H394.628L396.317 61.8482H397.872L397.845 61.875ZM396.102 56.6733C396.102 57.3972 395.7 57.719 394.815 57.719H393.904V55.6812H394.815C395.727 55.6812 396.102 55.9493 396.102 56.6733Z" fill="#143109"/>
<path fill-rule="evenodd" clip-rule="evenodd" d="M403.932 55.708V54.5015H398.113V55.708H400.312V61.875H401.706V55.708H403.932Z" fill="#143109"/>
<path fill-rule="evenodd" clip-rule="evenodd" d="M409.536 61.875V60.6684H406.318V58.7111H408.839V57.5313H406.318V55.708H409.402V54.5015H404.924V61.875H409.536Z" fill="#143109"/>
<path fill-rule="evenodd" clip-rule="evenodd" d="M415.542 55.0107C415.059 54.7694 414.845 54.689 414.496 54.5817C414.04 54.4477 413.584 54.394 413.102 54.394C412.244 54.394 411.788 54.5281 411.252 54.8767C411.01 55.0376 410.823 55.2252 410.715 55.4129C410.528 55.6811 410.42 56.0564 410.42 56.4318C410.42 57.2362 410.823 57.7189 412.136 58.4696L413.263 59.1131C413.745 59.3813 413.906 59.5958 413.906 59.8907C413.906 60.3465 413.477 60.6415 412.834 60.6415C412.539 60.6415 412.136 60.561 411.761 60.427C411.466 60.3197 411.252 60.2125 410.715 59.9175L410.125 61.2045C410.34 61.3118 410.501 61.3922 410.608 61.419C411.386 61.7676 411.627 61.848 412.163 61.9285C412.378 61.9285 412.592 61.9821 412.807 61.9821C414.442 61.9821 415.408 61.2045 415.408 59.8907C415.408 59.3813 415.22 58.8986 414.898 58.5769C414.55 58.2283 413.826 57.7725 412.673 57.1558C412.163 56.8877 411.976 56.7 411.976 56.3782C411.976 55.976 412.405 55.7079 413.048 55.7079C413.531 55.7079 414.174 55.8956 414.952 56.2441L415.515 54.9839L415.542 55.0107Z" fill="#143109"/>
<path fill-rule="evenodd" clip-rule="evenodd" d="M250.643 52.303C250.831 56.8076 248.498 60.2933 248.632 64.7711L248.525 64.8783L248.31 64.6102C248.149 60.2397 246.192 56.3786 246.407 52.0349C247.881 51.9545 249.249 52.1153 250.643 52.303Z" fill="#143109"/>
<path fill-rule="evenodd" clip-rule="evenodd" d="M245.36 56.298C246.192 59.0865 245.789 62.4113 246.701 65.1731C248.819 69.0609 246.701 73.7264 246.54 77.8556L245.146 85.4437C239.488 84.8538 233.643 80.4833 231.739 74.933C229.273 68.1493 231.149 60.3467 236.914 55.7081C239.086 53.992 241.526 52.9731 244.181 52.3564C244.69 53.5898 245.065 54.9573 245.36 56.3248V56.298Z" fill="#143109"/>
<path fill-rule="evenodd" clip-rule="evenodd" d="M259.651 57.0485C258.391 59.3812 256.594 61.4995 255.227 63.8054C253.752 66.5135 251.339 68.8462 250.105 71.6348C249.623 72.171 249.113 72.9486 248.416 73.1363C248.202 71.6348 249.033 70.2673 249.033 68.8194C249.516 65.5482 249.73 62.1698 251.151 59.274L252.599 52.8389C255.146 53.7505 257.667 54.9303 259.651 57.0753V57.0485Z" fill="#143109"/>
<path fill-rule="evenodd" clip-rule="evenodd" d="M263.11 75.3595C260.617 81.4997 254.262 85.468 247.746 85.6289C247.291 84.4759 247.398 83.0549 247.237 81.7678C246.888 76.8611 251.339 73.6703 253.163 69.5411C254.45 66.7794 256.97 64.2858 259.303 62.1675C260 61.095 260.643 59.9957 261.099 58.8159C264.639 63.2132 265.416 70.1042 263.11 75.3595Z" fill="#143109"/>
<path d="M456.056 7.04199H448.736V14.1742H456.056V7.04199Z" fill="#143109"/>
<path d="M559.314 35.1143H553.174V41.2544H559.314V35.1143Z" fill="#143109"/>
<path d="M456.057 17.4453L448.737 21.4673V41.2552H456.057V17.4453Z" fill="#143109"/>
<path d="M542.018 22.3538C536.548 20.9596 535.208 20.2892 535.208 18.1978V18.1174C535.208 16.589 536.602 15.3557 539.283 15.3557C541.965 15.3557 544.7 16.5354 547.488 18.466L551.108 13.2374C547.89 10.6634 543.976 9.21548 539.364 9.21548C534.243 9.21548 530.274 11.6018 528.88 15.4629C525.957 12.2722 521.56 10.288 516.278 10.288H505.285V29.5129L496.999 10.0467H490.725L480.027 35.1973H468.497L473.672 31.2021C479.303 26.8316 482.038 24.1771 482.038 18.8413C482.038 12.8889 477.855 9.00098 471.098 9.00098C465.414 9.00098 462.384 11.3069 459.247 15.597L464.153 19.5385C466.513 16.6427 468.202 15.2752 470.642 15.2752C473.082 15.2752 474.905 16.7231 474.905 19.4044C474.905 22.0857 473.35 23.7749 469.409 27.0461L458.818 35.7067V41.257H484.397L486.864 35.2241H507.725L510.299 41.257H516.278C525.77 41.257 532.419 34.7951 532.714 26.4026C534.35 27.2606 536.414 27.8773 538.774 28.494C544.056 29.8615 545.129 30.7463 545.129 32.516V32.5964C545.129 34.4465 543.413 35.5726 540.57 35.5726C538.211 35.5726 536.119 34.9291 534.162 33.8298L530.676 39.2192C533.706 40.8816 537.085 41.7128 540.436 41.7128C547.247 41.7128 552.046 38.2003 552.046 31.9261V31.8456C552.046 26.349 548.427 24.0431 542.018 22.3807V22.3538ZM489.304 29.218L493.782 18.2515L498.26 29.218H489.304ZM525.609 25.8663C525.609 31.363 521.855 35.1168 516.278 35.1168H512.095V16.455H516.278C521.855 16.455 525.609 20.3161 525.609 25.7859V25.8663Z" fill="#143109"/>
<path d="M672.894 14.3069V6.77246H677.773V7.79135H674.127V9.99002H677.425V11.0089H674.127V14.3069H672.894Z" fill="#143109"/>
<path d="M682.761 13.3955C682.52 13.9854 682.064 14.468 681.153 14.468C680.026 14.468 679.276 13.6904 679.276 12.3498V8.75684H680.455V12.1621C680.455 13.0469 680.831 13.5027 681.582 13.5027C682.198 13.5027 682.788 13.2078 682.788 12.5375V8.75684H683.968V14.3339H682.761V13.3955Z" fill="#143109"/>
<path d="M685.79 14.3611V8.78397H686.997V9.72242H687.05C687.292 9.13254 687.748 8.6499 688.659 8.6499C689.785 8.6499 690.536 9.42748 690.536 10.7681V14.3611H689.356V10.9558C689.356 10.071 688.981 9.61517 688.23 9.61517C687.614 9.61517 687.024 9.91011 687.024 10.5804V14.3611H685.844H685.79Z" fill="#143109"/>
<path d="M695.819 13.4493H695.765C695.443 14.1196 694.907 14.5218 694.076 14.5218C692.762 14.5218 691.931 13.5029 691.931 11.5992C691.931 9.6955 692.789 8.70342 694.103 8.70342C694.934 8.70342 695.47 9.13243 695.792 9.77594H695.845V6.42432H697.025L696.998 14.4146H695.819V13.4493ZM695.819 12.5645V10.7144C695.819 10.0441 695.255 9.6955 694.558 9.6955C693.673 9.6955 693.164 10.2854 693.164 11.197V12.1087C693.164 13.0203 693.673 13.6102 694.531 13.6102C695.202 13.6102 695.792 13.2616 695.792 12.5913L695.819 12.5645Z" fill="#143109"/>
<path d="M703.138 14.4412C702.468 14.4412 702.146 14.0658 702.065 13.5027H702.012C701.797 14.1731 701.207 14.5753 700.323 14.5753C699.196 14.5753 698.472 13.9317 698.472 12.886C698.472 11.8403 699.277 11.2236 700.912 11.2236H701.985V10.7946C701.985 10.0439 701.583 9.66848 700.805 9.66848C700.081 9.66848 699.679 9.96342 699.357 10.4192L698.66 9.85617C698.982 9.26628 699.733 8.75684 700.912 8.75684C702.307 8.75684 703.165 9.48079 703.165 10.741V13.5295H703.862V14.468H703.138V14.4412ZM701.985 12.7788V11.9744H700.939C700.081 11.9744 699.679 12.2425 699.652 12.7252V12.9397C699.652 13.4491 700.028 13.6904 700.671 13.6904C701.422 13.6904 701.985 13.315 701.985 12.7788Z" fill="#143109"/>
<path d="M709.922 10.0969L709.01 10.5795C708.823 10.0701 708.421 9.74834 707.75 9.72153C706.865 9.72153 706.356 10.3114 706.329 11.1962V12.1347C706.329 13.0195 706.839 13.6094 707.75 13.6094C708.447 13.6094 708.85 13.2608 709.118 12.7246L709.976 13.2608C709.627 14.0116 708.93 14.5479 707.831 14.5747L707.723 15.0573L707.777 15.1109C707.938 15.0573 708.099 15.0305 708.233 15.0305C708.662 15.0305 708.984 15.2718 708.984 15.7545C708.984 16.4248 708.367 16.6661 707.697 16.6661C707.026 16.6661 706.678 16.4248 706.517 16.2103L706.973 15.7008C707.107 15.8617 707.321 15.9958 707.643 15.9958C707.911 15.9958 708.126 15.8885 708.126 15.674C708.126 15.5131 707.992 15.3254 707.375 15.245H707.107L707.268 14.4674C705.927 14.2529 705.149 13.1804 705.149 11.5984C705.149 9.82878 706.142 8.70264 707.804 8.70264C708.957 8.70264 709.627 9.2389 709.976 10.0165L709.922 10.0969Z" fill="#143109"/>
<path d="M716.089 14.4933C715.418 14.4933 715.097 14.1179 715.016 13.5549H714.962C714.748 14.2252 714.158 14.6274 713.273 14.6274C712.147 14.6274 711.423 13.9839 711.423 12.9382C711.423 11.8925 712.227 11.2758 713.863 11.2758H714.936V10.8468C714.936 10.096 714.533 9.72061 713.756 9.72061C713.032 9.72061 712.63 10.0156 712.308 10.4714L711.611 9.90831C711.933 9.31842 712.683 8.80897 713.863 8.80897C715.257 8.80897 716.115 9.53292 716.115 10.7931V13.5817H716.813V14.5201H716.089V14.4933ZM713.863 7.73645C713.541 7.57558 713.3 7.49514 713.059 7.49514C712.817 7.49514 712.657 7.60239 712.442 7.76327L712.013 7.20019C712.227 6.87844 712.603 6.5835 713.139 6.5835C713.488 6.5835 713.729 6.71756 713.97 6.82481C714.292 6.98569 714.533 7.06613 714.775 7.06613C715.016 7.06613 715.177 6.95888 715.391 6.798L715.82 7.36107C715.606 7.68283 715.231 7.97777 714.694 7.97777C714.346 7.97777 714.104 7.84371 713.863 7.73645ZM714.936 12.8309V12.0265H713.89C713.032 12.0265 712.63 12.2947 712.603 12.7773V12.9918C712.603 13.5012 712.978 13.7426 713.622 13.7426C714.373 13.7426 714.936 13.3672 714.936 12.8309Z" fill="#143109"/>
<path d="M717.859 11.7347C717.859 9.96501 718.878 8.83887 720.514 8.83887C722.149 8.83887 723.142 9.99183 723.142 11.7615C723.142 13.5311 722.123 14.6573 720.487 14.6573C718.851 14.6573 717.859 13.5043 717.859 11.7347ZM721.908 12.1637V11.3325C721.908 10.2868 721.345 9.77732 720.514 9.75051C719.683 9.7237 719.093 10.26 719.093 11.3057V12.1369C719.093 13.1826 719.656 13.692 720.487 13.7188C721.318 13.7456 721.908 13.2094 721.908 12.1637Z" fill="#143109"/>
<path d="M672.787 21.6824H673.966V22.6477H674.02C674.342 21.9774 674.878 21.5752 675.709 21.5752C677.023 21.5752 677.854 22.5941 677.854 24.4978C677.854 26.4015 676.996 27.3936 675.682 27.3936C674.851 27.3936 674.315 26.9646 673.993 26.3211H673.94V29.4314H672.76L672.787 21.7093V21.6824ZM676.594 24.9268V24.0152C676.594 23.1035 676.085 22.5137 675.227 22.5137C674.556 22.5137 673.966 22.8622 673.966 23.5325V25.3826C673.966 26.053 674.529 26.4015 675.227 26.4015C676.111 26.4015 676.621 25.8116 676.621 24.9L676.594 24.9268Z" fill="#143109"/>
<path d="M683.672 27.2844C683.002 27.2844 682.68 26.9091 682.6 26.346H682.546C682.331 27.0163 681.742 27.4185 680.857 27.4185C679.731 27.4185 679.007 26.775 679.007 25.7293C679.007 24.6836 679.811 24.0669 681.447 24.0669H682.519V23.6379C682.519 22.8871 682.117 22.5117 681.339 22.5117C680.615 22.5117 680.213 22.8067 679.891 23.2625L679.194 22.6994C679.516 22.1095 680.267 21.6001 681.447 21.6001C682.841 21.6001 683.699 22.324 683.699 23.5843V26.3728H684.396V27.3113H683.672V27.2844ZM682.519 25.622V24.8177H681.473C680.615 24.8177 680.213 25.0858 680.186 25.5684V25.7829C680.186 26.2656 680.562 26.5337 681.205 26.5337C681.956 26.5337 682.519 26.1583 682.519 25.622Z" fill="#143109"/>
<path d="M685.656 26.3467H687.131V22.7001H685.656V21.7349H688.311V23.2364H688.365C688.579 22.4588 689.062 21.7617 690.215 21.7617H690.885V22.8878H689.786C688.82 22.8878 688.311 23.5045 688.311 24.2821V26.3735H690.322V27.312H685.656V26.3735V26.3467Z" fill="#143109"/>
<path d="M696.623 27.3377C695.953 27.3377 695.631 26.9623 695.551 26.3992H695.497C695.283 27.0695 694.693 27.4717 693.808 27.4717C692.682 27.4717 691.958 26.8282 691.958 25.7825C691.958 24.7368 692.762 24.1201 694.398 24.1201H695.47V23.6911C695.47 22.9403 695.068 22.565 694.29 22.565C693.567 22.565 693.164 22.8599 692.843 23.3157L692.145 22.7527C692.467 22.1628 693.218 21.6533 694.398 21.6533C695.792 21.6533 696.65 22.3773 696.65 23.6375V26.426H697.347V27.3645H696.623V27.3377ZM695.47 25.6753V24.8709H694.425C693.567 24.8709 693.164 25.139 693.138 25.6216V25.8361C693.138 26.3188 693.513 26.5869 694.156 26.5869C694.907 26.5869 695.47 26.2115 695.47 25.6753Z" fill="#143109"/>
<path d="M709.547 27.4192C708.876 27.4192 708.555 27.0438 708.474 26.4808H708.42C708.206 27.1511 707.616 27.5533 706.731 27.5533C705.605 27.5533 704.881 26.9098 704.881 25.8641C704.881 24.8184 705.686 24.2017 707.321 24.2017H708.394V23.7726C708.394 23.0219 707.991 22.6465 707.214 22.6465C706.49 22.6465 706.088 22.9414 705.766 23.3973L705.069 22.8342C705.391 22.2443 706.141 21.7349 707.321 21.7349C708.715 21.7349 709.573 22.4588 709.573 23.719V26.5076H710.271V27.446H709.547V27.4192ZM708.394 25.73V24.9256H707.348C706.49 24.9256 706.088 25.1937 706.061 25.6764V25.8909C706.061 26.3735 706.436 26.6416 707.08 26.6416C707.831 26.6416 708.394 26.2663 708.394 25.73Z" fill="#143109"/>
<path d="M717.832 23.6931C717.832 21.1994 718.771 19.8052 720.674 19.8052C722.122 19.8052 722.793 20.6632 723.141 21.6821L722.042 22.0307C721.827 21.3335 721.506 20.7973 720.648 20.7973C719.575 20.7973 719.119 21.6553 719.119 23.0495V24.3098C719.119 25.6772 719.575 26.562 720.648 26.562C721.506 26.562 721.827 26.0258 722.042 25.3286L723.141 25.704C722.793 26.7229 722.122 27.5541 720.674 27.5541C718.771 27.5541 717.859 26.133 717.859 23.6394L717.832 23.6931Z" fill="#143109"/>
<path d="M724.75 26.5336H726.653V22.8871H724.75V21.9218H727.833V26.5604H729.603V27.5257H724.75V26.5604V26.5336ZM726.466 20.2594V20.0449C726.466 19.6963 726.68 19.4014 727.27 19.4014C727.86 19.4014 728.074 19.6963 728.074 20.0449V20.2594C728.074 20.608 727.86 20.9029 727.27 20.9029C726.68 20.9029 726.466 20.608 726.466 20.2594Z" fill="#143109"/>
<path d="M730.782 24.7377C730.782 22.9413 731.828 21.8151 733.41 21.8151C734.992 21.8151 735.957 22.9413 735.957 24.5769V25.0059H731.962V25.1936C731.962 26.0784 732.525 26.6951 733.49 26.6951C734.214 26.6951 734.724 26.3733 735.045 25.8371L735.769 26.4806C735.394 27.1241 734.616 27.6335 733.463 27.6335C731.747 27.6335 730.755 26.4806 730.782 24.7109V24.7377ZM734 19.1606L735.287 20.7962L734.67 21.2521L733.41 19.9918L732.123 21.2252L731.533 20.7694L732.847 19.1606H734.026H734ZM731.962 24.1747V24.2551H734.75V24.1479C734.75 23.263 734.214 22.7 733.41 22.7C732.605 22.7 731.962 23.3167 731.962 24.1747Z" fill="#143109"/>
<path d="M737.486 27.5266V21.9495H738.692V22.8879H738.746C738.987 22.2981 739.443 21.8154 740.355 21.8154C741.481 21.8154 742.232 22.593 742.232 23.9337V27.5266H741.052V24.1213C741.052 23.2365 740.676 22.7807 739.926 22.7807C739.309 22.7807 738.719 23.0756 738.719 23.746V27.5266H737.539H737.486Z" fill="#143109"/>
<path d="M743.867 24.7645C743.867 22.9948 744.86 21.8687 746.522 21.8687C747.675 21.8687 748.345 22.4049 748.694 23.1825L747.782 23.6651C747.594 23.1557 747.192 22.8339 746.522 22.8071C745.637 22.8071 745.128 23.397 745.101 24.2818V25.2203C745.101 26.1051 745.61 26.695 746.522 26.695C747.219 26.695 747.621 26.3464 747.889 25.8102L748.747 26.3464C748.399 27.124 747.675 27.6603 746.495 27.6603C744.833 27.6603 743.867 26.5073 743.867 24.7376V24.7645Z" fill="#143109"/>
<path d="M750.624 26.6401H752.528V22.9935H750.624V22.0283H753.707V26.6669H755.477V27.6322H750.624V26.6669V26.6401ZM752.34 20.3927V20.1782C752.34 19.8296 752.555 19.5347 753.144 19.5347C753.734 19.5347 753.949 19.8296 753.949 20.1782V20.3927C753.949 20.7413 753.734 21.0362 753.144 21.0362C752.555 21.0362 752.34 20.7413 752.34 20.3927Z" fill="#143109"/>
<path d="M761.296 27.6331C760.626 27.6331 760.304 27.2577 760.224 26.6946H760.17C759.955 27.365 759.366 27.7671 758.481 27.7671C757.355 27.7671 756.631 27.1236 756.631 26.0779C756.631 25.0322 757.435 24.4155 759.071 24.4155H760.143V23.9865C760.143 23.2358 759.741 22.8604 758.963 22.8604C758.239 22.8604 757.837 23.1553 757.515 23.6111L756.818 23.0481C757.14 22.4582 757.891 21.9487 759.071 21.9487C760.465 21.9487 761.323 22.6727 761.323 23.9329V26.7214H762.02V27.6599H761.296V27.6331ZM760.17 25.9707V25.1663H759.124C758.266 25.1663 757.864 25.4344 757.837 25.917V26.1316C757.837 26.6142 758.213 26.8823 758.856 26.8823C759.607 26.8823 760.17 26.5069 760.17 25.9707Z" fill="#143109"/>
<path d="M672.491 37.4197C672.491 35.6232 673.537 34.4971 675.119 34.4971C676.701 34.4971 677.666 35.6232 677.666 37.2588V37.6878H673.671V37.8755C673.671 38.7603 674.234 39.377 675.2 39.377C675.924 39.377 676.433 39.0553 676.755 38.519L677.479 39.1625C677.103 39.806 676.326 40.3155 675.173 40.3155C673.457 40.3155 672.465 39.1625 672.491 37.3929V37.4197ZM673.698 36.8566V36.9371H676.487V36.8298C676.487 35.945 675.95 35.3819 675.146 35.3819C674.342 35.3819 673.698 35.9986 673.698 36.8566Z" fill="#143109"/>
<path d="M690.081 40.263C689.411 40.263 689.089 39.8876 689.009 39.3245H688.955C688.741 39.9948 688.151 40.397 687.266 40.397C686.14 40.397 685.416 39.7535 685.416 38.7078C685.416 37.6621 686.22 37.0454 687.856 37.0454H688.928V36.6164C688.928 35.8656 688.526 35.4903 687.748 35.4903C687.025 35.4903 686.622 35.7852 686.301 36.241L685.603 35.6779C685.925 35.0881 686.676 34.5786 687.856 34.5786C689.25 34.5786 690.108 35.3026 690.108 36.5628V39.3513H690.805V40.2898H690.081V40.263ZM688.928 38.6006V37.7962H687.883C687.025 37.7962 686.622 38.0643 686.596 38.5469V38.7614C686.596 39.2441 686.971 39.5122 687.614 39.5122C688.365 39.5122 688.928 39.1368 688.928 38.6006Z" fill="#143109"/>
<path d="M701.583 33.8011V40.3167H700.35V33.8011H698.017V32.7822H703.943V33.8011H701.583Z" fill="#143109"/>
<path d="M704.854 37.5525C704.854 35.756 705.899 34.6299 707.481 34.6299C709.063 34.6299 710.029 35.756 710.029 37.3916V37.8206H706.034V38.0083C706.034 38.8931 706.597 39.5098 707.562 39.5098C708.286 39.5098 708.795 39.1881 709.117 38.6518L709.841 39.2953C709.466 39.9389 708.688 40.4483 707.535 40.4483C705.819 40.4483 704.827 39.2953 704.854 37.5257V37.5525ZM706.034 37.0162V37.0967H708.822V36.9894C708.822 36.1046 708.286 35.5415 707.481 35.5415C706.677 35.5415 706.034 36.1582 706.034 37.0162Z" fill="#143109"/>
<path d="M711.478 37.5809C711.478 35.8112 712.47 34.6851 714.132 34.6851C715.285 34.6851 715.955 35.2213 716.304 35.9989L715.392 36.4815C715.205 35.9721 714.802 35.6503 714.132 35.6235C713.247 35.6235 712.738 36.2134 712.711 37.0982V38.0367C712.711 38.9215 713.22 39.5114 714.132 39.5114C714.829 39.5114 715.231 39.1628 715.499 38.6266L716.358 39.1628C716.009 39.9404 715.285 40.4767 714.105 40.4767C712.443 40.4767 711.478 39.3237 711.478 37.554V37.5809Z" fill="#143109"/>
<path d="M718.019 40.3699V34.7928H719.225V35.7312H719.279C719.52 35.1413 719.976 34.6587 720.888 34.6587C722.014 34.6587 722.765 35.4363 722.765 36.7769V40.3699H721.585V36.9646C721.585 36.0798 721.21 35.624 720.459 35.624C719.842 35.624 719.252 35.9189 719.252 36.5892V40.3699H718.072H718.019Z" fill="#143109"/>
<path d="M724.213 37.6331C724.213 35.8634 725.232 34.7373 726.868 34.7373C728.503 34.7373 729.495 35.8903 729.495 37.6599C729.495 39.4296 728.476 40.5557 726.841 40.5557C725.205 40.5557 724.213 39.4028 724.213 37.6331ZM728.262 38.0621V37.2309C728.262 36.1852 727.699 35.6758 726.868 35.6489C726.036 35.6221 725.447 36.1584 725.447 37.2041V38.0353C725.447 39.081 726.01 39.5905 726.841 39.6173C727.672 39.6441 728.262 39.1078 728.262 38.0621Z" fill="#143109"/>
<path d="M730.89 39.4854H732.74L732.767 33.3989H730.917V32.4336H733.947L733.92 39.4854H735.77V40.4507H730.917V39.4854H730.89Z" fill="#143109"/>
<path d="M737.138 37.6883C737.138 35.9186 738.157 34.7925 739.793 34.7925C741.428 34.7925 742.42 35.9454 742.42 37.7151C742.42 39.4847 741.401 40.6109 739.766 40.6109C738.13 40.6109 737.138 39.4579 737.138 37.6883ZM741.187 38.1173V37.2861C741.187 36.2404 740.624 35.7309 739.793 35.7041C738.961 35.6773 738.372 36.2136 738.372 37.2593V38.0905C738.372 39.1362 738.935 39.6456 739.766 39.6724C740.597 39.6993 741.187 39.163 741.187 38.1173Z" fill="#143109"/>
<path d="M746.227 42.7816C744.296 42.7816 743.653 42.2722 743.653 41.441C743.653 40.8243 744.001 40.5293 744.618 40.3684V40.2612C744.242 40.1271 744.001 39.859 744.001 39.4568C744.001 38.8937 744.43 38.6524 745.02 38.5183V38.4647C744.35 38.143 743.948 37.5531 743.948 36.7487C743.948 35.5689 744.859 34.7913 746.227 34.8181C746.602 34.8181 746.977 34.8986 747.272 35.0058V34.8181C747.272 34.3891 747.514 34.0674 748.023 34.0674H749.042V35.0058H747.755V35.2472C748.238 35.5957 748.506 36.1052 748.506 36.7755C748.506 37.9553 747.594 38.706 746.227 38.706C745.985 38.706 745.744 38.706 745.529 38.6256C745.261 38.6792 744.94 38.8669 744.94 39.1618C744.94 39.5104 745.315 39.564 745.798 39.564H747.058C748.559 39.564 749.176 40.2076 749.176 41.1192C749.176 42.2722 748.211 42.8084 746.253 42.7816H746.227ZM747.004 40.5829H745.074C744.806 40.6902 744.671 40.9047 744.671 41.1996C744.671 41.6286 744.993 41.9772 745.824 41.9772H746.709C747.594 41.9772 748.077 41.7091 748.077 41.1996C748.077 40.8243 747.809 40.5829 747.031 40.5829H747.004ZM747.326 36.9096V36.6146C747.326 36.0247 746.977 35.6225 746.227 35.6225C745.476 35.6225 745.127 36.0247 745.1 36.6146V36.9096C745.1 37.4994 745.449 37.9016 746.2 37.9016C746.951 37.9016 747.299 37.4994 747.326 36.9096Z" fill="#143109"/>
<path d="M750.57 39.5654H752.474V35.9188H750.57V34.9536H753.654V39.5922H755.423V40.5575H750.57V39.5922V39.5654ZM752.286 33.318V33.1035C752.286 32.7549 752.501 32.46 753.09 32.46C753.68 32.46 753.895 32.7549 753.895 33.1035V33.318C753.895 33.6665 753.68 33.9615 753.09 33.9615C752.501 33.9615 752.286 33.6665 752.286 33.318Z" fill="#143109"/>
<path d="M761.243 40.5838C760.573 40.5838 760.251 40.2084 760.171 39.6453H760.117C759.903 40.3156 759.313 40.7178 758.428 40.7178C757.302 40.7178 756.578 40.0743 756.578 39.0286C756.578 37.9829 757.382 37.3662 759.018 37.3662H760.09V36.9372C760.09 36.1864 759.688 35.8111 758.911 35.8111C758.187 35.8111 757.784 36.106 757.463 36.5618L756.766 35.9987C757.087 35.4089 757.838 34.8994 759.018 34.8994C760.412 34.8994 761.27 35.6234 761.27 36.8836V39.6721H761.967V40.6106H761.243V40.5838ZM760.09 38.8945V38.0902H759.045C758.187 38.0902 757.784 38.3583 757.758 38.8409V39.0554C757.758 39.5381 758.133 39.8062 758.777 39.8062C759.527 39.8062 760.09 39.4308 760.09 38.8945Z" fill="#143109"/>
<path d="M609.481 16.9103H617.82V20.53H609.481L609.401 36.4569H617.739V40.0767L598.488 39.9962V36.4033L605.379 36.4301L605.459 20.4764H598.595V16.8566H603.984C604.789 16.8835 605.459 16.2131 605.459 15.4087V13.1565C605.459 12.2448 605.835 11.36 606.478 10.7165L610.339 6.88222C610.983 6.23871 611.867 5.89014 612.779 5.89014H617.874V9.48308H609.535L609.508 16.9103H609.481Z" fill="#143109"/>
<path d="M629.216 5.99756H637.93V9.61731L625.918 9.56369L625.838 27.0457L637.85 27.0994V30.6923L629.136 30.6655C628.224 30.6655 627.339 30.2901 626.696 29.6466L622.808 25.7051C622.164 25.0616 621.816 24.1768 621.816 23.2651L621.869 13.3443C621.869 12.4327 622.245 11.5478 622.888 10.9043L626.83 7.01645C627.473 6.37294 628.358 6.02437 629.27 6.02437L629.216 5.99756Z" fill="#143109"/>
<path d="M648.36 23.6935L648.414 9.67027H641.657V6.05052H646.939C647.743 6.07733 648.414 5.40701 648.414 4.60262V0.339355H652.489V6.07733L661.23 6.10415V9.69708L652.462 9.67027L652.382 27.1523H661.15V30.7721H654.929C653.937 30.7453 652.999 30.3163 652.328 29.5655L649.218 25.9726C648.682 25.3291 648.36 24.5247 648.387 23.6935H648.36Z" fill="#143109"/>
<path d="M621.695 36.5126L621.679 40.1055L661.067 40.2773L661.083 36.6844L621.695 36.5126Z" fill="#143109"/>
</g>
<path d="M55.9724 25.7586L52.4862 20.2388H52.1957V24.306C52.6799 24.306 53.0673 24.4029 53.4546 24.4997V25.7586H48.5159V24.4997C48.8064 24.4997 49.0001 24.4029 49.2906 24.4029C49.5811 24.4029 49.8716 24.4029 50.1621 24.306V14.5253C49.8716 14.5253 49.5811 14.5253 49.2906 14.4285C49.0001 14.4285 48.7095 14.4285 48.5159 14.3317V13.0728H53.5515C54.2293 13.0728 54.8104 13.0728 55.3914 13.2664C55.9724 13.4601 56.3598 13.5569 56.844 13.8475C57.2313 14.138 57.5219 14.4285 57.7155 14.9127C57.9092 15.3 58.006 15.8811 58.006 16.4621C58.006 17.0431 58.006 17.3337 57.7155 17.721C57.425 18.1084 57.3282 18.3989 57.0377 18.7862C56.7471 19.0767 56.3598 19.3673 55.9724 19.4641C55.5851 19.6578 55.1009 19.7546 54.6167 19.8515C54.7135 20.0451 54.9072 20.142 55.004 20.3356C55.1009 20.5293 55.2946 20.723 55.3914 20.9167L57.6187 24.2092C57.8124 24.2092 58.006 24.2092 58.2966 24.306C58.4902 24.306 58.7807 24.306 58.9744 24.4029V25.6618H55.8756L55.9724 25.7586ZM55.2946 15.0095C54.9072 14.719 54.2293 14.5253 53.3578 14.5253H52.2926V18.5926H53.261C54.1325 18.5926 54.7135 18.3989 55.1977 18.0115C55.6819 17.6242 55.8756 17.14 55.8756 16.4621C55.8756 15.7842 55.6819 15.2032 55.2946 14.9127V15.0095Z" fill="#143109"/>
<path d="M59.8459 25.7586V24.4997C60.1365 24.4997 60.3301 24.4029 60.6207 24.4029C60.9112 24.4029 61.2017 24.4029 61.4922 24.306V14.5253C61.2017 14.5253 60.9112 14.5253 60.6207 14.4285C60.3301 14.4285 60.0396 14.4285 59.8459 14.3317V13.0728H68.2709V16.0748H66.8183C66.8183 15.7842 66.7215 15.5906 66.7215 15.3C66.7215 15.0095 66.7215 14.8158 66.6246 14.6222H63.6227V18.4957H66.0436C66.0436 18.302 66.0436 18.1084 66.1405 17.9147C66.2373 17.721 66.1404 17.5273 66.2373 17.3337H67.4962V21.2072H66.2373C66.2373 21.0135 66.1405 20.8198 66.1405 20.6262C66.1405 20.4325 66.1405 20.2388 66.0436 20.0451H63.6227V24.2092H66.6246C66.6246 24.0155 66.6246 23.725 66.7215 23.5313C66.8183 23.3376 66.7215 23.0471 66.8183 22.7566H68.2709V25.9523H59.8459V25.7586Z" fill="#143109"/>
<path d="M79.2136 18.3987C79.0199 18.9797 78.6325 19.3671 78.2452 19.7544C77.8578 20.1418 77.2768 20.4323 76.6958 20.626C76.1147 20.8197 75.4369 20.9165 74.6622 20.9165H73.6938V24.1122C73.9843 24.1122 74.2748 24.1122 74.5653 24.209C74.8558 24.209 75.1464 24.209 75.34 24.3059V25.5648H70.0139V24.3059C70.3044 24.3059 70.4981 24.209 70.7886 24.209C71.0791 24.209 71.3697 24.209 71.6602 24.1122V14.3315C71.3697 14.3315 71.0791 14.3315 70.7886 14.2346C70.4981 14.2346 70.2076 14.2346 70.0139 14.1378V12.8789H74.9527C76.5021 12.8789 77.6642 13.1694 78.4389 13.8473C79.2136 14.5252 79.6009 15.4935 79.6009 16.6556C79.6009 17.3335 79.5041 17.9145 79.2136 18.3987ZM76.6958 15.203C76.3084 14.8157 75.5337 14.622 74.6622 14.622H73.5969V19.2702C73.6938 19.2702 73.8875 19.2702 73.9843 19.2702H74.3717C75.2432 19.2702 75.9211 19.0766 76.4053 18.5924C76.8895 18.205 77.18 17.624 77.18 16.8493C77.18 16.0746 76.9863 15.4935 76.5989 15.1062L76.6958 15.203Z" fill="#143109"/>
<path d="M91.5122 14.4285V20.8198C91.5122 22.5629 91.1248 23.8218 90.2533 24.5965C89.3817 25.4681 88.1228 25.8554 86.3797 25.8554C84.6366 25.8554 84.5398 25.7586 83.9588 25.4681C83.3777 25.1776 82.7967 24.887 82.5062 24.4997C82.2157 24.1123 81.9251 23.6281 81.8283 23.0471C81.7315 22.4661 81.6346 21.9819 81.6346 21.304V14.4285C81.441 14.4285 81.2473 14.4285 80.9568 14.3317C80.7631 14.3317 80.5694 14.3316 80.3757 14.2348V12.9759H85.1208V14.2348C84.9271 14.2348 84.6366 14.3317 84.4429 14.3317C84.2493 14.3317 83.9588 14.3317 83.7651 14.3317V21.1103C83.7651 21.4977 83.7651 21.9819 83.8619 22.2724C83.8619 22.6598 84.0556 22.9503 84.2493 23.2408C84.443 23.5313 84.7335 23.725 85.1208 23.8218C85.5082 23.9187 85.9924 24.0155 86.5734 24.0155C87.1544 24.0155 87.5418 24.0155 87.9291 23.8218C88.3165 23.6281 88.607 23.5313 88.8975 23.2408C89.188 22.9503 89.2849 22.6598 89.4785 22.2724C89.5754 21.8851 89.6722 21.4009 89.6722 20.723V14.2348C89.3817 14.2348 89.188 14.2348 88.9944 14.2348C88.8007 14.2348 88.5102 14.2348 88.3165 14.138V12.8791H93.0616V14.138C92.6742 14.3317 92.2869 14.4285 91.8027 14.4285H91.5122ZM86.2829 12.1044L85.5082 10.9423L88.5102 8.90869L89.3817 10.2644L86.2829 12.1044Z" fill="#143109"/>
<path d="M104.004 23.144C103.907 23.6282 103.616 24.0155 103.229 24.4029C102.842 24.7902 102.358 25.0807 101.68 25.3712C101.002 25.6618 100.227 25.7586 99.2587 25.7586C98.2904 25.7586 98.3872 25.7586 97.8062 25.7586C97.2251 25.7586 96.5473 25.7586 95.8694 25.7586H94.2231V24.4997C94.5137 24.4997 94.7073 24.4029 94.9978 24.4029C95.2884 24.4029 95.5789 24.4029 95.8694 24.306V14.5253C95.5789 14.5253 95.2884 14.5253 94.9978 14.4285C94.7073 14.4285 94.4168 14.4285 94.2231 14.3317V13.0728H99.8398C101.196 13.0728 102.261 13.3633 103.035 13.8475C103.713 14.4285 104.101 15.1064 104.101 16.1716C104.101 17.2368 103.907 17.4305 103.52 17.9147C103.132 18.3989 102.648 18.7862 101.97 19.0767C102.358 19.1736 102.745 19.3673 103.035 19.4641C103.326 19.6578 103.616 19.8515 103.81 20.142C104.004 20.4325 104.101 20.723 104.198 21.0135C104.294 21.304 104.294 21.6914 104.294 21.9819C104.198 22.3693 104.101 22.8534 104.004 23.3376V23.144ZM101.68 15.5906C101.68 15.3969 101.486 15.2032 101.292 15.0095C101.099 14.8158 100.905 14.719 100.518 14.6222C100.227 14.6222 99.8398 14.5253 99.3556 14.5253H97.8062V18.302H98.8714C99.8398 18.302 100.518 18.1084 101.002 17.721C101.486 17.3337 101.68 16.8495 101.68 16.1716C101.68 15.4937 101.68 15.6874 101.583 15.4937L101.68 15.5906ZM101.777 20.9167C101.68 20.6262 101.389 20.4325 101.099 20.3356C100.808 20.2388 100.518 20.0451 100.13 20.0451C99.7429 20.0451 99.3556 19.9483 98.8714 19.9483H97.7093V24.0155C98.0967 24.0155 98.5809 24.1123 99.1619 24.1123C100.13 24.1123 100.808 23.9187 101.196 23.5313C101.583 23.144 101.873 22.5629 101.873 21.9819C101.873 21.5945 101.873 21.304 101.68 21.0135L101.777 20.9167Z" fill="#143109"/>
<path d="M105.651 25.7586V24.4997C105.941 24.4997 106.135 24.4029 106.425 24.4029C106.716 24.4029 107.006 24.4029 107.297 24.306V14.5253C107.006 14.5253 106.716 14.5253 106.425 14.4285C106.135 14.4285 105.844 14.4285 105.651 14.3317V13.0728H110.977V14.3317C110.686 14.3317 110.493 14.4285 110.202 14.4285C109.912 14.4285 109.621 14.4285 109.331 14.5253V24.1123H112.236C112.236 23.6282 112.332 23.0471 112.526 22.4661H113.979V25.7586H105.651Z" fill="#143109"/>
<path d="M114.753 25.7586V24.4997C115.044 24.4997 115.238 24.4029 115.528 24.4029C115.819 24.4029 116.109 24.4029 116.4 24.306V14.5253C116.109 14.5253 115.819 14.5253 115.528 14.4285C115.238 14.4285 114.947 14.4285 114.753 14.3317V13.0728H120.08V14.3317C119.789 14.3317 119.595 14.4285 119.305 14.4285C119.014 14.4285 118.724 14.4285 118.433 14.5253V24.306C118.724 24.306 119.014 24.306 119.305 24.4029C119.595 24.4029 119.886 24.4029 120.08 24.4997V25.7586H114.753Z" fill="#143109"/>
<path d="M129.182 16.5588C129.182 16.2683 129.085 15.9777 129.085 15.6872C129.085 15.3967 129.085 15.1062 129.085 14.9125C128.795 14.9125 128.504 14.8157 128.214 14.8157H127.439C126.858 14.8157 126.277 14.9125 125.89 15.203C125.502 15.4935 125.018 15.7841 124.728 16.1714C124.437 16.5588 124.147 17.043 124.05 17.624C123.953 18.205 123.856 18.7861 123.856 19.4639C123.856 20.1418 123.856 20.8197 124.147 21.4007C124.243 21.9817 124.534 22.4659 124.921 22.8533C125.212 23.2406 125.696 23.5311 126.18 23.7248C126.664 23.9185 127.342 24.0153 128.117 24.0153C128.892 24.0153 129.085 24.0153 129.57 23.9185C130.054 23.8217 130.538 23.628 130.925 23.5311V25.3711C130.538 25.5648 129.957 25.6616 129.376 25.7584C128.795 25.8553 128.214 25.8553 127.633 25.8553C125.599 25.8553 124.147 25.2742 123.178 24.209C122.21 23.1438 121.726 21.5944 121.726 19.6576C121.726 17.7208 121.822 17.7208 122.113 16.9461C122.403 16.0746 122.791 15.3967 123.275 14.8157C123.759 14.2346 124.437 13.7505 125.309 13.3631C126.18 12.9757 127.052 12.8789 128.117 12.8789C129.182 12.8789 129.085 12.8789 129.57 12.9757C130.054 12.9757 130.538 13.0726 131.022 13.2663V16.6556H129.376L129.182 16.5588Z" fill="#143109"/>
<path d="M139.834 25.7586V24.4997C140.028 24.4997 140.221 24.4029 140.512 24.4029C140.802 24.4029 140.996 24.4029 141.19 24.306L140.512 22.5629H135.476L134.798 24.306C135.089 24.306 135.283 24.306 135.476 24.4029C135.67 24.4997 135.961 24.4029 136.154 24.4997V25.7586H131.603V24.4997C131.796 24.4997 131.893 24.4029 132.184 24.4029C132.474 24.4029 132.571 24.4029 132.765 24.4029L136.832 13.0728H139.253L143.32 24.4029C143.514 24.4029 143.708 24.4029 143.901 24.4029C144.095 24.4029 144.289 24.4029 144.482 24.4997V25.7586H139.737H139.834ZM138.672 16.9463C138.575 16.6558 138.478 16.2684 138.381 15.9779C138.381 15.6874 138.188 15.3 138.091 15.0095C138.091 15.3 137.994 15.6874 137.8 15.9779C137.704 16.2684 137.607 16.6558 137.51 16.9463L136.154 20.723H140.125L138.672 16.8495V16.9463Z" fill="#143109"/>
<path d="M57.8123 34.3777C57.6186 34.9587 57.2313 35.3461 56.8439 35.7334C56.4566 36.1208 55.8755 36.4113 55.2945 36.605C54.7135 36.7987 54.0356 36.8955 53.2609 36.8955H52.8735C52.6799 36.8955 52.583 36.8955 52.3893 36.8955V40.0912C52.6799 40.0912 52.9704 40.0912 53.2609 40.188C53.5514 40.188 53.8419 40.188 54.0356 40.2849V41.5438H48.7095V40.2849C49 40.2849 49.1937 40.188 49.4842 40.188C49.7747 40.188 50.0652 40.188 50.3557 40.0912V30.3105C50.0652 30.3105 49.7747 30.3105 49.4842 30.2136C49.1937 30.2136 48.9031 30.2136 48.7095 30.1168V28.8579H50.7431C51.0336 28.8579 51.3241 28.8579 51.6146 28.8579C51.9051 28.8579 52.2925 28.8579 52.583 28.8579H53.5514C55.1008 28.8579 56.2629 29.1484 57.0376 29.8263C57.8123 30.5042 58.1997 31.4726 58.1997 32.6346C58.1997 33.7967 58.1028 33.8935 57.8123 34.3777ZM55.3913 31.182C55.004 30.7947 54.2293 30.601 53.3577 30.601H52.7767C52.583 30.601 52.4862 30.601 52.2925 30.601V35.2493C52.3893 35.2493 52.583 35.2493 52.6799 35.2493C52.7767 35.2493 52.9704 35.2493 53.0672 35.2493C53.9388 35.2493 54.6166 35.0556 55.1008 34.5714C55.585 34.0872 55.8755 33.603 55.8755 32.8283C55.8755 32.0536 55.6818 31.4725 55.2945 31.0852L55.3913 31.182Z" fill="#143109"/>
<path d="M70.4976 37.9607C70.2071 38.8323 69.7229 39.5101 69.2387 40.0912C68.7545 40.6722 68.0766 41.0596 67.3019 41.3501C66.624 41.6406 65.7525 41.7374 64.881 41.7374C64.0094 41.7374 63.041 41.6406 62.3631 41.3501C61.6853 41.0596 61.1043 40.6722 60.6201 40.0912C60.1359 39.5101 59.7485 38.8323 59.5548 38.0576C59.3612 37.2829 59.1675 36.4113 59.1675 35.4429C59.1675 34.4745 59.2643 33.4093 59.6517 32.6346C59.9422 31.7631 60.4264 31.0852 60.9106 30.5042C61.3948 29.9231 62.0726 29.5358 62.8473 29.2453C63.5252 28.9547 64.3968 28.8579 65.2683 28.8579C66.1398 28.8579 66.9146 28.9547 67.5924 29.2453C68.2703 29.5358 68.8513 29.9231 69.4324 30.4073C70.0134 30.8915 70.3039 31.5694 70.5944 32.4409C70.8849 33.2156 70.9818 34.184 70.9818 35.2493C70.9818 36.3145 70.8849 37.2829 70.5944 38.1544L70.4976 37.9607ZM67.8829 31.7631C67.2051 30.8915 66.3335 30.5042 65.0746 30.5042C63.8157 30.5042 64.1062 30.601 63.6221 30.7947C63.1379 30.9884 62.7505 31.2789 62.46 31.6662C62.1695 32.0536 61.879 32.5378 61.5884 33.1188C61.2979 33.6998 61.2979 34.3777 61.2979 35.1524C61.2979 35.9271 61.2979 36.5082 61.4916 37.0892C61.6853 37.6702 61.879 38.2512 62.1695 38.6386C62.46 39.026 62.8473 39.4133 63.3315 39.607C63.8157 39.8007 64.2999 39.9943 64.9778 39.9943C65.6557 39.9943 65.9462 39.8975 66.3335 39.7038C66.8177 39.5101 67.2051 39.2196 67.5924 38.8323C67.9798 38.4449 68.2703 37.9607 68.464 37.3797C68.6577 36.7987 68.7545 36.1208 68.7545 35.3461C68.7545 33.7967 68.464 32.6346 67.7861 31.7631H67.8829Z" fill="#143109"/>
<path d="M79.6978 41.7366L76.2116 36.2168H75.9211V40.284C76.4053 40.284 76.7926 40.3809 77.18 40.4777V41.7366H72.2412V40.4777C72.5317 40.4777 72.7254 40.3809 73.0159 40.3809C73.3064 40.3809 73.5969 40.3809 73.8875 40.284V30.5034C73.5969 30.5034 73.3064 30.5034 73.0159 30.4065C72.7254 30.4065 72.4349 30.4065 72.2412 30.3097V29.0508H74.2748C74.5653 29.0508 74.759 29.0508 75.1464 29.0508C75.4369 29.0508 75.8242 29.0508 76.2116 29.0508H77.3736C78.0515 29.0508 78.6326 29.0508 79.2136 29.2445C79.7946 29.4381 80.182 29.535 80.6662 29.8255C81.0535 30.116 81.344 30.4065 81.5377 30.8907C81.7314 31.3749 81.8282 31.8591 81.8282 32.4401C81.8282 33.0212 81.8282 33.3117 81.5377 33.699C81.2472 34.0864 81.1504 34.3769 80.8598 34.7643C80.5693 35.0548 80.182 35.3453 79.7946 35.4421C79.4073 35.539 78.9231 35.7326 78.4389 35.8295C78.5357 36.0232 78.7294 36.12 78.8262 36.3137C78.9231 36.5073 79.1167 36.701 79.2136 36.8947L81.4409 40.1872C81.6345 40.1872 81.8282 40.1872 82.1187 40.284C82.3124 40.284 82.6029 40.2841 82.7966 40.3809V41.6398H79.6978V41.7366ZM78.9231 30.9876C78.5357 30.697 77.8578 30.5034 76.9863 30.5034H76.4053C76.2116 30.5034 76.0179 30.5034 75.9211 30.5034V34.5706C76.0179 34.5706 76.1147 34.5706 76.3084 34.5706H76.8895C77.761 34.5706 78.342 34.3769 78.8262 33.9895C79.3104 33.6022 79.5041 33.118 79.5041 32.4401C79.5041 31.7623 79.3104 31.1812 78.9231 30.8907V30.9876Z" fill="#143109"/>
<path d="M91.9959 32.3439C91.9959 32.0534 91.8991 31.7629 91.8991 31.4724C91.8991 31.1819 91.8991 30.8914 91.8022 30.6977H89.4781V40.2847C89.7686 40.2847 90.0591 40.2847 90.3497 40.3815C90.6402 40.3815 90.9307 40.3815 91.1244 40.4784V41.7373H85.7982V40.4784C86.0888 40.4784 86.2824 40.3815 86.573 40.3815C86.8635 40.3815 87.154 40.3815 87.4445 40.2847V30.6977H85.1204C85.1204 30.9882 85.1204 31.1819 85.0235 31.4724C85.0235 31.7629 85.0235 32.0534 84.9267 32.3439H83.4741V28.9546H93.6422V32.3439H92.1896H91.9959Z" fill="#143109"/>
<path d="M105.651 30.4073V36.7987C105.651 38.5418 105.263 39.8007 104.392 40.5754C103.52 41.3501 102.261 41.8343 100.518 41.8343C98.7753 41.8343 98.6785 41.7374 98.0974 41.4469C97.5164 41.1564 96.9354 40.8659 96.6449 40.4785C96.3543 40.0912 96.0638 39.607 95.967 39.026C95.8701 38.4449 95.7733 37.9607 95.7733 37.2829V30.4073C95.5796 30.4073 95.386 30.4073 95.0954 30.3105C94.9018 30.3105 94.7081 30.3105 94.5144 30.2136V28.9547H99.2595V30.2136C99.0658 30.2136 98.7753 30.3105 98.5816 30.3105C98.2911 30.3105 98.0974 30.3105 97.9038 30.3105V37.0892C97.9038 37.4765 97.9038 37.9607 98.0006 38.2512C98.0006 38.6386 98.1943 38.9291 98.3879 39.2196C98.5816 39.5101 98.8721 39.7038 99.2595 39.8007C99.6469 39.8975 100.131 39.9943 100.712 39.9943C101.293 39.9943 101.68 39.9943 102.068 39.8007C102.455 39.607 102.746 39.5101 103.036 39.2196C103.327 38.9291 103.424 38.6386 103.617 38.2512C103.714 37.8639 103.811 37.3797 103.811 36.7018V30.2136C103.52 30.2136 103.327 30.2136 103.133 30.2136C102.843 30.2136 102.649 30.2136 102.455 30.1168V28.8579H107.2V30.1168C106.813 30.3105 106.426 30.4073 105.941 30.4073H105.651Z" fill="#143109"/>
<path d="M119.305 36.5078C119.111 36.5078 118.918 36.5078 118.724 36.5078V40.9624C118.046 41.2529 117.368 41.3498 116.69 41.5434C116.012 41.6403 115.238 41.7371 114.463 41.7371C113.688 41.7371 112.623 41.6403 111.848 41.3498C111.074 41.0592 110.396 40.6719 109.815 40.0909C109.234 39.5098 108.846 38.9288 108.556 38.1541C108.265 37.3794 108.168 36.5078 108.168 35.5394C108.168 34.5711 108.265 33.6027 108.653 32.828C109.04 32.0533 109.427 31.2785 110.008 30.6975C110.589 30.1165 111.364 29.6323 112.139 29.2449C113.01 28.9544 113.979 28.7607 115.044 28.7607C116.109 28.7607 116.206 28.7607 116.787 28.8576C117.368 28.9544 117.949 29.0513 118.53 29.1481V32.3438H116.981C116.981 32.0533 116.884 31.7627 116.884 31.4722C116.884 31.1817 116.884 30.8912 116.787 30.6975C116.497 30.6975 116.206 30.6007 115.819 30.5038C115.431 30.407 115.238 30.5038 114.85 30.5038C114.172 30.5038 113.591 30.6007 113.01 30.7944C112.429 30.988 111.945 31.2785 111.558 31.6659C111.17 32.0533 110.783 32.5374 110.589 33.2153C110.299 33.7963 110.202 34.4742 110.202 35.3458C110.202 36.7983 110.589 37.9604 111.364 38.8319C112.139 39.6067 113.204 39.994 114.56 39.994C115.916 39.994 115.238 39.994 115.625 39.994C115.916 39.994 116.303 39.8972 116.593 39.8003V36.7015C116.303 36.7015 116.012 36.7015 115.722 36.6047C115.431 36.6047 115.141 36.6047 114.947 36.5078V35.2489H119.692V36.5078C119.595 36.6047 119.402 36.7015 119.111 36.7015L119.305 36.5078Z" fill="#143109"/>
<path d="M132.088 30.4073V36.7987C132.088 38.5418 131.7 39.8007 130.829 40.5754C129.957 41.3501 128.698 41.8343 126.955 41.8343C125.212 41.8343 125.115 41.7374 124.534 41.4469C123.953 41.1564 123.372 40.8659 123.082 40.4785C122.791 40.0912 122.501 39.607 122.404 39.026C122.307 38.4449 122.21 37.9607 122.21 37.2829V30.4073C122.016 30.4073 121.823 30.4073 121.532 30.3105C121.339 30.3105 121.145 30.3105 120.951 30.2136V28.9547H125.696V30.2136C125.503 30.2136 125.212 30.3105 125.018 30.3105C124.728 30.3105 124.534 30.3105 124.341 30.3105V37.0892C124.341 37.4765 124.341 37.9607 124.437 38.2512C124.437 38.6386 124.631 38.9291 124.825 39.2196C125.018 39.5101 125.309 39.7038 125.696 39.8007C126.084 39.8975 126.568 39.9943 127.149 39.9943C127.73 39.9943 128.117 39.9943 128.505 39.8007C128.892 39.607 129.182 39.5101 129.473 39.2196C129.763 38.9291 129.86 38.6386 130.054 38.2512C130.151 37.8639 130.248 37.3797 130.248 36.7018V30.2136C129.957 30.2136 129.763 30.2136 129.57 30.2136C129.279 30.2136 129.086 30.2136 128.892 30.1168V28.8579H133.637V30.1168C133.25 30.3105 132.862 30.4073 132.378 30.4073H132.088Z" fill="#143109"/>
<path d="M134.605 41.7366V40.4777C134.895 40.4777 135.089 40.3809 135.379 40.3809C135.67 40.3809 135.96 40.3809 136.251 40.284V30.5034C135.96 30.5034 135.67 30.5034 135.379 30.4065C135.089 30.4065 134.798 30.4065 134.605 30.3097V29.0508H143.03V32.0528H141.577C141.577 31.7623 141.48 31.5686 141.48 31.2781C141.48 30.9876 141.48 30.7939 141.383 30.6002H138.381V34.4737H140.802C140.802 34.2801 140.802 34.0864 140.899 33.8927C140.899 33.699 140.899 33.5054 140.996 33.3117H142.255V37.1852H140.996C140.996 36.9915 140.899 36.7979 140.899 36.6042C140.899 36.4105 140.899 36.2168 140.802 36.0232H138.381V40.1872H141.383C141.383 39.9935 141.383 39.703 141.48 39.5093C141.48 39.2188 141.48 39.0251 141.577 38.7346H143.03V41.9303H134.605V41.7366Z" fill="#143109"/>
<path d="M152.617 39.413C152.423 39.8972 152.036 40.2845 151.649 40.6719C151.261 41.0592 150.777 41.3498 150.099 41.5434C149.518 41.7371 148.84 41.8339 148.066 41.8339C147.291 41.8339 146.129 41.7371 145.257 41.5434V38.3478H146.807C146.807 38.6383 146.903 38.9288 146.903 39.2193C146.903 39.5098 146.904 39.7035 147 39.994C147.194 39.994 147.388 39.994 147.581 40.0909C147.775 40.1877 147.969 40.0909 148.162 40.0909C148.55 40.0909 148.84 40.0909 149.131 39.994C149.421 39.8972 149.712 39.8003 150.002 39.6067C150.196 39.5098 150.39 39.2193 150.583 39.0256C150.777 38.832 150.777 38.4446 150.777 38.1541C150.777 37.8636 150.68 37.3794 150.39 37.0889C150.099 36.7983 149.809 36.6047 149.324 36.411C148.937 36.2173 148.453 36.0236 147.969 35.83C147.485 35.6363 147 35.4426 146.613 35.1521C146.226 34.8616 145.838 34.5711 145.548 34.0869C145.257 33.6027 145.16 33.1185 145.16 32.4406C145.16 31.7627 145.257 31.3754 145.451 30.988C145.645 30.6007 145.935 30.1165 146.322 29.826C146.71 29.5355 147.194 29.2449 147.775 29.0513C148.356 28.8576 149.034 28.7607 149.712 28.7607C150.39 28.7607 150.583 28.7607 150.971 28.7607C151.358 28.7607 151.842 28.8576 152.23 28.9544V32.0532H150.68C150.68 31.7627 150.583 31.4722 150.583 31.2785C150.583 31.0849 150.583 30.7943 150.583 30.6007C150.487 30.6007 150.39 30.6007 150.196 30.6007C150.002 30.6007 149.905 30.6007 149.712 30.6007C148.937 30.6007 148.259 30.7943 147.969 31.0849C147.678 31.3754 147.388 31.8596 147.388 32.3438C147.388 32.828 147.485 33.1185 147.775 33.3122C148.066 33.6027 148.356 33.7963 148.84 33.99C149.228 34.1837 149.712 34.3774 150.196 34.5711C150.68 34.7647 151.164 34.9584 151.552 35.2489C151.939 35.5394 152.326 35.83 152.617 36.2173C152.907 36.6047 153.004 37.1857 153.004 37.8636C152.907 38.4446 152.714 39.0256 152.52 39.5098L152.617 39.413Z" fill="#143109"/>
<path d="M161.623 41.7366V40.4777C161.817 40.4777 162.011 40.3809 162.301 40.3809C162.592 40.3809 162.785 40.3809 162.979 40.284L162.301 38.541H157.266L156.588 40.284C156.878 40.284 157.072 40.2841 157.266 40.3809C157.459 40.4777 157.75 40.3809 157.943 40.4777V41.7366H153.392V40.4777C153.586 40.4777 153.683 40.3809 153.973 40.3809C154.264 40.3809 154.36 40.3809 154.554 40.3809L158.621 29.0508H161.042L165.11 40.3809C165.303 40.3809 165.497 40.3809 165.691 40.3809C165.884 40.3809 166.078 40.3809 166.272 40.4777V41.7366H161.527H161.623ZM160.461 32.9243C160.364 32.6338 160.268 32.2465 160.171 31.9559C160.171 31.6654 159.977 31.2781 159.88 30.9876C159.88 31.2781 159.783 31.6654 159.59 31.9559C159.493 32.2465 159.396 32.6338 159.299 32.9243L157.943 36.701H161.914L160.461 32.8275V32.9243Z" fill="#143109"/>
<path d="M166.369 54.7134H48.613V56.166H166.369V54.7134Z" fill="#143109"/>
<path d="M53.6486 75.2432C53.3581 75.2432 53.0676 75.4369 52.7771 75.4369C52.4866 75.4369 52.1961 75.4369 51.8087 75.4369C51.2277 75.4369 50.7435 75.4369 50.2593 75.1464C49.7751 74.8559 49.4846 74.759 49.2909 74.3717C49.0004 74.0812 48.9035 73.6938 48.8067 73.3064C48.7099 72.9191 48.613 72.5317 48.613 72.0475C48.613 71.5634 48.613 70.9823 48.8067 70.595C48.9035 70.1108 49.1941 69.7234 49.4846 69.4329C49.7751 69.1424 50.1625 68.8519 50.5498 68.6582C50.9372 68.4645 51.5182 68.3677 52.0992 68.3677C52.6803 68.3677 52.5834 68.3677 52.8739 68.3677C53.1644 68.3677 53.3581 68.3677 53.5518 68.4645V69.6266C52.9708 69.5297 52.4866 69.4329 52.0024 69.4329C51.5182 69.4329 51.4214 69.4329 51.1308 69.6266C50.9372 69.7234 50.6466 69.9171 50.5498 70.1108C50.453 70.3044 50.2593 70.595 50.1625 70.8855C50.0656 71.176 50.0656 71.4665 50.0656 71.8539C50.0656 72.6286 50.2593 73.2096 50.5498 73.597C50.8403 73.9843 51.4214 74.178 52.0992 74.178C52.7771 74.178 52.5834 74.178 52.7771 74.178C53.0676 74.178 53.2613 74.0812 53.455 73.9843L53.6486 75.1464V75.2432Z" fill="#143109"/>
<path d="M60.3306 72.8229C60.3306 73.7913 60.0401 74.4692 59.5559 74.9534C59.0717 75.4375 58.3938 75.6312 57.4254 75.6312C56.457 75.6312 56.457 75.6312 56.0697 75.4375C55.6823 75.3407 55.4887 75.147 55.295 74.8565C55.1013 74.566 55.0045 74.3723 54.9076 74.0818C54.9076 73.7913 54.8108 73.5008 54.8108 73.1134V68.6588H56.1665V73.0166C56.1665 73.2103 56.1665 73.4039 56.1665 73.5976C56.1665 73.7913 56.2634 73.8881 56.3602 74.0818C56.457 74.1786 56.6507 74.2755 56.8444 74.3723C57.0381 74.3723 57.2317 74.4692 57.5223 74.4692C58.0065 74.4692 58.3938 74.3723 58.5875 74.0818C58.7812 73.8881 58.9748 73.4039 58.9748 72.8229V68.562H60.3306V72.7261V72.8229Z" fill="#143109"/>
<path d="M61.783 75.4375V68.562H63.1387V74.2755H65.366V75.4375H61.783Z" fill="#143109"/>
<path d="M68.6584 69.7241V75.4375H67.3027V69.7241H65.5596V68.562H70.4015V69.7241H68.6584Z" fill="#143109"/>
<path d="M76.793 72.8229C76.793 73.7913 76.5025 74.4692 76.0183 74.9534C75.5341 75.4375 74.8562 75.6312 73.8878 75.6312C72.9194 75.6312 72.9194 75.6312 72.5321 75.4375C72.1447 75.3407 71.9511 75.147 71.7574 74.8565C71.5637 74.566 71.4669 74.3723 71.37 74.0818C71.37 73.7913 71.2732 73.5008 71.2732 73.1134V68.6588H72.6289V73.0166C72.6289 73.2103 72.6289 73.4039 72.6289 73.5976C72.6289 73.7913 72.7258 73.8881 72.8226 74.0818C72.9194 74.1786 73.1131 74.2755 73.3068 74.3723C73.5005 74.3723 73.6942 74.4692 73.9847 74.4692C74.4689 74.4692 74.8562 74.3723 75.0499 74.0818C75.2436 73.8881 75.4372 73.4039 75.4372 72.8229V68.562H76.793V72.7261V72.8229Z" fill="#143109"/>
<path d="M81.5379 75.4375L79.6011 72.6292V75.4375H78.2454V68.562C78.5359 68.562 78.8264 68.562 79.1169 68.562C79.4074 68.562 79.7948 68.562 80.1821 68.562C80.5695 68.562 80.86 68.562 81.2474 68.6588C81.5379 68.6588 81.8284 68.8525 82.0221 68.9494C82.2157 69.0462 82.4094 69.3367 82.5063 69.5304C82.6031 69.7241 82.6999 70.1114 82.6999 70.4019C82.6999 70.6925 82.6999 70.8861 82.6031 71.0798C82.6031 71.2735 82.4094 71.4672 82.2157 71.6608C82.0221 71.8545 81.9252 71.9514 81.6347 72.0482C81.441 72.145 81.1505 72.2419 80.9568 72.2419C80.9568 72.3387 81.1505 72.5324 81.2474 72.6292C81.2474 72.7261 81.441 72.9197 81.5379 73.0166L83.1841 75.3407H81.5379V75.4375ZM81.2474 70.5956C81.2474 69.9177 80.86 69.6272 79.9885 69.6272C79.1169 69.6272 79.7948 69.6272 79.6979 69.6272H79.5043V71.564C79.5043 71.564 79.6011 71.564 79.6979 71.564C79.6979 71.564 79.8916 71.564 79.9885 71.564C80.3758 71.564 80.6663 71.564 80.9568 71.2735C81.1505 71.0798 81.3442 70.7893 81.3442 70.4988L81.2474 70.5956Z" fill="#143109"/>
<path d="M88.1229 75.4375L87.6387 74.0818H85.024L84.5398 75.4375H83.1841L85.605 68.562H87.0576L89.4786 75.4375H88.026H88.1229ZM86.6703 71.1766C86.6703 70.983 86.5734 70.7893 86.4766 70.5956C86.4766 70.4019 86.4766 70.2083 86.3798 70.0146C86.3798 70.4019 86.1861 70.7893 86.0892 71.1766L85.5082 72.9197H87.445L86.7671 71.0798L86.6703 71.1766Z" fill="#143109"/>
<path d="M89.8664 76.793C90.2537 76.4057 90.4474 76.1152 90.4474 75.9215C90.4474 75.7278 90.4474 75.4373 90.2537 75.2436C90.2537 75.1468 90.06 74.9531 90.06 74.8563C90.06 74.7594 90.06 74.5657 90.06 74.4689C90.06 74.3721 90.1569 74.2752 90.3506 74.1784C90.4474 74.1784 90.6411 74.0815 90.8348 74.0815C91.0284 74.0815 91.2221 74.0815 91.4158 74.3721C91.6095 74.5657 91.6095 74.7594 91.6095 75.1468C91.6095 75.5341 91.5126 75.8246 91.3189 76.212C91.1253 76.5993 90.7379 76.9867 90.3506 77.3741L89.7695 76.8899L89.8664 76.793Z" fill="#143109"/>
<path d="M97.1286 73.5008C97.1286 73.7913 97.1286 74.0818 97.1286 74.2755C97.1286 74.566 96.9349 74.7597 96.838 74.9534C96.7412 75.147 96.5475 75.2439 96.257 75.3407C95.9665 75.4375 95.7728 75.5344 95.3855 75.5344C94.9981 75.5344 94.9981 75.5344 94.9013 75.5344C94.8044 75.5344 94.6108 75.5344 94.5139 75.5344V74.3723C94.5139 74.3723 94.7076 74.3723 94.8044 74.3723C94.9013 74.3723 94.9981 74.3723 95.1918 74.3723C95.3855 74.3723 95.5791 74.3723 95.7728 74.1786C95.8697 74.0818 95.9665 73.7913 95.9665 73.4039V68.562H97.3222V73.5008H97.1286Z" fill="#143109"/>
<path d="M104.101 72.8229C104.101 73.7913 103.811 74.4692 103.327 74.9534C102.842 75.4375 102.165 75.6312 101.196 75.6312C100.228 75.6312 100.228 75.6312 99.8404 75.4375C99.4531 75.3407 99.2594 75.147 99.0657 74.8565C98.8721 74.566 98.7752 74.3723 98.6784 74.0818C98.6784 73.7913 98.5815 73.5008 98.5815 73.1134V68.6588H99.9373V73.0166C99.9373 73.2103 99.9373 73.4039 99.9373 73.5976C99.9373 73.7913 100.034 73.8881 100.131 74.0818C100.228 74.1786 100.421 74.2755 100.615 74.3723C100.809 74.3723 101.002 74.4692 101.293 74.4692C101.777 74.4692 102.165 74.3723 102.358 74.0818C102.552 73.8881 102.746 73.4039 102.746 72.8229V68.562H104.101V72.7261V72.8229Z" fill="#143109"/>
<path d="M108.75 75.4372H107.2L104.779 68.5617H106.232L107.588 72.5321C107.588 72.7257 107.684 72.9194 107.781 73.2099C107.781 73.4036 107.878 73.6941 107.975 73.8878C107.975 73.6941 108.072 73.4036 108.169 73.2099C108.169 73.0162 108.265 72.7257 108.362 72.4352L109.718 68.4648H111.074L108.653 75.3404L108.75 75.4372Z" fill="#143109"/>
<path d="M111.849 75.4375V68.562H115.528V69.6272H113.108V71.3703H115.432V72.4356H113.108V74.2755H115.528V75.4375H111.849Z" fill="#143109"/>
<path d="M120.855 75.4375L118.821 71.9514C118.627 71.6608 118.531 71.4672 118.434 71.1766C118.337 70.8861 118.24 70.6925 118.143 70.4988C118.143 70.6925 118.143 70.7893 118.143 70.983C118.143 71.1767 118.143 71.3703 118.143 71.6608C118.143 71.8545 118.143 72.145 118.143 72.3387C118.143 72.5324 118.143 72.8229 118.143 73.0166V75.4375H116.884V68.562H118.627L120.564 71.8545C120.758 72.145 120.855 72.4355 121.048 72.6292C121.242 72.8229 121.339 73.2103 121.436 73.4039C121.436 73.2103 121.436 73.0166 121.436 72.8229C121.436 72.6292 121.436 72.3387 121.436 72.145C121.436 71.8545 121.436 71.6608 121.436 71.3703C121.436 71.0798 121.436 70.8861 121.436 70.6925V68.562H122.695V75.4375H120.951H120.855Z" fill="#143109"/>
<path d="M126.568 69.7241V75.4375H125.212V69.7241H123.469V68.562H128.311V69.7241H126.568Z" fill="#143109"/>
<path d="M134.703 72.8229C134.703 73.7913 134.412 74.4692 133.928 74.9534C133.444 75.4375 132.766 75.6312 131.797 75.6312C130.829 75.6312 130.829 75.6312 130.442 75.4375C130.054 75.3407 129.861 75.147 129.667 74.8565C129.473 74.566 129.377 74.3723 129.28 74.0818C129.28 73.7913 129.183 73.5008 129.183 73.1134V68.6588H130.539V73.0166C130.539 73.2103 130.539 73.4039 130.539 73.5976C130.539 73.7913 130.635 73.8881 130.732 74.0818C130.829 74.1786 131.023 74.2755 131.216 74.3723C131.41 74.3723 131.604 74.4692 131.894 74.4692C132.379 74.4692 132.766 74.3723 132.96 74.0818C133.153 73.8881 133.347 73.4039 133.347 72.8229V68.562H134.703V72.7261V72.8229Z" fill="#143109"/>
<path d="M141.771 71.9507C141.771 72.5317 141.771 73.0159 141.481 73.5001C141.287 73.9843 140.997 74.2748 140.706 74.6622C140.416 74.9527 139.931 75.1464 139.544 75.3401C139.06 75.5337 138.576 75.5337 137.995 75.5337C137.414 75.5337 137.317 75.5337 137.026 75.5337C136.736 75.5337 136.445 75.5337 136.155 75.5337V68.6582C136.445 68.6582 136.736 68.6582 137.123 68.6582C137.511 68.6582 137.898 68.6582 138.382 68.6582C138.866 68.6582 139.35 68.6582 139.835 68.8519C140.222 68.9487 140.609 69.1424 140.9 69.4329C141.19 69.7234 141.481 70.0139 141.578 70.4981C141.771 70.8855 141.868 71.4665 141.868 72.0476L141.771 71.9507ZM140.416 72.0476C140.416 71.6602 140.416 71.3697 140.319 71.0792C140.319 70.7887 140.125 70.4981 139.931 70.3045C139.738 70.1108 139.544 69.9171 139.254 69.8203C138.963 69.7234 138.673 69.6266 138.285 69.6266C137.898 69.6266 137.995 69.6266 137.801 69.6266C137.704 69.6266 137.511 69.6266 137.414 69.6266V74.2748C137.414 74.2748 137.607 74.2748 137.704 74.2748C137.801 74.2748 137.995 74.2748 138.092 74.2748C138.382 74.2748 138.673 74.2748 138.963 74.178C139.254 74.178 139.447 73.9843 139.641 73.7906C139.835 73.597 140.028 73.3065 140.125 73.0159C140.222 72.7254 140.319 72.3381 140.319 71.9507L140.416 72.0476Z" fill="#143109"/>
<path d="M142.934 75.4375V68.562H146.613V69.6272H144.192V71.3703H146.517V72.4356H144.192V74.2755H146.613V75.4375H142.934Z" fill="#143109"/>
<path d="M49.0977 86.7671V79.8916H52.7775V80.9568H50.3566V82.6999H52.6807V83.7651H50.3566V85.6051H52.7775V86.7671H49.0977Z" fill="#143109"/>
<path d="M61.9765 83.1841C61.9765 83.7651 61.9765 84.2493 61.686 84.7335C61.4923 85.2177 61.2018 85.5082 60.9113 85.8956C60.6208 86.1861 60.1366 86.3798 59.7492 86.5735C59.265 86.7671 58.7808 86.7671 58.1998 86.7671C57.6188 86.7671 57.5219 86.7671 57.2314 86.7671C56.9409 86.7671 56.6504 86.7671 56.3599 86.7671V79.8916C56.6504 79.8916 56.9409 79.8916 57.3282 79.8916C57.7156 79.8916 58.103 79.8916 58.5872 79.8916C59.0713 79.8916 59.5555 79.8916 60.0397 80.0853C60.4271 80.1821 60.8144 80.3758 61.105 80.6663C61.3955 80.9568 61.686 81.2473 61.7828 81.7315C61.9765 82.1189 62.0733 82.6999 62.0733 83.281L61.9765 83.1841ZM60.5239 83.281C60.5239 82.8936 60.5239 82.6031 60.4271 82.3126C60.4271 82.022 60.2334 81.7315 60.0397 81.5379C59.8461 81.3442 59.6524 81.1505 59.3619 81.0537C59.0713 80.9568 58.7808 80.86 58.3935 80.86C58.0061 80.86 58.103 80.86 57.9093 80.86C57.8124 80.86 57.6188 80.86 57.5219 80.86V85.5082C57.5219 85.5082 57.7156 85.5082 57.8124 85.5082C57.9093 85.5082 58.103 85.5082 58.1998 85.5082C58.4903 85.5082 58.7808 85.5082 59.0713 85.4114C59.3619 85.4114 59.5555 85.2177 59.7492 85.024C59.9429 84.8304 60.1366 84.5399 60.2334 84.2493C60.3302 83.9588 60.4271 83.5715 60.4271 83.1841L60.5239 83.281Z" fill="#143109"/>
<path d="M63.0425 86.7671V79.8916H66.7223V80.9568H64.3014V82.6999H66.6255V83.7651H64.3014V85.6051H66.7223V86.7671H63.0425Z" fill="#143109"/>
<path d="M72.0482 84.6368C72.0482 84.9274 72.0482 85.2179 71.8546 85.5084C71.7577 85.7989 71.5641 85.9926 71.2735 86.1863C71.0799 86.3799 70.7893 86.5736 70.402 86.6705C70.1115 86.7673 69.7241 86.8641 69.2399 86.8641C68.7557 86.8641 68.7557 86.8641 68.5621 86.8641C68.3684 86.8641 68.0779 86.8641 67.8842 86.7673V85.5084C68.1747 85.5084 68.3684 85.6052 68.6589 85.7021C68.9494 85.7021 69.1431 85.7021 69.4336 85.7021C69.7241 85.7021 70.0146 85.7021 70.3052 85.5084C70.4988 85.4116 70.6925 85.121 70.6925 84.8305C70.6925 84.54 70.6925 84.4432 70.4988 84.3463C70.402 84.2495 70.2083 84.1527 69.9178 84.0558C69.7241 84.0558 69.4336 83.8621 69.2399 83.7653C69.0463 83.6685 68.7557 83.5716 68.5621 83.3779C68.3684 83.1843 68.1747 83.0874 67.981 82.7969C67.7874 82.5064 67.7874 82.2159 67.7874 81.9254C67.7874 81.6349 67.7874 81.3443 67.981 81.0538C68.0779 80.7633 68.2715 80.5696 68.4652 80.376C68.6589 80.1823 68.9494 80.0854 69.2399 79.9886C69.5304 79.8918 69.9178 79.7949 70.3052 79.7949C70.6925 79.7949 70.6925 79.7949 70.8862 79.7949C71.0799 79.7949 71.2735 79.7949 71.4672 79.7949V80.957C71.1767 80.957 70.983 80.8601 70.7893 80.8601C70.5957 80.8601 70.402 80.8601 70.2083 80.8601C69.821 80.8601 69.5304 80.8601 69.3368 81.0538C69.1431 81.2475 69.0462 81.4412 69.0462 81.6349C69.0462 81.8285 69.0463 82.0222 69.2399 82.119C69.3368 82.2159 69.5304 82.3127 69.821 82.4096C70.0146 82.5064 70.3052 82.6032 70.4988 82.7001C70.6925 82.7969 70.983 82.8938 71.1767 83.0874C71.3704 83.2811 71.5641 83.3779 71.7577 83.6685C71.8546 83.8621 71.9514 84.1527 71.9514 84.54L72.0482 84.6368Z" fill="#143109"/>
<path d="M77.6647 81.9252C77.6647 82.2157 77.6647 82.6031 77.471 82.8936C77.3742 83.1841 77.1805 83.4746 76.89 83.6683C76.6963 83.862 76.4058 84.0557 76.0184 84.1525C75.7279 84.2493 75.3406 84.3462 74.8564 84.3462H74.6627H74.469V86.7671H73.1133V79.8916C73.4038 79.8916 73.6943 79.8916 73.9848 79.8916C74.2753 79.8916 74.5659 79.8916 74.9532 79.8916C75.8248 79.8916 76.4058 80.0853 76.89 80.4726C77.3742 80.86 77.5679 81.3442 77.5679 82.0221L77.6647 81.9252ZM76.3089 82.0221C76.3089 81.6347 76.2121 81.441 76.0184 81.1505C75.8248 80.9568 75.4374 80.86 75.0501 80.86H74.8564H74.6627V83.1841C74.7595 83.1841 74.9532 83.1841 75.0501 83.1841C75.4374 83.1841 75.8248 83.0873 76.0184 82.8936C76.309 82.6999 76.4058 82.4094 76.4058 82.0221H76.3089Z" fill="#143109"/>
<path d="M84.7335 83.1843C84.7335 83.7653 84.7335 84.2495 84.443 84.7337C84.2494 85.2179 84.0557 85.6052 83.7652 85.8958C83.4746 86.1863 83.0873 86.4768 82.6999 86.5736C82.3126 86.6705 81.8284 86.8641 81.3442 86.8641C80.86 86.8641 80.3758 86.8641 79.9885 86.6705C79.6011 86.4768 79.3106 86.2831 79.0201 85.9926C78.7296 85.7021 78.5359 85.3147 78.439 84.9274C78.3422 84.54 78.2454 84.0558 78.2454 83.4748C78.2454 82.8938 78.2454 82.4096 78.5359 81.9254C78.7296 81.4412 78.9232 81.0538 79.2137 80.7633C79.5043 80.4728 79.8916 80.1823 80.279 80.0854C80.6663 79.8918 81.1505 79.7949 81.5379 79.7949C81.9252 79.7949 82.4094 79.7949 82.7968 79.9886C83.1841 80.1823 83.4746 80.376 83.7652 80.6665C84.0557 80.957 84.2494 81.3443 84.443 81.7317C84.6367 82.119 84.6367 82.7001 84.6367 83.2811L84.7335 83.1843ZM83.281 83.2811C83.281 82.5064 83.0873 81.9254 82.7968 81.538C82.5063 81.1507 82.0221 80.957 81.441 80.957C80.86 80.957 80.9568 80.957 80.7632 81.0538C80.5695 81.0538 80.3758 81.2475 80.1821 81.4412C79.9885 81.6349 79.8916 81.8285 79.7948 82.119C79.6979 82.4096 79.6011 82.7001 79.6011 83.0874C79.6011 83.4748 79.6011 83.7653 79.6979 84.0558C79.6979 84.3463 79.8916 84.6368 79.9885 84.8305C80.1821 85.0242 80.3758 85.2179 80.5695 85.3147C80.7632 85.4116 81.0537 85.5084 81.3442 85.5084C81.6347 85.5084 81.8284 85.5084 82.0221 85.4116C82.2157 85.4116 82.4094 85.2179 82.6031 85.0242C82.7968 84.8305 82.8936 84.6368 82.9905 84.2495C83.0873 83.959 83.1841 83.5716 83.1841 83.1843L83.281 83.2811Z" fill="#143109"/>
<path d="M88.9951 86.7671L87.0584 83.9588V86.7671H85.7026V79.8916C85.9932 79.8916 86.2837 79.8916 86.5742 79.8916C86.8647 79.8916 87.2521 79.8916 87.6394 79.8916C88.0268 79.8916 88.3173 79.8916 88.7046 79.9884C88.9951 79.9884 89.2857 80.1821 89.4793 80.279C89.673 80.3758 89.8667 80.6663 89.9635 80.86C90.0604 81.0537 90.1572 81.441 90.1572 81.7315C90.1572 82.0221 90.1572 82.2157 90.0604 82.4094C90.0604 82.6031 89.8667 82.7968 89.673 82.9904C89.4793 83.1841 89.3825 83.2809 89.092 83.3778C88.8983 83.4746 88.6078 83.5715 88.4141 83.5715C88.4141 83.6683 88.6078 83.862 88.7046 83.9588C88.7046 84.0557 88.8983 84.2493 88.9951 84.3462L90.6414 86.6703H88.9951V86.7671ZM88.8015 81.9252C88.8015 81.2473 88.4141 80.9568 87.5426 80.9568C86.671 80.9568 87.3489 80.9568 87.2521 80.9568H87.0584V82.8936C87.0584 82.8936 87.1552 82.8936 87.2521 82.8936C87.2521 82.8936 87.4457 82.8936 87.5426 82.8936C87.9299 82.8936 88.2204 82.8936 88.5109 82.6031C88.7046 82.4094 88.8983 82.1189 88.8983 81.8284L88.8015 81.9252Z" fill="#143109"/>
<path d="M94.0297 80.957V86.6705H92.674V80.957H90.9309V79.7949H95.7728V80.957H94.0297Z" fill="#143109"/>
<path d="M102.746 83.1843C102.746 83.7653 102.746 84.2495 102.456 84.7337C102.262 85.2179 102.068 85.6052 101.778 85.8958C101.487 86.1863 101.1 86.4768 100.713 86.5736C100.325 86.6705 99.8411 86.8641 99.3569 86.8641C98.8727 86.8641 98.3885 86.8641 98.0012 86.6705C97.6138 86.4768 97.3233 86.2831 97.0328 85.9926C96.7423 85.7021 96.5486 85.3147 96.4517 84.9274C96.3549 84.54 96.2581 84.0558 96.2581 83.4748C96.2581 82.8938 96.2581 82.4096 96.5486 81.9254C96.7423 81.4412 96.9359 81.0538 97.2264 80.7633C97.517 80.4728 97.9043 80.1823 98.2917 80.0854C98.679 79.8918 99.1632 79.7949 99.5506 79.7949C99.9379 79.7949 100.422 79.7949 100.809 79.9886C101.197 80.1823 101.487 80.376 101.778 80.6665C102.068 80.957 102.262 81.3443 102.456 81.7317C102.649 82.119 102.649 82.7001 102.649 83.2811L102.746 83.1843ZM101.391 83.2811C101.391 82.5064 101.197 81.9254 100.906 81.538C100.616 81.1507 100.132 80.957 99.5506 80.957C98.9695 80.957 99.0664 80.957 98.8727 81.0538C98.679 81.0538 98.4853 81.2475 98.2917 81.4412C98.098 81.6349 98.0011 81.8285 97.9043 82.119C97.8075 82.4096 97.7106 82.7001 97.7106 83.0874C97.7106 83.4748 97.7106 83.7653 97.8075 84.0558C97.8075 84.3463 98.0012 84.6368 98.098 84.8305C98.2917 85.0242 98.4853 85.2179 98.679 85.3147C98.8727 85.4116 99.1632 85.5084 99.4537 85.5084C99.7442 85.5084 99.9379 85.5084 100.132 85.4116C100.325 85.4116 100.519 85.2179 100.713 85.0242C100.906 84.8305 101.003 84.6368 101.1 84.2495C101.197 83.959 101.294 83.5716 101.294 83.1843L101.391 83.2811Z" fill="#143109"/>
<path d="M13.9447 39.1228V51.9054C13.9447 51.9054 0.774708 52.0991 1.45258 46.5793C2.42096 39.9943 13.9447 39.0259 13.9447 39.0259V39.1228ZM15.4942 16.8499C15.4942 17.4309 15.9784 17.7215 16.3657 17.7215C16.7531 17.7215 17.2373 17.4309 17.2373 16.8499V15.6878H15.591V16.8499H15.4942ZM16.7531 15.9784C16.8499 15.9784 16.9467 15.9784 16.9467 16.172C16.9467 16.3657 16.9467 16.3657 16.7531 16.3657C16.5594 16.3657 16.5594 16.3657 16.5594 16.172C16.5594 15.9784 16.5594 15.9784 16.7531 15.9784ZM16.7531 16.8499C16.8499 16.8499 16.9467 16.8499 16.9467 17.0436C16.9467 17.2373 16.9467 17.2373 16.7531 17.2373C16.5594 17.2373 16.5594 17.2373 16.5594 17.0436C16.5594 16.8499 16.5594 16.8499 16.7531 16.8499ZM16.2689 16.3657C16.3657 16.3657 16.4625 16.3657 16.4625 16.5594C16.4625 16.7531 16.4625 16.7531 16.2689 16.7531C16.0752 16.7531 16.0752 16.7531 16.0752 16.5594C16.0752 16.3657 16.0752 16.3657 16.2689 16.3657ZM15.8815 15.9784C15.9784 15.9784 16.0752 15.9784 16.0752 16.172C16.0752 16.3657 16.0752 16.3657 15.8815 16.3657C15.6878 16.3657 15.6878 16.3657 15.6878 16.172C15.6878 15.9784 15.6878 15.9784 15.8815 15.9784ZM15.8815 16.8499C15.9784 16.8499 16.0752 16.8499 16.0752 17.0436C16.0752 17.2373 16.0752 17.2373 15.8815 17.2373C15.6878 17.2373 15.6878 17.2373 15.6878 17.0436C15.6878 16.8499 15.6878 16.8499 15.8815 16.8499ZM15.4942 22.6602C15.4942 23.2412 15.9784 23.5318 16.3657 23.5318C16.7531 23.5318 17.2373 23.2412 17.2373 22.6602V21.4982H15.591V22.6602H15.4942ZM16.7531 21.6918C16.8499 21.6918 16.9467 21.6918 16.9467 21.8855C16.9467 22.0792 16.9467 22.0792 16.7531 22.0792C16.5594 22.0792 16.5594 22.0792 16.5594 21.8855C16.5594 21.6918 16.5594 21.6918 16.7531 21.6918ZM16.7531 22.5634C16.8499 22.5634 16.9467 22.5634 16.9467 22.7571C16.9467 22.9507 16.9467 22.9507 16.7531 22.9507C16.5594 22.9507 16.5594 22.9507 16.5594 22.7571C16.5594 22.5634 16.5594 22.5634 16.7531 22.5634ZM16.2689 22.176C16.3657 22.176 16.4625 22.176 16.4625 22.3697C16.4625 22.5634 16.4625 22.5634 16.2689 22.5634C16.0752 22.5634 16.0752 22.5634 16.0752 22.3697C16.0752 22.176 16.0752 22.176 16.2689 22.176ZM15.8815 21.6918C15.9784 21.6918 16.0752 21.6918 16.0752 21.8855C16.0752 22.0792 16.0752 22.0792 15.8815 22.0792C15.6878 22.0792 15.6878 22.0792 15.6878 21.8855C15.6878 21.6918 15.6878 21.6918 15.8815 21.6918ZM15.8815 22.5634C15.9784 22.5634 16.0752 22.5634 16.0752 22.7571C16.0752 22.9507 16.0752 22.9507 15.8815 22.9507C15.6878 22.9507 15.6878 22.9507 15.6878 22.7571C15.6878 22.5634 15.6878 22.5634 15.8815 22.5634ZM16.2689 20.6266C16.6562 20.6266 17.1404 20.3361 17.1404 19.7551V18.593H15.4942V19.7551C15.4942 20.3361 15.9784 20.6266 16.3657 20.6266H16.2689ZM16.7531 18.8835C16.8499 18.8835 16.9467 18.8835 16.9467 19.0772C16.9467 19.2709 16.9467 19.2709 16.7531 19.2709C16.5594 19.2709 16.5594 19.2709 16.5594 19.0772C16.5594 18.8835 16.5594 18.8835 16.7531 18.8835ZM16.7531 19.6582C16.8499 19.6582 16.9467 19.6582 16.9467 19.8519C16.9467 20.0456 16.9467 20.0456 16.7531 20.0456C16.5594 20.0456 16.5594 20.0456 16.5594 19.8519C16.5594 19.6582 16.5594 19.6582 16.7531 19.6582ZM16.2689 19.2709C16.3657 19.2709 16.4625 19.2709 16.4625 19.4645C16.4625 19.6582 16.4625 19.6582 16.2689 19.6582C16.0752 19.6582 16.0752 19.6582 16.0752 19.4645C16.0752 19.2709 16.0752 19.2709 16.2689 19.2709ZM15.8815 18.8835C15.9784 18.8835 16.0752 18.8835 16.0752 19.0772C16.0752 19.2709 16.0752 19.2709 15.8815 19.2709C15.6878 19.2709 15.6878 19.2709 15.6878 19.0772C15.6878 18.8835 15.6878 18.8835 15.8815 18.8835ZM15.6878 19.8519C15.6878 19.7551 15.6878 19.6582 15.8815 19.6582C16.0752 19.6582 16.0752 19.6582 16.0752 19.8519C16.0752 20.0456 16.0752 20.0456 15.8815 20.0456C15.6878 20.0456 15.6878 20.0456 15.6878 19.8519ZM13.17 19.7551C13.17 20.3361 13.6542 20.6266 14.0416 20.6266C14.4289 20.6266 14.9131 20.3361 14.9131 19.7551V18.593H13.2669V19.7551H13.17ZM14.4289 18.8835C14.5258 18.8835 14.6226 18.8835 14.6226 19.0772C14.6226 19.2709 14.6226 19.2709 14.4289 19.2709C14.2353 19.2709 14.2353 19.2709 14.2353 19.0772C14.2353 18.8835 14.2353 18.8835 14.4289 18.8835ZM14.4289 19.6582C14.5258 19.6582 14.6226 19.6582 14.6226 19.8519C14.6226 20.0456 14.6226 20.0456 14.4289 20.0456C14.2353 20.0456 14.2353 20.0456 14.2353 19.8519C14.2353 19.6582 14.2353 19.6582 14.4289 19.6582ZM14.0416 19.2709C14.1384 19.2709 14.2353 19.2709 14.2353 19.4645C14.2353 19.6582 14.2353 19.6582 14.0416 19.6582C13.8479 19.6582 13.8479 19.6582 13.8479 19.4645C13.8479 19.2709 13.8479 19.2709 14.0416 19.2709ZM13.5574 18.8835C13.6542 18.8835 13.7511 18.8835 13.7511 19.0772C13.7511 19.2709 13.7511 19.2709 13.5574 19.2709C13.3637 19.2709 13.3637 19.2709 13.3637 19.0772C13.3637 18.8835 13.3637 18.8835 13.5574 18.8835ZM13.5574 19.6582C13.6542 19.6582 13.7511 19.6582 13.7511 19.8519C13.7511 20.0456 13.7511 20.0456 13.5574 20.0456C13.3637 20.0456 13.3637 20.0456 13.3637 19.8519C13.3637 19.6582 13.3637 19.6582 13.5574 19.6582ZM17.7214 18.593V19.7551C17.7214 20.3361 18.2056 20.6266 18.593 20.6266C18.9804 20.6266 19.4645 20.3361 19.4645 19.7551V18.593H17.8183H17.7214ZM18.2056 20.0456C18.1088 20.0456 18.012 20.0456 18.012 19.8519C18.012 19.6582 18.012 19.6582 18.2056 19.6582C18.3993 19.6582 18.3993 19.6582 18.3993 19.8519C18.3993 20.0456 18.3993 20.0456 18.2056 20.0456ZM18.2056 19.2709C18.1088 19.2709 18.012 19.2709 18.012 19.0772C18.012 18.8835 18.012 18.8835 18.2056 18.8835C18.3993 18.8835 18.3993 18.8835 18.3993 19.0772C18.3993 19.2709 18.3993 19.2709 18.2056 19.2709ZM18.593 19.6582C18.4962 19.6582 18.3993 19.6582 18.3993 19.4645C18.3993 19.2709 18.3993 19.2709 18.593 19.2709C18.7867 19.2709 18.7867 19.2709 18.7867 19.4645C18.7867 19.6582 18.7867 19.6582 18.593 19.6582ZM18.9804 20.0456C18.8835 20.0456 18.7867 20.0456 18.7867 19.8519C18.7867 19.6582 18.7867 19.6582 18.9804 19.6582C19.174 19.6582 19.174 19.6582 19.174 19.8519C19.174 20.0456 19.174 20.0456 18.9804 20.0456ZM18.9804 19.2709C18.8835 19.2709 18.7867 19.2709 18.7867 19.0772C18.7867 18.8835 18.7867 18.8835 18.9804 18.8835C19.174 18.8835 19.174 18.8835 19.174 19.0772C19.174 19.2709 19.174 19.2709 18.9804 19.2709ZM10.0712 12.2985V20.7234C10.0712 22.4665 10.7491 24.016 11.9111 25.0812C13.0732 26.2432 14.6226 26.9211 16.3657 26.9211C18.1088 26.9211 19.6582 26.2432 20.8203 25.0812C21.9823 23.9191 22.6602 22.3697 22.6602 20.7234V12.2985H10.168H10.0712ZM15.4942 14.2353V13.6542C15.4942 13.6542 15.4942 13.6542 15.4942 13.5574C15.4942 13.4606 15.4942 13.4606 15.591 13.4606V13.17V12.9764H15.6878H15.7847V13.17V13.4606H15.9784V12.8795V12.6858H16.0752H16.172V12.8795V13.4606H16.3657V13.17V12.9764H16.4625H16.5594V13.17V13.4606C16.5594 13.4606 16.6562 13.4606 16.6562 13.5574C16.6562 13.6542 16.6562 13.6542 16.5594 13.6542V14.2353C16.5594 14.2353 16.6562 14.2353 16.6562 14.3321C16.6562 14.4289 16.6562 14.4289 16.5594 14.4289H14.9131C14.9131 14.4289 14.8163 14.4289 14.8163 14.3321C14.8163 14.2353 14.8163 14.2353 14.9131 14.2353H15.4942ZM10.4586 14.2353V13.6542C10.4586 13.6542 10.4586 13.6542 10.4586 13.5574C10.4586 13.4606 10.4586 13.4606 10.5554 13.4606V13.17V12.9764H10.6522H10.7491V13.17V13.4606H10.9428V12.8795V12.6858H11.0396H11.1364V12.8795V13.4606H11.3301V13.17V12.9764H11.4269H11.5238V13.17V13.4606C11.5238 13.4606 11.7175 13.4606 11.7175 13.5574C11.7175 13.6542 11.7175 13.6542 11.6206 13.6542V14.2353C11.6206 14.2353 11.7175 14.2353 11.7175 14.3321C11.7175 14.4289 11.7175 14.4289 11.6206 14.4289H9.97437C9.97437 14.4289 9.87753 14.4289 9.87753 14.3321C9.87753 14.2353 9.87753 14.2353 9.97437 14.2353H10.4586ZM10.3617 19.5614C10.3617 19.5614 10.3617 19.4645 10.4586 19.4645V18.8835C10.4586 18.8835 10.4586 18.8835 10.4586 18.7867C10.4586 18.6898 10.4586 18.6898 10.5554 18.6898V18.3993V18.2056H10.6522H10.7491V18.3993V18.6898H10.9428V18.1088V17.9151H11.0396H11.1364V18.1088V18.6898H11.3301V18.3993V18.2056H11.4269H11.5238V18.3993V18.6898C11.5238 18.6898 11.7175 18.6898 11.7175 18.7867C11.7175 18.8835 11.7175 18.8835 11.6206 18.8835V19.4645C11.6206 19.4645 11.7175 19.4645 11.7175 19.5614C11.7175 19.6582 11.7175 19.6582 11.6206 19.6582H9.97437C9.97437 19.6582 9.87753 19.6582 9.87753 19.5614H10.3617ZM13.7511 24.1128L12.589 25.2749C12.589 25.2749 12.4922 25.2749 12.3953 25.2749C12.3953 25.2749 12.3953 25.178 12.3953 25.0812L12.008 24.597C12.008 24.597 11.9111 24.597 11.8143 24.597V24.4033L11.6206 24.2096H11.5238C11.5238 24.1128 11.5238 24.016 11.5238 24.016V23.9191V23.8223H11.6206C11.6206 23.9191 11.6206 24.016 11.6206 24.016L11.8143 24.2096H11.9111C11.9111 24.1128 11.5238 23.7254 11.5238 23.7254H11.4269C11.4269 23.6286 11.4269 23.5318 11.4269 23.5318V23.4349V23.3381H11.5238C11.5238 23.4349 11.5238 23.5318 11.5238 23.5318L11.9111 23.9191H12.008C12.008 23.8223 11.8143 23.6286 11.8143 23.6286H11.7175C11.7175 23.5318 11.7175 23.4349 11.7175 23.4349V23.3381V23.2412H11.8143C11.8143 23.3381 11.8143 23.4349 11.8143 23.4349L12.008 23.6286H12.2017C12.2017 23.6286 12.2017 23.7254 12.2017 23.8223L12.6858 24.2096C12.6858 24.2096 12.7827 24.2096 12.8795 24.2096C12.8795 24.2096 12.8795 24.3065 12.8795 24.4033L13.7511 24.1128ZM13.6542 23.3381C12.9764 22.6602 12.589 21.6918 12.589 20.7234V14.8163H20.0456V20.7234C20.0456 21.6918 19.6582 22.6602 18.9804 23.3381C18.3025 24.016 17.3341 24.4033 16.3657 24.4033C15.3973 24.4033 14.4289 24.016 13.7511 23.3381H13.6542ZM21.014 24.2096L20.8203 24.4033V24.597C20.8203 24.597 20.7234 24.597 20.6266 24.597L20.2393 25.0812V25.2749H20.0456L18.8835 24.1128C18.8835 24.1128 18.8835 24.016 18.8835 23.9191H19.0772L19.5614 23.6286C19.5614 23.6286 19.5614 23.5318 19.5614 23.4349H19.7551L19.9487 23.2412H20.0456V23.4349V23.6286H19.9487C19.9487 23.7254 19.9487 23.7254 19.9487 23.7254L19.7551 23.9191H19.8519C19.8519 24.016 20.2393 23.6286 20.2393 23.6286H20.3361V23.8223V24.016H20.2393C20.2393 24.1128 20.2393 24.1128 20.2393 24.1128L19.8519 24.5002H19.9487C19.9487 24.597 20.1424 24.5002 20.1424 24.5002H20.2393V24.6938V24.7907H20.1424L21.014 24.2096ZM22.0792 19.6582H20.4329C20.4329 19.6582 20.3361 19.6582 20.3361 19.5614C20.3361 19.4645 20.3361 19.4645 20.4329 19.4645V18.8835C20.4329 18.8835 20.4329 18.8835 20.4329 18.7867C20.4329 18.6898 20.4329 18.6898 20.5298 18.6898V18.3993V18.2056H20.6266H20.7234V18.3993V18.6898H20.9171V18.1088V17.9151H21.014H21.1108V18.1088V18.6898H21.3045V18.3993V18.2056H21.4013H21.4982V18.3993V18.6898C21.4982 18.6898 21.595 18.6898 21.595 18.7867C21.595 18.8835 21.595 18.8835 21.4982 18.8835V19.4645C21.4982 19.4645 21.595 19.4645 21.595 19.5614C21.595 19.6582 21.595 19.6582 21.4982 19.6582H22.0792ZM22.0792 14.5258H20.4329C20.4329 14.5258 20.3361 14.5258 20.3361 14.4289C20.3361 14.3321 20.3361 14.3321 20.4329 14.3321V13.7511C20.4329 13.7511 20.4329 13.7511 20.4329 13.6542C20.4329 13.5574 20.4329 13.5574 20.5298 13.5574V13.2669V13.0732H20.6266H20.7234V13.2669V13.5574H20.9171V12.9764V12.7827H21.014H21.1108V12.9764V13.5574H21.3045V13.2669V13.0732H21.4013H21.4982V13.2669V13.5574C21.4982 13.5574 21.595 13.5574 21.595 13.6542C21.595 13.7511 21.595 13.7511 21.4982 13.7511V14.3321C21.4982 14.3321 21.595 14.3321 21.595 14.4289C21.595 14.5258 21.595 14.5258 21.4982 14.5258H22.0792ZM11.7175 19.3677H10.9428C10.9428 18.8835 11.3301 18.7867 11.3301 18.7867C11.3301 18.7867 11.7175 18.8835 11.7175 19.3677ZM11.7175 14.2353H10.9428C10.9428 13.7511 11.3301 13.6542 11.3301 13.6542C11.3301 13.6542 11.7175 13.7511 11.7175 14.2353ZM21.6918 19.3677H20.9171C20.9171 18.8835 21.3045 18.7867 21.3045 18.7867C21.3045 18.7867 21.6918 18.8835 21.6918 19.3677ZM16.6562 14.2353H15.8815C15.8815 13.7511 16.2689 13.6542 16.2689 13.6542C16.2689 13.6542 16.6562 13.7511 16.6562 14.2353ZM20.0456 24.016C20.0456 24.016 20.2393 24.3065 19.9487 24.6938L19.3677 24.1128C19.7551 23.8223 20.0456 24.016 20.0456 24.016ZM13.2669 24.2096L12.6858 24.7907C12.3953 24.4033 12.589 24.1128 12.589 24.1128C12.589 24.1128 12.8795 23.9191 13.2669 24.2096ZM21.6918 14.2353H20.9171C20.9171 13.7511 21.3045 13.6542 21.3045 13.6542C21.3045 13.6542 21.6918 13.7511 21.6918 14.2353ZM35.5397 21.2076C32.7314 41.0595 12.589 30.3105 2.5178 42.609C4.64825 36.9923 11.9111 33.0219 16.8499 32.0536V29.8263C19.9487 29.6326 22.6602 28.18 24.4033 25.8559C24.4033 25.8559 23.5318 25.3717 23.4349 25.2749C21.8855 27.2116 19.4645 28.4705 16.8499 28.6642V27.3085C18.3993 27.2116 19.8519 26.5338 21.014 25.3717C21.4982 24.8875 21.9823 24.2096 22.2729 23.6286C23.5318 24.597 24.3065 25.2749 24.5001 25.6622C24.6938 25.9527 24.5001 26.0496 24.5001 26.0496C24.597 26.0496 24.6938 26.0496 24.6938 25.9527L24.7907 25.7591L25.7591 24.3065C25.7591 24.3065 25.7591 24.1128 25.7591 23.9191C26.3401 22.7571 26.7274 21.4013 26.8243 19.9487C26.8243 19.9487 25.759 19.6582 25.6622 19.7551C25.6622 20.9171 25.3717 21.9823 24.8875 22.9507C24.4033 22.4665 23.7254 21.9823 22.9507 21.4013C22.9507 21.1108 22.9507 20.8203 22.9507 20.6266V18.593C22.9507 18.593 22.9507 18.593 23.0476 18.593C24.597 18.8835 26.3401 19.4645 26.7274 19.9487C26.7274 19.9487 26.7274 20.0456 26.7274 20.1424V18.9804C26.7274 18.9804 26.7274 18.8835 26.5338 18.7867C26.5338 17.4309 26.0496 16.172 25.5654 14.9131C25.4685 14.9131 24.3065 14.8163 24.2096 14.8163C24.7907 15.7847 25.178 16.9467 25.3717 18.2056C24.6938 18.012 23.9191 17.7215 23.0476 17.6246C23.0476 17.6246 23.0476 17.6246 22.9507 17.6246V14.1384C24.2096 14.4289 25.178 14.7195 25.6622 15.01C25.759 15.01 25.6622 15.1068 25.6622 15.1068C25.6622 15.1068 25.759 15.1068 25.6622 15.01L24.9843 13.8479C24.9843 13.8479 24.7907 13.7511 24.6938 13.6542C22.9507 11.1364 20.0456 9.39334 16.7531 9.19966V4.55141C16.7531 4.55141 24.6938 1.54942 36.0239 0.871548C36.0239 0.871548 36.0239 10.3617 35.7334 18.012C35.7334 19.174 35.6366 20.3361 35.4429 21.3045M16.8499 10.168V11.8143H21.595C20.2393 10.8459 18.593 10.2649 16.8499 10.168ZM15.6878 0.484193V11.8143H10.9428C12.2017 10.9428 13.7511 10.3617 15.3973 10.168L15.591 9.00599C12.3953 9.19966 9.49018 10.9428 7.74708 13.3637C7.55341 13.3637 7.45657 13.3637 7.45657 13.3637L6.58502 15.1068C6.58502 15.1068 6.58502 15.1068 6.58502 15.3005C6.58502 15.1068 6.7787 15.1068 6.87554 15.1068C7.35973 15.1068 8.32811 15.3973 9.58702 15.9784V17.3341H9.49017C8.61863 17.5278 7.74708 17.7215 7.16605 17.9151C7.26289 17.1404 7.45657 16.4626 7.74708 15.7847C7.74708 15.7847 6.87554 15.2037 6.7787 15.1068C6.2945 16.172 6.00399 17.3341 6.00399 18.4962C6.00399 18.4962 5.90715 18.593 5.81031 18.6898V19.8519C5.81031 19.8519 5.81031 19.7551 5.81031 19.6582C5.81031 19.6582 5.81031 19.6582 5.90715 19.5614C5.90715 19.5614 6.00399 19.5614 6.10083 19.4645C6.2945 19.3677 6.48818 19.2709 6.7787 19.174C6.7787 19.174 6.87554 19.174 6.97237 19.174C7.65024 18.8835 8.61863 18.6898 9.49017 18.4962C9.49017 18.4962 9.49018 18.4962 9.58702 18.4962V20.5298C9.58702 21.3045 9.68385 22.0792 9.97437 22.7571C9.68385 22.7571 9.39334 22.9507 9.10282 22.9507C8.71547 23.0476 8.32811 23.1444 8.0376 23.3381C7.45657 22.2729 7.16605 21.014 7.06921 19.6582C7.06921 19.6582 6.00399 19.8519 5.90715 19.8519C5.90715 21.3045 6.39134 22.6602 6.97237 23.8223C6.97237 23.8223 6.97237 23.9191 6.97237 24.016L7.5534 24.9843C7.5534 24.9843 7.55341 24.9843 7.65025 24.9843C7.65025 24.9843 7.65025 24.8875 7.65025 24.7907C7.84392 24.5001 8.81231 24.1128 9.49017 23.9191C9.87753 23.8223 10.2649 23.7254 10.5554 23.6286C10.8459 24.1128 11.2333 24.597 11.6206 24.9843C12.7827 26.1464 14.2353 26.8243 15.7847 26.9211V29.5358C1.74309 33.4093 0 46.773 0 46.773V25.9527C0 12.2017 5.32612 3.29251 15.7847 0L15.6878 0.484193ZM7.65025 25.2749C9.39334 27.8895 12.2985 29.6326 15.591 29.9231L15.3973 28.761C12.6858 28.5674 10.3617 27.1148 8.81231 25.0812C8.81231 25.0812 7.65024 25.2749 7.5534 25.2749H7.65025Z" fill="#143109"/>
<defs>
<clipPath id="clip0_268_79">
<rect width="533.846" height="85.2921" fill="white" transform="translate(228.174 0.339355)"/>
</clipPath>
</defs>
</svg>
