<svg width="534" height="86" viewBox="0 0 534 86" fill="none" xmlns="http://www.w3.org/2000/svg">
<g clip-path="url(#clip0_239_56)">
<path fill-rule="evenodd" clip-rule="evenodd" d="M-0.000244141 6.70264V41.0769H38.2351V6.70264H-0.000244141ZM28.2874 12.816H27.4294C26.8395 12.816 26.4105 13.0305 26.1424 13.4863C25.8743 13.9421 25.7402 14.6393 25.7402 15.5777V27.8581C25.7402 30.3517 25.0163 32.309 23.5952 33.7301C22.1473 35.1512 19.9754 35.8752 17.0528 35.8752C14.3447 35.8752 12.1997 35.1512 10.5909 33.7033C8.9821 32.2554 8.17771 30.2444 8.17771 27.6972V12.816H5.60367V12.2261H15.9803V12.816H13.299V27.2682C13.299 29.6814 13.7012 31.5315 14.5056 32.7917C15.31 34.0519 16.8115 34.6954 19.0638 34.6954C20.753 34.6954 22.1473 34.1323 23.2734 32.9794C24.3996 31.8264 24.9626 30.1908 24.9626 28.0458V15.5509C24.9626 14.5588 24.8018 13.8617 24.48 13.4327C24.1582 13.0037 23.5952 12.7892 22.764 12.7892H21.7987V12.1993H28.3143V12.7892L28.2874 12.816ZM33.516 35.044C33.0602 35.4998 32.5239 35.7143 31.8536 35.7143C31.1832 35.7143 30.647 35.4998 30.218 35.044C29.7622 34.5881 29.5477 34.0519 29.5477 33.3815C29.5477 32.7112 29.7622 32.175 30.218 31.7191C30.6738 31.2633 31.2369 31.0488 31.8536 31.0488C32.4703 31.0488 33.0602 31.2901 33.516 31.7191C33.9718 32.175 34.1863 32.7112 34.1863 33.3815C34.1863 34.0519 33.9718 34.5881 33.516 35.044Z" fill="#143109"/>
<path fill-rule="evenodd" clip-rule="evenodd" d="M45.9294 12.6823H42.6851V12.146H52.0696C54.7241 12.146 56.8423 12.6554 58.3975 13.6743C59.9794 14.6932 60.757 16.3288 60.757 18.5811C60.757 20.8334 59.9258 22.3617 58.2902 23.4074C56.6278 24.48 54.6705 25.0162 52.4182 25.0162C51.1043 25.0162 50.0854 24.8285 49.3347 24.4532V34.8298H52.6863V35.366H42.7119V34.8298H45.9562V12.6823H45.9294ZM49.281 23.8096C49.576 23.9973 49.9246 24.1582 50.3804 24.2923C50.8362 24.4263 51.3188 24.5068 51.8015 24.5068C53.1957 24.5068 54.4291 24.0778 55.5285 23.1929C56.6278 22.3081 57.1909 20.887 57.1909 18.8761C57.1909 16.731 56.6814 15.1759 55.7162 14.1838C54.7241 13.1917 53.2494 12.6823 51.292 12.6823H49.281V23.8096Z" fill="#143109"/>
<path fill-rule="evenodd" clip-rule="evenodd" d="M74.1102 11.6611C76.8988 11.6611 79.3388 12.8409 81.4034 15.2004C83.4948 17.56 84.5137 20.4022 84.5137 23.7538C84.5137 27.1054 83.4948 29.9476 81.457 32.3071C79.3924 34.6667 76.9524 35.8464 74.1102 35.8464C71.268 35.8464 68.9085 34.6667 66.8171 32.3071C64.7525 29.9476 63.7068 27.0786 63.7068 23.7538C63.7068 20.429 64.7257 17.5332 66.7903 15.2004C68.8281 12.8409 71.268 11.6611 74.1102 11.6611ZM74.1102 35.337C75.9067 35.337 77.2742 34.7203 78.2662 33.4869C79.2583 32.2535 79.9286 30.7788 80.2504 29.0896C80.599 27.4004 80.7598 25.6307 80.7598 23.7806C80.7598 21.9305 80.599 20.0804 80.2772 18.418C79.9555 16.7556 79.3119 15.3077 78.3199 14.0743C77.3278 12.8409 75.9335 12.2242 74.0834 12.2242C72.2333 12.2242 70.9195 12.8409 69.9542 14.0743C68.9621 15.3077 68.2918 16.7824 67.9701 18.4716C67.6215 20.1608 67.4606 21.9573 67.4606 23.7806C67.4606 25.6039 67.6215 27.4808 67.9432 29.1432C68.265 30.8056 68.9085 32.2535 69.9006 33.4869C70.8927 34.7203 72.2869 35.337 74.1102 35.337Z" fill="#143109"/>
<path fill-rule="evenodd" clip-rule="evenodd" d="M90.1458 12.6823H86.8478V12.146H96.9563C99.3159 12.146 101.193 12.5482 102.667 13.3526C104.142 14.1838 104.839 15.7121 104.839 17.9912C104.839 19.7609 104.115 21.0479 102.667 21.8523C101.22 22.6299 99.6108 23.1393 97.7875 23.3806C99.8789 23.5951 101.38 24.0778 102.319 24.7749C103.257 25.4989 103.847 26.8663 104.089 28.9309L104.544 32.9529C104.652 33.7841 104.866 34.3471 105.188 34.6153C105.51 34.8834 105.858 35.0175 106.26 35.0175C106.609 35.0175 107.065 34.9102 107.601 34.6957L107.789 35.1247C107.44 35.2588 107.065 35.366 106.609 35.4465C106.18 35.5269 105.671 35.5537 105.081 35.5537C103.257 35.5537 102.078 35.1247 101.568 34.2935C101.059 33.4623 100.657 31.9072 100.362 29.6281L100.12 27.6439C99.9862 26.3837 99.6376 25.3916 99.0209 24.7213C98.4042 24.051 97.2781 23.7024 95.5889 23.7024H93.4438V34.8298H96.7954V35.366H86.7942V34.8298H90.0922V12.6823H90.1458ZM93.4974 23.1929H95.133C97.1708 23.1929 98.6992 22.7907 99.7449 21.9864C100.764 21.182 101.273 19.8681 101.273 18.018C101.273 16.4361 100.871 15.149 100.093 14.1838C99.3159 13.1917 97.8411 12.7091 95.7229 12.7091H93.4974V23.2198V23.1929Z" fill="#143109"/>
<path fill-rule="evenodd" clip-rule="evenodd" d="M117.36 12.6823H116.662C113.686 12.6823 111.729 13.0576 110.844 13.8084C109.932 14.5592 109.503 16.2752 109.503 18.9565H108.967V12.146H129.104V18.9565H128.567C128.567 16.302 128.112 14.586 127.227 13.8084C126.342 13.0308 124.385 12.6554 121.435 12.6554H120.711V34.803H124.09V35.3392H113.954V34.803H117.36V12.6823Z" fill="#143109"/>
<path fill-rule="evenodd" clip-rule="evenodd" d="M141.893 11.6611C144.682 11.6611 147.122 12.8409 149.187 15.2004C151.251 17.56 152.297 20.4022 152.297 23.7538C152.297 27.1054 151.278 29.9476 149.213 32.3071C147.176 34.6667 144.736 35.8464 141.893 35.8464C139.051 35.8464 136.692 34.6667 134.6 32.3071C132.536 29.9476 131.49 27.0786 131.49 23.7538C131.49 20.429 132.509 17.5332 134.573 15.2004C136.611 12.8409 139.051 11.6611 141.893 11.6611ZM141.893 35.337C143.69 35.337 145.057 34.7203 146.049 33.4869C147.042 32.2535 147.685 30.7788 148.034 29.0896C148.382 27.4004 148.543 25.6307 148.543 23.7806C148.543 21.9305 148.382 20.0804 148.06 18.418C147.739 16.7556 147.095 15.3077 146.103 14.0743C145.111 12.8409 143.717 12.2242 141.893 12.2242C140.07 12.2242 138.729 12.8409 137.764 14.0743C136.772 15.3077 136.102 16.7824 135.78 18.4716C135.431 20.1608 135.271 21.9573 135.271 23.7806C135.271 25.6039 135.431 27.4808 135.753 29.1432C136.075 30.8056 136.719 32.2535 137.711 33.4869C138.703 34.7203 140.097 35.337 141.92 35.337H141.893Z" fill="#143109"/>
<path fill-rule="evenodd" clip-rule="evenodd" d="M49.7116 71.8326V66.9795H48.7999V71.5377C48.7999 72.4493 48.7463 72.7175 48.3709 73.0929C47.9955 73.495 47.4593 73.7364 46.8158 73.7364C46.1723 73.7364 45.636 73.5219 45.2874 73.0929C44.9389 72.6907 44.8584 72.4493 44.8584 71.5377V66.9795H43.9468V71.8326C43.9468 72.7979 44.1881 73.3878 44.8048 73.8972C45.3411 74.3531 46.0382 74.5676 46.8426 74.5676C47.647 74.5676 48.3173 74.3262 48.8536 73.8972C49.4703 73.3878 49.7116 72.8247 49.7116 71.8326Z" fill="#143109"/>
<path fill-rule="evenodd" clip-rule="evenodd" d="M57.8883 74.4321V67.0049H56.9767V73.2523C56.9767 73.2523 56.9767 73.1719 56.9231 73.1451C56.8426 72.9306 56.8426 72.9306 56.789 72.8233C56.7354 72.7429 56.7086 72.6892 56.6818 72.6356L53.0352 67.0317H51.8286V74.4053H52.7403V68.0238C52.7939 68.1847 52.7939 68.2383 52.8475 68.2919C52.8475 68.3455 52.9011 68.3723 52.9279 68.4528C52.9816 68.56 53.062 68.6405 53.062 68.7209L56.789 74.4589H57.8347L57.8883 74.4321Z" fill="#143109"/>
<path d="M61.1328 67.0049H60.2212V74.3785H61.1328V67.0049Z" fill="#143109"/>
<path fill-rule="evenodd" clip-rule="evenodd" d="M68.6409 67.0049H67.7293L65.6378 72.7429C65.6378 72.7429 65.5842 72.9574 65.5842 73.0914C65.5842 72.9574 65.5574 72.8233 65.5038 72.7429L63.3319 67.0049H62.3398L65.2356 74.5661H65.7987L68.6409 67.0049Z" fill="#143109"/>
<path fill-rule="evenodd" clip-rule="evenodd" d="M74.0838 74.3516V73.6009H70.759V71H73.4135V70.2224H70.759V67.7825H73.9766V67.0049H69.8206V74.3516H74.0838Z" fill="#143109"/>
<path fill-rule="evenodd" clip-rule="evenodd" d="M80.8127 74.3531L78.6408 71.0551C79.1771 70.921 79.4452 70.7869 79.7669 70.492C80.1691 70.0898 80.4105 69.5267 80.4105 68.9637C80.4105 68.4006 80.196 67.8643 79.8206 67.5158C79.3916 67.0867 78.9894 66.9795 78.0777 66.9795H75.8254V74.3531H76.7371V71.1891H77.7023L79.7401 74.3531H80.7858H80.8127ZM79.4184 68.9905C79.4184 69.9289 78.9089 70.4384 77.9437 70.4384H76.7371V67.7839H77.9437C78.5872 67.7839 78.7749 67.8107 79.0162 67.9984C79.2843 68.2129 79.4184 68.5346 79.4184 69.0173V68.9905Z" fill="#143109"/>
<path fill-rule="evenodd" clip-rule="evenodd" d="M86.3909 67.4888C85.9887 67.2475 85.801 67.1402 85.506 67.0598C85.1307 66.9525 84.6748 66.8721 84.2726 66.8721C82.8247 66.8721 81.8327 67.6496 81.8327 68.8294C81.8327 69.5802 82.3153 70.1701 83.4146 70.7599C84.1118 71.1353 84.514 71.3498 84.648 71.4303C84.943 71.5912 85.1575 71.8057 85.2647 72.047C85.3452 72.181 85.372 72.3687 85.372 72.5564C85.372 73.2536 84.8357 73.6826 83.9777 73.6826C83.6023 73.6826 83.2538 73.6021 82.932 73.4949C82.6639 73.3876 82.503 73.2804 82.1008 73.0122L81.6182 73.7362C82.1008 74.0579 82.2885 74.1652 82.5566 74.2725C82.932 74.4333 83.4146 74.5138 83.9241 74.5138C85.4256 74.5138 86.3372 73.7362 86.3372 72.476C86.3372 71.9397 86.1227 71.4303 85.7742 71.1353C85.506 70.894 85.1038 70.6527 84.5944 70.3846C83.0929 69.5802 82.7711 69.312 82.7711 68.7758C82.7711 68.1591 83.3342 67.7301 84.1922 67.7301C84.4872 67.7301 84.9162 67.8105 85.2111 67.891C85.4524 67.9714 85.6133 68.0518 85.9887 68.2663L86.4177 67.5156L86.3909 67.4888Z" fill="#143109"/>
<path d="M89.0178 67.0049H88.1062V74.3785H89.0178V67.0049Z" fill="#143109"/>
<path fill-rule="evenodd" clip-rule="evenodd" d="M97.0362 70.6514C97.0362 68.5332 95.481 67.0049 93.336 67.0049H90.896V74.3785H93.336C94.623 74.3785 95.4006 74.0835 96.0441 73.3059C96.6876 72.582 97.0362 71.6167 97.0362 70.6514ZM96.0709 70.6514C96.0709 71.4558 95.6955 72.3675 95.1593 72.9306C94.7034 73.4132 94.1404 73.6009 93.1751 73.6009H91.7808V67.7825H93.1751C94.8375 67.7825 96.0709 69.0159 96.0709 70.6514Z" fill="#143109"/>
<path fill-rule="evenodd" clip-rule="evenodd" d="M103.793 74.3518L101.058 66.7905H100.066L97.3308 74.3518H98.3229L99.0737 72.1799H102.05L102.801 74.3518H103.766H103.793ZM101.782 71.3487H99.3954L100.602 67.9703L101.809 71.3487H101.782Z" fill="#143109"/>
<path fill-rule="evenodd" clip-rule="evenodd" d="M111.059 70.6514C111.059 68.5332 109.504 67.0049 107.332 67.0049H104.892V74.3785H107.332C108.619 74.3785 109.397 74.0835 110.04 73.3059C110.684 72.582 111.059 71.6167 111.059 70.6514ZM110.094 70.6514C110.094 71.4558 109.719 72.3675 109.182 72.9306C108.7 73.4132 108.164 73.6009 107.198 73.6009H105.804V67.7825H107.198C108.861 67.7825 110.094 69.0159 110.094 70.6514Z" fill="#143109"/>
<path fill-rule="evenodd" clip-rule="evenodd" d="M116.744 74.3516V73.6009H113.393V71H116.074V70.2224H113.393V67.7825H116.637V67.0049H112.481V74.3516H116.744Z" fill="#143109"/>
<path fill-rule="evenodd" clip-rule="evenodd" d="M127.442 70.6514C127.442 68.5332 125.886 67.0049 123.741 67.0049H121.275V74.3785H123.715C125.002 74.3785 125.779 74.0835 126.423 73.3059C127.066 72.582 127.415 71.6167 127.415 70.6514H127.442ZM126.503 70.6514C126.503 71.4558 126.128 72.3675 125.592 72.9306C125.136 73.4132 124.573 73.6009 123.607 73.6009H122.213V67.7825H123.607C125.27 67.7825 126.503 69.0159 126.503 70.6514Z" fill="#143109"/>
<path fill-rule="evenodd" clip-rule="evenodd" d="M135.941 70.6795C135.941 68.4808 134.386 66.8721 132.241 66.8721C130.096 66.8721 128.541 68.4808 128.541 70.6795C128.541 72.8782 130.096 74.5138 132.241 74.5138C134.386 74.5138 135.941 72.905 135.941 70.6795ZM134.949 70.6795C134.949 72.3419 133.742 73.7094 132.268 73.7094C130.793 73.7094 129.586 72.3419 129.586 70.6795C129.586 69.0171 130.793 67.6765 132.268 67.6765C133.742 67.6765 134.949 69.0439 134.949 70.6795Z" fill="#143109"/>
<path fill-rule="evenodd" clip-rule="evenodd" d="M145.192 69.1767C145.192 68.4796 145.004 67.9702 144.629 67.568C144.227 67.139 143.717 67.0049 142.833 67.0049H140.527V74.3785H141.438V71.5899C142.082 71.6435 142.296 71.6703 142.564 71.6703C144.173 71.6703 145.192 70.7319 145.192 69.1767ZM144.254 69.2304C144.254 69.9275 143.932 70.4906 143.396 70.7319C143.154 70.8391 142.859 70.8928 142.43 70.8928C142.189 70.8928 141.975 70.8928 141.465 70.8391V67.8093H142.725C143.315 67.8093 143.637 67.8897 143.851 68.131C144.12 68.3992 144.28 68.8014 144.28 69.284L144.254 69.2304Z" fill="#143109"/>
<path fill-rule="evenodd" clip-rule="evenodd" d="M153.45 70.6795C153.45 68.4808 151.895 66.8721 149.75 66.8721C147.605 66.8721 146.05 68.4808 146.05 70.6795C146.05 72.8782 147.605 74.5138 149.75 74.5138C151.895 74.5138 153.45 72.905 153.45 70.6795ZM152.458 70.6795C152.458 72.3419 151.252 73.7094 149.777 73.7094C148.302 73.7094 147.069 72.3419 147.069 70.6795C147.069 69.0171 148.275 67.6765 149.777 67.6765C151.278 67.6765 152.458 69.0439 152.458 70.6795Z" fill="#143109"/>
<path fill-rule="evenodd" clip-rule="evenodd" d="M159.858 74.3531L157.686 71.0551C158.222 70.921 158.49 70.7869 158.812 70.492C159.214 70.0898 159.456 69.5267 159.456 68.9637C159.456 68.4006 159.214 67.8643 158.893 67.5158C158.464 67.0867 158.035 66.9795 157.15 66.9795H154.897V74.3531H155.809V71.1891H156.774L158.812 74.3531H159.858ZM158.49 68.9905C158.49 69.9289 157.981 70.4384 157.016 70.4384H155.809V67.7839H157.016C157.659 67.7839 157.847 67.8107 158.088 67.9984C158.356 68.2129 158.49 68.5346 158.49 69.0173V68.9905Z" fill="#143109"/>
<path fill-rule="evenodd" clip-rule="evenodd" d="M166.105 67.7825V67.0049H160.287V67.7825H162.727V74.3516H163.638V67.7825H166.105Z" fill="#143109"/>
<path fill-rule="evenodd" clip-rule="evenodd" d="M174.15 70.6795C174.15 68.4808 172.595 66.8721 170.45 66.8721C168.305 66.8721 166.75 68.4808 166.75 70.6795C166.75 72.8782 168.305 74.5138 170.45 74.5138C172.595 74.5138 174.15 72.905 174.15 70.6795ZM173.158 70.6795C173.158 72.3419 171.951 73.7094 170.477 73.7094C169.002 73.7094 167.795 72.3419 167.795 70.6795C167.795 69.0171 169.002 67.6765 170.477 67.6765C171.951 67.6765 173.158 69.0439 173.158 70.6795Z" fill="#143109"/>
<path fill-rule="evenodd" clip-rule="evenodd" d="M48.505 55.3687V54.1621H43.9468V61.5357H45.3411V58.4522H47.9419V57.2724H45.3411V55.3687H48.505Z" fill="#143109"/>
<path fill-rule="evenodd" clip-rule="evenodd" d="M55.3675 61.5357L52.713 54.1621H51.4528L48.7715 61.5357H50.2462L50.8629 59.7124H53.3297L53.9196 61.5357H55.3943H55.3675ZM52.9543 58.5326H51.2651L52.0963 55.8781L52.9543 58.5326Z" fill="#143109"/>
<path fill-rule="evenodd" clip-rule="evenodd" d="M61.8835 54.7518C61.2399 54.2692 60.516 54.0547 59.5775 54.0547C58.371 54.0547 57.5398 54.3496 56.789 55.0736C56.065 55.7975 55.6628 56.7628 55.6628 57.8353C55.6628 58.9883 56.1187 60.0608 56.8962 60.7847C57.5934 61.4014 58.3978 61.6964 59.5775 61.6964C60.0065 61.6964 60.4087 61.6428 60.7573 61.5623C61.1059 61.4819 61.2936 61.4014 61.7494 61.2138L61.4813 60.034C60.8377 60.3021 60.3819 60.3826 59.8725 60.3826C58.2637 60.3826 57.218 59.3368 57.218 57.7549C57.218 56.3606 58.2369 55.3417 59.658 55.3417C60.3015 55.3417 60.8646 55.5026 61.3472 55.8512L61.8835 54.725V54.7518Z" fill="#143109"/>
<path fill-rule="evenodd" clip-rule="evenodd" d="M69.1496 58.6662V54.1885H67.7285V58.7467C67.7285 59.8192 67.1654 60.3823 66.0929 60.3823C64.9132 60.3823 64.3501 59.846 64.3501 58.7467V54.1885H62.9558V58.6662C62.9558 60.0069 63.1971 60.6236 63.9479 61.1599C64.511 61.5352 65.1008 61.6961 66.0393 61.6961C66.9778 61.6961 67.5676 61.5352 68.1307 61.1599C68.9083 60.6236 69.1496 60.0337 69.1496 58.6662Z" fill="#143109"/>
<path fill-rule="evenodd" clip-rule="evenodd" d="M75.3715 61.5357V60.3291H72.3684V54.1621H70.9741V61.5357H75.3715Z" fill="#143109"/>
<path fill-rule="evenodd" clip-rule="evenodd" d="M83.1461 57.835C83.1461 56.8698 82.7975 55.9313 82.154 55.261C81.4301 54.4834 80.5453 54.1885 79.1778 54.1885H76.4429V61.562H79.151C80.4648 61.562 81.4569 61.2135 82.1272 60.4895C82.7707 59.7924 83.1461 58.8539 83.1461 57.8619V57.835ZM81.6178 57.835C81.6178 59.417 80.6793 60.275 79.0169 60.275H77.8908V55.3951H79.0169C79.8213 55.3951 80.3844 55.5291 80.7866 55.8241C81.3228 56.2263 81.6178 56.977 81.6178 57.835Z" fill="#143109"/>
<path fill-rule="evenodd" clip-rule="evenodd" d="M89.9302 61.5357L87.2489 54.1621H85.9887L83.3342 61.5357H84.8089L85.4256 59.7124H87.8924L88.4823 61.5357H89.957H89.9302ZM87.4902 58.5326H85.7742L86.6322 55.8781L87.4902 58.5326Z" fill="#143109"/>
<path fill-rule="evenodd" clip-rule="evenodd" d="M97.5992 57.835C97.5992 56.8698 97.2507 55.9313 96.6072 55.261C95.8832 54.4834 95.0252 54.1885 93.6309 54.1885H90.896V61.562H93.6041C94.9179 61.562 95.91 61.2135 96.5803 60.4895C97.2239 59.7924 97.5992 58.8539 97.5992 57.8619V57.835ZM96.0709 57.835C96.0709 59.417 95.1324 60.275 93.47 60.275H92.3707V55.3951H93.47C94.2744 55.3951 94.8375 55.5291 95.2397 55.8241C95.776 56.2263 96.0977 56.977 96.0977 57.835H96.0709Z" fill="#143109"/>
<path fill-rule="evenodd" clip-rule="evenodd" d="M103.39 61.5357V60.3291H100.172V58.3717H102.693V57.192H100.172V55.3687H103.256V54.1621H98.7781V61.5357H103.39Z" fill="#143109"/>
<path fill-rule="evenodd" clip-rule="evenodd" d="M114.222 57.835C114.222 56.8698 113.873 55.9313 113.23 55.261C112.506 54.4834 111.621 54.1885 110.227 54.1885H107.492V61.562H110.227C111.541 61.562 112.533 61.2135 113.203 60.4895C113.847 59.7924 114.222 58.8539 114.222 57.8619V57.835ZM112.694 57.835C112.694 59.417 111.755 60.275 110.093 60.275H108.967V55.3951H110.093C110.897 55.3951 111.46 55.5291 111.862 55.8241C112.399 56.2263 112.72 56.977 112.72 57.835H112.694Z" fill="#143109"/>
<path fill-rule="evenodd" clip-rule="evenodd" d="M119.908 61.5357V60.3291H116.691V58.3717H119.184V57.192H116.691V55.3687H119.747V54.1621H115.27V61.5357H119.908Z" fill="#143109"/>
<path fill-rule="evenodd" clip-rule="evenodd" d="M129.292 59.5779C129.292 58.4249 128.595 57.701 127.469 57.6742C128.059 57.6474 128.354 57.5133 128.676 57.1379C128.944 56.8161 129.105 56.3871 129.105 55.9849C129.105 55.5023 128.89 54.9929 128.515 54.6711C128.113 54.2957 127.63 54.1885 126.665 54.1885H123.983V61.562H126.986C128.461 61.562 129.266 60.8649 129.266 59.6047L129.292 59.5779ZM127.523 56.2263C127.523 56.843 127.094 57.1915 126.316 57.1915H125.485V55.2878H126.397C127.121 55.2878 127.523 55.6364 127.523 56.2263ZM127.737 59.417C127.737 59.7924 127.55 60.141 127.255 60.275C127.04 60.3823 126.852 60.4091 126.397 60.4091H125.485V58.3713H126.397C127.255 58.3713 127.737 58.7467 127.737 59.417Z" fill="#143109"/>
<path fill-rule="evenodd" clip-rule="evenodd" d="M135.083 61.5357V60.3291H131.838V58.3717H134.359V57.192H131.838V55.3687H134.922V54.1621H130.444V61.5357H135.083Z" fill="#143109"/>
<path fill-rule="evenodd" clip-rule="evenodd" d="M140.633 61.5357V60.3291H137.63V54.1621H136.236V61.5357H140.633Z" fill="#143109"/>
<path fill-rule="evenodd" clip-rule="evenodd" d="M147.927 61.5357L145.245 54.1621H143.985L141.331 61.5357H142.805L143.422 59.7124H145.889L146.479 61.5357H147.953H147.927ZM145.487 58.5326H143.771L144.629 55.8781L145.487 58.5326Z" fill="#143109"/>
<path fill-rule="evenodd" clip-rule="evenodd" d="M153.558 54.6714C153.075 54.4301 152.86 54.3496 152.512 54.2424C152.056 54.1083 151.627 54.0547 151.118 54.0547C150.26 54.0547 149.804 54.1888 149.267 54.5373C149.026 54.6982 148.838 54.8859 148.731 55.0736C148.544 55.3417 148.436 55.7171 148.436 56.0925C148.436 56.8969 148.838 57.3795 150.152 58.1303L151.278 58.7738C151.761 59.0419 151.922 59.2564 151.922 59.5513C151.922 60.0072 151.493 60.3021 150.849 60.3021C150.555 60.3021 150.152 60.2217 149.777 60.0876C149.482 59.9804 149.268 59.8731 148.731 59.5782L148.141 60.8652C148.356 60.9724 148.517 61.0529 148.624 61.0797C149.402 61.4283 149.643 61.5087 150.179 61.5891C150.394 61.5891 150.608 61.6428 150.823 61.6428C152.458 61.6428 153.424 60.8652 153.424 59.5513C153.424 59.0419 153.236 58.5593 152.914 58.2375C152.565 57.8889 151.842 57.4331 150.715 56.8164C150.179 56.5483 150.018 56.3606 150.018 56.0388C150.018 55.6367 150.447 55.3685 151.091 55.3685C151.573 55.3685 152.217 55.5562 152.995 55.9048L153.558 54.6446V54.6714Z" fill="#143109"/>
<path fill-rule="evenodd" clip-rule="evenodd" d="M163.291 61.5357L160.61 54.1621H159.35L156.668 61.5357H158.143L158.733 59.7124H161.2L161.79 61.5357H163.264H163.291ZM160.878 58.5326H159.162L159.993 55.8781L160.851 58.5326H160.878Z" fill="#143109"/>
<path fill-rule="evenodd" clip-rule="evenodd" d="M169.671 61.5356L167.848 58.3717C168.465 58.2108 168.706 58.0499 169.001 57.6746C169.269 57.326 169.403 56.8702 169.403 56.2803C169.403 55.5832 169.189 55.0469 168.813 54.6715C168.384 54.2693 167.902 54.1353 166.802 54.1353H164.336V61.5088H165.757V58.5594H166.454L168.143 61.5088H169.698L169.671 61.5356ZM167.929 56.3339C167.929 57.0579 167.526 57.3796 166.642 57.3796H165.73V55.3418H166.642C167.553 55.3418 167.929 55.61 167.929 56.3339Z" fill="#143109"/>
<path fill-rule="evenodd" clip-rule="evenodd" d="M175.758 55.3687V54.1621H169.939V55.3687H172.138V61.5357H173.532V55.3687H175.758Z" fill="#143109"/>
<path fill-rule="evenodd" clip-rule="evenodd" d="M181.362 61.5357V60.3291H178.145V58.3717H180.665V57.192H178.145V55.3687H181.228V54.1621H176.75V61.5357H181.362Z" fill="#143109"/>
<path fill-rule="evenodd" clip-rule="evenodd" d="M187.368 54.6714C186.885 54.4301 186.671 54.3496 186.322 54.2424C185.866 54.1083 185.411 54.0547 184.928 54.0547C184.07 54.0547 183.614 54.1888 183.078 54.5373C182.836 54.6982 182.649 54.8859 182.542 55.0736C182.354 55.3417 182.247 55.7171 182.247 56.0925C182.247 56.8969 182.649 57.3795 183.963 58.1303L185.089 58.7738C185.571 59.0419 185.732 59.2564 185.732 59.5513C185.732 60.0072 185.303 60.3021 184.66 60.3021C184.365 60.3021 183.963 60.2217 183.587 60.0876C183.292 59.9804 183.078 59.8731 182.542 59.5782L181.952 60.8652C182.166 60.9724 182.327 61.0529 182.434 61.0797C183.212 61.4283 183.453 61.5087 183.989 61.5891C184.204 61.5891 184.418 61.6428 184.633 61.6428C186.269 61.6428 187.234 60.8652 187.234 59.5513C187.234 59.0419 187.046 58.5593 186.724 58.2375C186.376 57.8889 185.652 57.4331 184.499 56.8164C183.989 56.5483 183.802 56.3606 183.802 56.0388C183.802 55.6367 184.231 55.3685 184.874 55.3685C185.357 55.3685 186 55.5562 186.778 55.9048L187.341 54.6446L187.368 54.6714Z" fill="#143109"/>
<path fill-rule="evenodd" clip-rule="evenodd" d="M22.4692 51.9637C22.6569 56.4683 20.3241 59.9539 20.4582 64.4317L20.3509 64.539L20.1364 64.2708C19.9756 59.9003 18.0182 56.0393 18.2327 51.6955C19.7074 51.6151 21.0749 51.776 22.4692 51.9637Z" fill="#143109"/>
<path fill-rule="evenodd" clip-rule="evenodd" d="M17.1865 55.9586C18.0177 58.7472 17.6155 62.072 18.5271 64.8337C20.6454 68.7216 18.5271 73.387 18.3663 77.5162L16.972 85.1043C11.3144 84.5144 5.46922 80.1439 3.5655 74.5936C1.0987 67.8099 2.97561 60.0074 8.7404 55.3687C10.9123 53.6527 13.3522 52.6338 16.0067 52.0171C16.5162 53.2505 16.8915 54.6179 17.1865 55.9854V55.9586Z" fill="#143109"/>
<path fill-rule="evenodd" clip-rule="evenodd" d="M31.477 56.7091C30.2168 59.0419 28.4204 61.1601 27.0529 63.466C25.5782 66.1741 23.165 68.5069 21.9316 71.2954C21.449 71.8317 20.9395 72.6092 20.2424 72.7969C20.0279 71.2954 20.8591 69.9279 20.8591 68.48C21.3417 65.2089 21.5562 61.8304 22.9773 58.9346L24.4252 52.4995C26.9725 53.4112 29.4929 54.5909 31.477 56.736V56.7091Z" fill="#143109"/>
<path fill-rule="evenodd" clip-rule="evenodd" d="M34.9363 75.0202C32.4427 81.1603 26.0881 85.1287 19.5725 85.2895C19.1167 84.1366 19.2239 82.7155 19.0631 81.4285C18.7145 76.5217 23.1654 73.331 24.9887 69.2018C26.2757 66.44 28.7962 63.9464 31.1289 61.8282C31.826 60.7557 32.4695 59.6563 32.9254 58.4766C36.4647 62.8739 37.2423 69.7648 34.9363 75.0202Z" fill="#143109"/>
<path d="M227.882 6.70264H220.562V13.8349H227.882V6.70264Z" fill="#143109"/>
<path d="M331.14 34.7749H325V40.9151H331.14V34.7749Z" fill="#143109"/>
<path d="M227.883 17.106L220.563 21.1279V40.9159H227.883V17.106Z" fill="#143109"/>
<path d="M313.844 22.0145C308.375 20.6202 307.034 19.9499 307.034 17.8585V17.778C307.034 16.2497 308.428 15.0163 311.11 15.0163C313.791 15.0163 316.526 16.1961 319.314 18.1266L322.934 12.8981C319.717 10.324 315.802 8.87612 311.19 8.87612C306.069 8.87612 302.1 11.2625 300.706 15.1235C297.784 11.9328 293.386 9.94864 288.104 9.94864H277.111V29.1735L268.825 9.70733H262.551L251.853 34.8579H240.323L245.498 30.8628C251.129 26.4923 253.864 23.8378 253.864 18.502C253.864 12.5495 249.681 8.66162 242.924 8.66162C237.24 8.66162 234.21 10.9675 231.073 15.2576L235.98 19.1991C238.339 16.3033 240.028 14.9359 242.468 14.9359C244.908 14.9359 246.732 16.3838 246.732 19.0651C246.732 21.7464 245.176 23.4356 241.235 26.7068L230.644 35.3673V40.9176H256.223L258.69 34.8847H279.551L282.125 40.9176H288.104C297.596 40.9176 304.245 34.4557 304.54 26.0632C306.176 26.9213 308.241 27.538 310.6 28.1547C315.882 29.5221 316.955 30.4069 316.955 32.1766V32.257C316.955 34.1071 315.239 35.2333 312.397 35.2333C310.037 35.2333 307.946 34.5898 305.988 33.4904L302.503 38.8798C305.532 40.5423 308.911 41.3735 312.263 41.3735C319.073 41.3735 323.873 37.861 323.873 31.5867V31.5063C323.873 26.0096 320.253 23.7037 313.844 22.0413V22.0145ZM261.13 28.8786L265.608 17.9121L270.086 28.8786H261.13ZM297.435 25.527C297.435 31.0236 293.681 34.7775 288.104 34.7775H283.921V16.1156H288.104C293.681 16.1156 297.435 19.9767 297.435 25.4465V25.527Z" fill="#143109"/>
<path d="M444.72 13.9676V6.43311H449.6V7.452H445.953V9.65066H449.251V10.6696H445.953V13.9676H444.72Z" fill="#143109"/>
<path d="M454.587 13.0561C454.346 13.646 453.89 14.1286 452.979 14.1286C451.853 14.1286 451.102 13.3511 451.102 12.0104V8.41748H452.282V11.8227C452.282 12.7076 452.657 13.1634 453.408 13.1634C454.024 13.1634 454.614 12.8684 454.614 12.1981V8.41748H455.794V13.9946H454.587V13.0561Z" fill="#143109"/>
<path d="M457.616 14.0217V8.44461H458.823V9.38307H458.877C459.118 8.79318 459.574 8.31055 460.485 8.31055C461.612 8.31055 462.362 9.08812 462.362 10.4288V14.0217H461.183V10.6165C461.183 9.73163 460.807 9.27581 460.056 9.27581C459.44 9.27581 458.85 9.57076 458.85 10.2411V14.0217H457.67H457.616Z" fill="#143109"/>
<path d="M467.645 13.11H467.591C467.269 13.7803 466.733 14.1825 465.902 14.1825C464.588 14.1825 463.757 13.1636 463.757 11.2599C463.757 9.35614 464.615 8.36406 465.929 8.36406C466.76 8.36406 467.296 8.79307 467.618 9.43658H467.672V6.08496H468.851L468.824 14.0752H467.645V13.11ZM467.645 12.2251V10.375C467.645 9.70471 467.082 9.35614 466.384 9.35614C465.5 9.35614 464.99 9.94603 464.99 10.8577V11.7693C464.99 12.681 465.5 13.2708 466.358 13.2708C467.028 13.2708 467.618 12.9223 467.618 12.2519L467.645 12.2251Z" fill="#143109"/>
<path d="M474.964 14.1018C474.294 14.1018 473.972 13.7264 473.892 13.1634H473.838C473.623 13.8337 473.034 14.2359 472.149 14.2359C471.023 14.2359 470.299 13.5924 470.299 12.5467C470.299 11.501 471.103 10.8843 472.739 10.8843H473.811V10.4553C473.811 9.7045 473.409 9.32912 472.631 9.32912C471.907 9.32912 471.505 9.62406 471.183 10.0799L470.486 9.51681C470.808 8.92693 471.559 8.41748 472.739 8.41748C474.133 8.41748 474.991 9.14143 474.991 10.4016V13.1902H475.688V14.1286H474.964V14.1018ZM473.811 12.4394V11.635H472.765C471.907 11.635 471.505 11.9032 471.478 12.3858V12.6003C471.478 13.1098 471.854 13.3511 472.497 13.3511C473.248 13.3511 473.811 12.9757 473.811 12.4394Z" fill="#143109"/>
<path d="M481.748 9.75756L480.837 10.2402C480.649 9.73074 480.247 9.40899 479.576 9.38217C478.692 9.38217 478.182 9.97206 478.155 10.8569V11.7953C478.155 12.6802 478.665 13.2701 479.576 13.2701C480.274 13.2701 480.676 12.9215 480.944 12.3852L481.802 12.9215C481.453 13.6723 480.756 14.2085 479.657 14.2353L479.55 14.718L479.603 14.7716C479.764 14.718 479.925 14.6911 480.059 14.6911C480.488 14.6911 480.81 14.9325 480.81 15.4151C480.81 16.0854 480.193 16.3267 479.523 16.3267C478.852 16.3267 478.504 16.0854 478.343 15.8709L478.799 15.3615C478.933 15.5223 479.147 15.6564 479.469 15.6564C479.737 15.6564 479.952 15.5492 479.952 15.3347C479.952 15.1738 479.818 14.9861 479.201 14.9056H478.933L479.094 14.1281C477.753 13.9136 476.976 12.841 476.976 11.2591C476.976 9.48943 477.968 8.36328 479.63 8.36328C480.783 8.36328 481.453 8.89954 481.802 9.67712L481.748 9.75756Z" fill="#143109"/>
<path d="M487.915 14.154C487.244 14.154 486.923 13.7786 486.842 13.2155H486.789C486.574 13.8858 485.984 14.288 485.099 14.288C483.973 14.288 483.249 13.6445 483.249 12.5988C483.249 11.5531 484.054 10.9364 485.689 10.9364H486.762V10.5074C486.762 9.75664 486.36 9.38126 485.582 9.38126C484.858 9.38126 484.456 9.6762 484.134 10.132L483.437 9.56895C483.759 8.97906 484.509 8.46962 485.689 8.46962C487.084 8.46962 487.942 9.19357 487.942 10.4538V13.2423H488.639V14.1808H487.915V14.154ZM485.689 7.3971C485.368 7.23622 485.126 7.15578 484.885 7.15578C484.644 7.15578 484.483 7.26303 484.268 7.42391L483.839 6.86084C484.054 6.53908 484.429 6.24414 484.965 6.24414C485.314 6.24414 485.555 6.37821 485.796 6.48546C486.118 6.64634 486.36 6.72677 486.601 6.72677C486.842 6.72677 487.003 6.61952 487.218 6.45864L487.647 7.02172C487.432 7.34347 487.057 7.63842 486.52 7.63842C486.172 7.63842 485.931 7.50435 485.689 7.3971ZM486.762 12.4916V11.6872H485.716C484.858 11.6872 484.456 11.9553 484.429 12.4379V12.6524C484.429 13.1619 484.804 13.4032 485.448 13.4032C486.199 13.4032 486.762 13.0278 486.762 12.4916Z" fill="#143109"/>
<path d="M489.686 11.3953C489.686 9.62566 490.704 8.49951 492.34 8.49951C493.976 8.49951 494.968 9.65247 494.968 11.4221C494.968 13.1918 493.949 14.3179 492.313 14.3179C490.678 14.3179 489.686 13.165 489.686 11.3953ZM493.734 11.8243V10.9931C493.734 9.94741 493.171 9.43797 492.34 9.41115C491.509 9.38434 490.919 9.9206 490.919 10.9663V11.7975C490.919 12.8432 491.482 13.3527 492.313 13.3795C493.144 13.4063 493.734 12.87 493.734 11.8243Z" fill="#143109"/>
<path d="M444.613 21.3431H445.793V22.3084H445.846C446.168 21.638 446.704 21.2358 447.535 21.2358C448.849 21.2358 449.68 22.2547 449.68 24.1585C449.68 26.0622 448.822 27.0543 447.509 27.0543C446.677 27.0543 446.141 26.6252 445.819 25.9817H445.766V29.092H444.586L444.613 21.3699V21.3431ZM448.42 24.5875V23.6758C448.42 22.7642 447.911 22.1743 447.053 22.1743C446.382 22.1743 445.793 22.5229 445.793 23.1932V25.0433C445.793 25.7136 446.356 26.0622 447.053 26.0622C447.938 26.0622 448.447 25.4723 448.447 24.5606L448.42 24.5875Z" fill="#143109"/>
<path d="M455.498 26.9451C454.828 26.9451 454.506 26.5697 454.426 26.0066H454.372C454.158 26.677 453.568 27.0792 452.683 27.0792C451.557 27.0792 450.833 26.4356 450.833 25.3899C450.833 24.3442 451.637 23.7275 453.273 23.7275H454.345V23.2985C454.345 22.5478 453.943 22.1724 453.165 22.1724C452.442 22.1724 452.039 22.4673 451.718 22.9231L451.02 22.3601C451.342 21.7702 452.093 21.2607 453.273 21.2607C454.667 21.2607 455.525 21.9847 455.525 23.2449V26.0335H456.222V26.9719H455.498V26.9451ZM454.345 25.2827V24.4783H453.3C452.442 24.4783 452.039 24.7464 452.013 25.2291V25.4436C452.013 25.9262 452.388 26.1943 453.031 26.1943C453.782 26.1943 454.345 25.8189 454.345 25.2827Z" fill="#143109"/>
<path d="M457.483 26.0073H458.957V22.3608H457.483V21.3955H460.137V22.897H460.191C460.405 22.1195 460.888 21.4223 462.041 21.4223H462.711V22.5485H461.612C460.647 22.5485 460.137 23.1652 460.137 23.9427V26.0342H462.148V26.9726H457.483V26.0342V26.0073Z" fill="#143109"/>
<path d="M468.449 26.9983C467.779 26.9983 467.457 26.6229 467.377 26.0599H467.323C467.109 26.7302 466.519 27.1324 465.634 27.1324C464.508 27.1324 463.784 26.4889 463.784 25.4432C463.784 24.3975 464.588 23.7808 466.224 23.7808H467.296V23.3518C467.296 22.601 466.894 22.2256 466.117 22.2256C465.393 22.2256 464.991 22.5205 464.669 22.9764L463.972 22.4133C464.293 21.8234 465.044 21.314 466.224 21.314C467.618 21.314 468.476 22.0379 468.476 23.2981V26.0867H469.173V27.0251H468.449V26.9983ZM467.296 25.3359V24.5315H466.251C465.393 24.5315 464.991 24.7997 464.964 25.2823V25.4968C464.964 25.9794 465.339 26.2476 465.983 26.2476C466.733 26.2476 467.296 25.8722 467.296 25.3359Z" fill="#143109"/>
<path d="M481.373 27.0799C480.702 27.0799 480.381 26.7045 480.3 26.1414H480.247C480.032 26.8117 479.442 27.2139 478.557 27.2139C477.431 27.2139 476.707 26.5704 476.707 25.5247C476.707 24.479 477.512 23.8623 479.147 23.8623H480.22V23.4333C480.22 22.6825 479.818 22.3071 479.04 22.3071C478.316 22.3071 477.914 22.6021 477.592 23.0579L476.895 22.4948C477.217 21.905 477.967 21.3955 479.147 21.3955C480.542 21.3955 481.4 22.1195 481.4 23.3797V26.1682H482.097V27.1067H481.373V27.0799ZM480.22 25.3906V24.5863H479.174C478.316 24.5863 477.914 24.8544 477.887 25.337V25.5515C477.887 26.0342 478.262 26.3023 478.906 26.3023C479.657 26.3023 480.22 25.9269 480.22 25.3906Z" fill="#143109"/>
<path d="M489.658 23.3537C489.658 20.8601 490.597 19.4658 492.501 19.4658C493.949 19.4658 494.619 20.3238 494.967 21.3427L493.868 21.6913C493.654 20.9942 493.332 20.4579 492.474 20.4579C491.401 20.4579 490.945 21.3159 490.945 22.7102V23.9704C490.945 25.3379 491.401 26.2227 492.474 26.2227C493.332 26.2227 493.654 25.6864 493.868 24.9893L494.967 25.3647C494.619 26.3836 493.949 27.2148 492.501 27.2148C490.597 27.2148 489.685 25.7937 489.685 23.3001L489.658 23.3537Z" fill="#143109"/>
<path d="M496.576 26.1943H498.479V22.5477H496.576V21.5824H499.659V26.2211H501.429V27.1863H496.576V26.2211V26.1943ZM498.292 19.92V19.7055C498.292 19.357 498.506 19.062 499.096 19.062C499.686 19.062 499.901 19.357 499.901 19.7055V19.92C499.901 20.2686 499.686 20.5635 499.096 20.5635C498.506 20.5635 498.292 20.2686 498.292 19.92Z" fill="#143109"/>
<path d="M502.608 24.3984C502.608 22.6019 503.654 21.4758 505.236 21.4758C506.818 21.4758 507.783 22.6019 507.783 24.2375V24.6665H503.788V24.8542C503.788 25.739 504.351 26.3557 505.316 26.3557C506.04 26.3557 506.55 26.034 506.871 25.4977L507.595 26.1412C507.22 26.7847 506.442 27.2942 505.289 27.2942C503.573 27.2942 502.581 26.1412 502.608 24.3716V24.3984ZM505.826 18.8213L507.113 20.4569L506.496 20.9127L505.236 19.6525L503.949 20.8859L503.359 20.4301L504.673 18.8213H505.853H505.826ZM503.788 23.8353V23.9158H506.577V23.8085C506.577 22.9237 506.04 22.3606 505.236 22.3606C504.431 22.3606 503.788 22.9773 503.788 23.8353Z" fill="#143109"/>
<path d="M509.312 27.1872V21.6101H510.518V22.5486H510.572C510.813 21.9587 511.269 21.4761 512.181 21.4761C513.307 21.4761 514.058 22.2537 514.058 23.5943V27.1872H512.878V23.782C512.878 22.8972 512.503 22.4413 511.752 22.4413C511.135 22.4413 510.545 22.7363 510.545 23.4066V27.1872H509.365H509.312Z" fill="#143109"/>
<path d="M515.694 24.4251C515.694 22.6554 516.686 21.5293 518.348 21.5293C519.501 21.5293 520.171 22.0656 520.52 22.8431L519.608 23.3258C519.421 22.8163 519.018 22.4946 518.348 22.4678C517.463 22.4678 516.954 23.0576 516.927 23.9425V24.8809C516.927 25.7657 517.436 26.3556 518.348 26.3556C519.045 26.3556 519.447 26.0071 519.716 25.4708L520.574 26.0071C520.225 26.7846 519.501 27.3209 518.321 27.3209C516.659 27.3209 515.694 26.1679 515.694 24.3983V24.4251Z" fill="#143109"/>
<path d="M522.45 26.3008H524.354V22.6542H522.45V21.6889H525.534V26.3276H527.303V27.2928H522.45V26.3276V26.3008ZM524.166 20.0533V19.8388C524.166 19.4903 524.381 19.1953 524.971 19.1953C525.56 19.1953 525.775 19.4903 525.775 19.8388V20.0533C525.775 20.4019 525.56 20.6968 524.971 20.6968C524.381 20.6968 524.166 20.4019 524.166 20.0533Z" fill="#143109"/>
<path d="M533.122 27.2937C532.452 27.2937 532.13 26.9183 532.05 26.3553H531.996C531.782 27.0256 531.192 27.4278 530.307 27.4278C529.181 27.4278 528.457 26.7843 528.457 25.7386C528.457 24.6929 529.261 24.0762 530.897 24.0762H531.969V23.6472C531.969 22.8964 531.567 22.521 530.79 22.521C530.066 22.521 529.663 22.816 529.342 23.2718L528.644 22.7087C528.966 22.1188 529.717 21.6094 530.897 21.6094C532.291 21.6094 533.149 22.3333 533.149 23.5935V26.3821H533.846V27.3205H533.122V27.2937ZM531.996 25.6313V24.8269H530.95C530.092 24.8269 529.69 25.0951 529.663 25.5777V25.7922C529.663 26.2748 530.039 26.543 530.682 26.543C531.433 26.543 531.996 26.1676 531.996 25.6313Z" fill="#143109"/>
<path d="M444.318 37.0803C444.318 35.2839 445.363 34.1577 446.945 34.1577C448.527 34.1577 449.493 35.2839 449.493 36.9195V37.3485H445.497V37.5362C445.497 38.421 446.06 39.0377 447.026 39.0377C447.75 39.0377 448.259 38.7159 448.581 38.1797L449.305 38.8232C448.93 39.4667 448.152 39.9761 446.999 39.9761C445.283 39.9761 444.291 38.8232 444.318 37.0535V37.0803ZM445.524 36.5173V36.5977H448.313V36.4904C448.313 35.6056 447.777 35.0425 446.972 35.0425C446.168 35.0425 445.524 35.6592 445.524 36.5173Z" fill="#143109"/>
<path d="M461.907 39.9236C461.237 39.9236 460.915 39.5482 460.835 38.9852H460.781C460.567 39.6555 459.977 40.0577 459.092 40.0577C457.966 40.0577 457.242 39.4142 457.242 38.3685C457.242 37.3227 458.046 36.706 459.682 36.706H460.754V36.277C460.754 35.5263 460.352 35.1509 459.575 35.1509C458.851 35.1509 458.449 35.4458 458.127 35.9017L457.43 35.3386C457.751 34.7487 458.502 34.2393 459.682 34.2393C461.076 34.2393 461.934 34.9632 461.934 36.2234V39.012H462.631V39.9504H461.907V39.9236ZM460.754 38.2612V37.4568H459.709C458.851 37.4568 458.449 37.7249 458.422 38.2076V38.4221C458.422 38.9047 458.797 39.1728 459.441 39.1728C460.191 39.1728 460.754 38.7975 460.754 38.2612Z" fill="#143109"/>
<path d="M473.409 33.4618V39.9773H472.176V33.4618H469.843V32.4429H475.769V33.4618H473.409Z" fill="#143109"/>
<path d="M476.68 37.2131C476.68 35.4167 477.726 34.2905 479.308 34.2905C480.89 34.2905 481.855 35.4167 481.855 37.0523V37.4813H477.86V37.669C477.86 38.5538 478.423 39.1705 479.388 39.1705C480.112 39.1705 480.621 38.8487 480.943 38.3125L481.667 38.956C481.292 39.5995 480.514 40.1089 479.361 40.1089C477.645 40.1089 476.653 38.956 476.68 37.1863V37.2131ZM477.86 36.6769V36.7573H480.648V36.6501C480.648 35.7652 480.112 35.2022 479.308 35.2022C478.503 35.2022 477.86 35.8189 477.86 36.6769Z" fill="#143109"/>
<path d="M483.304 37.2415C483.304 35.4718 484.296 34.3457 485.958 34.3457C487.111 34.3457 487.781 34.882 488.13 35.6595L487.218 36.1422C487.031 35.6327 486.629 35.311 485.958 35.2842C485.073 35.2842 484.564 35.874 484.537 36.7589V37.6973C484.537 38.5822 485.047 39.172 485.958 39.172C486.655 39.172 487.058 38.8235 487.326 38.2872L488.184 38.8235C487.835 39.601 487.111 40.1373 485.931 40.1373C484.269 40.1373 483.304 38.9843 483.304 37.2147V37.2415Z" fill="#143109"/>
<path d="M489.845 40.0305V34.4534H491.052V35.3919H491.105C491.347 34.802 491.802 34.3193 492.714 34.3193C493.84 34.3193 494.591 35.0969 494.591 36.4376V40.0305H493.411V36.6253C493.411 35.7404 493.036 35.2846 492.285 35.2846C491.668 35.2846 491.078 35.5795 491.078 36.2499V40.0305H489.899H489.845Z" fill="#143109"/>
<path d="M496.039 37.2938C496.039 35.5241 497.058 34.3979 498.694 34.3979C500.329 34.3979 501.321 35.5509 501.321 37.3206C501.321 39.0902 500.303 40.2164 498.667 40.2164C497.031 40.2164 496.039 39.0634 496.039 37.2938ZM500.088 37.7228V36.8916C500.088 35.8459 499.525 35.3364 498.694 35.3096C497.863 35.2828 497.273 35.819 497.273 36.8647V37.6959C497.273 38.7417 497.836 39.2511 498.667 39.2779C499.498 39.3047 500.088 38.7685 500.088 37.7228Z" fill="#143109"/>
<path d="M502.716 39.1461H504.566L504.593 33.0595H502.743V32.0942H505.773L505.746 39.1461H507.596V40.1113H502.743V39.1461H502.716Z" fill="#143109"/>
<path d="M508.964 37.3489C508.964 35.5793 509.983 34.4531 511.619 34.4531C513.254 34.4531 514.246 35.6061 514.246 37.3757C514.246 39.1454 513.228 40.2715 511.592 40.2715C509.956 40.2715 508.964 39.1186 508.964 37.3489ZM513.013 37.7779V36.9467C513.013 35.901 512.45 35.3916 511.619 35.3648C510.788 35.338 510.198 35.8742 510.198 36.9199V37.7511C510.198 38.7968 510.761 39.3063 511.592 39.3331C512.423 39.3599 513.013 38.8236 513.013 37.7779Z" fill="#143109"/>
<path d="M518.053 42.4422C516.122 42.4422 515.479 41.9328 515.479 41.1016C515.479 40.4849 515.827 40.19 516.444 40.0291V39.9218C516.069 39.7878 515.827 39.5196 515.827 39.1174C515.827 38.5544 516.256 38.313 516.846 38.179V38.1254C516.176 37.8036 515.774 37.2137 515.774 36.4093C515.774 35.2296 516.685 34.452 518.053 34.4788C518.428 34.4788 518.804 34.5592 519.099 34.6665V34.4788C519.099 34.0498 519.34 33.728 519.849 33.728H520.868V34.6665H519.581V34.9078C520.064 35.2564 520.332 35.7658 520.332 36.4361C520.332 37.6159 519.42 38.3667 518.053 38.3667C517.812 38.3667 517.57 38.3667 517.356 38.2862C517.088 38.3399 516.766 38.5275 516.766 38.8225C516.766 39.1711 517.141 39.2247 517.624 39.2247H518.884C520.386 39.2247 521.002 39.8682 521.002 40.7798C521.002 41.9328 520.037 42.4691 518.08 42.4422H518.053ZM518.83 40.2436H516.9C516.632 40.3508 516.498 40.5653 516.498 40.8603C516.498 41.2893 516.819 41.6379 517.651 41.6379H518.535C519.42 41.6379 519.903 41.3697 519.903 40.8603C519.903 40.4849 519.635 40.2436 518.857 40.2436H518.83ZM519.152 36.5702V36.2753C519.152 35.6854 518.804 35.2832 518.053 35.2832C517.302 35.2832 516.953 35.6854 516.927 36.2753V36.5702C516.927 37.1601 517.275 37.5623 518.026 37.5623C518.777 37.5623 519.125 37.1601 519.152 36.5702Z" fill="#143109"/>
<path d="M522.396 39.226H524.3V35.5795H522.396V34.6142H525.48V39.2529H527.249V40.2181H522.396V39.2529V39.226ZM524.112 32.9786V32.7641C524.112 32.4156 524.327 32.1206 524.917 32.1206C525.507 32.1206 525.721 32.4156 525.721 32.7641V32.9786C525.721 33.3272 525.507 33.6221 524.917 33.6221C524.327 33.6221 524.112 33.3272 524.112 32.9786Z" fill="#143109"/>
<path d="M533.069 40.2444C532.399 40.2444 532.077 39.869 531.997 39.306H531.943C531.729 39.9763 531.139 40.3785 530.254 40.3785C529.128 40.3785 528.404 39.735 528.404 38.6893C528.404 37.6436 529.208 37.0269 530.844 37.0269H531.917V36.5978C531.917 35.8471 531.514 35.4717 530.737 35.4717C530.013 35.4717 529.611 35.7666 529.289 36.2225L528.592 35.6594C528.913 35.0695 529.664 34.5601 530.844 34.5601C532.238 34.5601 533.096 35.284 533.096 36.5442V39.3328H533.793V40.2712H533.069V40.2444ZM531.917 38.5552V37.7508H530.871C530.013 37.7508 529.611 38.0189 529.584 38.5016V38.7161C529.584 39.1987 529.959 39.4668 530.603 39.4668C531.353 39.4668 531.917 39.0915 531.917 38.5552Z" fill="#143109"/>
<path d="M381.307 16.5709H389.646V20.1907H381.307L381.227 36.1176H389.566V39.7373L370.314 39.6569V36.0639L377.205 36.0908L377.285 20.137H370.421V16.5173H375.811C376.615 16.5441 377.285 15.8738 377.285 15.0694V12.8171C377.285 11.9055 377.661 11.0206 378.304 10.3771L382.165 6.54286C382.809 5.89935 383.694 5.55078 384.605 5.55078H389.7V9.14372H381.361L381.334 16.5709H381.307Z" fill="#143109"/>
<path d="M401.042 5.6582H409.756V9.27796L397.744 9.22433L397.664 26.7064L409.676 26.76V30.353L400.962 30.3261C400.05 30.3261 399.165 29.9508 398.522 29.3073L394.634 25.3657C393.99 24.7222 393.642 23.8374 393.642 22.9258L393.695 13.005C393.695 12.0933 394.071 11.2085 394.714 10.565L398.656 6.6771C399.299 6.03359 400.184 5.68502 401.096 5.68502L401.042 5.6582Z" fill="#143109"/>
<path d="M420.186 23.3541L420.24 9.33092H413.483V5.71116H418.765C419.569 5.73798 420.24 5.06765 420.24 4.26326V0H424.315V5.73798L433.056 5.76479V9.35773L424.289 9.33092L424.208 26.813H432.976V30.4327H426.755C425.763 30.4059 424.825 29.9769 424.154 29.2261L421.044 25.6332C420.508 24.9897 420.186 24.1853 420.213 23.3541H420.186Z" fill="#143109"/>
<path d="M393.521 36.1732L393.506 39.7661L432.894 39.938L432.909 36.3451L393.521 36.1732Z" fill="#143109"/>
</g>
<defs>
<clipPath id="clip0_239_56">
<rect width="533.846" height="85.2921" fill="white"/>
</clipPath>
</defs>
</svg>
